<?xml version="1.0" encoding="utf-8" standalone="no"?>
<!DOCTYPE svg PUBLIC "-//W3C//DTD SVG 1.1//EN"
  "http://www.w3.org/Graphics/SVG/1.1/DTD/svg11.dtd">
<svg height="288pt" version="1.1" viewBox="0 0 432 288" width="432pt" xmlns="http://www.w3.org/2000/svg" xmlns:xlink="http://www.w3.org/1999/xlink">
 <metadata>
  <rdf:RDF xmlns:cc="http://creativecommons.org/ns#" xmlns:dc="http://purl.org/dc/elements/1.1/" xmlns:rdf="http://www.w3.org/1999/02/22-rdf-syntax-ns#">
   <cc:Work>
    <dc:type rdf:resource="http://purl.org/dc/dcmitype/StillImage"/>
    <dc:date>2021-11-30T10:24:20.412899</dc:date>
    <dc:format>image/svg+xml</dc:format>
    <dc:creator>
     <cc:Agent>
      <dc:title>Matplotlib v3.4.2, https://matplotlib.org/</dc:title>
     </cc:Agent>
    </dc:creator>
   </cc:Work>
  </rdf:RDF>
 </metadata>
 <defs>
  <style type="text/css">*{stroke-linecap:butt;stroke-linejoin:round;}</style>
 </defs>
 <g id="figure_1">
  <g id="patch_1">
   <path d="M 0 288 
L 432 288 
L 432 0 
L 0 0 
z
" style="fill:#ffffff;"/>
  </g>
  <g id="axes_1">
   <g id="patch_2">
    <path d="M 32.19834 258.225354 
L 429.165354 258.225354 
L 429.165354 2.834646 
L 32.19834 2.834646 
z
" style="fill:#ffffff;"/>
   </g>
   <g id="matplotlib.axis_1">
    <g id="xtick_1">
     <g id="line2d_1">
      <path clip-path="url(#pba10631ecd)" d="M 43.433255 258.225354 
L 43.433255 2.834646 
" style="fill:none;stroke:#000000;stroke-linecap:square;stroke-opacity:0.1;stroke-width:0.5;"/>
     </g>
     <g id="line2d_2">
      <defs>
       <path d="M 0 0 
L 0 -2.5 
" id="md6f59cafc2" style="stroke:#000000;stroke-width:0.5;"/>
      </defs>
      <g>
       <use style="stroke:#000000;stroke-width:0.5;" x="43.433255" xlink:href="#md6f59cafc2" y="258.225354"/>
      </g>
     </g>
     <g id="text_1">
      <!-- $\mathregular{0}$ -->
      <g transform="translate(40.873255 267.804104)scale(0.08 -0.08)">
       <defs>
        <path d="M 2034 4250 
Q 1547 4250 1301 3770 
Q 1056 3291 1056 2328 
Q 1056 1369 1301 889 
Q 1547 409 2034 409 
Q 2525 409 2770 889 
Q 3016 1369 3016 2328 
Q 3016 3291 2770 3770 
Q 2525 4250 2034 4250 
z
M 2034 4750 
Q 2819 4750 3233 4129 
Q 3647 3509 3647 2328 
Q 3647 1150 3233 529 
Q 2819 -91 2034 -91 
Q 1250 -91 836 529 
Q 422 1150 422 2328 
Q 422 3509 836 4129 
Q 1250 4750 2034 4750 
z
" id="DejaVuSans-30" transform="scale(0.015625)"/>
       </defs>
       <use transform="translate(0 0.78125)" xlink:href="#DejaVuSans-30"/>
      </g>
     </g>
    </g>
    <g id="xtick_2">
     <g id="line2d_3">
      <path clip-path="url(#pba10631ecd)" d="M 168.26565 258.225354 
L 168.26565 2.834646 
" style="fill:none;stroke:#000000;stroke-linecap:square;stroke-opacity:0.1;stroke-width:0.5;"/>
     </g>
     <g id="line2d_4">
      <g>
       <use style="stroke:#000000;stroke-width:0.5;" x="168.26565" xlink:href="#md6f59cafc2" y="258.225354"/>
      </g>
     </g>
     <g id="text_2">
      <!-- $\mathregular{10}$ -->
      <g transform="translate(163.14565 267.804104)scale(0.08 -0.08)">
       <defs>
        <path d="M 794 531 
L 1825 531 
L 1825 4091 
L 703 3866 
L 703 4441 
L 1819 4666 
L 2450 4666 
L 2450 531 
L 3481 531 
L 3481 0 
L 794 0 
L 794 531 
z
" id="DejaVuSans-31" transform="scale(0.015625)"/>
       </defs>
       <use transform="translate(0 0.78125)" xlink:href="#DejaVuSans-31"/>
       <use transform="translate(63.623047 0.78125)" xlink:href="#DejaVuSans-30"/>
      </g>
     </g>
    </g>
    <g id="xtick_3">
     <g id="line2d_5">
      <path clip-path="url(#pba10631ecd)" d="M 293.098044 258.225354 
L 293.098044 2.834646 
" style="fill:none;stroke:#000000;stroke-linecap:square;stroke-opacity:0.1;stroke-width:0.5;"/>
     </g>
     <g id="line2d_6">
      <g>
       <use style="stroke:#000000;stroke-width:0.5;" x="293.098044" xlink:href="#md6f59cafc2" y="258.225354"/>
      </g>
     </g>
     <g id="text_3">
      <!-- $\mathregular{20}$ -->
      <g transform="translate(287.978044 267.804104)scale(0.08 -0.08)">
       <defs>
        <path d="M 1228 531 
L 3431 531 
L 3431 0 
L 469 0 
L 469 531 
Q 828 903 1448 1529 
Q 2069 2156 2228 2338 
Q 2531 2678 2651 2914 
Q 2772 3150 2772 3378 
Q 2772 3750 2511 3984 
Q 2250 4219 1831 4219 
Q 1534 4219 1204 4116 
Q 875 4013 500 3803 
L 500 4441 
Q 881 4594 1212 4672 
Q 1544 4750 1819 4750 
Q 2544 4750 2975 4387 
Q 3406 4025 3406 3419 
Q 3406 3131 3298 2873 
Q 3191 2616 2906 2266 
Q 2828 2175 2409 1742 
Q 1991 1309 1228 531 
z
" id="DejaVuSans-32" transform="scale(0.015625)"/>
       </defs>
       <use transform="translate(0 0.78125)" xlink:href="#DejaVuSans-32"/>
       <use transform="translate(63.623047 0.78125)" xlink:href="#DejaVuSans-30"/>
      </g>
     </g>
    </g>
    <g id="xtick_4">
     <g id="line2d_7">
      <path clip-path="url(#pba10631ecd)" d="M 417.930439 258.225354 
L 417.930439 2.834646 
" style="fill:none;stroke:#000000;stroke-linecap:square;stroke-opacity:0.1;stroke-width:0.5;"/>
     </g>
     <g id="line2d_8">
      <g>
       <use style="stroke:#000000;stroke-width:0.5;" x="417.930439" xlink:href="#md6f59cafc2" y="258.225354"/>
      </g>
     </g>
     <g id="text_4">
      <!-- $\mathregular{30}$ -->
      <g transform="translate(412.810439 267.804104)scale(0.08 -0.08)">
       <defs>
        <path d="M 2597 2516 
Q 3050 2419 3304 2112 
Q 3559 1806 3559 1356 
Q 3559 666 3084 287 
Q 2609 -91 1734 -91 
Q 1441 -91 1130 -33 
Q 819 25 488 141 
L 488 750 
Q 750 597 1062 519 
Q 1375 441 1716 441 
Q 2309 441 2620 675 
Q 2931 909 2931 1356 
Q 2931 1769 2642 2001 
Q 2353 2234 1838 2234 
L 1294 2234 
L 1294 2753 
L 1863 2753 
Q 2328 2753 2575 2939 
Q 2822 3125 2822 3475 
Q 2822 3834 2567 4026 
Q 2313 4219 1838 4219 
Q 1578 4219 1281 4162 
Q 984 4106 628 3988 
L 628 4550 
Q 988 4650 1302 4700 
Q 1616 4750 1894 4750 
Q 2613 4750 3031 4423 
Q 3450 4097 3450 3541 
Q 3450 3153 3228 2886 
Q 3006 2619 2597 2516 
z
" id="DejaVuSans-33" transform="scale(0.015625)"/>
       </defs>
       <use transform="translate(0 0.78125)" xlink:href="#DejaVuSans-33"/>
       <use transform="translate(63.623047 0.78125)" xlink:href="#DejaVuSans-30"/>
      </g>
     </g>
    </g>
    <g id="text_5">
     <!-- time -->
     <g transform="translate(218.256144 281.826136)scale(0.11 -0.11)">
      <defs>
       <path d="M 1172 4494 
L 1172 3500 
L 2356 3500 
L 2356 3053 
L 1172 3053 
L 1172 1153 
Q 1172 725 1289 603 
Q 1406 481 1766 481 
L 2356 481 
L 2356 0 
L 1766 0 
Q 1100 0 847 248 
Q 594 497 594 1153 
L 594 3053 
L 172 3053 
L 172 3500 
L 594 3500 
L 594 4494 
L 1172 4494 
z
" id="DejaVuSans-74" transform="scale(0.015625)"/>
       <path d="M 603 3500 
L 1178 3500 
L 1178 0 
L 603 0 
L 603 3500 
z
M 603 4863 
L 1178 4863 
L 1178 4134 
L 603 4134 
L 603 4863 
z
" id="DejaVuSans-69" transform="scale(0.015625)"/>
       <path d="M 3328 2828 
Q 3544 3216 3844 3400 
Q 4144 3584 4550 3584 
Q 5097 3584 5394 3201 
Q 5691 2819 5691 2113 
L 5691 0 
L 5113 0 
L 5113 2094 
Q 5113 2597 4934 2840 
Q 4756 3084 4391 3084 
Q 3944 3084 3684 2787 
Q 3425 2491 3425 1978 
L 3425 0 
L 2847 0 
L 2847 2094 
Q 2847 2600 2669 2842 
Q 2491 3084 2119 3084 
Q 1678 3084 1418 2786 
Q 1159 2488 1159 1978 
L 1159 0 
L 581 0 
L 581 3500 
L 1159 3500 
L 1159 2956 
Q 1356 3278 1631 3431 
Q 1906 3584 2284 3584 
Q 2666 3584 2933 3390 
Q 3200 3197 3328 2828 
z
" id="DejaVuSans-6d" transform="scale(0.015625)"/>
       <path d="M 3597 1894 
L 3597 1613 
L 953 1613 
Q 991 1019 1311 708 
Q 1631 397 2203 397 
Q 2534 397 2845 478 
Q 3156 559 3463 722 
L 3463 178 
Q 3153 47 2828 -22 
Q 2503 -91 2169 -91 
Q 1331 -91 842 396 
Q 353 884 353 1716 
Q 353 2575 817 3079 
Q 1281 3584 2069 3584 
Q 2775 3584 3186 3129 
Q 3597 2675 3597 1894 
z
M 3022 2063 
Q 3016 2534 2758 2815 
Q 2500 3097 2075 3097 
Q 1594 3097 1305 2825 
Q 1016 2553 972 2059 
L 3022 2063 
z
" id="DejaVuSans-65" transform="scale(0.015625)"/>
      </defs>
      <use xlink:href="#DejaVuSans-74"/>
      <use x="39.208984" xlink:href="#DejaVuSans-69"/>
      <use x="66.992188" xlink:href="#DejaVuSans-6d"/>
      <use x="164.404297" xlink:href="#DejaVuSans-65"/>
     </g>
    </g>
   </g>
   <g id="matplotlib.axis_2">
    <g id="ytick_1">
     <g id="line2d_9">
      <path clip-path="url(#pba10631ecd)" d="M 32.19834 250.997315 
L 429.165354 250.997315 
" style="fill:none;stroke:#000000;stroke-linecap:square;stroke-opacity:0.1;stroke-width:0.5;"/>
     </g>
     <g id="line2d_10">
      <defs>
       <path d="M 0 0 
L 2.5 0 
" id="mfb6b5cc0fd" style="stroke:#000000;stroke-width:0.5;"/>
      </defs>
      <g>
       <use style="stroke:#000000;stroke-width:0.5;" x="32.19834" xlink:href="#mfb6b5cc0fd" y="250.997315"/>
      </g>
     </g>
     <g id="text_6">
      <!-- $\mathregular{0}$ -->
      <g transform="translate(23.57834 254.03669)scale(0.08 -0.08)">
       <use transform="translate(0 0.78125)" xlink:href="#DejaVuSans-30"/>
      </g>
     </g>
    </g>
    <g id="ytick_2">
     <g id="line2d_11">
      <path clip-path="url(#pba10631ecd)" d="M 32.19834 214.091981 
L 429.165354 214.091981 
" style="fill:none;stroke:#000000;stroke-linecap:square;stroke-opacity:0.1;stroke-width:0.5;"/>
     </g>
     <g id="line2d_12">
      <g>
       <use style="stroke:#000000;stroke-width:0.5;" x="32.19834" xlink:href="#mfb6b5cc0fd" y="214.091981"/>
      </g>
     </g>
     <g id="text_7">
      <!-- $\mathregular{2}$ -->
      <g transform="translate(23.57834 217.131356)scale(0.08 -0.08)">
       <use transform="translate(0 0.78125)" xlink:href="#DejaVuSans-32"/>
      </g>
     </g>
    </g>
    <g id="ytick_3">
     <g id="line2d_13">
      <path clip-path="url(#pba10631ecd)" d="M 32.19834 177.186646 
L 429.165354 177.186646 
" style="fill:none;stroke:#000000;stroke-linecap:square;stroke-opacity:0.1;stroke-width:0.5;"/>
     </g>
     <g id="line2d_14">
      <g>
       <use style="stroke:#000000;stroke-width:0.5;" x="32.19834" xlink:href="#mfb6b5cc0fd" y="177.186646"/>
      </g>
     </g>
     <g id="text_8">
      <!-- $\mathregular{4}$ -->
      <g transform="translate(23.57834 180.226021)scale(0.08 -0.08)">
       <defs>
        <path d="M 2419 4116 
L 825 1625 
L 2419 1625 
L 2419 4116 
z
M 2253 4666 
L 3047 4666 
L 3047 1625 
L 3713 1625 
L 3713 1100 
L 3047 1100 
L 3047 0 
L 2419 0 
L 2419 1100 
L 313 1100 
L 313 1709 
L 2253 4666 
z
" id="DejaVuSans-34" transform="scale(0.015625)"/>
       </defs>
       <use transform="translate(0 0.09375)" xlink:href="#DejaVuSans-34"/>
      </g>
     </g>
    </g>
    <g id="ytick_4">
     <g id="line2d_15">
      <path clip-path="url(#pba10631ecd)" d="M 32.19834 140.281312 
L 429.165354 140.281312 
" style="fill:none;stroke:#000000;stroke-linecap:square;stroke-opacity:0.1;stroke-width:0.5;"/>
     </g>
     <g id="line2d_16">
      <g>
       <use style="stroke:#000000;stroke-width:0.5;" x="32.19834" xlink:href="#mfb6b5cc0fd" y="140.281312"/>
      </g>
     </g>
     <g id="text_9">
      <!-- $\mathregular{6}$ -->
      <g transform="translate(23.57834 143.320687)scale(0.08 -0.08)">
       <defs>
        <path d="M 2113 2584 
Q 1688 2584 1439 2293 
Q 1191 2003 1191 1497 
Q 1191 994 1439 701 
Q 1688 409 2113 409 
Q 2538 409 2786 701 
Q 3034 994 3034 1497 
Q 3034 2003 2786 2293 
Q 2538 2584 2113 2584 
z
M 3366 4563 
L 3366 3988 
Q 3128 4100 2886 4159 
Q 2644 4219 2406 4219 
Q 1781 4219 1451 3797 
Q 1122 3375 1075 2522 
Q 1259 2794 1537 2939 
Q 1816 3084 2150 3084 
Q 2853 3084 3261 2657 
Q 3669 2231 3669 1497 
Q 3669 778 3244 343 
Q 2819 -91 2113 -91 
Q 1303 -91 875 529 
Q 447 1150 447 2328 
Q 447 3434 972 4092 
Q 1497 4750 2381 4750 
Q 2619 4750 2861 4703 
Q 3103 4656 3366 4563 
z
" id="DejaVuSans-36" transform="scale(0.015625)"/>
       </defs>
       <use transform="translate(0 0.78125)" xlink:href="#DejaVuSans-36"/>
      </g>
     </g>
    </g>
    <g id="ytick_5">
     <g id="line2d_17">
      <path clip-path="url(#pba10631ecd)" d="M 32.19834 103.375978 
L 429.165354 103.375978 
" style="fill:none;stroke:#000000;stroke-linecap:square;stroke-opacity:0.1;stroke-width:0.5;"/>
     </g>
     <g id="line2d_18">
      <g>
       <use style="stroke:#000000;stroke-width:0.5;" x="32.19834" xlink:href="#mfb6b5cc0fd" y="103.375978"/>
      </g>
     </g>
     <g id="text_10">
      <!-- $\mathregular{8}$ -->
      <g transform="translate(23.57834 106.415353)scale(0.08 -0.08)">
       <defs>
        <path d="M 2034 2216 
Q 1584 2216 1326 1975 
Q 1069 1734 1069 1313 
Q 1069 891 1326 650 
Q 1584 409 2034 409 
Q 2484 409 2743 651 
Q 3003 894 3003 1313 
Q 3003 1734 2745 1975 
Q 2488 2216 2034 2216 
z
M 1403 2484 
Q 997 2584 770 2862 
Q 544 3141 544 3541 
Q 544 4100 942 4425 
Q 1341 4750 2034 4750 
Q 2731 4750 3128 4425 
Q 3525 4100 3525 3541 
Q 3525 3141 3298 2862 
Q 3072 2584 2669 2484 
Q 3125 2378 3379 2068 
Q 3634 1759 3634 1313 
Q 3634 634 3220 271 
Q 2806 -91 2034 -91 
Q 1263 -91 848 271 
Q 434 634 434 1313 
Q 434 1759 690 2068 
Q 947 2378 1403 2484 
z
M 1172 3481 
Q 1172 3119 1398 2916 
Q 1625 2713 2034 2713 
Q 2441 2713 2670 2916 
Q 2900 3119 2900 3481 
Q 2900 3844 2670 4047 
Q 2441 4250 2034 4250 
Q 1625 4250 1398 4047 
Q 1172 3844 1172 3481 
z
" id="DejaVuSans-38" transform="scale(0.015625)"/>
       </defs>
       <use transform="translate(0 0.78125)" xlink:href="#DejaVuSans-38"/>
      </g>
     </g>
    </g>
    <g id="ytick_6">
     <g id="line2d_19">
      <path clip-path="url(#pba10631ecd)" d="M 32.19834 66.470643 
L 429.165354 66.470643 
" style="fill:none;stroke:#000000;stroke-linecap:square;stroke-opacity:0.1;stroke-width:0.5;"/>
     </g>
     <g id="line2d_20">
      <g>
       <use style="stroke:#000000;stroke-width:0.5;" x="32.19834" xlink:href="#mfb6b5cc0fd" y="66.470643"/>
      </g>
     </g>
     <g id="text_11">
      <!-- $\mathregular{10}$ -->
      <g transform="translate(18.45834 69.510018)scale(0.08 -0.08)">
       <use transform="translate(0 0.78125)" xlink:href="#DejaVuSans-31"/>
       <use transform="translate(63.623047 0.78125)" xlink:href="#DejaVuSans-30"/>
      </g>
     </g>
    </g>
    <g id="ytick_7">
     <g id="line2d_21">
      <path clip-path="url(#pba10631ecd)" d="M 32.19834 29.565309 
L 429.165354 29.565309 
" style="fill:none;stroke:#000000;stroke-linecap:square;stroke-opacity:0.1;stroke-width:0.5;"/>
     </g>
     <g id="line2d_22">
      <g>
       <use style="stroke:#000000;stroke-width:0.5;" x="32.19834" xlink:href="#mfb6b5cc0fd" y="29.565309"/>
      </g>
     </g>
     <g id="text_12">
      <!-- $\mathregular{12}$ -->
      <g transform="translate(18.45834 32.604684)scale(0.08 -0.08)">
       <use transform="translate(0 0.78125)" xlink:href="#DejaVuSans-31"/>
       <use transform="translate(63.623047 0.78125)" xlink:href="#DejaVuSans-32"/>
      </g>
     </g>
    </g>
    <g id="text_13">
     <!-- Mean Value -->
     <g transform="translate(12.170683 162.368125)rotate(-90)scale(0.11 -0.11)">
      <defs>
       <path d="M 628 4666 
L 1569 4666 
L 2759 1491 
L 3956 4666 
L 4897 4666 
L 4897 0 
L 4281 0 
L 4281 4097 
L 3078 897 
L 2444 897 
L 1241 4097 
L 1241 0 
L 628 0 
L 628 4666 
z
" id="DejaVuSans-4d" transform="scale(0.015625)"/>
       <path d="M 2194 1759 
Q 1497 1759 1228 1600 
Q 959 1441 959 1056 
Q 959 750 1161 570 
Q 1363 391 1709 391 
Q 2188 391 2477 730 
Q 2766 1069 2766 1631 
L 2766 1759 
L 2194 1759 
z
M 3341 1997 
L 3341 0 
L 2766 0 
L 2766 531 
Q 2569 213 2275 61 
Q 1981 -91 1556 -91 
Q 1019 -91 701 211 
Q 384 513 384 1019 
Q 384 1609 779 1909 
Q 1175 2209 1959 2209 
L 2766 2209 
L 2766 2266 
Q 2766 2663 2505 2880 
Q 2244 3097 1772 3097 
Q 1472 3097 1187 3025 
Q 903 2953 641 2809 
L 641 3341 
Q 956 3463 1253 3523 
Q 1550 3584 1831 3584 
Q 2591 3584 2966 3190 
Q 3341 2797 3341 1997 
z
" id="DejaVuSans-61" transform="scale(0.015625)"/>
       <path d="M 3513 2113 
L 3513 0 
L 2938 0 
L 2938 2094 
Q 2938 2591 2744 2837 
Q 2550 3084 2163 3084 
Q 1697 3084 1428 2787 
Q 1159 2491 1159 1978 
L 1159 0 
L 581 0 
L 581 3500 
L 1159 3500 
L 1159 2956 
Q 1366 3272 1645 3428 
Q 1925 3584 2291 3584 
Q 2894 3584 3203 3211 
Q 3513 2838 3513 2113 
z
" id="DejaVuSans-6e" transform="scale(0.015625)"/>
       <path id="DejaVuSans-20" transform="scale(0.015625)"/>
       <path d="M 1831 0 
L 50 4666 
L 709 4666 
L 2188 738 
L 3669 4666 
L 4325 4666 
L 2547 0 
L 1831 0 
z
" id="DejaVuSans-56" transform="scale(0.015625)"/>
       <path d="M 603 4863 
L 1178 4863 
L 1178 0 
L 603 0 
L 603 4863 
z
" id="DejaVuSans-6c" transform="scale(0.015625)"/>
       <path d="M 544 1381 
L 544 3500 
L 1119 3500 
L 1119 1403 
Q 1119 906 1312 657 
Q 1506 409 1894 409 
Q 2359 409 2629 706 
Q 2900 1003 2900 1516 
L 2900 3500 
L 3475 3500 
L 3475 0 
L 2900 0 
L 2900 538 
Q 2691 219 2414 64 
Q 2138 -91 1772 -91 
Q 1169 -91 856 284 
Q 544 659 544 1381 
z
M 1991 3584 
L 1991 3584 
z
" id="DejaVuSans-75" transform="scale(0.015625)"/>
      </defs>
      <use xlink:href="#DejaVuSans-4d"/>
      <use x="86.279297" xlink:href="#DejaVuSans-65"/>
      <use x="147.802734" xlink:href="#DejaVuSans-61"/>
      <use x="209.082031" xlink:href="#DejaVuSans-6e"/>
      <use x="272.460938" xlink:href="#DejaVuSans-20"/>
      <use x="304.248047" xlink:href="#DejaVuSans-56"/>
      <use x="364.90625" xlink:href="#DejaVuSans-61"/>
      <use x="426.185547" xlink:href="#DejaVuSans-6c"/>
      <use x="453.96875" xlink:href="#DejaVuSans-75"/>
      <use x="517.347656" xlink:href="#DejaVuSans-65"/>
     </g>
    </g>
   </g>
   <g id="line2d_23">
    <path clip-path="url(#pba10631ecd)" d="M 43.433255 250.997315 
L 45.929903 244.041917 
L 48.426551 237.873032 
L 50.923199 232.401722 
L 53.419847 227.549105 
L 55.916494 223.24522 
L 58.413142 219.428016 
L 60.90979 216.04246 
L 63.406438 213.039741 
L 65.903086 210.376569 
L 68.399734 208.014547 
L 70.896382 205.919621 
L 73.39303 204.061588 
L 75.889678 202.413661 
L 79.634649 200.28449 
L 83.379621 198.506056 
L 87.124593 197.020584 
L 90.869565 195.779813 
L 94.614537 194.743434 
L 99.607833 193.622161 
L 104.601128 192.740137 
L 110.842748 191.897352 
L 117.084368 191.273002 
L 124.574312 190.733482 
L 134.560903 190.258846 
L 147.044143 189.911241 
L 164.520678 189.670959 
L 193.232129 189.534346 
L 265.634917 189.489839 
L 417.930439 189.488426 
L 417.930439 189.488426 
" style="fill:none;stroke:#009afa;stroke-width:3;"/>
   </g>
   <g id="line2d_24">
    <path clip-path="url(#pba10631ecd)" d="M 43.433255 250.997315 
L 45.929903 243.857978 
L 48.426551 237.613596 
L 50.923199 232.181131 
L 53.419847 227.411116 
L 55.916494 223.264802 
L 58.413142 219.55397 
L 62.158114 214.649251 
L 63.406438 213.0125 
L 68.399734 208.037661 
L 69.648058 207.109492 
L 70.896382 205.978343 
L 75.889678 202.343168 
L 77.138002 201.606906 
L 78.386326 201.101303 
L 82.131297 198.842697 
L 83.379621 198.250366 
L 85.876269 197.447675 
L 89.621241 196.23349 
L 90.869565 195.628242 
L 92.117889 195.384667 
L 93.366213 194.891981 
L 94.614537 194.655787 
L 95.862861 194.192625 
L 97.111185 193.856786 
L 99.607833 193.537555 
L 102.10448 192.862187 
L 103.352804 192.873259 
L 105.849452 192.443312 
L 107.097776 192.319679 
L 109.594424 191.710741 
L 114.58772 191.369367 
L 115.836044 191.15347 
L 123.325988 190.856382 
L 124.574312 190.662629 
L 128.319283 190.651558 
L 129.567607 190.289885 
L 130.815931 190.25298 
L 132.064255 190.363696 
L 133.312579 190.160717 
L 135.809227 190.304648 
L 137.057551 190.511317 
L 138.305875 190.455959 
L 139.554199 190.267742 
L 144.547495 190.232682 
L 147.044143 190.251135 
L 150.789114 190.050001 
L 153.285762 190.070299 
L 155.78241 189.642197 
L 158.279058 189.621899 
L 159.527382 189.878391 
L 160.775706 189.950356 
L 162.02403 189.887617 
L 164.520678 190.044465 
L 167.017326 189.686483 
L 169.513974 189.640352 
L 170.762298 189.819342 
L 172.010621 189.725234 
L 177.003917 190.123811 
L 181.997213 190.005714 
L 183.245537 189.767675 
L 185.742185 189.516719 
L 186.990509 189.227012 
L 188.238833 189.190107 
L 190.735481 189.573922 
L 196.9771 189.32112 
L 201.970396 189.577613 
L 205.715368 189.389395 
L 210.708664 189.62928 
L 211.956988 189.90607 
L 220.695255 189.271298 
L 221.943579 189.463206 
L 223.191903 189.5241 
L 225.688551 189.435527 
L 226.936875 189.704936 
L 233.178495 189.156892 
L 235.675143 189.225167 
L 236.923467 189.269453 
L 238.171791 189.064628 
L 240.668438 189.291596 
L 241.916762 189.21594 
L 243.165086 189.393086 
L 245.661734 189.326656 
L 246.910058 189.592375 
L 249.406706 189.197488 
L 250.65503 189.28237 
L 253.151678 189.14213 
L 254.400002 189.271298 
L 255.648326 189.201178 
L 259.393298 189.223321 
L 260.641622 189.535171 
L 261.889946 189.618208 
L 263.13827 189.461361 
L 271.876537 189.302668 
L 275.621509 189.184571 
L 281.863129 189.466897 
L 283.111453 189.334037 
L 286.856424 189.437372 
L 288.104748 189.605292 
L 289.353072 189.437372 
L 290.601396 189.621899 
L 291.84972 189.59422 
L 294.346368 189.204869 
L 295.594692 189.203023 
L 298.09134 189.575767 
L 306.829608 189.42261 
L 308.077932 189.127367 
L 310.574579 189.308204 
L 314.319551 189.442908 
L 315.567875 189.732615 
L 323.057819 189.891308 
L 324.306143 190.072144 
L 325.554467 189.913451 
L 326.802791 190.097978 
L 328.051115 189.867319 
L 329.299439 190.04631 
L 330.547763 190.061072 
L 333.04441 189.782437 
L 335.541058 189.736305 
L 336.789382 189.363562 
L 338.037706 189.164273 
L 339.28603 189.265762 
L 341.782678 189.156892 
L 344.279326 189.204869 
L 345.52765 189.265762 
L 346.775974 189.127367 
L 348.024298 189.243619 
L 350.520946 189.171654 
L 354.265918 189.407848 
L 355.514242 189.341418 
L 360.507537 189.852557 
L 363.004185 189.749222 
L 364.252509 189.784282 
L 365.500833 189.950356 
L 372.990777 190.11274 
L 374.239101 189.898689 
L 375.487425 189.837795 
L 376.735749 189.922677 
L 379.232396 189.830414 
L 381.729044 189.996488 
L 382.977368 189.73077 
L 390.467312 189.544398 
L 391.715636 189.69571 
L 392.96396 189.721543 
L 394.212284 189.863629 
L 395.460608 190.121966 
L 396.708932 190.171788 
L 400.453904 189.878391 
L 401.702228 189.915296 
L 402.950551 190.110895 
L 404.198875 190.009405 
L 405.447199 190.114585 
L 406.695523 190.107204 
L 407.943847 189.950356 
L 410.440495 189.909761 
L 411.688819 190.134883 
L 412.937143 190.175479 
L 414.185467 190.070299 
L 415.433791 190.145955 
L 416.682115 189.955892 
L 417.930439 189.981726 
L 417.930439 189.981726 
" style="fill:none;stroke:#e36f47;stroke-dasharray:11.1,4.8;stroke-dashoffset:0;stroke-width:3;"/>
   </g>
   <g id="patch_3">
    <path d="M 32.19834 258.225354 
L 32.19834 2.834646 
" style="fill:none;stroke:#000000;stroke-linecap:square;stroke-linejoin:miter;"/>
   </g>
   <g id="patch_4">
    <path d="M 32.19834 258.225354 
L 429.165354 258.225354 
" style="fill:none;stroke:#000000;stroke-linecap:square;stroke-linejoin:miter;"/>
   </g>
   <g id="line2d_25">
    <path clip-path="url(#pba10631ecd)" d="M 43.433255 250.997315 
L 44.681579 250.907172 
L 45.929903 250.644968 
L 47.178227 250.222487 
L 48.426551 249.65081 
L 49.674875 248.940355 
L 52.171523 247.141698 
L 54.668171 244.898024 
L 57.164818 242.272493 
L 59.661466 239.320872 
L 62.158114 236.09237 
L 65.903086 230.823983 
L 69.648058 225.154444 
L 74.641354 217.147407 
L 80.882973 206.686952 
L 107.097776 162.183753 
L 114.58772 150.149811 
L 120.82934 140.492451 
L 127.070959 131.196357 
L 133.312579 122.272349 
L 139.554199 113.723348 
L 145.795819 105.546675 
L 152.037438 97.735733 
L 158.279058 90.281251 
L 164.520678 83.172191 
L 170.762298 76.396406 
L 177.003917 69.941125 
L 183.245537 63.793298 
L 189.487157 57.939841 
L 195.728776 52.367813 
L 201.970396 47.064538 
L 208.212016 42.017686 
L 214.453636 37.215326 
L 221.943579 31.759067 
L 229.433523 26.619334 
L 233.178495 24.241102 
L 236.923467 22.237033 
L 240.668438 20.563093 
L 244.41341 19.164902 
L 248.158382 17.997034 
L 251.903354 17.021549 
L 256.89665 15.966158 
L 261.889946 15.135958 
L 268.131565 14.342693 
L 275.621509 13.657208 
L 284.359777 13.114689 
L 295.594692 12.681004 
L 309.326256 12.388361 
L 330.547763 12.188191 
L 369.245805 12.092878 
L 417.930439 12.076998 
L 417.930439 12.076998 
" style="fill:none;stroke:#3ea44e;stroke-width:3;"/>
   </g>
   <g id="line2d_26">
    <path clip-path="url(#pba10631ecd)" d="M 43.433255 250.997315 
L 44.681579 250.903207 
L 45.929903 250.6135 
L 47.178227 250.198315 
L 48.426551 249.61152 
L 50.923199 248.09102 
L 53.419847 246.015095 
L 55.916494 243.42065 
L 58.413142 240.599237 
L 62.158114 235.906724 
L 63.406438 234.264437 
L 70.896382 223.07843 
L 83.379621 202.815556 
L 87.124593 196.041582 
L 89.621241 191.646157 
L 92.117889 187.38359 
L 97.111185 178.585359 
L 100.856157 172.208117 
L 122.077664 138.502475 
L 127.070959 131.143551 
L 129.567607 127.696593 
L 134.560903 120.701187 
L 138.305875 115.25765 
L 142.050847 110.280966 
L 144.547495 106.859841 
L 153.285762 96.094555 
L 158.279058 90.357621 
L 162.02403 85.631893 
L 164.520678 82.701609 
L 172.010621 74.955179 
L 175.755593 70.784877 
L 180.748889 65.592296 
L 181.997213 64.446385 
L 183.245537 63.486847 
L 184.493861 62.276352 
L 185.742185 61.292825 
L 189.487157 57.803425 
L 190.735481 56.482214 
L 193.232129 54.218072 
L 194.480452 53.205021 
L 195.728776 51.974228 
L 196.9771 50.950105 
L 199.473748 48.626914 
L 200.722072 47.676601 
L 204.467044 44.248096 
L 205.715368 43.410345 
L 210.708664 39.293555 
L 211.956988 38.140263 
L 214.453636 36.25071 
L 215.70196 35.488615 
L 216.950284 34.455265 
L 225.688551 28.419398 
L 226.936875 27.369441 
L 228.185199 26.782646 
L 230.681847 25.160657 
L 231.930171 24.566481 
L 233.178495 23.664146 
L 234.426819 22.957408 
L 236.923467 21.1675 
L 238.171791 20.647135 
L 239.420115 19.960695 
L 240.668438 19.423723 
L 243.165086 18.191085 
L 244.41341 17.74453 
L 245.661734 17.427144 
L 246.910058 16.886481 
L 248.158382 16.57094 
L 249.406706 16.390104 
L 250.65503 15.971229 
L 253.151678 15.373362 
L 255.648326 14.720138 
L 256.89665 14.585433 
L 265.634917 12.62576 
L 271.876537 11.933785 
L 274.373185 11.747413 
L 276.869833 11.540743 
L 278.118157 11.191988 
L 280.614805 10.952103 
L 281.863129 11.062819 
L 284.359777 10.990854 
L 288.104748 10.72329 
L 289.353072 10.85984 
L 293.098044 10.977937 
L 294.346368 11.153237 
L 296.843016 11.016687 
L 298.09134 10.846923 
L 299.339664 10.881983 
L 300.587988 10.791565 
L 301.836312 10.872757 
L 304.33296 10.846923 
L 308.077932 11.300859 
L 310.574579 10.957639 
L 316.816199 10.612574 
L 320.561171 10.317331 
L 323.057819 10.315486 
L 324.306143 10.094054 
L 325.554467 10.278581 
L 326.802791 10.062685 
L 328.051115 10.167865 
L 331.796087 10.162329 
L 333.04441 10.420666 
L 335.541058 10.359773 
L 338.037706 10.58674 
L 339.28603 10.610729 
L 340.534354 10.878292 
L 341.782678 10.957639 
L 343.031002 10.857995 
L 344.279326 11.057283 
L 345.52765 10.896745 
L 358.010889 11.156928 
L 359.259213 11.234429 
L 360.507537 11.182761 
L 363.004185 11.435563 
L 365.500833 11.262108 
L 367.997481 11.546279 
L 369.245805 11.358062 
L 372.990777 11.27318 
L 374.239101 11.365443 
L 377.984073 11.332228 
L 379.232396 11.463242 
L 382.977368 11.531517 
L 386.72234 11.944857 
L 389.218988 11.959619 
L 391.715636 11.834141 
L 392.96396 11.871046 
L 394.212284 11.62378 
L 396.708932 11.668067 
L 397.957256 11.845212 
L 399.20558 11.856284 
L 400.453904 12.050037 
L 406.695523 11.649614 
L 407.943847 11.802771 
L 411.688819 11.387586 
L 414.185467 11.58503 
L 415.433791 11.505683 
L 417.930439 11.701281 
L 417.930439 11.701281 
" style="fill:none;stroke:#c371d2;stroke-dasharray:11.1,4.8;stroke-dashoffset:0;stroke-width:3;"/>
   </g>
   <g id="legend_1">
    <g id="patch_5">
     <path d="M 36.19834 62.639646 
L 122.11834 62.639646 
L 122.11834 6.834646 
L 36.19834 6.834646 
z
" style="fill:#ffffff;stroke:#000000;stroke-linejoin:miter;"/>
    </g>
    <g id="line2d_27">
     <path d="M 42.59834 16.513396 
L 58.59834 16.513396 
" style="fill:none;stroke:#009afa;stroke-linejoin:miter;"/>
    </g>
    <g id="line2d_28"/>
    <g id="text_14">
     <!-- $X_A$ Exact -->
     <g transform="translate(64.99834 19.313396)scale(0.08 -0.08)">
      <defs>
       <path d="M 878 4666 
L 1516 4666 
L 2316 2981 
L 3763 4666 
L 4500 4666 
L 2578 2438 
L 3738 0 
L 3103 0 
L 2163 1966 
L 459 0 
L -275 0 
L 1906 2509 
L 878 4666 
z
" id="DejaVuSans-Oblique-58" transform="scale(0.015625)"/>
       <path d="M 2356 4666 
L 3072 4666 
L 3938 0 
L 3278 0 
L 3084 1197 
L 984 1197 
L 325 0 
L -341 0 
L 2356 4666 
z
M 2584 4044 
L 1275 1722 
L 2988 1722 
L 2584 4044 
z
" id="DejaVuSans-Oblique-41" transform="scale(0.015625)"/>
       <path d="M 628 4666 
L 3578 4666 
L 3578 4134 
L 1259 4134 
L 1259 2753 
L 3481 2753 
L 3481 2222 
L 1259 2222 
L 1259 531 
L 3634 531 
L 3634 0 
L 628 0 
L 628 4666 
z
" id="DejaVuSans-45" transform="scale(0.015625)"/>
       <path d="M 3513 3500 
L 2247 1797 
L 3578 0 
L 2900 0 
L 1881 1375 
L 863 0 
L 184 0 
L 1544 1831 
L 300 3500 
L 978 3500 
L 1906 2253 
L 2834 3500 
L 3513 3500 
z
" id="DejaVuSans-78" transform="scale(0.015625)"/>
       <path d="M 3122 3366 
L 3122 2828 
Q 2878 2963 2633 3030 
Q 2388 3097 2138 3097 
Q 1578 3097 1268 2742 
Q 959 2388 959 1747 
Q 959 1106 1268 751 
Q 1578 397 2138 397 
Q 2388 397 2633 464 
Q 2878 531 3122 666 
L 3122 134 
Q 2881 22 2623 -34 
Q 2366 -91 2075 -91 
Q 1284 -91 818 406 
Q 353 903 353 1747 
Q 353 2603 823 3093 
Q 1294 3584 2113 3584 
Q 2378 3584 2631 3529 
Q 2884 3475 3122 3366 
z
" id="DejaVuSans-63" transform="scale(0.015625)"/>
      </defs>
      <use transform="translate(0 0.09375)" xlink:href="#DejaVuSans-Oblique-58"/>
      <use transform="translate(68.505859 -16.3125)scale(0.7)" xlink:href="#DejaVuSans-Oblique-41"/>
      <use transform="translate(119.125977 0.09375)" xlink:href="#DejaVuSans-20"/>
      <use transform="translate(150.913086 0.09375)" xlink:href="#DejaVuSans-45"/>
      <use transform="translate(214.09668 0.09375)" xlink:href="#DejaVuSans-78"/>
      <use transform="translate(273.276367 0.09375)" xlink:href="#DejaVuSans-61"/>
      <use transform="translate(334.555664 0.09375)" xlink:href="#DejaVuSans-63"/>
      <use transform="translate(389.536133 0.09375)" xlink:href="#DejaVuSans-74"/>
     </g>
    </g>
    <g id="line2d_29">
     <path d="M 42.59834 28.257146 
L 58.59834 28.257146 
" style="fill:none;stroke:#e36f47;stroke-dasharray:3.7,1.6;stroke-dashoffset:0;stroke-linejoin:miter;"/>
    </g>
    <g id="line2d_30"/>
    <g id="text_15">
     <!-- $X_A$ DelaySSA -->
     <g transform="translate(64.99834 31.057146)scale(0.08 -0.08)">
      <defs>
       <path d="M 1259 4147 
L 1259 519 
L 2022 519 
Q 2988 519 3436 956 
Q 3884 1394 3884 2338 
Q 3884 3275 3436 3711 
Q 2988 4147 2022 4147 
L 1259 4147 
z
M 628 4666 
L 1925 4666 
Q 3281 4666 3915 4102 
Q 4550 3538 4550 2338 
Q 4550 1131 3912 565 
Q 3275 0 1925 0 
L 628 0 
L 628 4666 
z
" id="DejaVuSans-44" transform="scale(0.015625)"/>
       <path d="M 2059 -325 
Q 1816 -950 1584 -1140 
Q 1353 -1331 966 -1331 
L 506 -1331 
L 506 -850 
L 844 -850 
Q 1081 -850 1212 -737 
Q 1344 -625 1503 -206 
L 1606 56 
L 191 3500 
L 800 3500 
L 1894 763 
L 2988 3500 
L 3597 3500 
L 2059 -325 
z
" id="DejaVuSans-79" transform="scale(0.015625)"/>
       <path d="M 3425 4513 
L 3425 3897 
Q 3066 4069 2747 4153 
Q 2428 4238 2131 4238 
Q 1616 4238 1336 4038 
Q 1056 3838 1056 3469 
Q 1056 3159 1242 3001 
Q 1428 2844 1947 2747 
L 2328 2669 
Q 3034 2534 3370 2195 
Q 3706 1856 3706 1288 
Q 3706 609 3251 259 
Q 2797 -91 1919 -91 
Q 1588 -91 1214 -16 
Q 841 59 441 206 
L 441 856 
Q 825 641 1194 531 
Q 1563 422 1919 422 
Q 2459 422 2753 634 
Q 3047 847 3047 1241 
Q 3047 1584 2836 1778 
Q 2625 1972 2144 2069 
L 1759 2144 
Q 1053 2284 737 2584 
Q 422 2884 422 3419 
Q 422 4038 858 4394 
Q 1294 4750 2059 4750 
Q 2388 4750 2728 4690 
Q 3069 4631 3425 4513 
z
" id="DejaVuSans-53" transform="scale(0.015625)"/>
       <path d="M 2188 4044 
L 1331 1722 
L 3047 1722 
L 2188 4044 
z
M 1831 4666 
L 2547 4666 
L 4325 0 
L 3669 0 
L 3244 1197 
L 1141 1197 
L 716 0 
L 50 0 
L 1831 4666 
z
" id="DejaVuSans-41" transform="scale(0.015625)"/>
      </defs>
      <use transform="translate(0 0.015625)" xlink:href="#DejaVuSans-Oblique-58"/>
      <use transform="translate(68.505859 -16.390625)scale(0.7)" xlink:href="#DejaVuSans-Oblique-41"/>
      <use transform="translate(119.125977 0.015625)" xlink:href="#DejaVuSans-20"/>
      <use transform="translate(150.913086 0.015625)" xlink:href="#DejaVuSans-44"/>
      <use transform="translate(227.915039 0.015625)" xlink:href="#DejaVuSans-65"/>
      <use transform="translate(289.438477 0.015625)" xlink:href="#DejaVuSans-6c"/>
      <use transform="translate(317.22168 0.015625)" xlink:href="#DejaVuSans-61"/>
      <use transform="translate(378.500977 0.015625)" xlink:href="#DejaVuSans-79"/>
      <use transform="translate(437.680664 0.015625)" xlink:href="#DejaVuSans-53"/>
      <use transform="translate(501.157227 0.015625)" xlink:href="#DejaVuSans-53"/>
      <use transform="translate(564.633789 0.015625)" xlink:href="#DejaVuSans-41"/>
     </g>
    </g>
    <g id="line2d_31">
     <path d="M 42.59834 40.015896 
L 58.59834 40.015896 
" style="fill:none;stroke:#3ea44e;stroke-linejoin:miter;"/>
    </g>
    <g id="line2d_32"/>
    <g id="text_16">
     <!-- $X_I$ Exact -->
     <g transform="translate(64.99834 42.815896)scale(0.08 -0.08)">
      <defs>
       <path d="M 1081 4666 
L 1716 4666 
L 806 0 
L 172 0 
L 1081 4666 
z
" id="DejaVuSans-Oblique-49" transform="scale(0.015625)"/>
      </defs>
      <use transform="translate(0 0.09375)" xlink:href="#DejaVuSans-Oblique-58"/>
      <use transform="translate(68.505859 -16.3125)scale(0.7)" xlink:href="#DejaVuSans-Oblique-49"/>
      <use transform="translate(91.884766 0.09375)" xlink:href="#DejaVuSans-20"/>
      <use transform="translate(123.671875 0.09375)" xlink:href="#DejaVuSans-45"/>
      <use transform="translate(186.855469 0.09375)" xlink:href="#DejaVuSans-78"/>
      <use transform="translate(246.035156 0.09375)" xlink:href="#DejaVuSans-61"/>
      <use transform="translate(307.314453 0.09375)" xlink:href="#DejaVuSans-63"/>
      <use transform="translate(362.294922 0.09375)" xlink:href="#DejaVuSans-74"/>
     </g>
    </g>
    <g id="line2d_33">
     <path d="M 42.59834 51.759646 
L 58.59834 51.759646 
" style="fill:none;stroke:#c371d2;stroke-dasharray:3.7,1.6;stroke-dashoffset:0;stroke-linejoin:miter;"/>
    </g>
    <g id="line2d_34"/>
    <g id="text_17">
     <!-- $X_I$ DelaySSA -->
     <g transform="translate(64.99834 54.559646)scale(0.08 -0.08)">
      <use transform="translate(0 0.015625)" xlink:href="#DejaVuSans-Oblique-58"/>
      <use transform="translate(68.505859 -16.390625)scale(0.7)" xlink:href="#DejaVuSans-Oblique-49"/>
      <use transform="translate(91.884766 0.015625)" xlink:href="#DejaVuSans-20"/>
      <use transform="translate(123.671875 0.015625)" xlink:href="#DejaVuSans-44"/>
      <use transform="translate(200.673828 0.015625)" xlink:href="#DejaVuSans-65"/>
      <use transform="translate(262.197266 0.015625)" xlink:href="#DejaVuSans-6c"/>
      <use transform="translate(289.980469 0.015625)" xlink:href="#DejaVuSans-61"/>
      <use transform="translate(351.259766 0.015625)" xlink:href="#DejaVuSans-79"/>
      <use transform="translate(410.439453 0.015625)" xlink:href="#DejaVuSans-53"/>
      <use transform="translate(473.916016 0.015625)" xlink:href="#DejaVuSans-53"/>
      <use transform="translate(537.392578 0.015625)" xlink:href="#DejaVuSans-41"/>
     </g>
    </g>
   </g>
  </g>
 </g>
 <defs>
  <clipPath id="pba10631ecd">
   <rect height="255.390709" width="396.967015" x="32.19834" y="2.834646"/>
  </clipPath>
 </defs>
</svg>
