<?xml version="1.0" encoding="utf-8"?>
<svg xmlns="http://www.w3.org/2000/svg" xmlns:xlink="http://www.w3.org/1999/xlink" width="600" height="400" viewBox="0 0 2400 1600">
<defs>
  <clipPath id="clip340">
    <rect x="0" y="0" width="2400" height="1600"/>
  </clipPath>
</defs>
<path clip-path="url(#clip340)" d="
M0 1600 L2400 1600 L2400 0 L0 0  Z
  " fill="#ffffff" fill-rule="evenodd" fill-opacity="1"/>
<defs>
  <clipPath id="clip341">
    <rect x="480" y="0" width="1681" height="1600"/>
  </clipPath>
</defs>
<path clip-path="url(#clip340)" d="
M279.704 1423.18 L2352.76 1423.18 L2352.76 47.2441 L279.704 47.2441  Z
  " fill="#ffffff" fill-rule="evenodd" fill-opacity="1"/>
<defs>
  <clipPath id="clip342">
    <rect x="279" y="47" width="2074" height="1377"/>
  </clipPath>
</defs>
<polyline clip-path="url(#clip342)" style="stroke:#222255; stroke-linecap:butt; stroke-linejoin:round; stroke-width:2; stroke-opacity:0.1; fill:none" points="
  393.725,1423.18 393.725,47.2441 
  "/>
<polyline clip-path="url(#clip342)" style="stroke:#222255; stroke-linecap:butt; stroke-linejoin:round; stroke-width:2; stroke-opacity:0.1; fill:none" points="
  854.978,1423.18 854.978,47.2441 
  "/>
<polyline clip-path="url(#clip342)" style="stroke:#222255; stroke-linecap:butt; stroke-linejoin:round; stroke-width:2; stroke-opacity:0.1; fill:none" points="
  1316.23,1423.18 1316.23,47.2441 
  "/>
<polyline clip-path="url(#clip342)" style="stroke:#222255; stroke-linecap:butt; stroke-linejoin:round; stroke-width:2; stroke-opacity:0.1; fill:none" points="
  1777.48,1423.18 1777.48,47.2441 
  "/>
<polyline clip-path="url(#clip342)" style="stroke:#222255; stroke-linecap:butt; stroke-linejoin:round; stroke-width:2; stroke-opacity:0.1; fill:none" points="
  2238.73,1423.18 2238.73,47.2441 
  "/>
<polyline clip-path="url(#clip342)" style="stroke:#222255; stroke-linecap:butt; stroke-linejoin:round; stroke-width:2; stroke-opacity:0.05; fill:none" points="
  301.475,1423.18 301.475,47.2441 
  "/>
<polyline clip-path="url(#clip342)" style="stroke:#222255; stroke-linecap:butt; stroke-linejoin:round; stroke-width:2; stroke-opacity:0.05; fill:none" points="
  485.976,1423.18 485.976,47.2441 
  "/>
<polyline clip-path="url(#clip342)" style="stroke:#222255; stroke-linecap:butt; stroke-linejoin:round; stroke-width:2; stroke-opacity:0.05; fill:none" points="
  578.226,1423.18 578.226,47.2441 
  "/>
<polyline clip-path="url(#clip342)" style="stroke:#222255; stroke-linecap:butt; stroke-linejoin:round; stroke-width:2; stroke-opacity:0.05; fill:none" points="
  670.477,1423.18 670.477,47.2441 
  "/>
<polyline clip-path="url(#clip342)" style="stroke:#222255; stroke-linecap:butt; stroke-linejoin:round; stroke-width:2; stroke-opacity:0.05; fill:none" points="
  762.727,1423.18 762.727,47.2441 
  "/>
<polyline clip-path="url(#clip342)" style="stroke:#222255; stroke-linecap:butt; stroke-linejoin:round; stroke-width:2; stroke-opacity:0.05; fill:none" points="
  947.228,1423.18 947.228,47.2441 
  "/>
<polyline clip-path="url(#clip342)" style="stroke:#222255; stroke-linecap:butt; stroke-linejoin:round; stroke-width:2; stroke-opacity:0.05; fill:none" points="
  1039.48,1423.18 1039.48,47.2441 
  "/>
<polyline clip-path="url(#clip342)" style="stroke:#222255; stroke-linecap:butt; stroke-linejoin:round; stroke-width:2; stroke-opacity:0.05; fill:none" points="
  1131.73,1423.18 1131.73,47.2441 
  "/>
<polyline clip-path="url(#clip342)" style="stroke:#222255; stroke-linecap:butt; stroke-linejoin:round; stroke-width:2; stroke-opacity:0.05; fill:none" points="
  1223.98,1423.18 1223.98,47.2441 
  "/>
<polyline clip-path="url(#clip342)" style="stroke:#222255; stroke-linecap:butt; stroke-linejoin:round; stroke-width:2; stroke-opacity:0.05; fill:none" points="
  1408.48,1423.18 1408.48,47.2441 
  "/>
<polyline clip-path="url(#clip342)" style="stroke:#222255; stroke-linecap:butt; stroke-linejoin:round; stroke-width:2; stroke-opacity:0.05; fill:none" points="
  1500.73,1423.18 1500.73,47.2441 
  "/>
<polyline clip-path="url(#clip342)" style="stroke:#222255; stroke-linecap:butt; stroke-linejoin:round; stroke-width:2; stroke-opacity:0.05; fill:none" points="
  1592.98,1423.18 1592.98,47.2441 
  "/>
<polyline clip-path="url(#clip342)" style="stroke:#222255; stroke-linecap:butt; stroke-linejoin:round; stroke-width:2; stroke-opacity:0.05; fill:none" points="
  1685.23,1423.18 1685.23,47.2441 
  "/>
<polyline clip-path="url(#clip342)" style="stroke:#222255; stroke-linecap:butt; stroke-linejoin:round; stroke-width:2; stroke-opacity:0.05; fill:none" points="
  1869.73,1423.18 1869.73,47.2441 
  "/>
<polyline clip-path="url(#clip342)" style="stroke:#222255; stroke-linecap:butt; stroke-linejoin:round; stroke-width:2; stroke-opacity:0.05; fill:none" points="
  1961.98,1423.18 1961.98,47.2441 
  "/>
<polyline clip-path="url(#clip342)" style="stroke:#222255; stroke-linecap:butt; stroke-linejoin:round; stroke-width:2; stroke-opacity:0.05; fill:none" points="
  2054.23,1423.18 2054.23,47.2441 
  "/>
<polyline clip-path="url(#clip342)" style="stroke:#222255; stroke-linecap:butt; stroke-linejoin:round; stroke-width:2; stroke-opacity:0.05; fill:none" points="
  2146.48,1423.18 2146.48,47.2441 
  "/>
<polyline clip-path="url(#clip342)" style="stroke:#222255; stroke-linecap:butt; stroke-linejoin:round; stroke-width:2; stroke-opacity:0.05; fill:none" points="
  2330.98,1423.18 2330.98,47.2441 
  "/>
<polyline clip-path="url(#clip340)" style="stroke:#222255; stroke-linecap:butt; stroke-linejoin:round; stroke-width:4; stroke-opacity:0; fill:none" points="
  393.725,1423.18 393.725,1404.28 
  "/>
<polyline clip-path="url(#clip340)" style="stroke:#222255; stroke-linecap:butt; stroke-linejoin:round; stroke-width:4; stroke-opacity:0; fill:none" points="
  854.978,1423.18 854.978,1404.28 
  "/>
<polyline clip-path="url(#clip340)" style="stroke:#222255; stroke-linecap:butt; stroke-linejoin:round; stroke-width:4; stroke-opacity:0; fill:none" points="
  1316.23,1423.18 1316.23,1404.28 
  "/>
<polyline clip-path="url(#clip340)" style="stroke:#222255; stroke-linecap:butt; stroke-linejoin:round; stroke-width:4; stroke-opacity:0; fill:none" points="
  1777.48,1423.18 1777.48,1404.28 
  "/>
<polyline clip-path="url(#clip340)" style="stroke:#222255; stroke-linecap:butt; stroke-linejoin:round; stroke-width:4; stroke-opacity:0; fill:none" points="
  2238.73,1423.18 2238.73,1404.28 
  "/>
<polyline clip-path="url(#clip340)" style="stroke:#222255; stroke-linecap:butt; stroke-linejoin:round; stroke-width:4; stroke-opacity:0; fill:none" points="
  301.475,1423.18 301.475,1413.73 
  "/>
<polyline clip-path="url(#clip340)" style="stroke:#222255; stroke-linecap:butt; stroke-linejoin:round; stroke-width:4; stroke-opacity:0; fill:none" points="
  485.976,1423.18 485.976,1413.73 
  "/>
<polyline clip-path="url(#clip340)" style="stroke:#222255; stroke-linecap:butt; stroke-linejoin:round; stroke-width:4; stroke-opacity:0; fill:none" points="
  578.226,1423.18 578.226,1413.73 
  "/>
<polyline clip-path="url(#clip340)" style="stroke:#222255; stroke-linecap:butt; stroke-linejoin:round; stroke-width:4; stroke-opacity:0; fill:none" points="
  670.477,1423.18 670.477,1413.73 
  "/>
<polyline clip-path="url(#clip340)" style="stroke:#222255; stroke-linecap:butt; stroke-linejoin:round; stroke-width:4; stroke-opacity:0; fill:none" points="
  762.727,1423.18 762.727,1413.73 
  "/>
<polyline clip-path="url(#clip340)" style="stroke:#222255; stroke-linecap:butt; stroke-linejoin:round; stroke-width:4; stroke-opacity:0; fill:none" points="
  947.228,1423.18 947.228,1413.73 
  "/>
<polyline clip-path="url(#clip340)" style="stroke:#222255; stroke-linecap:butt; stroke-linejoin:round; stroke-width:4; stroke-opacity:0; fill:none" points="
  1039.48,1423.18 1039.48,1413.73 
  "/>
<polyline clip-path="url(#clip340)" style="stroke:#222255; stroke-linecap:butt; stroke-linejoin:round; stroke-width:4; stroke-opacity:0; fill:none" points="
  1131.73,1423.18 1131.73,1413.73 
  "/>
<polyline clip-path="url(#clip340)" style="stroke:#222255; stroke-linecap:butt; stroke-linejoin:round; stroke-width:4; stroke-opacity:0; fill:none" points="
  1223.98,1423.18 1223.98,1413.73 
  "/>
<polyline clip-path="url(#clip340)" style="stroke:#222255; stroke-linecap:butt; stroke-linejoin:round; stroke-width:4; stroke-opacity:0; fill:none" points="
  1408.48,1423.18 1408.48,1413.73 
  "/>
<polyline clip-path="url(#clip340)" style="stroke:#222255; stroke-linecap:butt; stroke-linejoin:round; stroke-width:4; stroke-opacity:0; fill:none" points="
  1500.73,1423.18 1500.73,1413.73 
  "/>
<polyline clip-path="url(#clip340)" style="stroke:#222255; stroke-linecap:butt; stroke-linejoin:round; stroke-width:4; stroke-opacity:0; fill:none" points="
  1592.98,1423.18 1592.98,1413.73 
  "/>
<polyline clip-path="url(#clip340)" style="stroke:#222255; stroke-linecap:butt; stroke-linejoin:round; stroke-width:4; stroke-opacity:0; fill:none" points="
  1685.23,1423.18 1685.23,1413.73 
  "/>
<polyline clip-path="url(#clip340)" style="stroke:#222255; stroke-linecap:butt; stroke-linejoin:round; stroke-width:4; stroke-opacity:0; fill:none" points="
  1869.73,1423.18 1869.73,1413.73 
  "/>
<polyline clip-path="url(#clip340)" style="stroke:#222255; stroke-linecap:butt; stroke-linejoin:round; stroke-width:4; stroke-opacity:0; fill:none" points="
  1961.98,1423.18 1961.98,1413.73 
  "/>
<polyline clip-path="url(#clip340)" style="stroke:#222255; stroke-linecap:butt; stroke-linejoin:round; stroke-width:4; stroke-opacity:0; fill:none" points="
  2054.23,1423.18 2054.23,1413.73 
  "/>
<polyline clip-path="url(#clip340)" style="stroke:#222255; stroke-linecap:butt; stroke-linejoin:round; stroke-width:4; stroke-opacity:0; fill:none" points="
  2146.48,1423.18 2146.48,1413.73 
  "/>
<polyline clip-path="url(#clip340)" style="stroke:#222255; stroke-linecap:butt; stroke-linejoin:round; stroke-width:4; stroke-opacity:0; fill:none" points="
  2330.98,1423.18 2330.98,1413.73 
  "/>
<path clip-path="url(#clip340)" d="M393.725 1454.1 Q390.114 1454.1 388.286 1457.66 Q386.48 1461.2 386.48 1468.33 Q386.48 1475.44 388.286 1479.01 Q390.114 1482.55 393.725 1482.55 Q397.36 1482.55 399.165 1479.01 Q400.994 1475.44 400.994 1468.33 Q400.994 1461.2 399.165 1457.66 Q397.36 1454.1 393.725 1454.1 M393.725 1450.39 Q399.536 1450.39 402.591 1455 Q405.67 1459.58 405.67 1468.33 Q405.67 1477.06 402.591 1481.67 Q399.536 1486.25 393.725 1486.25 Q387.915 1486.25 384.837 1481.67 Q381.781 1477.06 381.781 1468.33 Q381.781 1459.58 384.837 1455 Q387.915 1450.39 393.725 1450.39 Z" fill="#000000" fill-rule="evenodd" fill-opacity="1" /><path clip-path="url(#clip340)" d="M818.67 1481.64 L834.989 1481.64 L834.989 1485.58 L813.045 1485.58 L813.045 1481.64 Q815.707 1478.89 820.29 1474.26 Q824.897 1469.61 826.077 1468.27 Q828.323 1465.74 829.202 1464.01 Q830.105 1462.25 830.105 1460.56 Q830.105 1457.8 828.161 1456.07 Q826.239 1454.33 823.138 1454.33 Q820.939 1454.33 818.485 1455.09 Q816.054 1455.86 813.277 1457.41 L813.277 1452.69 Q816.101 1451.55 818.554 1450.97 Q821.008 1450.39 823.045 1450.39 Q828.415 1450.39 831.61 1453.08 Q834.804 1455.77 834.804 1460.26 Q834.804 1462.39 833.994 1464.31 Q833.207 1466.2 831.1 1468.8 Q830.522 1469.47 827.42 1472.69 Q824.318 1475.88 818.67 1481.64 Z" fill="#000000" fill-rule="evenodd" fill-opacity="1" /><path clip-path="url(#clip340)" d="M844.85 1451.02 L863.207 1451.02 L863.207 1454.96 L849.133 1454.96 L849.133 1463.43 Q850.151 1463.08 851.17 1462.92 Q852.188 1462.73 853.207 1462.73 Q858.994 1462.73 862.373 1465.9 Q865.753 1469.08 865.753 1474.49 Q865.753 1480.07 862.281 1483.17 Q858.809 1486.25 852.489 1486.25 Q850.313 1486.25 848.045 1485.88 Q845.799 1485.51 843.392 1484.77 L843.392 1480.07 Q845.475 1481.2 847.698 1481.76 Q849.92 1482.32 852.397 1482.32 Q856.401 1482.32 858.739 1480.21 Q861.077 1478.1 861.077 1474.49 Q861.077 1470.88 858.739 1468.77 Q856.401 1466.67 852.397 1466.67 Q850.522 1466.67 848.647 1467.08 Q846.795 1467.5 844.85 1468.38 L844.85 1451.02 Z" fill="#000000" fill-rule="evenodd" fill-opacity="1" /><path clip-path="url(#clip340)" d="M884.966 1454.1 Q881.355 1454.1 879.526 1457.66 Q877.721 1461.2 877.721 1468.33 Q877.721 1475.44 879.526 1479.01 Q881.355 1482.55 884.966 1482.55 Q888.6 1482.55 890.406 1479.01 Q892.234 1475.44 892.234 1468.33 Q892.234 1461.2 890.406 1457.66 Q888.6 1454.1 884.966 1454.1 M884.966 1450.39 Q890.776 1450.39 893.832 1455 Q896.91 1459.58 896.91 1468.33 Q896.91 1477.06 893.832 1481.67 Q890.776 1486.25 884.966 1486.25 Q879.156 1486.25 876.077 1481.67 Q873.022 1477.06 873.022 1468.33 Q873.022 1459.58 876.077 1455 Q879.156 1450.39 884.966 1450.39 Z" fill="#000000" fill-rule="evenodd" fill-opacity="1" /><path clip-path="url(#clip340)" d="M1275.85 1451.02 L1294.2 1451.02 L1294.2 1454.96 L1280.13 1454.96 L1280.13 1463.43 Q1281.15 1463.08 1282.17 1462.92 Q1283.19 1462.73 1284.2 1462.73 Q1289.99 1462.73 1293.37 1465.9 Q1296.75 1469.08 1296.75 1474.49 Q1296.75 1480.07 1293.28 1483.17 Q1289.81 1486.25 1283.49 1486.25 Q1281.31 1486.25 1279.04 1485.88 Q1276.8 1485.51 1274.39 1484.77 L1274.39 1480.07 Q1276.47 1481.2 1278.7 1481.76 Q1280.92 1482.32 1283.39 1482.32 Q1287.4 1482.32 1289.74 1480.21 Q1292.07 1478.1 1292.07 1474.49 Q1292.07 1470.88 1289.74 1468.77 Q1287.4 1466.67 1283.39 1466.67 Q1281.52 1466.67 1279.64 1467.08 Q1277.79 1467.5 1275.85 1468.38 L1275.85 1451.02 Z" fill="#000000" fill-rule="evenodd" fill-opacity="1" /><path clip-path="url(#clip340)" d="M1315.96 1454.1 Q1312.35 1454.1 1310.52 1457.66 Q1308.72 1461.2 1308.72 1468.33 Q1308.72 1475.44 1310.52 1479.01 Q1312.35 1482.55 1315.96 1482.55 Q1319.6 1482.55 1321.4 1479.01 Q1323.23 1475.44 1323.23 1468.33 Q1323.23 1461.2 1321.4 1457.66 Q1319.6 1454.1 1315.96 1454.1 M1315.96 1450.39 Q1321.77 1450.39 1324.83 1455 Q1327.91 1459.58 1327.91 1468.33 Q1327.91 1477.06 1324.83 1481.67 Q1321.77 1486.25 1315.96 1486.25 Q1310.15 1486.25 1307.07 1481.67 Q1304.02 1477.06 1304.02 1468.33 Q1304.02 1459.58 1307.07 1455 Q1310.15 1450.39 1315.96 1450.39 Z" fill="#000000" fill-rule="evenodd" fill-opacity="1" /><path clip-path="url(#clip340)" d="M1346.13 1454.1 Q1342.51 1454.1 1340.69 1457.66 Q1338.88 1461.2 1338.88 1468.33 Q1338.88 1475.44 1340.69 1479.01 Q1342.51 1482.55 1346.13 1482.55 Q1349.76 1482.55 1351.57 1479.01 Q1353.39 1475.44 1353.39 1468.33 Q1353.39 1461.2 1351.57 1457.66 Q1349.76 1454.1 1346.13 1454.1 M1346.13 1450.39 Q1351.94 1450.39 1354.99 1455 Q1358.07 1459.58 1358.07 1468.33 Q1358.07 1477.06 1354.99 1481.67 Q1351.94 1486.25 1346.13 1486.25 Q1340.32 1486.25 1337.24 1481.67 Q1334.18 1477.06 1334.18 1468.33 Q1334.18 1459.58 1337.24 1455 Q1340.32 1450.39 1346.13 1450.39 Z" fill="#000000" fill-rule="evenodd" fill-opacity="1" /><path clip-path="url(#clip340)" d="M1735.76 1451.02 L1757.98 1451.02 L1757.98 1453.01 L1745.43 1485.58 L1740.55 1485.58 L1752.35 1454.96 L1735.76 1454.96 L1735.76 1451.02 Z" fill="#000000" fill-rule="evenodd" fill-opacity="1" /><path clip-path="url(#clip340)" d="M1767.15 1451.02 L1785.5 1451.02 L1785.5 1454.96 L1771.43 1454.96 L1771.43 1463.43 Q1772.45 1463.08 1773.47 1462.92 Q1774.48 1462.73 1775.5 1462.73 Q1781.29 1462.73 1784.67 1465.9 Q1788.05 1469.08 1788.05 1474.49 Q1788.05 1480.07 1784.58 1483.17 Q1781.1 1486.25 1774.79 1486.25 Q1772.61 1486.25 1770.34 1485.88 Q1768.1 1485.51 1765.69 1484.77 L1765.69 1480.07 Q1767.77 1481.2 1769.99 1481.76 Q1772.22 1482.32 1774.69 1482.32 Q1778.7 1482.32 1781.04 1480.21 Q1783.37 1478.1 1783.37 1474.49 Q1783.37 1470.88 1781.04 1468.77 Q1778.7 1466.67 1774.69 1466.67 Q1772.82 1466.67 1770.94 1467.08 Q1769.09 1467.5 1767.15 1468.38 L1767.15 1451.02 Z" fill="#000000" fill-rule="evenodd" fill-opacity="1" /><path clip-path="url(#clip340)" d="M1807.26 1454.1 Q1803.65 1454.1 1801.82 1457.66 Q1800.02 1461.2 1800.02 1468.33 Q1800.02 1475.44 1801.82 1479.01 Q1803.65 1482.55 1807.26 1482.55 Q1810.9 1482.55 1812.7 1479.01 Q1814.53 1475.44 1814.53 1468.33 Q1814.53 1461.2 1812.7 1457.66 Q1810.9 1454.1 1807.26 1454.1 M1807.26 1450.39 Q1813.07 1450.39 1816.13 1455 Q1819.21 1459.58 1819.21 1468.33 Q1819.21 1477.06 1816.13 1481.67 Q1813.07 1486.25 1807.26 1486.25 Q1801.45 1486.25 1798.37 1481.67 Q1795.32 1477.06 1795.32 1468.33 Q1795.32 1459.58 1798.37 1455 Q1801.45 1450.39 1807.26 1450.39 Z" fill="#000000" fill-rule="evenodd" fill-opacity="1" /><path clip-path="url(#clip340)" d="M2183.26 1481.64 L2190.9 1481.64 L2190.9 1455.28 L2182.59 1456.95 L2182.59 1452.69 L2190.85 1451.02 L2195.53 1451.02 L2195.53 1481.64 L2203.17 1481.64 L2203.17 1485.58 L2183.26 1485.58 L2183.26 1481.64 Z" fill="#000000" fill-rule="evenodd" fill-opacity="1" /><path clip-path="url(#clip340)" d="M2222.61 1454.1 Q2219 1454.1 2217.17 1457.66 Q2215.37 1461.2 2215.37 1468.33 Q2215.37 1475.44 2217.17 1479.01 Q2219 1482.55 2222.61 1482.55 Q2226.25 1482.55 2228.05 1479.01 Q2229.88 1475.44 2229.88 1468.33 Q2229.88 1461.2 2228.05 1457.66 Q2226.25 1454.1 2222.61 1454.1 M2222.61 1450.39 Q2228.42 1450.39 2231.48 1455 Q2234.56 1459.58 2234.56 1468.33 Q2234.56 1477.06 2231.48 1481.67 Q2228.42 1486.25 2222.61 1486.25 Q2216.8 1486.25 2213.72 1481.67 Q2210.67 1477.06 2210.67 1468.33 Q2210.67 1459.58 2213.72 1455 Q2216.8 1450.39 2222.61 1450.39 Z" fill="#000000" fill-rule="evenodd" fill-opacity="1" /><path clip-path="url(#clip340)" d="M2252.77 1454.1 Q2249.16 1454.1 2247.33 1457.66 Q2245.53 1461.2 2245.53 1468.33 Q2245.53 1475.44 2247.33 1479.01 Q2249.16 1482.55 2252.77 1482.55 Q2256.41 1482.55 2258.21 1479.01 Q2260.04 1475.44 2260.04 1468.33 Q2260.04 1461.2 2258.21 1457.66 Q2256.41 1454.1 2252.77 1454.1 M2252.77 1450.39 Q2258.58 1450.39 2261.64 1455 Q2264.72 1459.58 2264.72 1468.33 Q2264.72 1477.06 2261.64 1481.67 Q2258.58 1486.25 2252.77 1486.25 Q2246.96 1486.25 2243.88 1481.67 Q2240.83 1477.06 2240.83 1468.33 Q2240.83 1459.58 2243.88 1455 Q2246.96 1450.39 2252.77 1450.39 Z" fill="#000000" fill-rule="evenodd" fill-opacity="1" /><path clip-path="url(#clip340)" d="M2282.94 1454.1 Q2279.32 1454.1 2277.5 1457.66 Q2275.69 1461.2 2275.69 1468.33 Q2275.69 1475.44 2277.5 1479.01 Q2279.32 1482.55 2282.94 1482.55 Q2286.57 1482.55 2288.38 1479.01 Q2290.2 1475.44 2290.2 1468.33 Q2290.2 1461.2 2288.38 1457.66 Q2286.57 1454.1 2282.94 1454.1 M2282.94 1450.39 Q2288.75 1450.39 2291.8 1455 Q2294.88 1459.58 2294.88 1468.33 Q2294.88 1477.06 2291.8 1481.67 Q2288.75 1486.25 2282.94 1486.25 Q2277.13 1486.25 2274.05 1481.67 Q2270.99 1477.06 2270.99 1468.33 Q2270.99 1459.58 2274.05 1455 Q2277.13 1450.39 2282.94 1450.39 Z" fill="#000000" fill-rule="evenodd" fill-opacity="1" /><path clip-path="url(#clip340)" d="M1061.35 1539.37 L1052.08 1539.37 L1049.41 1550 L1058.74 1550 L1061.35 1539.37 M1056.57 1521.26 L1053.26 1534.46 L1062.56 1534.46 L1065.9 1521.26 L1070.99 1521.26 L1067.71 1534.46 L1077.64 1534.46 L1077.64 1539.37 L1066.47 1539.37 L1063.86 1550 L1073.98 1550 L1073.98 1554.87 L1062.62 1554.87 L1059.31 1568.04 L1054.22 1568.04 L1057.5 1554.87 L1048.17 1554.87 L1044.89 1568.04 L1039.77 1568.04 L1043.08 1554.87 L1033.05 1554.87 L1033.05 1550 L1044.26 1550 L1046.93 1539.37 L1036.68 1539.37 L1036.68 1534.46 L1048.17 1534.46 L1051.42 1521.26 L1056.57 1521.26 Z" fill="#000000" fill-rule="evenodd" fill-opacity="1" /><path clip-path="url(#clip340)" d="M1123.32 1536.5 Q1118.61 1536.5 1115.87 1540.19 Q1113.13 1543.85 1113.13 1550.25 Q1113.13 1556.65 1115.84 1560.34 Q1118.57 1564 1123.32 1564 Q1128 1564 1130.73 1560.31 Q1133.47 1556.62 1133.47 1550.25 Q1133.47 1543.92 1130.73 1540.23 Q1128 1536.5 1123.32 1536.5 M1123.32 1531.54 Q1130.96 1531.54 1135.32 1536.5 Q1139.68 1541.47 1139.68 1550.25 Q1139.68 1559 1135.32 1564 Q1130.96 1568.97 1123.32 1568.97 Q1115.65 1568.97 1111.29 1564 Q1106.96 1559 1106.96 1550.25 Q1106.96 1541.47 1111.29 1536.5 Q1115.65 1531.54 1123.32 1531.54 Z" fill="#000000" fill-rule="evenodd" fill-opacity="1" /><path clip-path="url(#clip340)" d="M1167.43 1518.52 L1167.43 1523.39 L1161.83 1523.39 Q1158.68 1523.39 1157.44 1524.66 Q1156.23 1525.93 1156.23 1529.24 L1156.23 1532.4 L1165.87 1532.4 L1165.87 1536.95 L1156.23 1536.95 L1156.23 1568.04 L1150.34 1568.04 L1150.34 1536.95 L1144.74 1536.95 L1144.74 1532.4 L1150.34 1532.4 L1150.34 1529.91 Q1150.34 1523.96 1153.11 1521.26 Q1155.88 1518.52 1161.89 1518.52 L1167.43 1518.52 Z" fill="#000000" fill-rule="evenodd" fill-opacity="1" /><path clip-path="url(#clip340)" d="M1191.02 1520.52 L1197.92 1520.52 L1209.73 1538.19 L1221.6 1520.52 L1228.51 1520.52 L1213.23 1543.34 L1229.53 1568.04 L1222.62 1568.04 L1209.25 1547.83 L1195.79 1568.04 L1188.85 1568.04 L1205.82 1542.68 L1191.02 1520.52 Z" fill="#000000" fill-rule="evenodd" fill-opacity="1" /><path clip-path="url(#clip340)" d="M1258.43 1532.4 L1264.29 1532.4 L1264.29 1568.04 L1258.43 1568.04 L1258.43 1532.4 M1258.43 1518.52 L1264.29 1518.52 L1264.29 1525.93 L1258.43 1525.93 L1258.43 1518.52 Z" fill="#000000" fill-rule="evenodd" fill-opacity="1" /><path clip-path="url(#clip340)" d="M1306.17 1546.53 L1306.17 1568.04 L1300.32 1568.04 L1300.32 1546.72 Q1300.32 1541.66 1298.34 1539.14 Q1296.37 1536.63 1292.42 1536.63 Q1287.68 1536.63 1284.94 1539.65 Q1282.21 1542.68 1282.21 1547.9 L1282.21 1568.04 L1276.32 1568.04 L1276.32 1532.4 L1282.21 1532.4 L1282.21 1537.93 Q1284.31 1534.72 1287.14 1533.13 Q1290 1531.54 1293.73 1531.54 Q1299.87 1531.54 1303.02 1535.36 Q1306.17 1539.14 1306.17 1546.53 Z" fill="#000000" fill-rule="evenodd" fill-opacity="1" /><path clip-path="url(#clip340)" d="M1341.31 1537.81 L1341.31 1518.52 L1347.17 1518.52 L1347.17 1568.04 L1341.31 1568.04 L1341.31 1562.7 Q1339.46 1565.88 1336.63 1567.44 Q1333.83 1568.97 1329.88 1568.97 Q1323.42 1568.97 1319.35 1563.81 Q1315.31 1558.65 1315.31 1550.25 Q1315.31 1541.85 1319.35 1536.69 Q1323.42 1531.54 1329.88 1531.54 Q1333.83 1531.54 1336.63 1533.1 Q1339.46 1534.62 1341.31 1537.81 M1321.35 1550.25 Q1321.35 1556.71 1324 1560.4 Q1326.67 1564.07 1331.32 1564.07 Q1335.96 1564.07 1338.64 1560.4 Q1341.31 1556.71 1341.31 1550.25 Q1341.31 1543.79 1338.64 1540.13 Q1335.96 1536.44 1331.32 1536.44 Q1326.67 1536.44 1324 1540.13 Q1321.35 1543.79 1321.35 1550.25 Z" fill="#000000" fill-rule="evenodd" fill-opacity="1" /><path clip-path="url(#clip340)" d="M1359.23 1532.4 L1365.09 1532.4 L1365.09 1568.04 L1359.23 1568.04 L1359.23 1532.4 M1359.23 1518.52 L1365.09 1518.52 L1365.09 1525.93 L1359.23 1525.93 L1359.23 1518.52 Z" fill="#000000" fill-rule="evenodd" fill-opacity="1" /><path clip-path="url(#clip340)" d="M1373.14 1532.4 L1379.35 1532.4 L1390.49 1562.31 L1401.63 1532.4 L1407.83 1532.4 L1394.46 1568.04 L1386.51 1568.04 L1373.14 1532.4 Z" fill="#000000" fill-rule="evenodd" fill-opacity="1" /><path clip-path="url(#clip340)" d="M1415.92 1532.4 L1421.77 1532.4 L1421.77 1568.04 L1415.92 1568.04 L1415.92 1532.4 M1415.92 1518.52 L1421.77 1518.52 L1421.77 1525.93 L1415.92 1525.93 L1415.92 1518.52 Z" fill="#000000" fill-rule="evenodd" fill-opacity="1" /><path clip-path="url(#clip340)" d="M1457.48 1537.81 L1457.48 1518.52 L1463.34 1518.52 L1463.34 1568.04 L1457.48 1568.04 L1457.48 1562.7 Q1455.64 1565.88 1452.81 1567.44 Q1450.01 1568.97 1446.06 1568.97 Q1439.6 1568.97 1435.52 1563.81 Q1431.48 1558.65 1431.48 1550.25 Q1431.48 1541.85 1435.52 1536.69 Q1439.6 1531.54 1446.06 1531.54 Q1450.01 1531.54 1452.81 1533.1 Q1455.64 1534.62 1457.48 1537.81 M1437.53 1550.25 Q1437.53 1556.71 1440.17 1560.4 Q1442.84 1564.07 1447.49 1564.07 Q1452.14 1564.07 1454.81 1560.4 Q1457.48 1556.71 1457.48 1550.25 Q1457.48 1543.79 1454.81 1540.13 Q1452.14 1536.44 1447.49 1536.44 Q1442.84 1536.44 1440.17 1540.13 Q1437.53 1543.79 1437.53 1550.25 Z" fill="#000000" fill-rule="evenodd" fill-opacity="1" /><path clip-path="url(#clip340)" d="M1474.8 1553.98 L1474.8 1532.4 L1480.66 1532.4 L1480.66 1553.75 Q1480.66 1558.81 1482.63 1561.36 Q1484.6 1563.87 1488.55 1563.87 Q1493.29 1563.87 1496.03 1560.85 Q1498.8 1557.83 1498.8 1552.61 L1498.8 1532.4 L1504.65 1532.4 L1504.65 1568.04 L1498.8 1568.04 L1498.8 1562.57 Q1496.67 1565.82 1493.83 1567.41 Q1491.03 1568.97 1487.31 1568.97 Q1481.17 1568.97 1477.98 1565.15 Q1474.8 1561.33 1474.8 1553.98 M1489.54 1531.54 L1489.54 1531.54 Z" fill="#000000" fill-rule="evenodd" fill-opacity="1" /><path clip-path="url(#clip340)" d="M1532.92 1550.12 Q1525.82 1550.12 1523.08 1551.75 Q1520.35 1553.37 1520.35 1557.29 Q1520.35 1560.4 1522.38 1562.25 Q1524.45 1564.07 1527.99 1564.07 Q1532.85 1564.07 1535.78 1560.63 Q1538.74 1557.16 1538.74 1551.43 L1538.74 1550.12 L1532.92 1550.12 M1544.6 1547.71 L1544.6 1568.04 L1538.74 1568.04 L1538.74 1562.63 Q1536.74 1565.88 1533.75 1567.44 Q1530.75 1568.97 1526.43 1568.97 Q1520.95 1568.97 1517.7 1565.91 Q1514.49 1562.82 1514.49 1557.67 Q1514.49 1551.65 1518.5 1548.6 Q1522.54 1545.54 1530.53 1545.54 L1538.74 1545.54 L1538.74 1544.97 Q1538.74 1540.93 1536.07 1538.73 Q1533.43 1536.5 1528.62 1536.5 Q1525.57 1536.5 1522.67 1537.23 Q1519.77 1537.97 1517.1 1539.43 L1517.1 1534.02 Q1520.31 1532.78 1523.34 1532.17 Q1526.36 1531.54 1529.23 1531.54 Q1536.96 1531.54 1540.78 1535.55 Q1544.6 1539.56 1544.6 1547.71 Z" fill="#000000" fill-rule="evenodd" fill-opacity="1" /><path clip-path="url(#clip340)" d="M1556.66 1518.52 L1562.52 1518.52 L1562.52 1568.04 L1556.66 1568.04 L1556.66 1518.52 Z" fill="#000000" fill-rule="evenodd" fill-opacity="1" /><path clip-path="url(#clip340)" d="M1597.5 1533.45 L1597.5 1538.98 Q1595.02 1537.71 1592.34 1537.07 Q1589.67 1536.44 1586.8 1536.44 Q1582.44 1536.44 1580.25 1537.77 Q1578.08 1539.11 1578.08 1541.79 Q1578.08 1543.82 1579.64 1545 Q1581.2 1546.15 1585.91 1547.2 L1587.92 1547.64 Q1594.16 1548.98 1596.77 1551.43 Q1599.41 1553.85 1599.41 1558.21 Q1599.41 1563.17 1595.46 1566.07 Q1591.55 1568.97 1584.67 1568.97 Q1581.81 1568.97 1578.69 1568.39 Q1575.6 1567.85 1572.16 1566.74 L1572.16 1560.69 Q1575.41 1562.38 1578.56 1563.24 Q1581.71 1564.07 1584.8 1564.07 Q1588.94 1564.07 1591.16 1562.66 Q1593.39 1561.23 1593.39 1558.65 Q1593.39 1556.27 1591.77 1554.99 Q1590.18 1553.72 1584.74 1552.54 L1582.7 1552.07 Q1577.26 1550.92 1574.84 1548.56 Q1572.42 1546.18 1572.42 1542.04 Q1572.42 1537.01 1575.98 1534.27 Q1579.55 1531.54 1586.1 1531.54 Q1589.35 1531.54 1592.22 1532.01 Q1595.08 1532.49 1597.5 1533.45 Z" fill="#000000" fill-rule="evenodd" fill-opacity="1" /><polyline clip-path="url(#clip342)" style="stroke:#222255; stroke-linecap:butt; stroke-linejoin:round; stroke-width:2; stroke-opacity:0.1; fill:none" points="
  279.704,1384.24 2352.76,1384.24 
  "/>
<polyline clip-path="url(#clip342)" style="stroke:#222255; stroke-linecap:butt; stroke-linejoin:round; stroke-width:2; stroke-opacity:0.1; fill:none" points="
  279.704,1011.47 2352.76,1011.47 
  "/>
<polyline clip-path="url(#clip342)" style="stroke:#222255; stroke-linecap:butt; stroke-linejoin:round; stroke-width:2; stroke-opacity:0.1; fill:none" points="
  279.704,638.694 2352.76,638.694 
  "/>
<polyline clip-path="url(#clip342)" style="stroke:#222255; stroke-linecap:butt; stroke-linejoin:round; stroke-width:2; stroke-opacity:0.1; fill:none" points="
  279.704,265.922 2352.76,265.922 
  "/>
<polyline clip-path="url(#clip342)" style="stroke:#222255; stroke-linecap:butt; stroke-linejoin:round; stroke-width:2; stroke-opacity:0.05; fill:none" points="
  279.704,1309.68 2352.76,1309.68 
  "/>
<polyline clip-path="url(#clip342)" style="stroke:#222255; stroke-linecap:butt; stroke-linejoin:round; stroke-width:2; stroke-opacity:0.05; fill:none" points="
  279.704,1235.13 2352.76,1235.13 
  "/>
<polyline clip-path="url(#clip342)" style="stroke:#222255; stroke-linecap:butt; stroke-linejoin:round; stroke-width:2; stroke-opacity:0.05; fill:none" points="
  279.704,1160.57 2352.76,1160.57 
  "/>
<polyline clip-path="url(#clip342)" style="stroke:#222255; stroke-linecap:butt; stroke-linejoin:round; stroke-width:2; stroke-opacity:0.05; fill:none" points="
  279.704,1086.02 2352.76,1086.02 
  "/>
<polyline clip-path="url(#clip342)" style="stroke:#222255; stroke-linecap:butt; stroke-linejoin:round; stroke-width:2; stroke-opacity:0.05; fill:none" points="
  279.704,936.912 2352.76,936.912 
  "/>
<polyline clip-path="url(#clip342)" style="stroke:#222255; stroke-linecap:butt; stroke-linejoin:round; stroke-width:2; stroke-opacity:0.05; fill:none" points="
  279.704,862.357 2352.76,862.357 
  "/>
<polyline clip-path="url(#clip342)" style="stroke:#222255; stroke-linecap:butt; stroke-linejoin:round; stroke-width:2; stroke-opacity:0.05; fill:none" points="
  279.704,787.803 2352.76,787.803 
  "/>
<polyline clip-path="url(#clip342)" style="stroke:#222255; stroke-linecap:butt; stroke-linejoin:round; stroke-width:2; stroke-opacity:0.05; fill:none" points="
  279.704,713.248 2352.76,713.248 
  "/>
<polyline clip-path="url(#clip342)" style="stroke:#222255; stroke-linecap:butt; stroke-linejoin:round; stroke-width:2; stroke-opacity:0.05; fill:none" points="
  279.704,564.14 2352.76,564.14 
  "/>
<polyline clip-path="url(#clip342)" style="stroke:#222255; stroke-linecap:butt; stroke-linejoin:round; stroke-width:2; stroke-opacity:0.05; fill:none" points="
  279.704,489.585 2352.76,489.585 
  "/>
<polyline clip-path="url(#clip342)" style="stroke:#222255; stroke-linecap:butt; stroke-linejoin:round; stroke-width:2; stroke-opacity:0.05; fill:none" points="
  279.704,415.031 2352.76,415.031 
  "/>
<polyline clip-path="url(#clip342)" style="stroke:#222255; stroke-linecap:butt; stroke-linejoin:round; stroke-width:2; stroke-opacity:0.05; fill:none" points="
  279.704,340.476 2352.76,340.476 
  "/>
<polyline clip-path="url(#clip342)" style="stroke:#222255; stroke-linecap:butt; stroke-linejoin:round; stroke-width:2; stroke-opacity:0.05; fill:none" points="
  279.704,191.367 2352.76,191.367 
  "/>
<polyline clip-path="url(#clip342)" style="stroke:#222255; stroke-linecap:butt; stroke-linejoin:round; stroke-width:2; stroke-opacity:0.05; fill:none" points="
  279.704,116.813 2352.76,116.813 
  "/>
<polyline clip-path="url(#clip340)" style="stroke:#222255; stroke-linecap:butt; stroke-linejoin:round; stroke-width:4; stroke-opacity:0; fill:none" points="
  279.704,1384.24 298.602,1384.24 
  "/>
<polyline clip-path="url(#clip340)" style="stroke:#222255; stroke-linecap:butt; stroke-linejoin:round; stroke-width:4; stroke-opacity:0; fill:none" points="
  279.704,1011.47 298.602,1011.47 
  "/>
<polyline clip-path="url(#clip340)" style="stroke:#222255; stroke-linecap:butt; stroke-linejoin:round; stroke-width:4; stroke-opacity:0; fill:none" points="
  279.704,638.694 298.602,638.694 
  "/>
<polyline clip-path="url(#clip340)" style="stroke:#222255; stroke-linecap:butt; stroke-linejoin:round; stroke-width:4; stroke-opacity:0; fill:none" points="
  279.704,265.922 298.602,265.922 
  "/>
<polyline clip-path="url(#clip340)" style="stroke:#222255; stroke-linecap:butt; stroke-linejoin:round; stroke-width:4; stroke-opacity:0; fill:none" points="
  279.704,1309.68 289.153,1309.68 
  "/>
<polyline clip-path="url(#clip340)" style="stroke:#222255; stroke-linecap:butt; stroke-linejoin:round; stroke-width:4; stroke-opacity:0; fill:none" points="
  279.704,1235.13 289.153,1235.13 
  "/>
<polyline clip-path="url(#clip340)" style="stroke:#222255; stroke-linecap:butt; stroke-linejoin:round; stroke-width:4; stroke-opacity:0; fill:none" points="
  279.704,1160.57 289.153,1160.57 
  "/>
<polyline clip-path="url(#clip340)" style="stroke:#222255; stroke-linecap:butt; stroke-linejoin:round; stroke-width:4; stroke-opacity:0; fill:none" points="
  279.704,1086.02 289.153,1086.02 
  "/>
<polyline clip-path="url(#clip340)" style="stroke:#222255; stroke-linecap:butt; stroke-linejoin:round; stroke-width:4; stroke-opacity:0; fill:none" points="
  279.704,936.912 289.153,936.912 
  "/>
<polyline clip-path="url(#clip340)" style="stroke:#222255; stroke-linecap:butt; stroke-linejoin:round; stroke-width:4; stroke-opacity:0; fill:none" points="
  279.704,862.357 289.153,862.357 
  "/>
<polyline clip-path="url(#clip340)" style="stroke:#222255; stroke-linecap:butt; stroke-linejoin:round; stroke-width:4; stroke-opacity:0; fill:none" points="
  279.704,787.803 289.153,787.803 
  "/>
<polyline clip-path="url(#clip340)" style="stroke:#222255; stroke-linecap:butt; stroke-linejoin:round; stroke-width:4; stroke-opacity:0; fill:none" points="
  279.704,713.248 289.153,713.248 
  "/>
<polyline clip-path="url(#clip340)" style="stroke:#222255; stroke-linecap:butt; stroke-linejoin:round; stroke-width:4; stroke-opacity:0; fill:none" points="
  279.704,564.14 289.153,564.14 
  "/>
<polyline clip-path="url(#clip340)" style="stroke:#222255; stroke-linecap:butt; stroke-linejoin:round; stroke-width:4; stroke-opacity:0; fill:none" points="
  279.704,489.585 289.153,489.585 
  "/>
<polyline clip-path="url(#clip340)" style="stroke:#222255; stroke-linecap:butt; stroke-linejoin:round; stroke-width:4; stroke-opacity:0; fill:none" points="
  279.704,415.031 289.153,415.031 
  "/>
<polyline clip-path="url(#clip340)" style="stroke:#222255; stroke-linecap:butt; stroke-linejoin:round; stroke-width:4; stroke-opacity:0; fill:none" points="
  279.704,340.476 289.153,340.476 
  "/>
<polyline clip-path="url(#clip340)" style="stroke:#222255; stroke-linecap:butt; stroke-linejoin:round; stroke-width:4; stroke-opacity:0; fill:none" points="
  279.704,191.367 289.153,191.367 
  "/>
<polyline clip-path="url(#clip340)" style="stroke:#222255; stroke-linecap:butt; stroke-linejoin:round; stroke-width:4; stroke-opacity:0; fill:none" points="
  279.704,116.813 289.153,116.813 
  "/>
<path clip-path="url(#clip340)" d="M126.205 1370.04 Q122.593 1370.04 120.765 1373.6 Q118.959 1377.14 118.959 1384.27 Q118.959 1391.38 120.765 1394.94 Q122.593 1398.49 126.205 1398.49 Q129.839 1398.49 131.644 1394.94 Q133.473 1391.38 133.473 1384.27 Q133.473 1377.14 131.644 1373.6 Q129.839 1370.04 126.205 1370.04 M126.205 1366.33 Q132.015 1366.33 135.07 1370.94 Q138.149 1375.52 138.149 1384.27 Q138.149 1393 135.07 1397.61 Q132.015 1402.19 126.205 1402.19 Q120.394 1402.19 117.316 1397.61 Q114.26 1393 114.26 1384.27 Q114.26 1375.52 117.316 1370.94 Q120.394 1366.33 126.205 1366.33 Z" fill="#000000" fill-rule="evenodd" fill-opacity="1" /><path clip-path="url(#clip340)" d="M146.366 1395.64 L151.251 1395.64 L151.251 1401.52 L146.366 1401.52 L146.366 1395.64 Z" fill="#000000" fill-rule="evenodd" fill-opacity="1" /><path clip-path="url(#clip340)" d="M171.436 1370.04 Q167.825 1370.04 165.996 1373.6 Q164.19 1377.14 164.19 1384.27 Q164.19 1391.38 165.996 1394.94 Q167.825 1398.49 171.436 1398.49 Q175.07 1398.49 176.876 1394.94 Q178.704 1391.38 178.704 1384.27 Q178.704 1377.14 176.876 1373.6 Q175.07 1370.04 171.436 1370.04 M171.436 1366.33 Q177.246 1366.33 180.301 1370.94 Q183.38 1375.52 183.38 1384.27 Q183.38 1393 180.301 1397.61 Q177.246 1402.19 171.436 1402.19 Q165.626 1402.19 162.547 1397.61 Q159.491 1393 159.491 1384.27 Q159.491 1375.52 162.547 1370.94 Q165.626 1366.33 171.436 1366.33 Z" fill="#000000" fill-rule="evenodd" fill-opacity="1" /><path clip-path="url(#clip340)" d="M201.598 1370.04 Q197.987 1370.04 196.158 1373.6 Q194.352 1377.14 194.352 1384.27 Q194.352 1391.38 196.158 1394.94 Q197.987 1398.49 201.598 1398.49 Q205.232 1398.49 207.037 1394.94 Q208.866 1391.38 208.866 1384.27 Q208.866 1377.14 207.037 1373.6 Q205.232 1370.04 201.598 1370.04 M201.598 1366.33 Q207.408 1366.33 210.463 1370.94 Q213.542 1375.52 213.542 1384.27 Q213.542 1393 210.463 1397.61 Q207.408 1402.19 201.598 1402.19 Q195.787 1402.19 192.709 1397.61 Q189.653 1393 189.653 1384.27 Q189.653 1375.52 192.709 1370.94 Q195.787 1366.33 201.598 1366.33 Z" fill="#000000" fill-rule="evenodd" fill-opacity="1" /><path clip-path="url(#clip340)" d="M231.76 1370.04 Q228.148 1370.04 226.32 1373.6 Q224.514 1377.14 224.514 1384.27 Q224.514 1391.38 226.32 1394.94 Q228.148 1398.49 231.76 1398.49 Q235.394 1398.49 237.199 1394.94 Q239.028 1391.38 239.028 1384.27 Q239.028 1377.14 237.199 1373.6 Q235.394 1370.04 231.76 1370.04 M231.76 1366.33 Q237.57 1366.33 240.625 1370.94 Q243.704 1375.52 243.704 1384.27 Q243.704 1393 240.625 1397.61 Q237.57 1402.19 231.76 1402.19 Q225.949 1402.19 222.871 1397.61 Q219.815 1393 219.815 1384.27 Q219.815 1375.52 222.871 1370.94 Q225.949 1366.33 231.76 1366.33 Z" fill="#000000" fill-rule="evenodd" fill-opacity="1" /><path clip-path="url(#clip340)" d="M127.431 997.265 Q123.82 997.265 121.992 1000.83 Q120.186 1004.37 120.186 1011.5 Q120.186 1018.61 121.992 1022.17 Q123.82 1025.71 127.431 1025.71 Q131.066 1025.71 132.871 1022.17 Q134.7 1018.61 134.7 1011.5 Q134.7 1004.37 132.871 1000.83 Q131.066 997.265 127.431 997.265 M127.431 993.561 Q133.242 993.561 136.297 998.168 Q139.376 1002.75 139.376 1011.5 Q139.376 1020.23 136.297 1024.83 Q133.242 1029.42 127.431 1029.42 Q121.621 1029.42 118.543 1024.83 Q115.487 1020.23 115.487 1011.5 Q115.487 1002.75 118.543 998.168 Q121.621 993.561 127.431 993.561 Z" fill="#000000" fill-rule="evenodd" fill-opacity="1" /><path clip-path="url(#clip340)" d="M147.593 1022.87 L152.478 1022.87 L152.478 1028.75 L147.593 1028.75 L147.593 1022.87 Z" fill="#000000" fill-rule="evenodd" fill-opacity="1" /><path clip-path="url(#clip340)" d="M172.663 997.265 Q169.052 997.265 167.223 1000.83 Q165.417 1004.37 165.417 1011.5 Q165.417 1018.61 167.223 1022.17 Q169.052 1025.71 172.663 1025.71 Q176.297 1025.71 178.102 1022.17 Q179.931 1018.61 179.931 1011.5 Q179.931 1004.37 178.102 1000.83 Q176.297 997.265 172.663 997.265 M172.663 993.561 Q178.473 993.561 181.528 998.168 Q184.607 1002.75 184.607 1011.5 Q184.607 1020.23 181.528 1024.83 Q178.473 1029.42 172.663 1029.42 Q166.852 1029.42 163.774 1024.83 Q160.718 1020.23 160.718 1011.5 Q160.718 1002.75 163.774 998.168 Q166.852 993.561 172.663 993.561 Z" fill="#000000" fill-rule="evenodd" fill-opacity="1" /><path clip-path="url(#clip340)" d="M202.824 997.265 Q199.213 997.265 197.385 1000.83 Q195.579 1004.37 195.579 1011.5 Q195.579 1018.61 197.385 1022.17 Q199.213 1025.71 202.824 1025.71 Q206.459 1025.71 208.264 1022.17 Q210.093 1018.61 210.093 1011.5 Q210.093 1004.37 208.264 1000.83 Q206.459 997.265 202.824 997.265 M202.824 993.561 Q208.635 993.561 211.69 998.168 Q214.769 1002.75 214.769 1011.5 Q214.769 1020.23 211.69 1024.83 Q208.635 1029.42 202.824 1029.42 Q197.014 1029.42 193.936 1024.83 Q190.88 1020.23 190.88 1011.5 Q190.88 1002.75 193.936 998.168 Q197.014 993.561 202.824 993.561 Z" fill="#000000" fill-rule="evenodd" fill-opacity="1" /><path clip-path="url(#clip340)" d="M223.797 1024.81 L231.435 1024.81 L231.435 998.445 L223.125 1000.11 L223.125 995.853 L231.389 994.186 L236.065 994.186 L236.065 1024.81 L243.704 1024.81 L243.704 1028.75 L223.797 1028.75 L223.797 1024.81 Z" fill="#000000" fill-rule="evenodd" fill-opacity="1" /><path clip-path="url(#clip340)" d="M127.802 624.493 Q124.191 624.493 122.362 628.057 Q120.556 631.599 120.556 638.729 Q120.556 645.835 122.362 649.4 Q124.191 652.942 127.802 652.942 Q131.436 652.942 133.242 649.4 Q135.07 645.835 135.07 638.729 Q135.07 631.599 133.242 628.057 Q131.436 624.493 127.802 624.493 M127.802 620.789 Q133.612 620.789 136.667 625.395 Q139.746 629.979 139.746 638.729 Q139.746 647.455 136.667 652.062 Q133.612 656.645 127.802 656.645 Q121.992 656.645 118.913 652.062 Q115.857 647.455 115.857 638.729 Q115.857 629.979 118.913 625.395 Q121.992 620.789 127.802 620.789 Z" fill="#000000" fill-rule="evenodd" fill-opacity="1" /><path clip-path="url(#clip340)" d="M147.964 650.094 L152.848 650.094 L152.848 655.974 L147.964 655.974 L147.964 650.094 Z" fill="#000000" fill-rule="evenodd" fill-opacity="1" /><path clip-path="url(#clip340)" d="M173.033 624.493 Q169.422 624.493 167.593 628.057 Q165.788 631.599 165.788 638.729 Q165.788 645.835 167.593 649.4 Q169.422 652.942 173.033 652.942 Q176.667 652.942 178.473 649.4 Q180.301 645.835 180.301 638.729 Q180.301 631.599 178.473 628.057 Q176.667 624.493 173.033 624.493 M173.033 620.789 Q178.843 620.789 181.899 625.395 Q184.977 629.979 184.977 638.729 Q184.977 647.455 181.899 652.062 Q178.843 656.645 173.033 656.645 Q167.223 656.645 164.144 652.062 Q161.089 647.455 161.089 638.729 Q161.089 629.979 164.144 625.395 Q167.223 620.789 173.033 620.789 Z" fill="#000000" fill-rule="evenodd" fill-opacity="1" /><path clip-path="url(#clip340)" d="M203.195 624.493 Q199.584 624.493 197.755 628.057 Q195.95 631.599 195.95 638.729 Q195.95 645.835 197.755 649.4 Q199.584 652.942 203.195 652.942 Q206.829 652.942 208.635 649.4 Q210.463 645.835 210.463 638.729 Q210.463 631.599 208.635 628.057 Q206.829 624.493 203.195 624.493 M203.195 620.789 Q209.005 620.789 212.061 625.395 Q215.139 629.979 215.139 638.729 Q215.139 647.455 212.061 652.062 Q209.005 656.645 203.195 656.645 Q197.385 656.645 194.306 652.062 Q191.25 647.455 191.25 638.729 Q191.25 629.979 194.306 625.395 Q197.385 620.789 203.195 620.789 Z" fill="#000000" fill-rule="evenodd" fill-opacity="1" /><path clip-path="url(#clip340)" d="M227.385 652.039 L243.704 652.039 L243.704 655.974 L221.76 655.974 L221.76 652.039 Q224.422 649.284 229.005 644.655 Q233.611 640.002 234.792 638.659 Q237.037 636.136 237.917 634.4 Q238.82 632.641 238.82 630.951 Q238.82 628.196 236.875 626.46 Q234.954 624.724 231.852 624.724 Q229.653 624.724 227.199 625.488 Q224.769 626.252 221.991 627.803 L221.991 623.081 Q224.815 621.946 227.269 621.368 Q229.723 620.789 231.76 620.789 Q237.13 620.789 240.324 623.474 Q243.519 626.159 243.519 630.65 Q243.519 632.78 242.709 634.701 Q241.922 636.599 239.815 639.192 Q239.236 639.863 236.135 643.081 Q233.033 646.275 227.385 652.039 Z" fill="#000000" fill-rule="evenodd" fill-opacity="1" /><path clip-path="url(#clip340)" d="M126.853 251.72 Q123.242 251.72 121.413 255.285 Q119.607 258.827 119.607 265.957 Q119.607 273.063 121.413 276.628 Q123.242 280.169 126.853 280.169 Q130.487 280.169 132.292 276.628 Q134.121 273.063 134.121 265.957 Q134.121 258.827 132.292 255.285 Q130.487 251.72 126.853 251.72 M126.853 248.017 Q132.663 248.017 135.718 252.623 Q138.797 257.207 138.797 265.957 Q138.797 274.683 135.718 279.29 Q132.663 283.873 126.853 283.873 Q121.043 283.873 117.964 279.29 Q114.908 274.683 114.908 265.957 Q114.908 257.207 117.964 252.623 Q121.043 248.017 126.853 248.017 Z" fill="#000000" fill-rule="evenodd" fill-opacity="1" /><path clip-path="url(#clip340)" d="M147.015 277.322 L151.899 277.322 L151.899 283.202 L147.015 283.202 L147.015 277.322 Z" fill="#000000" fill-rule="evenodd" fill-opacity="1" /><path clip-path="url(#clip340)" d="M172.084 251.72 Q168.473 251.72 166.644 255.285 Q164.839 258.827 164.839 265.957 Q164.839 273.063 166.644 276.628 Q168.473 280.169 172.084 280.169 Q175.718 280.169 177.524 276.628 Q179.352 273.063 179.352 265.957 Q179.352 258.827 177.524 255.285 Q175.718 251.72 172.084 251.72 M172.084 248.017 Q177.894 248.017 180.95 252.623 Q184.028 257.207 184.028 265.957 Q184.028 274.683 180.95 279.29 Q177.894 283.873 172.084 283.873 Q166.274 283.873 163.195 279.29 Q160.14 274.683 160.14 265.957 Q160.14 257.207 163.195 252.623 Q166.274 248.017 172.084 248.017 Z" fill="#000000" fill-rule="evenodd" fill-opacity="1" /><path clip-path="url(#clip340)" d="M202.246 251.72 Q198.635 251.72 196.806 255.285 Q195 258.827 195 265.957 Q195 273.063 196.806 276.628 Q198.635 280.169 202.246 280.169 Q205.88 280.169 207.686 276.628 Q209.514 273.063 209.514 265.957 Q209.514 258.827 207.686 255.285 Q205.88 251.72 202.246 251.72 M202.246 248.017 Q208.056 248.017 211.111 252.623 Q214.19 257.207 214.19 265.957 Q214.19 274.683 211.111 279.29 Q208.056 283.873 202.246 283.873 Q196.436 283.873 193.357 279.29 Q190.301 274.683 190.301 265.957 Q190.301 257.207 193.357 252.623 Q196.436 248.017 202.246 248.017 Z" fill="#000000" fill-rule="evenodd" fill-opacity="1" /><path clip-path="url(#clip340)" d="M236.574 264.568 Q239.931 265.285 241.806 267.554 Q243.704 269.822 243.704 273.156 Q243.704 278.271 240.185 281.072 Q236.667 283.873 230.185 283.873 Q228.01 283.873 225.695 283.433 Q223.403 283.017 220.949 282.16 L220.949 277.646 Q222.894 278.781 225.209 279.359 Q227.523 279.938 230.047 279.938 Q234.445 279.938 236.736 278.202 Q239.051 276.466 239.051 273.156 Q239.051 270.1 236.898 268.387 Q234.769 266.651 230.949 266.651 L226.922 266.651 L226.922 262.808 L231.135 262.808 Q234.584 262.808 236.412 261.443 Q238.241 260.054 238.241 257.461 Q238.241 254.799 236.343 253.387 Q234.468 251.952 230.949 251.952 Q229.028 251.952 226.829 252.369 Q224.63 252.785 221.991 253.665 L221.991 249.498 Q224.653 248.758 226.968 248.387 Q229.306 248.017 231.366 248.017 Q236.69 248.017 239.792 250.447 Q242.894 252.855 242.894 256.975 Q242.894 259.845 241.25 261.836 Q239.607 263.804 236.574 264.568 Z" fill="#000000" fill-rule="evenodd" fill-opacity="1" /><path clip-path="url(#clip340)" d="M21.7677 896.901 L39.6235 896.901 L39.6235 888.816 Q39.6235 884.329 37.3 881.878 Q34.9765 879.427 30.6797 879.427 Q26.4147 879.427 24.0912 881.878 Q21.7677 884.329 21.7677 888.816 L21.7677 896.901 M16.4842 903.33 L16.4842 888.816 Q16.4842 880.828 20.1126 876.753 Q23.7092 872.648 30.6797 872.648 Q37.7138 872.648 41.3104 876.753 Q44.907 880.828 44.907 888.816 L44.907 896.901 L64.0042 896.901 L64.0042 903.33 L16.4842 903.33 Z" fill="#000000" fill-rule="evenodd" fill-opacity="1" /><path clip-path="url(#clip340)" d="M33.8307 844.766 Q33.2578 845.752 33.0032 846.93 Q32.7167 848.076 32.7167 849.476 Q32.7167 854.442 35.9632 857.115 Q39.1779 859.757 45.2253 859.757 L64.0042 859.757 L64.0042 865.645 L28.3562 865.645 L28.3562 859.757 L33.8944 859.757 Q30.6479 857.911 29.0883 854.951 Q27.4968 851.991 27.4968 847.758 Q27.4968 847.153 27.5923 846.421 Q27.656 845.689 27.8151 844.798 L33.8307 844.766 Z" fill="#000000" fill-rule="evenodd" fill-opacity="1" /><path clip-path="url(#clip340)" d="M32.4621 826.242 Q32.4621 830.952 36.1542 833.689 Q39.8145 836.427 46.212 836.427 Q52.6095 836.427 56.3017 833.721 Q59.9619 830.984 59.9619 826.242 Q59.9619 821.563 56.2698 818.826 Q52.5777 816.088 46.212 816.088 Q39.8781 816.088 36.186 818.826 Q32.4621 821.563 32.4621 826.242 M27.4968 826.242 Q27.4968 818.603 32.4621 814.242 Q37.4273 809.882 46.212 809.882 Q54.9649 809.882 59.9619 814.242 Q64.9272 818.603 64.9272 826.242 Q64.9272 833.912 59.9619 838.273 Q54.9649 842.601 46.212 842.601 Q37.4273 842.601 32.4621 838.273 Q27.4968 833.912 27.4968 826.242 Z" fill="#000000" fill-rule="evenodd" fill-opacity="1" /><path clip-path="url(#clip340)" d="M46.212 774.584 Q39.7508 774.584 36.0905 777.257 Q32.3984 779.899 32.3984 784.546 Q32.3984 789.193 36.0905 791.867 Q39.7508 794.509 46.212 794.509 Q52.6732 794.509 56.3653 791.867 Q60.0256 789.193 60.0256 784.546 Q60.0256 779.899 56.3653 777.257 Q52.6732 774.584 46.212 774.584 M33.7671 794.509 Q30.5842 792.662 29.0564 789.862 Q27.4968 787.029 27.4968 783.114 Q27.4968 776.621 32.6531 772.579 Q37.8093 768.505 46.212 768.505 Q54.6147 768.505 59.771 772.579 Q64.9272 776.621 64.9272 783.114 Q64.9272 787.029 63.3994 789.862 Q61.8398 792.662 58.657 794.509 L64.0042 794.509 L64.0042 800.397 L14.479 800.397 L14.479 794.509 L33.7671 794.509 Z" fill="#000000" fill-rule="evenodd" fill-opacity="1" /><path clip-path="url(#clip340)" d="M46.0847 742.596 Q46.0847 749.694 47.7079 752.431 Q49.3312 755.168 53.2461 755.168 Q56.3653 755.168 58.2114 753.131 Q60.0256 751.063 60.0256 747.53 Q60.0256 742.66 56.5881 739.732 Q53.1188 736.772 47.3897 736.772 L46.0847 736.772 L46.0847 742.596 M43.6657 730.915 L64.0042 730.915 L64.0042 736.772 L58.5933 736.772 Q61.8398 738.777 63.3994 741.769 Q64.9272 744.761 64.9272 749.089 Q64.9272 754.564 61.8716 757.81 Q58.7843 761.025 53.6281 761.025 Q47.6125 761.025 44.5569 757.015 Q41.5014 752.972 41.5014 744.983 L41.5014 736.772 L40.9285 736.772 Q36.8862 736.772 34.6901 739.445 Q32.4621 742.087 32.4621 746.893 Q32.4621 749.949 33.1941 752.845 Q33.9262 755.741 35.3903 758.415 L29.9795 758.415 Q28.7381 755.2 28.1334 752.177 Q27.4968 749.153 27.4968 746.288 Q27.4968 738.554 31.5072 734.735 Q35.5176 730.915 43.6657 730.915 Z" fill="#000000" fill-rule="evenodd" fill-opacity="1" /><path clip-path="url(#clip340)" d="M46.212 693.262 Q39.7508 693.262 36.0905 695.936 Q32.3984 698.577 32.3984 703.224 Q32.3984 707.871 36.0905 710.545 Q39.7508 713.187 46.212 713.187 Q52.6732 713.187 56.3653 710.545 Q60.0256 707.871 60.0256 703.224 Q60.0256 698.577 56.3653 695.936 Q52.6732 693.262 46.212 693.262 M33.7671 713.187 Q30.5842 711.341 29.0564 708.54 Q27.4968 705.707 27.4968 701.792 Q27.4968 695.299 32.6531 691.257 Q37.8093 687.183 46.212 687.183 Q54.6147 687.183 59.771 691.257 Q64.9272 695.299 64.9272 701.792 Q64.9272 705.707 63.3994 708.54 Q61.8398 711.341 58.657 713.187 L64.0042 713.187 L64.0042 719.075 L14.479 719.075 L14.479 713.187 L33.7671 713.187 Z" fill="#000000" fill-rule="evenodd" fill-opacity="1" /><path clip-path="url(#clip340)" d="M28.3562 677.475 L28.3562 671.619 L64.0042 671.619 L64.0042 677.475 L28.3562 677.475 M14.479 677.475 L14.479 671.619 L21.895 671.619 L21.895 677.475 L14.479 677.475 Z" fill="#000000" fill-rule="evenodd" fill-opacity="1" /><path clip-path="url(#clip340)" d="M14.479 659.365 L14.479 653.508 L64.0042 653.508 L64.0042 659.365 L14.479 659.365 Z" fill="#000000" fill-rule="evenodd" fill-opacity="1" /><path clip-path="url(#clip340)" d="M28.3562 641.254 L28.3562 635.398 L64.0042 635.398 L64.0042 641.254 L28.3562 641.254 M14.479 641.254 L14.479 635.398 L21.895 635.398 L21.895 641.254 L14.479 641.254 Z" fill="#000000" fill-rule="evenodd" fill-opacity="1" /><path clip-path="url(#clip340)" d="M18.2347 617.351 L28.3562 617.351 L28.3562 605.288 L32.9077 605.288 L32.9077 617.351 L52.2594 617.351 Q56.6199 617.351 57.8613 616.173 Q59.1026 614.964 59.1026 611.303 L59.1026 605.288 L64.0042 605.288 L64.0042 611.303 Q64.0042 618.083 61.4897 620.661 Q58.9434 623.239 52.2594 623.239 L32.9077 623.239 L32.9077 627.536 L28.3562 627.536 L28.3562 623.239 L18.2347 623.239 L18.2347 617.351 Z" fill="#000000" fill-rule="evenodd" fill-opacity="1" /><path clip-path="url(#clip340)" d="M67.3143 582.753 Q73.68 585.236 75.6216 587.591 Q77.5631 589.947 77.5631 593.893 L77.5631 598.572 L72.6615 598.572 L72.6615 595.135 Q72.6615 592.716 71.5157 591.379 Q70.3699 590.042 66.1048 588.419 L63.4312 587.368 L28.3562 601.787 L28.3562 595.58 L56.238 584.44 L28.3562 573.3 L28.3562 567.094 L67.3143 582.753 Z" fill="#000000" fill-rule="evenodd" fill-opacity="1" /><path clip-path="url(#clip342)" d="
M393.725 1367.33 L393.725 1384.24 L430.626 1384.24 L430.626 1367.33 L393.725 1367.33 L393.725 1367.33  Z
  " fill="#ee7733" fill-rule="evenodd" fill-opacity="0.6"/>
<polyline clip-path="url(#clip342)" style="stroke:#ffa500; stroke-linecap:butt; stroke-linejoin:round; stroke-width:4.8; stroke-opacity:1; fill:none" points="
  393.725,1367.33 393.725,1384.24 430.626,1384.24 430.626,1367.33 393.725,1367.33 
  "/>
<path clip-path="url(#clip342)" d="
M430.626 1267.77 L430.626 1384.24 L467.526 1384.24 L467.526 1267.77 L430.626 1267.77 L430.626 1267.77  Z
  " fill="#ee7733" fill-rule="evenodd" fill-opacity="0.6"/>
<polyline clip-path="url(#clip342)" style="stroke:#ffa500; stroke-linecap:butt; stroke-linejoin:round; stroke-width:4.8; stroke-opacity:1; fill:none" points="
  430.626,1267.77 430.626,1384.24 467.526,1384.24 467.526,1267.77 430.626,1267.77 
  "/>
<path clip-path="url(#clip342)" d="
M467.526 1089.31 L467.526 1384.24 L504.426 1384.24 L504.426 1089.31 L467.526 1089.31 L467.526 1089.31  Z
  " fill="#ee7733" fill-rule="evenodd" fill-opacity="0.6"/>
<polyline clip-path="url(#clip342)" style="stroke:#ffa500; stroke-linecap:butt; stroke-linejoin:round; stroke-width:4.8; stroke-opacity:1; fill:none" points="
  467.526,1089.31 467.526,1384.24 504.426,1384.24 504.426,1089.31 467.526,1089.31 
  "/>
<path clip-path="url(#clip342)" d="
M504.426 730.516 L504.426 1384.24 L541.326 1384.24 L541.326 730.516 L504.426 730.516 L504.426 730.516  Z
  " fill="#ee7733" fill-rule="evenodd" fill-opacity="0.6"/>
<polyline clip-path="url(#clip342)" style="stroke:#ffa500; stroke-linecap:butt; stroke-linejoin:round; stroke-width:4.8; stroke-opacity:1; fill:none" points="
  504.426,730.516 504.426,1384.24 541.326,1384.24 541.326,730.516 504.426,730.516 
  "/>
<path clip-path="url(#clip342)" d="
M541.326 441.225 L541.326 1384.24 L578.226 1384.24 L578.226 441.225 L541.326 441.225 L541.326 441.225  Z
  " fill="#ee7733" fill-rule="evenodd" fill-opacity="0.6"/>
<polyline clip-path="url(#clip342)" style="stroke:#ffa500; stroke-linecap:butt; stroke-linejoin:round; stroke-width:4.8; stroke-opacity:1; fill:none" points="
  541.326,441.225 541.326,1384.24 578.226,1384.24 578.226,441.225 541.326,441.225 
  "/>
<path clip-path="url(#clip342)" d="
M578.226 309.729 L578.226 1384.24 L615.127 1384.24 L615.127 309.729 L578.226 309.729 L578.226 309.729  Z
  " fill="#ee7733" fill-rule="evenodd" fill-opacity="0.6"/>
<polyline clip-path="url(#clip342)" style="stroke:#ffa500; stroke-linecap:butt; stroke-linejoin:round; stroke-width:4.8; stroke-opacity:1; fill:none" points="
  578.226,309.729 578.226,1384.24 615.127,1384.24 615.127,309.729 578.226,309.729 
  "/>
<path clip-path="url(#clip342)" d="
M615.127 255.252 L615.127 1384.24 L652.027 1384.24 L652.027 255.252 L615.127 255.252 L615.127 255.252  Z
  " fill="#ee7733" fill-rule="evenodd" fill-opacity="0.6"/>
<polyline clip-path="url(#clip342)" style="stroke:#ffa500; stroke-linecap:butt; stroke-linejoin:round; stroke-width:4.8; stroke-opacity:1; fill:none" points="
  615.127,255.252 615.127,1384.24 652.027,1384.24 652.027,255.252 615.127,255.252 
  "/>
<path clip-path="url(#clip342)" d="
M652.027 86.1857 L652.027 1384.24 L688.927 1384.24 L688.927 86.1857 L652.027 86.1857 L652.027 86.1857  Z
  " fill="#ee7733" fill-rule="evenodd" fill-opacity="0.6"/>
<polyline clip-path="url(#clip342)" style="stroke:#ffa500; stroke-linecap:butt; stroke-linejoin:round; stroke-width:4.8; stroke-opacity:1; fill:none" points="
  652.027,86.1857 652.027,1384.24 688.927,1384.24 688.927,86.1857 652.027,86.1857 
  "/>
<path clip-path="url(#clip342)" d="
M688.927 140.663 L688.927 1384.24 L725.827 1384.24 L725.827 140.663 L688.927 140.663 L688.927 140.663  Z
  " fill="#ee7733" fill-rule="evenodd" fill-opacity="0.6"/>
<polyline clip-path="url(#clip342)" style="stroke:#ffa500; stroke-linecap:butt; stroke-linejoin:round; stroke-width:4.8; stroke-opacity:1; fill:none" points="
  688.927,140.663 688.927,1384.24 725.827,1384.24 725.827,140.663 688.927,140.663 
  "/>
<path clip-path="url(#clip342)" d="
M725.827 251.495 L725.827 1384.24 L762.727 1384.24 L762.727 251.495 L725.827 251.495 L725.827 251.495  Z
  " fill="#ee7733" fill-rule="evenodd" fill-opacity="0.6"/>
<polyline clip-path="url(#clip342)" style="stroke:#ffa500; stroke-linecap:butt; stroke-linejoin:round; stroke-width:4.8; stroke-opacity:1; fill:none" points="
  725.827,251.495 725.827,1384.24 762.727,1384.24 762.727,251.495 725.827,251.495 
  "/>
<path clip-path="url(#clip342)" d="
M762.727 221.439 L762.727 1384.24 L799.627 1384.24 L799.627 221.439 L762.727 221.439 L762.727 221.439  Z
  " fill="#ee7733" fill-rule="evenodd" fill-opacity="0.6"/>
<polyline clip-path="url(#clip342)" style="stroke:#ffa500; stroke-linecap:butt; stroke-linejoin:round; stroke-width:4.8; stroke-opacity:1; fill:none" points="
  762.727,221.439 762.727,1384.24 799.627,1384.24 799.627,221.439 762.727,221.439 
  "/>
<path clip-path="url(#clip342)" d="
M799.627 347.299 L799.627 1384.24 L836.528 1384.24 L836.528 347.299 L799.627 347.299 L799.627 347.299  Z
  " fill="#ee7733" fill-rule="evenodd" fill-opacity="0.6"/>
<polyline clip-path="url(#clip342)" style="stroke:#ffa500; stroke-linecap:butt; stroke-linejoin:round; stroke-width:4.8; stroke-opacity:1; fill:none" points="
  799.627,347.299 799.627,1384.24 836.528,1384.24 836.528,347.299 799.627,347.299 
  "/>
<path clip-path="url(#clip342)" d="
M836.528 409.29 L836.528 1384.24 L873.428 1384.24 L873.428 409.29 L836.528 409.29 L836.528 409.29  Z
  " fill="#ee7733" fill-rule="evenodd" fill-opacity="0.6"/>
<polyline clip-path="url(#clip342)" style="stroke:#ffa500; stroke-linecap:butt; stroke-linejoin:round; stroke-width:4.8; stroke-opacity:1; fill:none" points="
  836.528,409.29 836.528,1384.24 873.428,1384.24 873.428,409.29 836.528,409.29 
  "/>
<path clip-path="url(#clip342)" d="
M873.428 546.421 L873.428 1384.24 L910.328 1384.24 L910.328 546.421 L873.428 546.421 L873.428 546.421  Z
  " fill="#ee7733" fill-rule="evenodd" fill-opacity="0.6"/>
<polyline clip-path="url(#clip342)" style="stroke:#ffa500; stroke-linecap:butt; stroke-linejoin:round; stroke-width:4.8; stroke-opacity:1; fill:none" points="
  873.428,546.421 873.428,1384.24 910.328,1384.24 910.328,546.421 873.428,546.421 
  "/>
<path clip-path="url(#clip342)" d="
M910.328 580.235 L910.328 1384.24 L947.228 1384.24 L947.228 580.235 L910.328 580.235 L910.328 580.235  Z
  " fill="#ee7733" fill-rule="evenodd" fill-opacity="0.6"/>
<polyline clip-path="url(#clip342)" style="stroke:#ffa500; stroke-linecap:butt; stroke-linejoin:round; stroke-width:4.8; stroke-opacity:1; fill:none" points="
  910.328,580.235 910.328,1384.24 947.228,1384.24 947.228,580.235 910.328,580.235 
  "/>
<path clip-path="url(#clip342)" d="
M947.228 668.525 L947.228 1384.24 L984.128 1384.24 L984.128 668.525 L947.228 668.525 L947.228 668.525  Z
  " fill="#ee7733" fill-rule="evenodd" fill-opacity="0.6"/>
<polyline clip-path="url(#clip342)" style="stroke:#ffa500; stroke-linecap:butt; stroke-linejoin:round; stroke-width:4.8; stroke-opacity:1; fill:none" points="
  947.228,668.525 947.228,1384.24 984.128,1384.24 984.128,668.525 947.228,668.525 
  "/>
<path clip-path="url(#clip342)" d="
M984.128 830.077 L984.128 1384.24 L1021.03 1384.24 L1021.03 830.077 L984.128 830.077 L984.128 830.077  Z
  " fill="#ee7733" fill-rule="evenodd" fill-opacity="0.6"/>
<polyline clip-path="url(#clip342)" style="stroke:#ffa500; stroke-linecap:butt; stroke-linejoin:round; stroke-width:4.8; stroke-opacity:1; fill:none" points="
  984.128,830.077 984.128,1384.24 1021.03,1384.24 1021.03,830.077 984.128,830.077 
  "/>
<path clip-path="url(#clip342)" d="
M1021.03 841.348 L1021.03 1384.24 L1057.93 1384.24 L1057.93 841.348 L1021.03 841.348 L1021.03 841.348  Z
  " fill="#ee7733" fill-rule="evenodd" fill-opacity="0.6"/>
<polyline clip-path="url(#clip342)" style="stroke:#ffa500; stroke-linecap:butt; stroke-linejoin:round; stroke-width:4.8; stroke-opacity:1; fill:none" points="
  1021.03,841.348 1021.03,1384.24 1057.93,1384.24 1057.93,841.348 1021.03,841.348 
  "/>
<path clip-path="url(#clip342)" d="
M1057.93 877.04 L1057.93 1384.24 L1094.83 1384.24 L1094.83 877.04 L1057.93 877.04 L1057.93 877.04  Z
  " fill="#ee7733" fill-rule="evenodd" fill-opacity="0.6"/>
<polyline clip-path="url(#clip342)" style="stroke:#ffa500; stroke-linecap:butt; stroke-linejoin:round; stroke-width:4.8; stroke-opacity:1; fill:none" points="
  1057.93,877.04 1057.93,1384.24 1094.83,1384.24 1094.83,877.04 1057.93,877.04 
  "/>
<path clip-path="url(#clip342)" d="
M1094.83 999.143 L1094.83 1384.24 L1131.73 1384.24 L1131.73 999.143 L1094.83 999.143 L1094.83 999.143  Z
  " fill="#ee7733" fill-rule="evenodd" fill-opacity="0.6"/>
<polyline clip-path="url(#clip342)" style="stroke:#ffa500; stroke-linecap:butt; stroke-linejoin:round; stroke-width:4.8; stroke-opacity:1; fill:none" points="
  1094.83,999.143 1094.83,1384.24 1131.73,1384.24 1131.73,999.143 1094.83,999.143 
  "/>
<path clip-path="url(#clip342)" d="
M1131.73 1004.78 L1131.73 1384.24 L1168.63 1384.24 L1168.63 1004.78 L1131.73 1004.78 L1131.73 1004.78  Z
  " fill="#ee7733" fill-rule="evenodd" fill-opacity="0.6"/>
<polyline clip-path="url(#clip342)" style="stroke:#ffa500; stroke-linecap:butt; stroke-linejoin:round; stroke-width:4.8; stroke-opacity:1; fill:none" points="
  1131.73,1004.78 1131.73,1384.24 1168.63,1384.24 1168.63,1004.78 1131.73,1004.78 
  "/>
<path clip-path="url(#clip342)" d="
M1168.63 1051.74 L1168.63 1384.24 L1205.53 1384.24 L1205.53 1051.74 L1168.63 1051.74 L1168.63 1051.74  Z
  " fill="#ee7733" fill-rule="evenodd" fill-opacity="0.6"/>
<polyline clip-path="url(#clip342)" style="stroke:#ffa500; stroke-linecap:butt; stroke-linejoin:round; stroke-width:4.8; stroke-opacity:1; fill:none" points="
  1168.63,1051.74 1168.63,1384.24 1205.53,1384.24 1205.53,1051.74 1168.63,1051.74 
  "/>
<path clip-path="url(#clip342)" d="
M1205.53 1094.95 L1205.53 1384.24 L1242.43 1384.24 L1242.43 1094.95 L1205.53 1094.95 L1205.53 1094.95  Z
  " fill="#ee7733" fill-rule="evenodd" fill-opacity="0.6"/>
<polyline clip-path="url(#clip342)" style="stroke:#ffa500; stroke-linecap:butt; stroke-linejoin:round; stroke-width:4.8; stroke-opacity:1; fill:none" points="
  1205.53,1094.95 1205.53,1384.24 1242.43,1384.24 1242.43,1094.95 1205.53,1094.95 
  "/>
<path clip-path="url(#clip342)" d="
M1242.43 1130.64 L1242.43 1384.24 L1279.33 1384.24 L1279.33 1130.64 L1242.43 1130.64 L1242.43 1130.64  Z
  " fill="#ee7733" fill-rule="evenodd" fill-opacity="0.6"/>
<polyline clip-path="url(#clip342)" style="stroke:#ffa500; stroke-linecap:butt; stroke-linejoin:round; stroke-width:4.8; stroke-opacity:1; fill:none" points="
  1242.43,1130.64 1242.43,1384.24 1279.33,1384.24 1279.33,1130.64 1242.43,1130.64 
  "/>
<path clip-path="url(#clip342)" d="
M1279.33 1149.42 L1279.33 1384.24 L1316.23 1384.24 L1316.23 1149.42 L1279.33 1149.42 L1279.33 1149.42  Z
  " fill="#ee7733" fill-rule="evenodd" fill-opacity="0.6"/>
<polyline clip-path="url(#clip342)" style="stroke:#ffa500; stroke-linecap:butt; stroke-linejoin:round; stroke-width:4.8; stroke-opacity:1; fill:none" points="
  1279.33,1149.42 1279.33,1384.24 1316.23,1384.24 1316.23,1149.42 1279.33,1149.42 
  "/>
<path clip-path="url(#clip342)" d="
M1316.23 1181.36 L1316.23 1384.24 L1353.13 1384.24 L1353.13 1181.36 L1316.23 1181.36 L1316.23 1181.36  Z
  " fill="#ee7733" fill-rule="evenodd" fill-opacity="0.6"/>
<polyline clip-path="url(#clip342)" style="stroke:#ffa500; stroke-linecap:butt; stroke-linejoin:round; stroke-width:4.8; stroke-opacity:1; fill:none" points="
  1316.23,1181.36 1316.23,1384.24 1353.13,1384.24 1353.13,1181.36 1316.23,1181.36 
  "/>
<path clip-path="url(#clip342)" d="
M1353.13 1209.54 L1353.13 1384.24 L1390.03 1384.24 L1390.03 1209.54 L1353.13 1209.54 L1353.13 1209.54  Z
  " fill="#ee7733" fill-rule="evenodd" fill-opacity="0.6"/>
<polyline clip-path="url(#clip342)" style="stroke:#ffa500; stroke-linecap:butt; stroke-linejoin:round; stroke-width:4.8; stroke-opacity:1; fill:none" points="
  1353.13,1209.54 1353.13,1384.24 1390.03,1384.24 1390.03,1209.54 1353.13,1209.54 
  "/>
<path clip-path="url(#clip342)" d="
M1390.03 1241.47 L1390.03 1384.24 L1426.93 1384.24 L1426.93 1241.47 L1390.03 1241.47 L1390.03 1241.47  Z
  " fill="#ee7733" fill-rule="evenodd" fill-opacity="0.6"/>
<polyline clip-path="url(#clip342)" style="stroke:#ffa500; stroke-linecap:butt; stroke-linejoin:round; stroke-width:4.8; stroke-opacity:1; fill:none" points="
  1390.03,1241.47 1390.03,1384.24 1426.93,1384.24 1426.93,1241.47 1390.03,1241.47 
  "/>
<path clip-path="url(#clip342)" d="
M1426.93 1239.59 L1426.93 1384.24 L1463.83 1384.24 L1463.83 1239.59 L1426.93 1239.59 L1426.93 1239.59  Z
  " fill="#ee7733" fill-rule="evenodd" fill-opacity="0.6"/>
<polyline clip-path="url(#clip342)" style="stroke:#ffa500; stroke-linecap:butt; stroke-linejoin:round; stroke-width:4.8; stroke-opacity:1; fill:none" points="
  1426.93,1239.59 1426.93,1384.24 1463.83,1384.24 1463.83,1239.59 1426.93,1239.59 
  "/>
<path clip-path="url(#clip342)" d="
M1463.83 1260.26 L1463.83 1384.24 L1500.73 1384.24 L1500.73 1260.26 L1463.83 1260.26 L1463.83 1260.26  Z
  " fill="#ee7733" fill-rule="evenodd" fill-opacity="0.6"/>
<polyline clip-path="url(#clip342)" style="stroke:#ffa500; stroke-linecap:butt; stroke-linejoin:round; stroke-width:4.8; stroke-opacity:1; fill:none" points="
  1463.83,1260.26 1463.83,1384.24 1500.73,1384.24 1500.73,1260.26 1463.83,1260.26 
  "/>
<path clip-path="url(#clip342)" d="
M1500.73 1284.68 L1500.73 1384.24 L1537.63 1384.24 L1537.63 1284.68 L1500.73 1284.68 L1500.73 1284.68  Z
  " fill="#ee7733" fill-rule="evenodd" fill-opacity="0.6"/>
<polyline clip-path="url(#clip342)" style="stroke:#ffa500; stroke-linecap:butt; stroke-linejoin:round; stroke-width:4.8; stroke-opacity:1; fill:none" points="
  1500.73,1284.68 1500.73,1384.24 1537.63,1384.24 1537.63,1284.68 1500.73,1284.68 
  "/>
<path clip-path="url(#clip342)" d="
M1537.63 1294.07 L1537.63 1384.24 L1574.53 1384.24 L1574.53 1294.07 L1537.63 1294.07 L1537.63 1294.07  Z
  " fill="#ee7733" fill-rule="evenodd" fill-opacity="0.6"/>
<polyline clip-path="url(#clip342)" style="stroke:#ffa500; stroke-linecap:butt; stroke-linejoin:round; stroke-width:4.8; stroke-opacity:1; fill:none" points="
  1537.63,1294.07 1537.63,1384.24 1574.53,1384.24 1574.53,1294.07 1537.63,1294.07 
  "/>
<path clip-path="url(#clip342)" d="
M1574.53 1288.43 L1574.53 1384.24 L1611.43 1384.24 L1611.43 1288.43 L1574.53 1288.43 L1574.53 1288.43  Z
  " fill="#ee7733" fill-rule="evenodd" fill-opacity="0.6"/>
<polyline clip-path="url(#clip342)" style="stroke:#ffa500; stroke-linecap:butt; stroke-linejoin:round; stroke-width:4.8; stroke-opacity:1; fill:none" points="
  1574.53,1288.43 1574.53,1384.24 1611.43,1384.24 1611.43,1288.43 1574.53,1288.43 
  "/>
<path clip-path="url(#clip342)" d="
M1611.43 1294.07 L1611.43 1384.24 L1648.33 1384.24 L1648.33 1294.07 L1611.43 1294.07 L1611.43 1294.07  Z
  " fill="#ee7733" fill-rule="evenodd" fill-opacity="0.6"/>
<polyline clip-path="url(#clip342)" style="stroke:#ffa500; stroke-linecap:butt; stroke-linejoin:round; stroke-width:4.8; stroke-opacity:1; fill:none" points="
  1611.43,1294.07 1611.43,1384.24 1648.33,1384.24 1648.33,1294.07 1611.43,1294.07 
  "/>
<path clip-path="url(#clip342)" d="
M1648.33 1297.83 L1648.33 1384.24 L1685.23 1384.24 L1685.23 1297.83 L1648.33 1297.83 L1648.33 1297.83  Z
  " fill="#ee7733" fill-rule="evenodd" fill-opacity="0.6"/>
<polyline clip-path="url(#clip342)" style="stroke:#ffa500; stroke-linecap:butt; stroke-linejoin:round; stroke-width:4.8; stroke-opacity:1; fill:none" points="
  1648.33,1297.83 1648.33,1384.24 1685.23,1384.24 1685.23,1297.83 1648.33,1297.83 
  "/>
<path clip-path="url(#clip342)" d="
M1685.23 1316.61 L1685.23 1384.24 L1722.13 1384.24 L1722.13 1316.61 L1685.23 1316.61 L1685.23 1316.61  Z
  " fill="#ee7733" fill-rule="evenodd" fill-opacity="0.6"/>
<polyline clip-path="url(#clip342)" style="stroke:#ffa500; stroke-linecap:butt; stroke-linejoin:round; stroke-width:4.8; stroke-opacity:1; fill:none" points="
  1685.23,1316.61 1685.23,1384.24 1722.13,1384.24 1722.13,1316.61 1685.23,1316.61 
  "/>
<path clip-path="url(#clip342)" d="
M1722.13 1339.15 L1722.13 1384.24 L1759.03 1384.24 L1759.03 1339.15 L1722.13 1339.15 L1722.13 1339.15  Z
  " fill="#ee7733" fill-rule="evenodd" fill-opacity="0.6"/>
<polyline clip-path="url(#clip342)" style="stroke:#ffa500; stroke-linecap:butt; stroke-linejoin:round; stroke-width:4.8; stroke-opacity:1; fill:none" points="
  1722.13,1339.15 1722.13,1384.24 1759.03,1384.24 1759.03,1339.15 1722.13,1339.15 
  "/>
<path clip-path="url(#clip342)" d="
M1759.03 1331.64 L1759.03 1384.24 L1795.93 1384.24 L1795.93 1331.64 L1759.03 1331.64 L1759.03 1331.64  Z
  " fill="#ee7733" fill-rule="evenodd" fill-opacity="0.6"/>
<polyline clip-path="url(#clip342)" style="stroke:#ffa500; stroke-linecap:butt; stroke-linejoin:round; stroke-width:4.8; stroke-opacity:1; fill:none" points="
  1759.03,1331.64 1759.03,1384.24 1795.93,1384.24 1795.93,1331.64 1759.03,1331.64 
  "/>
<path clip-path="url(#clip342)" d="
M1795.93 1344.79 L1795.93 1384.24 L1832.83 1384.24 L1832.83 1344.79 L1795.93 1344.79 L1795.93 1344.79  Z
  " fill="#ee7733" fill-rule="evenodd" fill-opacity="0.6"/>
<polyline clip-path="url(#clip342)" style="stroke:#ffa500; stroke-linecap:butt; stroke-linejoin:round; stroke-width:4.8; stroke-opacity:1; fill:none" points="
  1795.93,1344.79 1795.93,1384.24 1832.83,1384.24 1832.83,1344.79 1795.93,1344.79 
  "/>
<path clip-path="url(#clip342)" d="
M1832.83 1348.55 L1832.83 1384.24 L1869.73 1384.24 L1869.73 1348.55 L1832.83 1348.55 L1832.83 1348.55  Z
  " fill="#ee7733" fill-rule="evenodd" fill-opacity="0.6"/>
<polyline clip-path="url(#clip342)" style="stroke:#ffa500; stroke-linecap:butt; stroke-linejoin:round; stroke-width:4.8; stroke-opacity:1; fill:none" points="
  1832.83,1348.55 1832.83,1384.24 1869.73,1384.24 1869.73,1348.55 1832.83,1348.55 
  "/>
<path clip-path="url(#clip342)" d="
M1869.73 1350.43 L1869.73 1384.24 L1906.63 1384.24 L1906.63 1350.43 L1869.73 1350.43 L1869.73 1350.43  Z
  " fill="#ee7733" fill-rule="evenodd" fill-opacity="0.6"/>
<polyline clip-path="url(#clip342)" style="stroke:#ffa500; stroke-linecap:butt; stroke-linejoin:round; stroke-width:4.8; stroke-opacity:1; fill:none" points="
  1869.73,1350.43 1869.73,1384.24 1906.63,1384.24 1906.63,1350.43 1869.73,1350.43 
  "/>
<path clip-path="url(#clip342)" d="
M1906.63 1346.67 L1906.63 1384.24 L1943.53 1384.24 L1943.53 1346.67 L1906.63 1346.67 L1906.63 1346.67  Z
  " fill="#ee7733" fill-rule="evenodd" fill-opacity="0.6"/>
<polyline clip-path="url(#clip342)" style="stroke:#ffa500; stroke-linecap:butt; stroke-linejoin:round; stroke-width:4.8; stroke-opacity:1; fill:none" points="
  1906.63,1346.67 1906.63,1384.24 1943.53,1384.24 1943.53,1346.67 1906.63,1346.67 
  "/>
<path clip-path="url(#clip342)" d="
M1943.53 1352.3 L1943.53 1384.24 L1980.43 1384.24 L1980.43 1352.3 L1943.53 1352.3 L1943.53 1352.3  Z
  " fill="#ee7733" fill-rule="evenodd" fill-opacity="0.6"/>
<polyline clip-path="url(#clip342)" style="stroke:#ffa500; stroke-linecap:butt; stroke-linejoin:round; stroke-width:4.8; stroke-opacity:1; fill:none" points="
  1943.53,1352.3 1943.53,1384.24 1980.43,1384.24 1980.43,1352.3 1943.53,1352.3 
  "/>
<path clip-path="url(#clip342)" d="
M1980.43 1357.94 L1980.43 1384.24 L2017.33 1384.24 L2017.33 1357.94 L1980.43 1357.94 L1980.43 1357.94  Z
  " fill="#ee7733" fill-rule="evenodd" fill-opacity="0.6"/>
<polyline clip-path="url(#clip342)" style="stroke:#ffa500; stroke-linecap:butt; stroke-linejoin:round; stroke-width:4.8; stroke-opacity:1; fill:none" points="
  1980.43,1357.94 1980.43,1384.24 2017.33,1384.24 2017.33,1357.94 1980.43,1357.94 
  "/>
<path clip-path="url(#clip342)" d="
M2017.33 1372.97 L2017.33 1384.24 L2054.23 1384.24 L2054.23 1372.97 L2017.33 1372.97 L2017.33 1372.97  Z
  " fill="#ee7733" fill-rule="evenodd" fill-opacity="0.6"/>
<polyline clip-path="url(#clip342)" style="stroke:#ffa500; stroke-linecap:butt; stroke-linejoin:round; stroke-width:4.8; stroke-opacity:1; fill:none" points="
  2017.33,1372.97 2017.33,1384.24 2054.23,1384.24 2054.23,1372.97 2017.33,1372.97 
  "/>
<path clip-path="url(#clip342)" d="
M2054.23 1363.57 L2054.23 1384.24 L2091.13 1384.24 L2091.13 1363.57 L2054.23 1363.57 L2054.23 1363.57  Z
  " fill="#ee7733" fill-rule="evenodd" fill-opacity="0.6"/>
<polyline clip-path="url(#clip342)" style="stroke:#ffa500; stroke-linecap:butt; stroke-linejoin:round; stroke-width:4.8; stroke-opacity:1; fill:none" points="
  2054.23,1363.57 2054.23,1384.24 2091.13,1384.24 2091.13,1363.57 2054.23,1363.57 
  "/>
<path clip-path="url(#clip342)" d="
M2091.13 1357.94 L2091.13 1384.24 L2128.03 1384.24 L2128.03 1357.94 L2091.13 1357.94 L2091.13 1357.94  Z
  " fill="#ee7733" fill-rule="evenodd" fill-opacity="0.6"/>
<polyline clip-path="url(#clip342)" style="stroke:#ffa500; stroke-linecap:butt; stroke-linejoin:round; stroke-width:4.8; stroke-opacity:1; fill:none" points="
  2091.13,1357.94 2091.13,1384.24 2128.03,1384.24 2128.03,1357.94 2091.13,1357.94 
  "/>
<path clip-path="url(#clip342)" d="
M2128.03 1365.45 L2128.03 1384.24 L2164.93 1384.24 L2164.93 1365.45 L2128.03 1365.45 L2128.03 1365.45  Z
  " fill="#ee7733" fill-rule="evenodd" fill-opacity="0.6"/>
<polyline clip-path="url(#clip342)" style="stroke:#ffa500; stroke-linecap:butt; stroke-linejoin:round; stroke-width:4.8; stroke-opacity:1; fill:none" points="
  2128.03,1365.45 2128.03,1384.24 2164.93,1384.24 2164.93,1365.45 2128.03,1365.45 
  "/>
<path clip-path="url(#clip342)" d="
M2164.93 1374.85 L2164.93 1384.24 L2201.83 1384.24 L2201.83 1374.85 L2164.93 1374.85 L2164.93 1374.85  Z
  " fill="#ee7733" fill-rule="evenodd" fill-opacity="0.6"/>
<polyline clip-path="url(#clip342)" style="stroke:#ffa500; stroke-linecap:butt; stroke-linejoin:round; stroke-width:4.8; stroke-opacity:1; fill:none" points="
  2164.93,1374.85 2164.93,1384.24 2201.83,1384.24 2201.83,1374.85 2164.93,1374.85 
  "/>
<path clip-path="url(#clip342)" d="
M2201.83 1367.33 L2201.83 1384.24 L2238.73 1384.24 L2238.73 1367.33 L2201.83 1367.33 L2201.83 1367.33  Z
  " fill="#ee7733" fill-rule="evenodd" fill-opacity="0.6"/>
<polyline clip-path="url(#clip342)" style="stroke:#ffa500; stroke-linecap:butt; stroke-linejoin:round; stroke-width:4.8; stroke-opacity:1; fill:none" points="
  2201.83,1367.33 2201.83,1384.24 2238.73,1384.24 2238.73,1367.33 2201.83,1367.33 
  "/>
<circle clip-path="url(#clip342)" style="fill:#ee7733; stroke:none; fill-opacity:0" cx="412.176" cy="1367.33" r="2"/>
<circle clip-path="url(#clip342)" style="fill:#ee7733; stroke:none; fill-opacity:0" cx="449.076" cy="1267.77" r="2"/>
<circle clip-path="url(#clip342)" style="fill:#ee7733; stroke:none; fill-opacity:0" cx="485.976" cy="1089.31" r="2"/>
<circle clip-path="url(#clip342)" style="fill:#ee7733; stroke:none; fill-opacity:0" cx="522.876" cy="730.516" r="2"/>
<circle clip-path="url(#clip342)" style="fill:#ee7733; stroke:none; fill-opacity:0" cx="559.776" cy="441.225" r="2"/>
<circle clip-path="url(#clip342)" style="fill:#ee7733; stroke:none; fill-opacity:0" cx="596.676" cy="309.729" r="2"/>
<circle clip-path="url(#clip342)" style="fill:#ee7733; stroke:none; fill-opacity:0" cx="633.577" cy="255.252" r="2"/>
<circle clip-path="url(#clip342)" style="fill:#ee7733; stroke:none; fill-opacity:0" cx="670.477" cy="86.1857" r="2"/>
<circle clip-path="url(#clip342)" style="fill:#ee7733; stroke:none; fill-opacity:0" cx="707.377" cy="140.663" r="2"/>
<circle clip-path="url(#clip342)" style="fill:#ee7733; stroke:none; fill-opacity:0" cx="744.277" cy="251.495" r="2"/>
<circle clip-path="url(#clip342)" style="fill:#ee7733; stroke:none; fill-opacity:0" cx="781.177" cy="221.439" r="2"/>
<circle clip-path="url(#clip342)" style="fill:#ee7733; stroke:none; fill-opacity:0" cx="818.078" cy="347.299" r="2"/>
<circle clip-path="url(#clip342)" style="fill:#ee7733; stroke:none; fill-opacity:0" cx="854.978" cy="409.29" r="2"/>
<circle clip-path="url(#clip342)" style="fill:#ee7733; stroke:none; fill-opacity:0" cx="891.878" cy="546.421" r="2"/>
<circle clip-path="url(#clip342)" style="fill:#ee7733; stroke:none; fill-opacity:0" cx="928.778" cy="580.235" r="2"/>
<circle clip-path="url(#clip342)" style="fill:#ee7733; stroke:none; fill-opacity:0" cx="965.678" cy="668.525" r="2"/>
<circle clip-path="url(#clip342)" style="fill:#ee7733; stroke:none; fill-opacity:0" cx="1002.58" cy="830.077" r="2"/>
<circle clip-path="url(#clip342)" style="fill:#ee7733; stroke:none; fill-opacity:0" cx="1039.48" cy="841.348" r="2"/>
<circle clip-path="url(#clip342)" style="fill:#ee7733; stroke:none; fill-opacity:0" cx="1076.38" cy="877.04" r="2"/>
<circle clip-path="url(#clip342)" style="fill:#ee7733; stroke:none; fill-opacity:0" cx="1113.28" cy="999.143" r="2"/>
<circle clip-path="url(#clip342)" style="fill:#ee7733; stroke:none; fill-opacity:0" cx="1150.18" cy="1004.78" r="2"/>
<circle clip-path="url(#clip342)" style="fill:#ee7733; stroke:none; fill-opacity:0" cx="1187.08" cy="1051.74" r="2"/>
<circle clip-path="url(#clip342)" style="fill:#ee7733; stroke:none; fill-opacity:0" cx="1223.98" cy="1094.95" r="2"/>
<circle clip-path="url(#clip342)" style="fill:#ee7733; stroke:none; fill-opacity:0" cx="1260.88" cy="1130.64" r="2"/>
<circle clip-path="url(#clip342)" style="fill:#ee7733; stroke:none; fill-opacity:0" cx="1297.78" cy="1149.42" r="2"/>
<circle clip-path="url(#clip342)" style="fill:#ee7733; stroke:none; fill-opacity:0" cx="1334.68" cy="1181.36" r="2"/>
<circle clip-path="url(#clip342)" style="fill:#ee7733; stroke:none; fill-opacity:0" cx="1371.58" cy="1209.54" r="2"/>
<circle clip-path="url(#clip342)" style="fill:#ee7733; stroke:none; fill-opacity:0" cx="1408.48" cy="1241.47" r="2"/>
<circle clip-path="url(#clip342)" style="fill:#ee7733; stroke:none; fill-opacity:0" cx="1445.38" cy="1239.59" r="2"/>
<circle clip-path="url(#clip342)" style="fill:#ee7733; stroke:none; fill-opacity:0" cx="1482.28" cy="1260.26" r="2"/>
<circle clip-path="url(#clip342)" style="fill:#ee7733; stroke:none; fill-opacity:0" cx="1519.18" cy="1284.68" r="2"/>
<circle clip-path="url(#clip342)" style="fill:#ee7733; stroke:none; fill-opacity:0" cx="1556.08" cy="1294.07" r="2"/>
<circle clip-path="url(#clip342)" style="fill:#ee7733; stroke:none; fill-opacity:0" cx="1592.98" cy="1288.43" r="2"/>
<circle clip-path="url(#clip342)" style="fill:#ee7733; stroke:none; fill-opacity:0" cx="1629.88" cy="1294.07" r="2"/>
<circle clip-path="url(#clip342)" style="fill:#ee7733; stroke:none; fill-opacity:0" cx="1666.78" cy="1297.83" r="2"/>
<circle clip-path="url(#clip342)" style="fill:#ee7733; stroke:none; fill-opacity:0" cx="1703.68" cy="1316.61" r="2"/>
<circle clip-path="url(#clip342)" style="fill:#ee7733; stroke:none; fill-opacity:0" cx="1740.58" cy="1339.15" r="2"/>
<circle clip-path="url(#clip342)" style="fill:#ee7733; stroke:none; fill-opacity:0" cx="1777.48" cy="1331.64" r="2"/>
<circle clip-path="url(#clip342)" style="fill:#ee7733; stroke:none; fill-opacity:0" cx="1814.38" cy="1344.79" r="2"/>
<circle clip-path="url(#clip342)" style="fill:#ee7733; stroke:none; fill-opacity:0" cx="1851.28" cy="1348.55" r="2"/>
<circle clip-path="url(#clip342)" style="fill:#ee7733; stroke:none; fill-opacity:0" cx="1888.18" cy="1350.43" r="2"/>
<circle clip-path="url(#clip342)" style="fill:#ee7733; stroke:none; fill-opacity:0" cx="1925.08" cy="1346.67" r="2"/>
<circle clip-path="url(#clip342)" style="fill:#ee7733; stroke:none; fill-opacity:0" cx="1961.98" cy="1352.3" r="2"/>
<circle clip-path="url(#clip342)" style="fill:#ee7733; stroke:none; fill-opacity:0" cx="1998.88" cy="1357.94" r="2"/>
<circle clip-path="url(#clip342)" style="fill:#ee7733; stroke:none; fill-opacity:0" cx="2035.78" cy="1372.97" r="2"/>
<circle clip-path="url(#clip342)" style="fill:#ee7733; stroke:none; fill-opacity:0" cx="2072.68" cy="1363.57" r="2"/>
<circle clip-path="url(#clip342)" style="fill:#ee7733; stroke:none; fill-opacity:0" cx="2109.58" cy="1357.94" r="2"/>
<circle clip-path="url(#clip342)" style="fill:#ee7733; stroke:none; fill-opacity:0" cx="2146.48" cy="1365.45" r="2"/>
<circle clip-path="url(#clip342)" style="fill:#ee7733; stroke:none; fill-opacity:0" cx="2183.38" cy="1374.85" r="2"/>
<circle clip-path="url(#clip342)" style="fill:#ee7733; stroke:none; fill-opacity:0" cx="2220.28" cy="1367.33" r="2"/>
</svg>
