<?xml version="1.0" encoding="utf-8"?>
<svg xmlns="http://www.w3.org/2000/svg" xmlns:xlink="http://www.w3.org/1999/xlink" width="600" height="400" viewBox="0 0 2400 1600">
<defs>
  <clipPath id="clip780">
    <rect x="0" y="0" width="2400" height="1600"/>
  </clipPath>
</defs>
<path clip-path="url(#clip780)" d="
M0 1600 L2400 1600 L2400 0 L0 0  Z
  " fill="#ffffff" fill-rule="evenodd" fill-opacity="1"/>
<defs>
  <clipPath id="clip781">
    <rect x="480" y="0" width="1681" height="1600"/>
  </clipPath>
</defs>
<path clip-path="url(#clip780)" d="
M202.227 1423.18 L2352.76 1423.18 L2352.76 47.2441 L202.227 47.2441  Z
  " fill="#ffffff" fill-rule="evenodd" fill-opacity="1"/>
<defs>
  <clipPath id="clip782">
    <rect x="202" y="47" width="2152" height="1377"/>
  </clipPath>
</defs>
<polyline clip-path="url(#clip782)" style="stroke:#000000; stroke-linecap:butt; stroke-linejoin:round; stroke-width:2; stroke-opacity:0.1; fill:none" points="
  263.091,1423.18 263.091,47.2441 
  "/>
<polyline clip-path="url(#clip782)" style="stroke:#000000; stroke-linecap:butt; stroke-linejoin:round; stroke-width:2; stroke-opacity:0.1; fill:none" points="
  939.358,1423.18 939.358,47.2441 
  "/>
<polyline clip-path="url(#clip782)" style="stroke:#000000; stroke-linecap:butt; stroke-linejoin:round; stroke-width:2; stroke-opacity:0.1; fill:none" points="
  1615.63,1423.18 1615.63,47.2441 
  "/>
<polyline clip-path="url(#clip782)" style="stroke:#000000; stroke-linecap:butt; stroke-linejoin:round; stroke-width:2; stroke-opacity:0.1; fill:none" points="
  2291.89,1423.18 2291.89,47.2441 
  "/>
<polyline clip-path="url(#clip780)" style="stroke:#000000; stroke-linecap:butt; stroke-linejoin:round; stroke-width:4; stroke-opacity:1; fill:none" points="
  202.227,1423.18 2352.76,1423.18 
  "/>
<polyline clip-path="url(#clip780)" style="stroke:#000000; stroke-linecap:butt; stroke-linejoin:round; stroke-width:4; stroke-opacity:1; fill:none" points="
  263.091,1423.18 263.091,1404.28 
  "/>
<polyline clip-path="url(#clip780)" style="stroke:#000000; stroke-linecap:butt; stroke-linejoin:round; stroke-width:4; stroke-opacity:1; fill:none" points="
  939.358,1423.18 939.358,1404.28 
  "/>
<polyline clip-path="url(#clip780)" style="stroke:#000000; stroke-linecap:butt; stroke-linejoin:round; stroke-width:4; stroke-opacity:1; fill:none" points="
  1615.63,1423.18 1615.63,1404.28 
  "/>
<polyline clip-path="url(#clip780)" style="stroke:#000000; stroke-linecap:butt; stroke-linejoin:round; stroke-width:4; stroke-opacity:1; fill:none" points="
  2291.89,1423.18 2291.89,1404.28 
  "/>
<path clip-path="url(#clip780)" d="M263.091 1452.37 Q259.48 1452.37 257.652 1455.94 Q255.846 1459.48 255.846 1466.61 Q255.846 1473.71 257.652 1477.28 Q259.48 1480.82 263.091 1480.82 Q266.726 1480.82 268.531 1477.28 Q270.36 1473.71 270.36 1466.61 Q270.36 1459.48 268.531 1455.94 Q266.726 1452.37 263.091 1452.37 M263.091 1448.67 Q268.902 1448.67 271.957 1453.27 Q275.036 1457.86 275.036 1466.61 Q275.036 1475.33 271.957 1479.94 Q268.902 1484.52 263.091 1484.52 Q257.281 1484.52 254.203 1479.94 Q251.147 1475.33 251.147 1466.61 Q251.147 1457.86 254.203 1453.27 Q257.281 1448.67 263.091 1448.67 Z" fill="#000000" fill-rule="evenodd" fill-opacity="1" /><path clip-path="url(#clip780)" d="M898.965 1479.92 L906.604 1479.92 L906.604 1453.55 L898.294 1455.22 L898.294 1450.96 L906.558 1449.29 L911.233 1449.29 L911.233 1479.92 L918.872 1479.92 L918.872 1483.85 L898.965 1483.85 L898.965 1479.92 Z" fill="#000000" fill-rule="evenodd" fill-opacity="1" /><path clip-path="url(#clip780)" d="M938.317 1452.37 Q934.706 1452.37 932.877 1455.94 Q931.071 1459.48 931.071 1466.61 Q931.071 1473.71 932.877 1477.28 Q934.706 1480.82 938.317 1480.82 Q941.951 1480.82 943.756 1477.28 Q945.585 1473.71 945.585 1466.61 Q945.585 1459.48 943.756 1455.94 Q941.951 1452.37 938.317 1452.37 M938.317 1448.67 Q944.127 1448.67 947.182 1453.27 Q950.261 1457.86 950.261 1466.61 Q950.261 1475.33 947.182 1479.94 Q944.127 1484.52 938.317 1484.52 Q932.506 1484.52 929.428 1479.94 Q926.372 1475.33 926.372 1466.61 Q926.372 1457.86 929.428 1453.27 Q932.506 1448.67 938.317 1448.67 Z" fill="#000000" fill-rule="evenodd" fill-opacity="1" /><path clip-path="url(#clip780)" d="M968.479 1452.37 Q964.867 1452.37 963.039 1455.94 Q961.233 1459.48 961.233 1466.61 Q961.233 1473.71 963.039 1477.28 Q964.867 1480.82 968.479 1480.82 Q972.113 1480.82 973.918 1477.28 Q975.747 1473.71 975.747 1466.61 Q975.747 1459.48 973.918 1455.94 Q972.113 1452.37 968.479 1452.37 M968.479 1448.67 Q974.289 1448.67 977.344 1453.27 Q980.423 1457.86 980.423 1466.61 Q980.423 1475.33 977.344 1479.94 Q974.289 1484.52 968.479 1484.52 Q962.668 1484.52 959.59 1479.94 Q956.534 1475.33 956.534 1466.61 Q956.534 1457.86 959.59 1453.27 Q962.668 1448.67 968.479 1448.67 Z" fill="#000000" fill-rule="evenodd" fill-opacity="1" /><path clip-path="url(#clip780)" d="M1579.32 1479.92 L1595.64 1479.92 L1595.64 1483.85 L1573.69 1483.85 L1573.69 1479.92 Q1576.35 1477.16 1580.94 1472.53 Q1585.54 1467.88 1586.72 1466.54 Q1588.97 1464.01 1589.85 1462.28 Q1590.75 1460.52 1590.75 1458.83 Q1590.75 1456.07 1588.81 1454.34 Q1586.89 1452.6 1583.78 1452.6 Q1581.59 1452.6 1579.13 1453.37 Q1576.7 1454.13 1573.92 1455.68 L1573.92 1450.96 Q1576.75 1449.82 1579.2 1449.25 Q1581.66 1448.67 1583.69 1448.67 Q1589.06 1448.67 1592.26 1451.35 Q1595.45 1454.04 1595.45 1458.53 Q1595.45 1460.66 1594.64 1462.58 Q1593.85 1464.48 1591.75 1467.07 Q1591.17 1467.74 1588.07 1470.96 Q1584.97 1474.15 1579.32 1479.92 Z" fill="#000000" fill-rule="evenodd" fill-opacity="1" /><path clip-path="url(#clip780)" d="M1615.45 1452.37 Q1611.84 1452.37 1610.01 1455.94 Q1608.21 1459.48 1608.21 1466.61 Q1608.21 1473.71 1610.01 1477.28 Q1611.84 1480.82 1615.45 1480.82 Q1619.09 1480.82 1620.89 1477.28 Q1622.72 1473.71 1622.72 1466.61 Q1622.72 1459.48 1620.89 1455.94 Q1619.09 1452.37 1615.45 1452.37 M1615.45 1448.67 Q1621.26 1448.67 1624.32 1453.27 Q1627.4 1457.86 1627.4 1466.61 Q1627.4 1475.33 1624.32 1479.94 Q1621.26 1484.52 1615.45 1484.52 Q1609.64 1484.52 1606.56 1479.94 Q1603.51 1475.33 1603.51 1466.61 Q1603.51 1457.86 1606.56 1453.27 Q1609.64 1448.67 1615.45 1448.67 Z" fill="#000000" fill-rule="evenodd" fill-opacity="1" /><path clip-path="url(#clip780)" d="M1645.61 1452.37 Q1642 1452.37 1640.17 1455.94 Q1638.37 1459.48 1638.37 1466.61 Q1638.37 1473.71 1640.17 1477.28 Q1642 1480.82 1645.61 1480.82 Q1649.25 1480.82 1651.05 1477.28 Q1652.88 1473.71 1652.88 1466.61 Q1652.88 1459.48 1651.05 1455.94 Q1649.25 1452.37 1645.61 1452.37 M1645.61 1448.67 Q1651.42 1448.67 1654.48 1453.27 Q1657.56 1457.86 1657.56 1466.61 Q1657.56 1475.33 1654.48 1479.94 Q1651.42 1484.52 1645.61 1484.52 Q1639.8 1484.52 1636.72 1479.94 Q1633.67 1475.33 1633.67 1466.61 Q1633.67 1457.86 1636.72 1453.27 Q1639.8 1448.67 1645.61 1448.67 Z" fill="#000000" fill-rule="evenodd" fill-opacity="1" /><path clip-path="url(#clip780)" d="M2265.65 1465.22 Q2269.01 1465.94 2270.89 1468.2 Q2272.78 1470.47 2272.78 1473.81 Q2272.78 1478.92 2269.26 1481.72 Q2265.75 1484.52 2259.26 1484.52 Q2257.09 1484.52 2254.77 1484.08 Q2252.48 1483.67 2250.03 1482.81 L2250.03 1478.3 Q2251.97 1479.43 2254.29 1480.01 Q2256.6 1480.59 2259.13 1480.59 Q2263.52 1480.59 2265.82 1478.85 Q2268.13 1477.12 2268.13 1473.81 Q2268.13 1470.75 2265.98 1469.04 Q2263.85 1467.3 2260.03 1467.3 L2256 1467.3 L2256 1463.46 L2260.21 1463.46 Q2263.66 1463.46 2265.49 1462.09 Q2267.32 1460.7 2267.32 1458.11 Q2267.32 1455.45 2265.42 1454.04 Q2263.55 1452.6 2260.03 1452.6 Q2258.11 1452.6 2255.91 1453.02 Q2253.71 1453.44 2251.07 1454.31 L2251.07 1450.15 Q2253.73 1449.41 2256.05 1449.04 Q2258.39 1448.67 2260.45 1448.67 Q2265.77 1448.67 2268.87 1451.1 Q2271.97 1453.5 2271.97 1457.63 Q2271.97 1460.5 2270.33 1462.49 Q2268.69 1464.45 2265.65 1465.22 Z" fill="#000000" fill-rule="evenodd" fill-opacity="1" /><path clip-path="url(#clip780)" d="M2291.65 1452.37 Q2288.04 1452.37 2286.21 1455.94 Q2284.4 1459.48 2284.4 1466.61 Q2284.4 1473.71 2286.21 1477.28 Q2288.04 1480.82 2291.65 1480.82 Q2295.28 1480.82 2297.09 1477.28 Q2298.92 1473.71 2298.92 1466.61 Q2298.92 1459.48 2297.09 1455.94 Q2295.28 1452.37 2291.65 1452.37 M2291.65 1448.67 Q2297.46 1448.67 2300.51 1453.27 Q2303.59 1457.86 2303.59 1466.61 Q2303.59 1475.33 2300.51 1479.94 Q2297.46 1484.52 2291.65 1484.52 Q2285.84 1484.52 2282.76 1479.94 Q2279.7 1475.33 2279.7 1466.61 Q2279.7 1457.86 2282.76 1453.27 Q2285.84 1448.67 2291.65 1448.67 Z" fill="#000000" fill-rule="evenodd" fill-opacity="1" /><path clip-path="url(#clip780)" d="M2321.81 1452.37 Q2318.2 1452.37 2316.37 1455.94 Q2314.57 1459.48 2314.57 1466.61 Q2314.57 1473.71 2316.37 1477.28 Q2318.2 1480.82 2321.81 1480.82 Q2325.44 1480.82 2327.25 1477.28 Q2329.08 1473.71 2329.08 1466.61 Q2329.08 1459.48 2327.25 1455.94 Q2325.44 1452.37 2321.81 1452.37 M2321.81 1448.67 Q2327.62 1448.67 2330.68 1453.27 Q2333.76 1457.86 2333.76 1466.61 Q2333.76 1475.33 2330.68 1479.94 Q2327.62 1484.52 2321.81 1484.52 Q2316 1484.52 2312.92 1479.94 Q2309.87 1475.33 2309.87 1466.61 Q2309.87 1457.86 2312.92 1453.27 Q2316 1448.67 2321.81 1448.67 Z" fill="#000000" fill-rule="evenodd" fill-opacity="1" /><path clip-path="url(#clip780)" d="M1199.37 1520.52 L1239.57 1520.52 L1239.57 1525.93 L1222.7 1525.93 L1222.7 1568.04 L1216.24 1568.04 L1216.24 1525.93 L1199.37 1525.93 L1199.37 1520.52 Z" fill="#000000" fill-rule="evenodd" fill-opacity="1" /><path clip-path="url(#clip780)" d="M1243.51 1532.4 L1249.37 1532.4 L1249.37 1568.04 L1243.51 1568.04 L1243.51 1532.4 M1243.51 1518.52 L1249.37 1518.52 L1249.37 1525.93 L1243.51 1525.93 L1243.51 1518.52 Z" fill="#000000" fill-rule="evenodd" fill-opacity="1" /><path clip-path="url(#clip780)" d="M1289.38 1539.24 Q1291.58 1535.29 1294.63 1533.41 Q1297.69 1531.54 1301.82 1531.54 Q1307.39 1531.54 1310.42 1535.45 Q1313.44 1539.33 1313.44 1546.53 L1313.44 1568.04 L1307.55 1568.04 L1307.55 1546.72 Q1307.55 1541.59 1305.74 1539.11 Q1303.93 1536.63 1300.2 1536.63 Q1295.65 1536.63 1293.01 1539.65 Q1290.37 1542.68 1290.37 1547.9 L1290.37 1568.04 L1284.48 1568.04 L1284.48 1546.72 Q1284.48 1541.56 1282.66 1539.11 Q1280.85 1536.63 1277.06 1536.63 Q1272.57 1536.63 1269.93 1539.68 Q1267.29 1542.71 1267.29 1547.9 L1267.29 1568.04 L1261.4 1568.04 L1261.4 1532.4 L1267.29 1532.4 L1267.29 1537.93 Q1269.3 1534.66 1272.1 1533.1 Q1274.9 1531.54 1278.75 1531.54 Q1282.63 1531.54 1285.34 1533.51 Q1288.07 1535.48 1289.38 1539.24 Z" fill="#000000" fill-rule="evenodd" fill-opacity="1" /><path clip-path="url(#clip780)" d="M1355.61 1548.76 L1355.61 1551.62 L1328.69 1551.62 Q1329.07 1557.67 1332.32 1560.85 Q1335.59 1564 1341.42 1564 Q1344.79 1564 1347.94 1563.17 Q1351.13 1562.35 1354.25 1560.69 L1354.25 1566.23 Q1351.1 1567.57 1347.79 1568.27 Q1344.47 1568.97 1341.07 1568.97 Q1332.54 1568.97 1327.54 1564 Q1322.58 1559.04 1322.58 1550.57 Q1322.58 1541.82 1327.29 1536.69 Q1332.03 1531.54 1340.05 1531.54 Q1347.24 1531.54 1351.41 1536.18 Q1355.61 1540.8 1355.61 1548.76 M1349.76 1547.04 Q1349.69 1542.23 1347.05 1539.37 Q1344.44 1536.5 1340.11 1536.5 Q1335.21 1536.5 1332.25 1539.27 Q1329.32 1542.04 1328.88 1547.07 L1349.76 1547.04 Z" fill="#000000" fill-rule="evenodd" fill-opacity="1" /><polyline clip-path="url(#clip782)" style="stroke:#000000; stroke-linecap:butt; stroke-linejoin:round; stroke-width:2; stroke-opacity:0.1; fill:none" points="
  202.227,1384.24 2352.76,1384.24 
  "/>
<polyline clip-path="url(#clip782)" style="stroke:#000000; stroke-linecap:butt; stroke-linejoin:round; stroke-width:2; stroke-opacity:0.1; fill:none" points="
  202.227,978.597 2352.76,978.597 
  "/>
<polyline clip-path="url(#clip782)" style="stroke:#000000; stroke-linecap:butt; stroke-linejoin:round; stroke-width:2; stroke-opacity:0.1; fill:none" points="
  202.227,572.955 2352.76,572.955 
  "/>
<polyline clip-path="url(#clip782)" style="stroke:#000000; stroke-linecap:butt; stroke-linejoin:round; stroke-width:2; stroke-opacity:0.1; fill:none" points="
  202.227,167.314 2352.76,167.314 
  "/>
<polyline clip-path="url(#clip780)" style="stroke:#000000; stroke-linecap:butt; stroke-linejoin:round; stroke-width:4; stroke-opacity:1; fill:none" points="
  202.227,1423.18 202.227,47.2441 
  "/>
<polyline clip-path="url(#clip780)" style="stroke:#000000; stroke-linecap:butt; stroke-linejoin:round; stroke-width:4; stroke-opacity:1; fill:none" points="
  202.227,1384.24 221.125,1384.24 
  "/>
<polyline clip-path="url(#clip780)" style="stroke:#000000; stroke-linecap:butt; stroke-linejoin:round; stroke-width:4; stroke-opacity:1; fill:none" points="
  202.227,978.597 221.125,978.597 
  "/>
<polyline clip-path="url(#clip780)" style="stroke:#000000; stroke-linecap:butt; stroke-linejoin:round; stroke-width:4; stroke-opacity:1; fill:none" points="
  202.227,572.955 221.125,572.955 
  "/>
<polyline clip-path="url(#clip780)" style="stroke:#000000; stroke-linecap:butt; stroke-linejoin:round; stroke-width:4; stroke-opacity:1; fill:none" points="
  202.227,167.314 221.125,167.314 
  "/>
<path clip-path="url(#clip780)" d="M154.283 1370.04 Q150.672 1370.04 148.843 1373.6 Q147.038 1377.14 147.038 1384.27 Q147.038 1391.38 148.843 1394.94 Q150.672 1398.49 154.283 1398.49 Q157.917 1398.49 159.723 1394.94 Q161.552 1391.38 161.552 1384.27 Q161.552 1377.14 159.723 1373.6 Q157.917 1370.04 154.283 1370.04 M154.283 1366.33 Q160.093 1366.33 163.149 1370.94 Q166.227 1375.52 166.227 1384.27 Q166.227 1393 163.149 1397.61 Q160.093 1402.19 154.283 1402.19 Q148.473 1402.19 145.394 1397.61 Q142.339 1393 142.339 1384.27 Q142.339 1375.52 145.394 1370.94 Q148.473 1366.33 154.283 1366.33 Z" fill="#000000" fill-rule="evenodd" fill-opacity="1" /><path clip-path="url(#clip780)" d="M145.325 961.317 L163.681 961.317 L163.681 965.252 L149.607 965.252 L149.607 973.724 Q150.626 973.377 151.644 973.215 Q152.663 973.03 153.681 973.03 Q159.468 973.03 162.848 976.201 Q166.227 979.372 166.227 984.789 Q166.227 990.368 162.755 993.469 Q159.283 996.548 152.964 996.548 Q150.788 996.548 148.519 996.178 Q146.274 995.807 143.866 995.067 L143.866 990.368 Q145.95 991.502 148.172 992.057 Q150.394 992.613 152.871 992.613 Q156.876 992.613 159.214 990.506 Q161.552 988.4 161.552 984.789 Q161.552 981.178 159.214 979.071 Q156.876 976.965 152.871 976.965 Q150.996 976.965 149.121 977.382 Q147.269 977.798 145.325 978.678 L145.325 961.317 Z" fill="#000000" fill-rule="evenodd" fill-opacity="1" /><path clip-path="url(#clip780)" d="M114.931 586.3 L122.57 586.3 L122.57 559.935 L114.26 561.601 L114.26 557.342 L122.524 555.675 L127.2 555.675 L127.2 586.3 L134.839 586.3 L134.839 590.235 L114.931 590.235 L114.931 586.3 Z" fill="#000000" fill-rule="evenodd" fill-opacity="1" /><path clip-path="url(#clip780)" d="M154.283 558.754 Q150.672 558.754 148.843 562.319 Q147.038 565.861 147.038 572.99 Q147.038 580.097 148.843 583.661 Q150.672 587.203 154.283 587.203 Q157.917 587.203 159.723 583.661 Q161.552 580.097 161.552 572.99 Q161.552 565.861 159.723 562.319 Q157.917 558.754 154.283 558.754 M154.283 555.05 Q160.093 555.05 163.149 559.657 Q166.227 564.24 166.227 572.99 Q166.227 581.717 163.149 586.323 Q160.093 590.907 154.283 590.907 Q148.473 590.907 145.394 586.323 Q142.339 581.717 142.339 572.99 Q142.339 564.24 145.394 559.657 Q148.473 555.05 154.283 555.05 Z" fill="#000000" fill-rule="evenodd" fill-opacity="1" /><path clip-path="url(#clip780)" d="M115.927 180.659 L123.566 180.659 L123.566 154.293 L115.256 155.96 L115.256 151.701 L123.519 150.034 L128.195 150.034 L128.195 180.659 L135.834 180.659 L135.834 184.594 L115.927 184.594 L115.927 180.659 Z" fill="#000000" fill-rule="evenodd" fill-opacity="1" /><path clip-path="url(#clip780)" d="M145.325 150.034 L163.681 150.034 L163.681 153.969 L149.607 153.969 L149.607 162.441 Q150.626 162.094 151.644 161.932 Q152.663 161.747 153.681 161.747 Q159.468 161.747 162.848 164.918 Q166.227 168.089 166.227 173.506 Q166.227 179.085 162.755 182.187 Q159.283 185.265 152.964 185.265 Q150.788 185.265 148.519 184.895 Q146.274 184.525 143.866 183.784 L143.866 179.085 Q145.95 180.219 148.172 180.775 Q150.394 181.33 152.871 181.33 Q156.876 181.33 159.214 179.224 Q161.552 177.117 161.552 173.506 Q161.552 169.895 159.214 167.788 Q156.876 165.682 152.871 165.682 Q150.996 165.682 149.121 166.099 Q147.269 166.515 145.325 167.395 L145.325 150.034 Z" fill="#000000" fill-rule="evenodd" fill-opacity="1" /><path clip-path="url(#clip780)" d="M35.3266 957.407 L35.3266 966.669 L45.9574 969.343 L45.9574 960.017 L35.3266 957.407 M17.2162 962.181 L30.4251 965.491 L30.4251 956.197 L17.2162 952.855 L17.2162 947.763 L30.4251 951.041 L30.4251 941.111 L35.3266 941.111 L35.3266 952.283 L45.9574 954.893 L45.9574 944.771 L50.8271 944.771 L50.8271 956.134 L64.0042 959.444 L64.0042 964.537 L50.8271 961.258 L50.8271 970.584 L64.0042 973.862 L64.0042 978.987 L50.8271 975.677 L50.8271 985.703 L45.9574 985.703 L45.9574 974.499 L35.3266 971.825 L35.3266 982.074 L30.4251 982.074 L30.4251 970.584 L17.2162 967.337 L17.2162 962.181 Z" fill="#000000" fill-rule="evenodd" fill-opacity="1" /><path clip-path="url(#clip780)" d="M32.4621 895.437 Q32.4621 900.147 36.1542 902.885 Q39.8145 905.622 46.212 905.622 Q52.6095 905.622 56.3017 902.917 Q59.9619 900.179 59.9619 895.437 Q59.9619 890.758 56.2698 888.021 Q52.5777 885.284 46.212 885.284 Q39.8781 885.284 36.186 888.021 Q32.4621 890.758 32.4621 895.437 M27.4968 895.437 Q27.4968 887.798 32.4621 883.437 Q37.4273 879.077 46.212 879.077 Q54.9649 879.077 59.9619 883.437 Q64.9272 887.798 64.9272 895.437 Q64.9272 903.107 59.9619 907.468 Q54.9649 911.797 46.212 911.797 Q37.4273 911.797 32.4621 907.468 Q27.4968 903.107 27.4968 895.437 Z" fill="#000000" fill-rule="evenodd" fill-opacity="1" /><path clip-path="url(#clip780)" d="M14.479 851.322 L19.3487 851.322 L19.3487 856.924 Q19.3487 860.075 20.6219 861.317 Q21.895 862.526 25.2052 862.526 L28.3562 862.526 L28.3562 852.882 L32.9077 852.882 L32.9077 862.526 L64.0042 862.526 L64.0042 868.414 L32.9077 868.414 L32.9077 874.016 L28.3562 874.016 L28.3562 868.414 L25.8736 868.414 Q19.9216 868.414 17.2162 865.645 Q14.479 862.876 14.479 856.861 L14.479 851.322 Z" fill="#000000" fill-rule="evenodd" fill-opacity="1" /><path clip-path="url(#clip780)" d="M28.3562 825.7 L28.3562 819.844 L64.0042 819.844 L64.0042 825.7 L28.3562 825.7 M14.479 825.7 L14.479 819.844 L21.895 819.844 L21.895 825.7 L14.479 825.7 Z" fill="#000000" fill-rule="evenodd" fill-opacity="1" /><path clip-path="url(#clip780)" d="M42.4881 777.958 L64.0042 777.958 L64.0042 783.814 L42.679 783.814 Q37.6183 783.814 35.1038 785.788 Q32.5894 787.761 32.5894 791.708 Q32.5894 796.45 35.6131 799.187 Q38.6368 801.925 43.8567 801.925 L64.0042 801.925 L64.0042 807.813 L28.3562 807.813 L28.3562 801.925 L33.8944 801.925 Q30.6797 799.824 29.0883 796.991 Q27.4968 794.127 27.4968 790.403 Q27.4968 784.26 31.3163 781.109 Q35.1038 777.958 42.4881 777.958 Z" fill="#000000" fill-rule="evenodd" fill-opacity="1" /><path clip-path="url(#clip780)" d="M33.7671 742.819 L14.479 742.819 L14.479 736.963 L64.0042 736.963 L64.0042 742.819 L58.657 742.819 Q61.8398 744.665 63.3994 747.498 Q64.9272 750.299 64.9272 754.245 Q64.9272 760.707 59.771 764.781 Q54.6147 768.823 46.212 768.823 Q37.8093 768.823 32.6531 764.781 Q27.4968 760.707 27.4968 754.245 Q27.4968 750.299 29.0564 747.498 Q30.5842 744.665 33.7671 742.819 M46.212 762.775 Q52.6732 762.775 56.3653 760.134 Q60.0256 757.46 60.0256 752.813 Q60.0256 748.166 56.3653 745.493 Q52.6732 742.819 46.212 742.819 Q39.7508 742.819 36.0905 745.493 Q32.3984 748.166 32.3984 752.813 Q32.3984 757.46 36.0905 760.134 Q39.7508 762.775 46.212 762.775 Z" fill="#000000" fill-rule="evenodd" fill-opacity="1" /><path clip-path="url(#clip780)" d="M28.3562 724.9 L28.3562 719.043 L64.0042 719.043 L64.0042 724.9 L28.3562 724.9 M14.479 724.9 L14.479 719.043 L21.895 719.043 L21.895 724.9 L14.479 724.9 Z" fill="#000000" fill-rule="evenodd" fill-opacity="1" /><path clip-path="url(#clip780)" d="M28.3562 710.99 L28.3562 704.784 L58.275 693.644 L28.3562 682.504 L28.3562 676.297 L64.0042 689.665 L64.0042 697.622 L28.3562 710.99 Z" fill="#000000" fill-rule="evenodd" fill-opacity="1" /><path clip-path="url(#clip780)" d="M28.3562 668.213 L28.3562 662.356 L64.0042 662.356 L64.0042 668.213 L28.3562 668.213 M14.479 668.213 L14.479 662.356 L21.895 662.356 L21.895 668.213 L14.479 668.213 Z" fill="#000000" fill-rule="evenodd" fill-opacity="1" /><path clip-path="url(#clip780)" d="M33.7671 626.645 L14.479 626.645 L14.479 620.788 L64.0042 620.788 L64.0042 626.645 L58.657 626.645 Q61.8398 628.491 63.3994 631.324 Q64.9272 634.125 64.9272 638.071 Q64.9272 644.532 59.771 648.607 Q54.6147 652.649 46.212 652.649 Q37.8093 652.649 32.6531 648.607 Q27.4968 644.532 27.4968 638.071 Q27.4968 634.125 29.0564 631.324 Q30.5842 628.491 33.7671 626.645 M46.212 646.601 Q52.6732 646.601 56.3653 643.96 Q60.0256 641.286 60.0256 636.639 Q60.0256 631.992 56.3653 629.318 Q52.6732 626.645 46.212 626.645 Q39.7508 626.645 36.0905 629.318 Q32.3984 631.992 32.3984 636.639 Q32.3984 641.286 36.0905 643.96 Q39.7508 646.601 46.212 646.601 Z" fill="#000000" fill-rule="evenodd" fill-opacity="1" /><path clip-path="url(#clip780)" d="M49.9359 609.33 L28.3562 609.33 L28.3562 603.474 L49.7131 603.474 Q54.7739 603.474 57.3202 601.5 Q59.8346 599.527 59.8346 595.58 Q59.8346 590.838 56.8109 588.1 Q53.7872 585.331 48.5673 585.331 L28.3562 585.331 L28.3562 579.475 L64.0042 579.475 L64.0042 585.331 L58.5296 585.331 Q61.7762 587.464 63.3676 590.297 Q64.9272 593.098 64.9272 596.822 Q64.9272 602.964 61.1078 606.147 Q57.2883 609.33 49.9359 609.33 M27.4968 594.594 L27.4968 594.594 Z" fill="#000000" fill-rule="evenodd" fill-opacity="1" /><path clip-path="url(#clip780)" d="M46.0847 551.211 Q46.0847 558.309 47.7079 561.046 Q49.3312 563.783 53.2461 563.783 Q56.3653 563.783 58.2114 561.746 Q60.0256 559.678 60.0256 556.145 Q60.0256 551.275 56.5881 548.347 Q53.1188 545.387 47.3897 545.387 L46.0847 545.387 L46.0847 551.211 M43.6657 539.53 L64.0042 539.53 L64.0042 545.387 L58.5933 545.387 Q61.8398 547.392 63.3994 550.384 Q64.9272 553.376 64.9272 557.704 Q64.9272 563.179 61.8716 566.425 Q58.7843 569.64 53.6281 569.64 Q47.6125 569.64 44.5569 565.63 Q41.5014 561.587 41.5014 553.598 L41.5014 545.387 L40.9285 545.387 Q36.8862 545.387 34.6901 548.06 Q32.4621 550.702 32.4621 555.508 Q32.4621 558.564 33.1941 561.46 Q33.9262 564.356 35.3903 567.03 L29.9795 567.03 Q28.7381 563.815 28.1334 560.792 Q27.4968 557.768 27.4968 554.903 Q27.4968 547.169 31.5072 543.35 Q35.5176 539.53 43.6657 539.53 Z" fill="#000000" fill-rule="evenodd" fill-opacity="1" /><path clip-path="url(#clip780)" d="M14.479 527.467 L14.479 521.611 L64.0042 521.611 L64.0042 527.467 L14.479 527.467 Z" fill="#000000" fill-rule="evenodd" fill-opacity="1" /><path clip-path="url(#clip780)" d="M29.4065 486.631 L34.9447 486.631 Q33.6716 489.114 33.035 491.787 Q32.3984 494.461 32.3984 497.326 Q32.3984 501.686 33.7352 503.882 Q35.072 506.047 37.7456 506.047 Q39.7826 506.047 40.9603 504.487 Q42.1061 502.927 43.1565 498.217 L43.6021 496.212 Q44.9389 489.973 47.3897 487.363 Q49.8086 484.721 54.1691 484.721 Q59.1344 484.721 62.0308 488.668 Q64.9272 492.583 64.9272 499.458 Q64.9272 502.323 64.3543 505.442 Q63.8132 508.529 62.6992 511.967 L56.6518 511.967 Q58.3387 508.72 59.198 505.569 Q60.0256 502.418 60.0256 499.331 Q60.0256 495.193 58.6251 492.965 Q57.1929 490.737 54.6147 490.737 Q52.2276 490.737 50.9545 492.36 Q49.6813 493.952 48.5037 499.394 L48.0262 501.431 Q46.8804 506.874 44.5251 509.293 Q42.138 511.712 38.0002 511.712 Q32.9713 511.712 30.2341 508.147 Q27.4968 504.582 27.4968 498.026 Q27.4968 494.779 27.9743 491.915 Q28.4517 489.05 29.4065 486.631 Z" fill="#000000" fill-rule="evenodd" fill-opacity="1" /><polyline clip-path="url(#clip782)" style="stroke:#009af9; stroke-linecap:butt; stroke-linejoin:round; stroke-width:8; stroke-opacity:0.3; fill:none" points="
  263.091,1384.24 272.982,1384.24 277.181,1384.24 278.126,1384.24 284.035,1384.24 293.337,1384.24 295.631,1384.24 296.084,1384.24 299.446,1384.24 305.783,1384.24 
  307.406,1384.24 310.868,1384.24 322.397,1384.24 326.747,1384.24 342.51,1384.24 345.718,1384.24 353.292,1384.24 359.068,1384.24 383.956,1384.24 384.43,1384.24 
  388.051,1384.24 389.76,1384.24 404.75,1384.24 408.236,1303.11 412.434,1221.98 413.379,1140.85 419.289,1059.73 428.59,978.597 430.884,897.469 431.338,816.34 
  434.699,735.212 441.037,654.084 442.659,572.955 443.647,654.084 446.121,572.955 457.65,491.827 462,410.699 465.019,491.827 467.5,572.955 477.764,491.827 
  480.972,410.699 488.546,329.571 494.321,248.442 517.186,329.571 519.209,248.442 519.683,167.314 523.095,248.442 523.304,167.314 525.013,86.1857 528.261,167.314 
  531.567,248.442 540.003,167.314 565.091,248.442 566.255,329.571 572.722,410.699 574.685,491.827 577.491,572.955 590.73,654.084 591.949,735.212 598.962,816.34 
  609.99,897.469 614.528,978.597 625.599,1059.73 626.79,1140.85 631.57,1221.98 655.555,1303.11 661.177,1303.11 680.721,1384.24 687.4,1384.24 688.257,1384.24 
  692.038,1384.24 693.082,1384.24 706.657,1384.24 721.048,1384.24 722.65,1384.24 725.251,1384.24 727.047,1384.24 734.349,1384.24 747.464,1384.24 750.496,1384.24 
  750.72,1384.24 754.571,1384.24 767.283,1384.24 773.134,1384.24 776.42,1384.24 782.394,1384.24 787.939,1384.24 792.421,1384.24 796.431,1303.11 802.102,1384.24 
  808.525,1384.24 813.963,1384.24 822.653,1303.11 822.786,1303.11 823.51,1221.98 827.292,1140.85 827.375,1221.98 828.335,1140.85 832.905,1221.98 835.284,1221.98 
  835.382,1303.11 836.43,1384.24 841.911,1303.11 853.585,1303.11 856.302,1221.98 856.644,1221.98 857.903,1140.85 857.988,1221.98 860.505,1140.85 862.301,1059.73 
  862.644,1140.85 864.291,1221.98 869.402,1303.11 869.603,1221.98 873.849,1303.11 874.978,1303.11 882.717,1221.98 882.726,1303.11 885.749,1221.98 885.973,1140.85 
  889.796,1140.85 889.825,1059.73 891.405,1140.85 902.265,1221.98 902.536,1140.85 908.387,1059.73 911.674,978.597 917.647,897.469 919.56,897.469 921.95,978.597 
  922.526,978.597 922.855,1059.73 923.192,978.597 927.675,897.469 930.613,978.597 931.912,1059.73 932.542,1140.85 933.21,1221.98 938.753,1303.11 939.411,1384.24 
  943.779,1303.11 949.078,1303.11 949.216,1221.98 958.039,1140.85 963.504,1221.98 970.537,1140.85 982.166,1221.98 988.838,1140.85 991.897,1059.73 994.309,1140.85 
  1010.23,1059.73 1016.77,1140.85 1025.05,1059.73 1031.46,1140.85 1032.11,1140.85 1034.26,1221.98 1038.46,1221.98 1053.99,1303.11 1054.81,1221.98 1057.78,1140.85 
  1066.88,1221.98 1084.33,1140.85 1090.62,1140.85 1105.29,1221.98 1105.52,1303.11 1126.77,1384.24 1135.42,1384.24 1151.46,1384.24 1157.51,1384.24 1167.37,1303.11 
  1170.02,1303.11 1170.07,1303.11 1173.72,1221.98 1177.53,1303.11 1177.89,1303.11 1187.06,1384.24 1202.89,1384.24 1207.95,1384.24 1212.66,1384.24 1222.32,1384.24 
  1224.16,1384.24 1225.87,1303.11 1228.84,1384.24 1233.65,1384.24 1236.04,1384.24 1246.07,1384.24 1248.83,1384.24 1251.39,1384.24 1252.05,1384.24 1260.05,1384.24 
  1263.87,1384.24 1267.88,1384.24 1270.67,1303.11 1286.72,1221.98 1292.76,1140.85 1303.48,1221.98 1305.28,1140.85 1305.32,1059.73 1313.14,978.597 1317.45,1059.73 
  1329.02,1140.85 1330.13,1221.98 1331.75,1303.11 1333.79,1384.24 1338.15,1303.11 1343.2,1221.98 1345.06,1221.98 1347.92,1140.85 1355.54,1221.98 1357.57,1140.85 
  1358,1221.98 1359.41,1140.85 1362.59,1140.85 1368.44,1221.98 1368.9,1140.85 1371.29,1059.73 1375.53,1140.85 1381.33,1059.73 1384.09,978.597 1385.38,1059.73 
  1386.64,978.597 1387.3,897.469 1388.46,978.597 1395.28,1059.73 1395.3,978.597 1398.15,1059.73 1399.12,978.597 1399.63,1059.73 1403.14,978.597 1403.23,1059.73 
  1409.38,1140.85 1409.5,1221.98 1421.28,1303.11 1425.8,1384.24 1436.26,1384.24 1438.3,1384.24 1439.39,1384.24 1445.82,1384.24 1457.17,1384.24 1459.96,1384.24 
  1480.31,1303.11 1493.34,1384.24 1494.62,1384.24 1496.47,1384.24 1497.84,1303.11 1509.65,1303.11 1523.64,1303.11 1523.76,1384.24 1525.91,1384.24 1526.89,1384.24 
  1531.57,1384.24 1541.29,1384.24 1550.69,1384.24 1562.43,1384.24 1566.21,1384.24 1569.28,1384.24 1571.51,1303.11 1573.56,1221.98 1574.64,1140.85 1576.17,1221.98 
  1581.07,1140.85 1581.59,1221.98 1583.47,1221.98 1587.14,1303.11 1587.43,1384.24 1588.01,1384.24 1592.43,1303.11 1595.21,1221.98 1596.48,1221.98 1615.69,1303.11 
  1629.87,1221.98 1631.72,1140.85 1643.77,1221.98 1644.91,1140.85 1645.51,1221.98 1650.83,1221.98 1658.89,1140.85 1661.17,1059.73 1662.15,978.597 1666.83,897.469 
  1671.99,978.597 1676.55,897.469 1685.95,816.34 1686.19,897.469 1686.97,978.597 1687.19,1059.73 1697.69,978.597 1701.3,1059.73 1701.46,978.597 1704.53,897.469 
  1718.72,816.34 1719.94,897.469 1722.95,978.597 1723.26,897.469 1725.37,978.597 1729.75,1059.73 1731.73,978.597 1735.35,1059.73 1739.72,1140.85 1743.32,1221.98 
  1750.15,1303.11 1753.68,1384.24 1786.09,1303.11 1788.62,1384.24 1796.41,1384.24 1797.66,1384.24 1801.54,1384.24 1804.27,1384.24 1807.88,1384.24 1811.16,1384.24 
  1815.14,1384.24 1816.66,1384.24 1820.15,1384.24 1821.26,1384.24 1831.54,1384.24 1833.17,1384.24 1855.03,1384.24 1877.34,1384.24 1887.34,1384.24 1891.92,1384.24 
  1908.12,1384.24 1908.48,1384.24 1931.66,1303.11 1932.92,1221.98 1934.96,1221.98 1936.8,1140.85 1939.52,1059.73 1943.13,978.597 1945.14,1059.73 1946.42,978.597 
  1949.18,1059.73 1950.4,978.597 1951.91,897.469 1954,978.597 1955.06,1059.73 1955.4,978.597 1956.51,897.469 1961.13,978.597 1966.8,897.469 1968.42,816.34 
  1978.78,897.469 1981.9,978.597 1983.46,1059.73 1984.03,1140.85 1990.28,1059.73 1993.52,1140.85 1995.27,1221.98 1995.95,1303.11 1999.79,1384.24 2001.56,1384.24 
  2001.71,1384.24 2005.4,1384.24 2011.02,1384.24 2012.59,1303.11 2017.7,1303.11 2022.59,1221.98 2027.17,1140.85 2032.15,1221.98 2035.95,1303.11 2043.38,1221.98 
  2043.74,1140.85 2050.39,1221.98 2057.81,1303.11 2070.21,1221.98 2079.17,1303.11 2080.5,1303.11 2088.81,1303.11 2101.82,1303.11 2102.49,1384.24 2113.63,1384.24 
  2115.89,1384.24 2122.21,1384.24 2136.82,1303.11 2136.96,1221.98 2140.65,1140.85 2143.83,1221.98 2146.28,1140.85 2152.96,1059.73 2155.81,1140.85 2171.82,1221.98 
  2179.41,1303.11 2185.61,1384.24 2193.53,1384.24 2198.53,1384.24 2201.77,1384.24 2213.37,1384.24 2214.32,1384.24 2215.75,1303.11 2219.34,1303.11 2224.07,1221.98 
  2227.95,1221.98 2230.1,1221.98 2231.34,1221.98 2236.22,1221.98 2237.07,1140.85 2243.38,1221.98 2248.88,1140.85 2251.14,1059.73 2257.29,1140.85 2257.46,1059.73 
  2282.72,1140.85 2291.43,1140.85 2291.89,1140.85 
  "/>
<polyline clip-path="url(#clip782)" style="stroke:#e26f46; stroke-linecap:butt; stroke-linejoin:round; stroke-width:8; stroke-opacity:1; fill:none" stroke-dasharray="32, 20" points="
  263.091,1384.24 266.436,1384.24 272.412,1384.24 277.338,1384.24 283.994,1384.24 291.857,1384.24 292.94,1384.24 294.343,1384.24 294.71,1384.24 295.038,1384.24 
  308.483,1384.24 311.21,1384.24 314.016,1384.24 314.775,1384.24 317.274,1384.24 319.441,1384.24 321.236,1384.24 321.855,1384.24 324.84,1384.24 333.284,1384.24 
  339.392,1384.24 342.81,1384.24 343.541,1384.24 346.538,1384.24 349.698,1384.24 349.707,1384.24 349.851,1384.24 366.309,1384.24 367.537,1384.24 380.133,1384.24 
  380.152,1384.24 392.272,1384.24 396.91,1384.24 401.689,1303.11 407.665,1221.98 411.458,1303.11 412.591,1221.98 416.235,1303.11 417.301,1384.24 419.247,1303.11 
  427.11,1221.98 428.194,1140.85 429.213,1221.98 429.596,1140.85 429.964,1059.73 430.291,978.597 436.409,1059.73 443.728,1140.85 443.737,1059.73 446.464,978.597 
  449.27,897.469 450.028,816.34 452.527,735.212 454.037,816.34 454.694,735.212 455.341,816.34 456.489,735.212 457.108,654.084 460.093,572.955 464.137,654.084 
  468.537,572.955 469.087,654.084 470.894,735.212 474.547,816.34 474.645,735.212 478.064,654.084 478.795,572.955 479.073,654.084 481.792,572.955 484.554,654.084 
  484.952,572.955 484.96,491.827 485.104,410.699 485.923,491.827 489.572,572.955 491.08,654.084 493.661,735.212 500.654,816.34 501.562,735.212 502.791,654.084 
  503.186,735.212 504.515,816.34 514.161,897.469 515.386,816.34 515.406,735.212 522.611,816.34 527.526,735.212 532.163,654.084 537.354,654.084 546.766,735.212 
  555.444,816.34 561.406,816.34 572.99,897.469 576.203,978.597 581.223,1059.73 583.836,1140.85 592.456,1221.98 602.882,1303.11 607.577,1303.11 609.746,1384.24 
  620.969,1384.24 626.757,1384.24 629.908,1384.24 631.28,1384.24 636.865,1384.24 636.874,1384.24 636.911,1384.24 644.727,1384.24 649.524,1384.24 651.972,1384.24 
  653.502,1384.24 654.757,1384.24 667.89,1384.24 669.108,1384.24 672.607,1303.11 672.633,1303.11 672.865,1384.24 675.632,1384.24 693.677,1384.24 696.66,1303.11 
  718.775,1303.11 739.638,1384.24 741.682,1384.24 742.83,1303.11 750.039,1303.11 750.576,1303.11 756.222,1221.98 762.01,1140.85 765.161,1059.73 766.534,978.597 
  767.257,1059.73 770.755,1140.85 772.118,1059.73 772.128,978.597 772.165,897.469 779.98,816.34 784.777,735.212 787.226,654.084 788.755,572.955 790.011,491.827 
  795.346,572.955 799.686,654.084 803.143,572.955 804.361,491.827 807.887,410.699 810.885,329.571 828.931,248.442 837.342,329.571 839.253,410.699 845.204,491.827 
  845.318,572.955 847.545,654.084 848.052,735.212 853.695,816.34 854.029,735.212 857.35,816.34 860.264,897.469 872.654,978.597 876.935,897.469 878.406,978.597 
  885.292,897.469 885.83,816.34 891.188,897.469 891.895,978.597 903.864,1059.73 909.984,1140.85 912.769,1221.98 917.206,1303.11 921.095,1384.24 925.657,1384.24 
  931.446,1384.24 941.711,1384.24 944.21,1384.24 945.373,1384.24 946.136,1384.24 952.162,1384.24 968.375,1384.24 970.9,1384.24 980.221,1384.24 983.234,1384.24 
  998.978,1384.24 1006.04,1384.24 1009.85,1384.24 1015.38,1384.24 1024.64,1384.24 1030.74,1384.24 1034.46,1384.24 1051,1384.24 1051.42,1384.24 1055.02,1384.24 
  1055.24,1384.24 1056.33,1384.24 1060.91,1303.11 1064.85,1303.11 1066.7,1221.98 1076.96,1140.85 1079.11,1221.98 1079.46,1140.85 1080.63,1059.73 1081.39,978.597 
  1086.52,1059.73 1087.42,978.597 1089.92,1059.73 1101.17,1140.85 1103.63,1059.73 1106.15,978.597 1106.46,1059.73 1107.29,1140.85 1112.83,1221.98 1115.07,1303.11 
  1115.47,1221.98 1115.95,1221.98 1118.49,1140.85 1128.81,1221.98 1131.28,1303.11 1134.23,1221.98 1141.29,1140.85 1141.66,1221.98 1145.11,1140.85 1149.77,1221.98 
  1150.63,1140.85 1159.9,1059.73 1164.36,1140.85 1166,1059.73 1167.85,1140.85 1169.72,1059.73 1186.26,978.597 1186.67,897.469 1188.64,978.597 1190.27,897.469 
  1190.38,897.469 1190.5,816.34 1191.06,897.469 1191.58,816.34 1192.93,897.469 1197.91,978.597 1200.1,897.469 1201.57,978.597 1215.51,1059.73 1215.53,1140.85 
  1224.08,1221.98 1248.43,1303.11 1249.8,1384.24 1251.2,1303.11 1261.97,1384.24 1278.88,1384.24 1310.11,1384.24 1311.52,1384.24 1325.63,1303.11 1327.07,1303.11 
  1343.53,1303.11 1347.29,1303.11 1353.76,1303.11 1366.69,1303.11 1377.66,1303.11 1387.98,1384.24 1390.14,1384.24 1403.45,1384.24 1405.47,1384.24 1409.67,1384.24 
  1412.67,1384.24 1414.13,1303.11 1419.42,1303.11 1428.35,1384.24 1432.83,1384.24 1435.44,1384.24 1437.72,1384.24 1445.36,1303.11 1446.78,1221.98 1450.63,1303.11 
  1462.32,1221.98 1475.14,1303.11 1476.59,1384.24 1477.65,1384.24 1478.79,1303.11 1480.02,1303.11 1481.69,1303.11 1482.54,1221.98 1484.53,1303.11 1486.03,1303.11 
  1489.01,1221.98 1500.28,1303.11 1501.94,1221.98 1512.92,1140.85 1513.72,1221.98 1520.35,1303.11 1524.75,1303.11 1525.39,1221.98 1538.71,1140.85 1540.73,1059.73 
  1544.92,978.597 1545.79,1059.73 1547.93,978.597 1554.68,897.469 1554.95,978.597 1563.99,1059.73 1566.07,1140.85 1568.09,1059.73 1570.31,1140.85 1570.69,1059.73 
  1571.69,1140.85 1572.97,1059.73 1573.29,1140.85 1579.7,1221.98 1590.28,1221.98 1600.74,1221.98 1606.05,1303.11 1608.04,1384.24 1609.44,1384.24 1612.91,1303.11 
  1615.28,1221.98 1616.95,1140.85 1620.38,1221.98 1620.76,1221.98 1621.28,1140.85 1633.79,1221.98 1641.6,1303.11 1648.19,1384.24 1648.77,1384.24 1657.28,1384.24 
  1660.01,1303.11 1660.18,1303.11 1660.48,1384.24 1662.78,1384.24 1679.44,1384.24 1692.52,1384.24 1693.17,1384.24 1707.7,1384.24 1708.56,1384.24 1710.82,1384.24 
  1711.99,1384.24 1712.52,1384.24 1712.64,1384.24 1713.64,1384.24 1718.45,1384.24 1725.54,1303.11 1733.61,1384.24 1735.99,1303.11 1744.7,1221.98 1756.01,1140.85 
  1768.68,1221.98 1769.37,1221.98 1773.68,1303.11 1774.86,1303.11 1783.81,1384.24 1784.03,1303.11 1792.53,1221.98 1795.44,1140.85 1798.03,1059.73 1808.59,1140.85 
  1811.89,1221.98 1814.69,1140.85 1815.62,1221.98 1820.24,1221.98 1827.78,1140.85 1828.42,1059.73 1831.4,1140.85 1842.95,1059.73 1843.82,978.597 1844.97,1059.73 
  1845.13,1140.85 1845.25,1221.98 1846.07,1140.85 1847.25,1059.73 1847.78,978.597 1847.89,897.469 1848.9,816.34 1853.71,735.212 1863.86,816.34 1874.45,897.469 
  1878.08,978.597 1899.81,1059.73 1902.39,1140.85 1904.62,1059.73 1907.06,1140.85 1907.17,1221.98 1910.11,1140.85 1918.32,1221.98 1919.93,1303.11 1927.85,1303.11 
  1935.43,1384.24 1941.35,1384.24 1955.49,1303.11 1984.62,1303.11 1985.74,1384.24 1991.38,1384.24 1994.14,1384.24 1999.21,1384.24 2002,1384.24 2020.91,1384.24 
  2037.74,1384.24 2039.19,1384.24 2045.17,1384.24 2046.43,1384.24 2056.95,1384.24 2060.25,1384.24 2063.1,1303.11 2069.2,1303.11 2076.6,1221.98 2082.4,1303.11 
  2087.3,1384.24 2103.39,1384.24 2110.02,1384.24 2119.5,1384.24 2119.88,1303.11 2122.81,1384.24 2124.61,1384.24 2125.85,1384.24 2126.63,1303.11 2129.39,1221.98 
  2130.98,1303.11 2134.28,1384.24 2134.46,1303.11 2137.25,1221.98 2150.9,1221.98 2151.1,1303.11 2156.16,1221.98 2162.33,1303.11 2171.7,1303.11 2172.16,1384.24 
  2172.99,1303.11 2174.44,1221.98 2180.43,1140.85 2180.92,1140.85 2181.69,1059.73 2190.64,1140.85 2192.2,1059.73 2195.5,978.597 2202.71,1059.73 2204.46,978.597 
  2216.55,1059.73 2220.67,1140.85 2226.15,1221.98 2226.49,1303.11 2228.94,1303.11 2234.08,1303.11 2238.64,1221.98 2241.42,1303.11 2245.27,1221.98 2248.33,1303.11 
  2252.86,1303.11 2254.75,1221.98 2258.11,1303.11 2259.86,1221.98 2260.07,1303.11 2261.1,1221.98 2263.92,1303.11 2269.91,1303.11 2286.15,1221.98 2290.84,1303.11 
  2291.89,1303.11 
  "/>
<path clip-path="url(#clip780)" d="
M1677.68 248.629 L2281.07 248.629 L2281.07 93.1086 L1677.68 93.1086  Z
  " fill="#ffffff" fill-rule="evenodd" fill-opacity="1"/>
<polyline clip-path="url(#clip780)" style="stroke:#000000; stroke-linecap:butt; stroke-linejoin:round; stroke-width:4; stroke-opacity:1; fill:none" points="
  1677.68,248.629 2281.07,248.629 2281.07,93.1086 1677.68,93.1086 1677.68,248.629 
  "/>
<polyline clip-path="url(#clip780)" style="stroke:#009af9; stroke-linecap:butt; stroke-linejoin:round; stroke-width:4; stroke-opacity:0.3; fill:none" points="
  1701.58,144.949 1844.94,144.949 
  "/>
<path clip-path="url(#clip780)" d="M1876.25 128.942 L1876.25 136.303 L1885.02 136.303 L1885.02 139.613 L1876.25 139.613 L1876.25 153.687 Q1876.25 156.858 1877.1 157.761 Q1877.98 158.664 1880.65 158.664 L1885.02 158.664 L1885.02 162.229 L1880.65 162.229 Q1875.71 162.229 1873.84 160.4 Q1871.96 158.548 1871.96 153.687 L1871.96 139.613 L1868.84 139.613 L1868.84 136.303 L1871.96 136.303 L1871.96 128.942 L1876.25 128.942 Z" fill="#000000" fill-rule="evenodd" fill-opacity="1" /><path clip-path="url(#clip780)" d="M1905.64 140.284 Q1904.93 139.868 1904.07 139.682 Q1903.24 139.474 1902.22 139.474 Q1898.61 139.474 1896.66 141.835 Q1894.74 144.173 1894.74 148.571 L1894.74 162.229 L1890.46 162.229 L1890.46 136.303 L1894.74 136.303 L1894.74 140.331 Q1896.08 137.969 1898.24 136.835 Q1900.39 135.678 1903.47 135.678 Q1903.91 135.678 1904.44 135.747 Q1904.97 135.794 1905.62 135.909 L1905.64 140.284 Z" fill="#000000" fill-rule="evenodd" fill-opacity="1" /><path clip-path="url(#clip780)" d="M1921.89 149.196 Q1916.73 149.196 1914.74 150.377 Q1912.75 151.557 1912.75 154.405 Q1912.75 156.673 1914.23 158.016 Q1915.74 159.335 1918.31 159.335 Q1921.85 159.335 1923.98 156.835 Q1926.13 154.312 1926.13 150.145 L1926.13 149.196 L1921.89 149.196 M1930.39 147.437 L1930.39 162.229 L1926.13 162.229 L1926.13 158.293 Q1924.67 160.655 1922.5 161.789 Q1920.32 162.9 1917.17 162.9 Q1913.19 162.9 1910.83 160.678 Q1908.49 158.432 1908.49 154.682 Q1908.49 150.307 1911.41 148.085 Q1914.35 145.863 1920.16 145.863 L1926.13 145.863 L1926.13 145.446 Q1926.13 142.507 1924.19 140.909 Q1922.27 139.289 1918.77 139.289 Q1916.55 139.289 1914.44 139.821 Q1912.33 140.354 1910.39 141.419 L1910.39 137.483 Q1912.73 136.581 1914.93 136.141 Q1917.13 135.678 1919.21 135.678 Q1924.83 135.678 1927.61 138.594 Q1930.39 141.511 1930.39 147.437 Z" fill="#000000" fill-rule="evenodd" fill-opacity="1" /><path clip-path="url(#clip780)" d="M1939.16 136.303 L1943.42 136.303 L1943.42 162.692 Q1943.42 167.645 1941.52 169.867 Q1939.65 172.09 1935.46 172.09 L1933.84 172.09 L1933.84 168.479 L1934.97 168.479 Q1937.4 168.479 1938.28 167.344 Q1939.16 166.233 1939.16 162.692 L1939.16 136.303 M1939.16 126.21 L1943.42 126.21 L1943.42 131.604 L1939.16 131.604 L1939.16 126.21 Z" fill="#000000" fill-rule="evenodd" fill-opacity="1" /><path clip-path="url(#clip780)" d="M1974.51 148.201 L1974.51 150.284 L1954.93 150.284 Q1955.2 154.682 1957.57 156.997 Q1959.95 159.289 1964.19 159.289 Q1966.64 159.289 1968.93 158.687 Q1971.25 158.085 1973.51 156.881 L1973.51 160.909 Q1971.22 161.881 1968.82 162.391 Q1966.41 162.9 1963.93 162.9 Q1957.73 162.9 1954.09 159.289 Q1950.48 155.678 1950.48 149.52 Q1950.48 143.155 1953.91 139.428 Q1957.36 135.678 1963.19 135.678 Q1968.42 135.678 1971.45 139.057 Q1974.51 142.414 1974.51 148.201 M1970.25 146.951 Q1970.2 143.456 1968.28 141.372 Q1966.39 139.289 1963.24 139.289 Q1959.67 139.289 1957.52 141.303 Q1955.39 143.317 1955.07 146.974 L1970.25 146.951 Z" fill="#000000" fill-rule="evenodd" fill-opacity="1" /><path clip-path="url(#clip780)" d="M2000.16 137.298 L2000.16 141.28 Q1998.35 140.284 1996.52 139.798 Q1994.72 139.289 1992.87 139.289 Q1988.72 139.289 1986.43 141.928 Q1984.14 144.544 1984.14 149.289 Q1984.14 154.034 1986.43 156.673 Q1988.72 159.289 1992.87 159.289 Q1994.72 159.289 1996.52 158.803 Q1998.35 158.293 2000.16 157.298 L2000.16 161.233 Q1998.38 162.067 1996.45 162.483 Q1994.56 162.9 1992.4 162.9 Q1986.55 162.9 1983.1 159.219 Q1979.65 155.539 1979.65 149.289 Q1979.65 142.946 1983.12 139.312 Q1986.62 135.678 1992.68 135.678 Q1994.65 135.678 1996.52 136.095 Q1998.4 136.488 2000.16 137.298 Z" fill="#000000" fill-rule="evenodd" fill-opacity="1" /><path clip-path="url(#clip780)" d="M2011.78 128.942 L2011.78 136.303 L2020.55 136.303 L2020.55 139.613 L2011.78 139.613 L2011.78 153.687 Q2011.78 156.858 2012.64 157.761 Q2013.51 158.664 2016.18 158.664 L2020.55 158.664 L2020.55 162.229 L2016.18 162.229 Q2011.25 162.229 2009.37 160.4 Q2007.5 158.548 2007.5 153.687 L2007.5 139.613 L2004.37 139.613 L2004.37 136.303 L2007.5 136.303 L2007.5 128.942 L2011.78 128.942 Z" fill="#000000" fill-rule="evenodd" fill-opacity="1" /><path clip-path="url(#clip780)" d="M2036.2 139.289 Q2032.77 139.289 2030.78 141.974 Q2028.79 144.636 2028.79 149.289 Q2028.79 153.942 2030.76 156.627 Q2032.75 159.289 2036.2 159.289 Q2039.6 159.289 2041.59 156.604 Q2043.58 153.918 2043.58 149.289 Q2043.58 144.682 2041.59 141.997 Q2039.6 139.289 2036.2 139.289 M2036.2 135.678 Q2041.76 135.678 2044.93 139.289 Q2048.1 142.9 2048.1 149.289 Q2048.1 155.655 2044.93 159.289 Q2041.76 162.9 2036.2 162.9 Q2030.62 162.9 2027.45 159.289 Q2024.3 155.655 2024.3 149.289 Q2024.3 142.9 2027.45 139.289 Q2030.62 135.678 2036.2 135.678 Z" fill="#000000" fill-rule="evenodd" fill-opacity="1" /><path clip-path="url(#clip780)" d="M2070.18 140.284 Q2069.46 139.868 2068.61 139.682 Q2067.77 139.474 2066.76 139.474 Q2063.14 139.474 2061.2 141.835 Q2059.28 144.173 2059.28 148.571 L2059.28 162.229 L2055 162.229 L2055 136.303 L2059.28 136.303 L2059.28 140.331 Q2060.62 137.969 2062.77 136.835 Q2064.93 135.678 2068.01 135.678 Q2068.45 135.678 2068.98 135.747 Q2069.51 135.794 2070.16 135.909 L2070.18 140.284 Z" fill="#000000" fill-rule="evenodd" fill-opacity="1" /><path clip-path="url(#clip780)" d="M2085.44 164.636 Q2083.63 169.266 2081.92 170.678 Q2080.2 172.09 2077.33 172.09 L2073.93 172.09 L2073.93 168.525 L2076.43 168.525 Q2078.19 168.525 2079.16 167.692 Q2080.13 166.858 2081.32 163.756 L2082.08 161.812 L2071.59 136.303 L2076.11 136.303 L2084.21 156.581 L2092.31 136.303 L2096.82 136.303 L2085.44 164.636 Z" fill="#000000" fill-rule="evenodd" fill-opacity="1" /><path clip-path="url(#clip780)" d="M2104.12 158.293 L2111.75 158.293 L2111.75 131.928 L2103.44 133.595 L2103.44 129.335 L2111.71 127.669 L2116.38 127.669 L2116.38 158.293 L2124.02 158.293 L2124.02 162.229 L2104.12 162.229 L2104.12 158.293 Z" fill="#000000" fill-rule="evenodd" fill-opacity="1" /><path clip-path="url(#clip780)" d="M2157.98 139.289 Q2154.56 139.289 2152.56 141.974 Q2150.57 144.636 2150.57 149.289 Q2150.57 153.942 2152.54 156.627 Q2154.53 159.289 2157.98 159.289 Q2161.38 159.289 2163.38 156.604 Q2165.37 153.918 2165.37 149.289 Q2165.37 144.682 2163.38 141.997 Q2161.38 139.289 2157.98 139.289 M2157.98 135.678 Q2163.54 135.678 2166.71 139.289 Q2169.88 142.9 2169.88 149.289 Q2169.88 155.655 2166.71 159.289 Q2163.54 162.9 2157.98 162.9 Q2152.4 162.9 2149.23 159.289 Q2146.08 155.655 2146.08 149.289 Q2146.08 142.9 2149.23 139.289 Q2152.4 135.678 2157.98 135.678 Z" fill="#000000" fill-rule="evenodd" fill-opacity="1" /><path clip-path="url(#clip780)" d="M2190.06 126.21 L2190.06 129.752 L2185.99 129.752 Q2183.7 129.752 2182.8 130.678 Q2181.92 131.604 2181.92 134.011 L2181.92 136.303 L2188.93 136.303 L2188.93 139.613 L2181.92 139.613 L2181.92 162.229 L2177.63 162.229 L2177.63 139.613 L2173.56 139.613 L2173.56 136.303 L2177.63 136.303 L2177.63 134.497 Q2177.63 130.169 2179.65 128.201 Q2181.66 126.21 2186.04 126.21 L2190.06 126.21 Z" fill="#000000" fill-rule="evenodd" fill-opacity="1" /><path clip-path="url(#clip780)" d="M2204.14 127.669 L2209.16 127.669 L2218.75 141.882 L2228.26 127.669 L2233.28 127.669 L2221.06 145.77 L2221.06 162.229 L2216.36 162.229 L2216.36 145.77 L2204.14 127.669 Z" fill="#000000" fill-rule="evenodd" fill-opacity="1" /><polyline clip-path="url(#clip780)" style="stroke:#e26f46; stroke-linecap:butt; stroke-linejoin:round; stroke-width:4; stroke-opacity:1; fill:none" stroke-dasharray="16, 10" points="
  1701.58,196.789 1844.94,196.789 
  "/>
<path clip-path="url(#clip780)" d="M1876.25 180.782 L1876.25 188.143 L1885.02 188.143 L1885.02 191.453 L1876.25 191.453 L1876.25 205.527 Q1876.25 208.698 1877.1 209.601 Q1877.98 210.504 1880.65 210.504 L1885.02 210.504 L1885.02 214.069 L1880.65 214.069 Q1875.71 214.069 1873.84 212.24 Q1871.96 210.388 1871.96 205.527 L1871.96 191.453 L1868.84 191.453 L1868.84 188.143 L1871.96 188.143 L1871.96 180.782 L1876.25 180.782 Z" fill="#000000" fill-rule="evenodd" fill-opacity="1" /><path clip-path="url(#clip780)" d="M1905.64 192.124 Q1904.93 191.708 1904.07 191.522 Q1903.24 191.314 1902.22 191.314 Q1898.61 191.314 1896.66 193.675 Q1894.74 196.013 1894.74 200.411 L1894.74 214.069 L1890.46 214.069 L1890.46 188.143 L1894.74 188.143 L1894.74 192.171 Q1896.08 189.809 1898.24 188.675 Q1900.39 187.518 1903.47 187.518 Q1903.91 187.518 1904.44 187.587 Q1904.97 187.634 1905.62 187.749 L1905.64 192.124 Z" fill="#000000" fill-rule="evenodd" fill-opacity="1" /><path clip-path="url(#clip780)" d="M1921.89 201.036 Q1916.73 201.036 1914.74 202.217 Q1912.75 203.397 1912.75 206.245 Q1912.75 208.513 1914.23 209.856 Q1915.74 211.175 1918.31 211.175 Q1921.85 211.175 1923.98 208.675 Q1926.13 206.152 1926.13 201.985 L1926.13 201.036 L1921.89 201.036 M1930.39 199.277 L1930.39 214.069 L1926.13 214.069 L1926.13 210.133 Q1924.67 212.495 1922.5 213.629 Q1920.32 214.74 1917.17 214.74 Q1913.19 214.74 1910.83 212.518 Q1908.49 210.272 1908.49 206.522 Q1908.49 202.147 1911.41 199.925 Q1914.35 197.703 1920.16 197.703 L1926.13 197.703 L1926.13 197.286 Q1926.13 194.347 1924.19 192.749 Q1922.27 191.129 1918.77 191.129 Q1916.55 191.129 1914.44 191.661 Q1912.33 192.194 1910.39 193.259 L1910.39 189.323 Q1912.73 188.421 1914.93 187.981 Q1917.13 187.518 1919.21 187.518 Q1924.83 187.518 1927.61 190.434 Q1930.39 193.351 1930.39 199.277 Z" fill="#000000" fill-rule="evenodd" fill-opacity="1" /><path clip-path="url(#clip780)" d="M1939.16 188.143 L1943.42 188.143 L1943.42 214.532 Q1943.42 219.485 1941.52 221.707 Q1939.65 223.93 1935.46 223.93 L1933.84 223.93 L1933.84 220.319 L1934.97 220.319 Q1937.4 220.319 1938.28 219.184 Q1939.16 218.073 1939.16 214.532 L1939.16 188.143 M1939.16 178.05 L1943.42 178.05 L1943.42 183.444 L1939.16 183.444 L1939.16 178.05 Z" fill="#000000" fill-rule="evenodd" fill-opacity="1" /><path clip-path="url(#clip780)" d="M1974.51 200.041 L1974.51 202.124 L1954.93 202.124 Q1955.2 206.522 1957.57 208.837 Q1959.95 211.129 1964.19 211.129 Q1966.64 211.129 1968.93 210.527 Q1971.25 209.925 1973.51 208.721 L1973.51 212.749 Q1971.22 213.721 1968.82 214.231 Q1966.41 214.74 1963.93 214.74 Q1957.73 214.74 1954.09 211.129 Q1950.48 207.518 1950.48 201.36 Q1950.48 194.995 1953.91 191.268 Q1957.36 187.518 1963.19 187.518 Q1968.42 187.518 1971.45 190.897 Q1974.51 194.254 1974.51 200.041 M1970.25 198.791 Q1970.2 195.296 1968.28 193.212 Q1966.39 191.129 1963.24 191.129 Q1959.67 191.129 1957.52 193.143 Q1955.39 195.157 1955.07 198.814 L1970.25 198.791 Z" fill="#000000" fill-rule="evenodd" fill-opacity="1" /><path clip-path="url(#clip780)" d="M2000.16 189.138 L2000.16 193.12 Q1998.35 192.124 1996.52 191.638 Q1994.72 191.129 1992.87 191.129 Q1988.72 191.129 1986.43 193.768 Q1984.14 196.384 1984.14 201.129 Q1984.14 205.874 1986.43 208.513 Q1988.72 211.129 1992.87 211.129 Q1994.72 211.129 1996.52 210.643 Q1998.35 210.133 2000.16 209.138 L2000.16 213.073 Q1998.38 213.907 1996.45 214.323 Q1994.56 214.74 1992.4 214.74 Q1986.55 214.74 1983.1 211.059 Q1979.65 207.379 1979.65 201.129 Q1979.65 194.786 1983.12 191.152 Q1986.62 187.518 1992.68 187.518 Q1994.65 187.518 1996.52 187.935 Q1998.4 188.328 2000.16 189.138 Z" fill="#000000" fill-rule="evenodd" fill-opacity="1" /><path clip-path="url(#clip780)" d="M2011.78 180.782 L2011.78 188.143 L2020.55 188.143 L2020.55 191.453 L2011.78 191.453 L2011.78 205.527 Q2011.78 208.698 2012.64 209.601 Q2013.51 210.504 2016.18 210.504 L2020.55 210.504 L2020.55 214.069 L2016.18 214.069 Q2011.25 214.069 2009.37 212.24 Q2007.5 210.388 2007.5 205.527 L2007.5 191.453 L2004.37 191.453 L2004.37 188.143 L2007.5 188.143 L2007.5 180.782 L2011.78 180.782 Z" fill="#000000" fill-rule="evenodd" fill-opacity="1" /><path clip-path="url(#clip780)" d="M2036.2 191.129 Q2032.77 191.129 2030.78 193.814 Q2028.79 196.476 2028.79 201.129 Q2028.79 205.782 2030.76 208.467 Q2032.75 211.129 2036.2 211.129 Q2039.6 211.129 2041.59 208.444 Q2043.58 205.758 2043.58 201.129 Q2043.58 196.522 2041.59 193.837 Q2039.6 191.129 2036.2 191.129 M2036.2 187.518 Q2041.76 187.518 2044.93 191.129 Q2048.1 194.74 2048.1 201.129 Q2048.1 207.495 2044.93 211.129 Q2041.76 214.74 2036.2 214.74 Q2030.62 214.74 2027.45 211.129 Q2024.3 207.495 2024.3 201.129 Q2024.3 194.74 2027.45 191.129 Q2030.62 187.518 2036.2 187.518 Z" fill="#000000" fill-rule="evenodd" fill-opacity="1" /><path clip-path="url(#clip780)" d="M2070.18 192.124 Q2069.46 191.708 2068.61 191.522 Q2067.77 191.314 2066.76 191.314 Q2063.14 191.314 2061.2 193.675 Q2059.28 196.013 2059.28 200.411 L2059.28 214.069 L2055 214.069 L2055 188.143 L2059.28 188.143 L2059.28 192.171 Q2060.62 189.809 2062.77 188.675 Q2064.93 187.518 2068.01 187.518 Q2068.45 187.518 2068.98 187.587 Q2069.51 187.634 2070.16 187.749 L2070.18 192.124 Z" fill="#000000" fill-rule="evenodd" fill-opacity="1" /><path clip-path="url(#clip780)" d="M2085.44 216.476 Q2083.63 221.106 2081.92 222.518 Q2080.2 223.93 2077.33 223.93 L2073.93 223.93 L2073.93 220.365 L2076.43 220.365 Q2078.19 220.365 2079.16 219.532 Q2080.13 218.698 2081.32 215.596 L2082.08 213.652 L2071.59 188.143 L2076.11 188.143 L2084.21 208.421 L2092.31 188.143 L2096.82 188.143 L2085.44 216.476 Z" fill="#000000" fill-rule="evenodd" fill-opacity="1" /><path clip-path="url(#clip780)" d="M2107.33 210.133 L2123.65 210.133 L2123.65 214.069 L2101.71 214.069 L2101.71 210.133 Q2104.37 207.379 2108.95 202.749 Q2113.56 198.096 2114.74 196.754 Q2116.99 194.231 2117.87 192.495 Q2118.77 190.735 2118.77 189.046 Q2118.77 186.291 2116.82 184.555 Q2114.9 182.819 2111.8 182.819 Q2109.6 182.819 2107.15 183.583 Q2104.72 184.347 2101.94 185.897 L2101.94 181.175 Q2104.76 180.041 2107.22 179.462 Q2109.67 178.884 2111.71 178.884 Q2117.08 178.884 2120.27 181.569 Q2123.47 184.254 2123.47 188.745 Q2123.47 190.874 2122.66 192.796 Q2121.87 194.694 2119.76 197.286 Q2119.19 197.958 2116.08 201.175 Q2112.98 204.37 2107.33 210.133 Z" fill="#000000" fill-rule="evenodd" fill-opacity="1" /><path clip-path="url(#clip780)" d="M2157.98 191.129 Q2154.56 191.129 2152.56 193.814 Q2150.57 196.476 2150.57 201.129 Q2150.57 205.782 2152.54 208.467 Q2154.53 211.129 2157.98 211.129 Q2161.38 211.129 2163.38 208.444 Q2165.37 205.758 2165.37 201.129 Q2165.37 196.522 2163.38 193.837 Q2161.38 191.129 2157.98 191.129 M2157.98 187.518 Q2163.54 187.518 2166.71 191.129 Q2169.88 194.74 2169.88 201.129 Q2169.88 207.495 2166.71 211.129 Q2163.54 214.74 2157.98 214.74 Q2152.4 214.74 2149.23 211.129 Q2146.08 207.495 2146.08 201.129 Q2146.08 194.74 2149.23 191.129 Q2152.4 187.518 2157.98 187.518 Z" fill="#000000" fill-rule="evenodd" fill-opacity="1" /><path clip-path="url(#clip780)" d="M2190.06 178.05 L2190.06 181.592 L2185.99 181.592 Q2183.7 181.592 2182.8 182.518 Q2181.92 183.444 2181.92 185.851 L2181.92 188.143 L2188.93 188.143 L2188.93 191.453 L2181.92 191.453 L2181.92 214.069 L2177.63 214.069 L2177.63 191.453 L2173.56 191.453 L2173.56 188.143 L2177.63 188.143 L2177.63 186.337 Q2177.63 182.009 2179.65 180.041 Q2181.66 178.05 2186.04 178.05 L2190.06 178.05 Z" fill="#000000" fill-rule="evenodd" fill-opacity="1" /><path clip-path="url(#clip780)" d="M2204.14 179.509 L2209.16 179.509 L2218.75 193.722 L2228.26 179.509 L2233.28 179.509 L2221.06 197.61 L2221.06 214.069 L2216.36 214.069 L2216.36 197.61 L2204.14 179.509 Z" fill="#000000" fill-rule="evenodd" fill-opacity="1" /></svg>
