<?xml version="1.0" encoding="utf-8"?>
<svg xmlns="http://www.w3.org/2000/svg" xmlns:xlink="http://www.w3.org/1999/xlink" width="600" height="400" viewBox="0 0 2400 1600">
<defs>
  <clipPath id="clip740">
    <rect x="0" y="0" width="2400" height="1600"/>
  </clipPath>
</defs>
<path clip-path="url(#clip740)" d="
M0 1600 L2400 1600 L2400 0 L0 0  Z
  " fill="#ffffff" fill-rule="evenodd" fill-opacity="1"/>
<defs>
  <clipPath id="clip741">
    <rect x="480" y="0" width="1681" height="1600"/>
  </clipPath>
</defs>
<path clip-path="url(#clip740)" d="
M203.964 1423.18 L2352.76 1423.18 L2352.76 47.2441 L203.964 47.2441  Z
  " fill="#ffffff" fill-rule="evenodd" fill-opacity="1"/>
<defs>
  <clipPath id="clip742">
    <rect x="203" y="47" width="2150" height="1377"/>
  </clipPath>
</defs>
<polyline clip-path="url(#clip742)" style="stroke:#000000; stroke-linecap:butt; stroke-linejoin:round; stroke-width:2; stroke-opacity:0.1; fill:none" points="
  264.778,1423.18 264.778,47.2441 
  "/>
<polyline clip-path="url(#clip742)" style="stroke:#000000; stroke-linecap:butt; stroke-linejoin:round; stroke-width:2; stroke-opacity:0.1; fill:none" points="
  940.499,1423.18 940.499,47.2441 
  "/>
<polyline clip-path="url(#clip742)" style="stroke:#000000; stroke-linecap:butt; stroke-linejoin:round; stroke-width:2; stroke-opacity:0.1; fill:none" points="
  1616.22,1423.18 1616.22,47.2441 
  "/>
<polyline clip-path="url(#clip742)" style="stroke:#000000; stroke-linecap:butt; stroke-linejoin:round; stroke-width:2; stroke-opacity:0.1; fill:none" points="
  2291.94,1423.18 2291.94,47.2441 
  "/>
<polyline clip-path="url(#clip740)" style="stroke:#000000; stroke-linecap:butt; stroke-linejoin:round; stroke-width:4; stroke-opacity:1; fill:none" points="
  203.964,1423.18 2352.76,1423.18 
  "/>
<polyline clip-path="url(#clip740)" style="stroke:#000000; stroke-linecap:butt; stroke-linejoin:round; stroke-width:4; stroke-opacity:1; fill:none" points="
  264.778,1423.18 264.778,1404.28 
  "/>
<polyline clip-path="url(#clip740)" style="stroke:#000000; stroke-linecap:butt; stroke-linejoin:round; stroke-width:4; stroke-opacity:1; fill:none" points="
  940.499,1423.18 940.499,1404.28 
  "/>
<polyline clip-path="url(#clip740)" style="stroke:#000000; stroke-linecap:butt; stroke-linejoin:round; stroke-width:4; stroke-opacity:1; fill:none" points="
  1616.22,1423.18 1616.22,1404.28 
  "/>
<polyline clip-path="url(#clip740)" style="stroke:#000000; stroke-linecap:butt; stroke-linejoin:round; stroke-width:4; stroke-opacity:1; fill:none" points="
  2291.94,1423.18 2291.94,1404.28 
  "/>
<path clip-path="url(#clip740)" d="M264.778 1452.37 Q261.167 1452.37 259.339 1455.94 Q257.533 1459.48 257.533 1466.61 Q257.533 1473.71 259.339 1477.28 Q261.167 1480.82 264.778 1480.82 Q268.413 1480.82 270.218 1477.28 Q272.047 1473.71 272.047 1466.61 Q272.047 1459.48 270.218 1455.94 Q268.413 1452.37 264.778 1452.37 M264.778 1448.67 Q270.589 1448.67 273.644 1453.27 Q276.723 1457.86 276.723 1466.61 Q276.723 1475.33 273.644 1479.94 Q270.589 1484.52 264.778 1484.52 Q258.968 1484.52 255.89 1479.94 Q252.834 1475.33 252.834 1466.61 Q252.834 1457.86 255.89 1453.27 Q258.968 1448.67 264.778 1448.67 Z" fill="#000000" fill-rule="evenodd" fill-opacity="1" /><path clip-path="url(#clip740)" d="M900.106 1479.92 L907.745 1479.92 L907.745 1453.55 L899.435 1455.22 L899.435 1450.96 L907.699 1449.29 L912.374 1449.29 L912.374 1479.92 L920.013 1479.92 L920.013 1483.85 L900.106 1483.85 L900.106 1479.92 Z" fill="#000000" fill-rule="evenodd" fill-opacity="1" /><path clip-path="url(#clip740)" d="M939.458 1452.37 Q935.847 1452.37 934.018 1455.94 Q932.212 1459.48 932.212 1466.61 Q932.212 1473.71 934.018 1477.28 Q935.847 1480.82 939.458 1480.82 Q943.092 1480.82 944.897 1477.28 Q946.726 1473.71 946.726 1466.61 Q946.726 1459.48 944.897 1455.94 Q943.092 1452.37 939.458 1452.37 M939.458 1448.67 Q945.268 1448.67 948.323 1453.27 Q951.402 1457.86 951.402 1466.61 Q951.402 1475.33 948.323 1479.94 Q945.268 1484.52 939.458 1484.52 Q933.647 1484.52 930.569 1479.94 Q927.513 1475.33 927.513 1466.61 Q927.513 1457.86 930.569 1453.27 Q933.647 1448.67 939.458 1448.67 Z" fill="#000000" fill-rule="evenodd" fill-opacity="1" /><path clip-path="url(#clip740)" d="M969.62 1452.37 Q966.008 1452.37 964.18 1455.94 Q962.374 1459.48 962.374 1466.61 Q962.374 1473.71 964.18 1477.28 Q966.008 1480.82 969.62 1480.82 Q973.254 1480.82 975.059 1477.28 Q976.888 1473.71 976.888 1466.61 Q976.888 1459.48 975.059 1455.94 Q973.254 1452.37 969.62 1452.37 M969.62 1448.67 Q975.43 1448.67 978.485 1453.27 Q981.564 1457.86 981.564 1466.61 Q981.564 1475.33 978.485 1479.94 Q975.43 1484.52 969.62 1484.52 Q963.809 1484.52 960.731 1479.94 Q957.675 1475.33 957.675 1466.61 Q957.675 1457.86 960.731 1453.27 Q963.809 1448.67 969.62 1448.67 Z" fill="#000000" fill-rule="evenodd" fill-opacity="1" /><path clip-path="url(#clip740)" d="M1579.91 1479.92 L1596.23 1479.92 L1596.23 1483.85 L1574.29 1483.85 L1574.29 1479.92 Q1576.95 1477.16 1581.53 1472.53 Q1586.14 1467.88 1587.32 1466.54 Q1589.57 1464.01 1590.44 1462.28 Q1591.35 1460.52 1591.35 1458.83 Q1591.35 1456.07 1589.4 1454.34 Q1587.48 1452.6 1584.38 1452.6 Q1582.18 1452.6 1579.73 1453.37 Q1577.3 1454.13 1574.52 1455.68 L1574.52 1450.96 Q1577.34 1449.82 1579.8 1449.25 Q1582.25 1448.67 1584.29 1448.67 Q1589.66 1448.67 1592.85 1451.35 Q1596.05 1454.04 1596.05 1458.53 Q1596.05 1460.66 1595.24 1462.58 Q1594.45 1464.48 1592.34 1467.07 Q1591.76 1467.74 1588.66 1470.96 Q1585.56 1474.15 1579.91 1479.92 Z" fill="#000000" fill-rule="evenodd" fill-opacity="1" /><path clip-path="url(#clip740)" d="M1616.05 1452.37 Q1612.44 1452.37 1610.61 1455.94 Q1608.8 1459.48 1608.8 1466.61 Q1608.8 1473.71 1610.61 1477.28 Q1612.44 1480.82 1616.05 1480.82 Q1619.68 1480.82 1621.49 1477.28 Q1623.32 1473.71 1623.32 1466.61 Q1623.32 1459.48 1621.49 1455.94 Q1619.68 1452.37 1616.05 1452.37 M1616.05 1448.67 Q1621.86 1448.67 1624.91 1453.27 Q1627.99 1457.86 1627.99 1466.61 Q1627.99 1475.33 1624.91 1479.94 Q1621.86 1484.52 1616.05 1484.52 Q1610.24 1484.52 1607.16 1479.94 Q1604.1 1475.33 1604.1 1466.61 Q1604.1 1457.86 1607.16 1453.27 Q1610.24 1448.67 1616.05 1448.67 Z" fill="#000000" fill-rule="evenodd" fill-opacity="1" /><path clip-path="url(#clip740)" d="M1646.21 1452.37 Q1642.6 1452.37 1640.77 1455.94 Q1638.96 1459.48 1638.96 1466.61 Q1638.96 1473.71 1640.77 1477.28 Q1642.6 1480.82 1646.21 1480.82 Q1649.84 1480.82 1651.65 1477.28 Q1653.48 1473.71 1653.48 1466.61 Q1653.48 1459.48 1651.65 1455.94 Q1649.84 1452.37 1646.21 1452.37 M1646.21 1448.67 Q1652.02 1448.67 1655.07 1453.27 Q1658.15 1457.86 1658.15 1466.61 Q1658.15 1475.33 1655.07 1479.94 Q1652.02 1484.52 1646.21 1484.52 Q1640.4 1484.52 1637.32 1479.94 Q1634.26 1475.33 1634.26 1466.61 Q1634.26 1457.86 1637.32 1453.27 Q1640.4 1448.67 1646.21 1448.67 Z" fill="#000000" fill-rule="evenodd" fill-opacity="1" /><path clip-path="url(#clip740)" d="M2265.7 1465.22 Q2269.06 1465.94 2270.93 1468.2 Q2272.83 1470.47 2272.83 1473.81 Q2272.83 1478.92 2269.31 1481.72 Q2265.8 1484.52 2259.31 1484.52 Q2257.14 1484.52 2254.82 1484.08 Q2252.53 1483.67 2250.08 1482.81 L2250.08 1478.3 Q2252.02 1479.43 2254.34 1480.01 Q2256.65 1480.59 2259.18 1480.59 Q2263.57 1480.59 2265.86 1478.85 Q2268.18 1477.12 2268.18 1473.81 Q2268.18 1470.75 2266.03 1469.04 Q2263.9 1467.3 2260.08 1467.3 L2256.05 1467.3 L2256.05 1463.46 L2260.26 1463.46 Q2263.71 1463.46 2265.54 1462.09 Q2267.37 1460.7 2267.37 1458.11 Q2267.37 1455.45 2265.47 1454.04 Q2263.6 1452.6 2260.08 1452.6 Q2258.16 1452.6 2255.96 1453.02 Q2253.76 1453.44 2251.12 1454.31 L2251.12 1450.15 Q2253.78 1449.41 2256.1 1449.04 Q2258.43 1448.67 2260.49 1448.67 Q2265.82 1448.67 2268.92 1451.1 Q2272.02 1453.5 2272.02 1457.63 Q2272.02 1460.5 2270.38 1462.49 Q2268.74 1464.45 2265.7 1465.22 Z" fill="#000000" fill-rule="evenodd" fill-opacity="1" /><path clip-path="url(#clip740)" d="M2291.7 1452.37 Q2288.09 1452.37 2286.26 1455.94 Q2284.45 1459.48 2284.45 1466.61 Q2284.45 1473.71 2286.26 1477.28 Q2288.09 1480.82 2291.7 1480.82 Q2295.33 1480.82 2297.14 1477.28 Q2298.97 1473.71 2298.97 1466.61 Q2298.97 1459.48 2297.14 1455.94 Q2295.33 1452.37 2291.7 1452.37 M2291.7 1448.67 Q2297.51 1448.67 2300.56 1453.27 Q2303.64 1457.86 2303.64 1466.61 Q2303.64 1475.33 2300.56 1479.94 Q2297.51 1484.52 2291.7 1484.52 Q2285.89 1484.52 2282.81 1479.94 Q2279.75 1475.33 2279.75 1466.61 Q2279.75 1457.86 2282.81 1453.27 Q2285.89 1448.67 2291.7 1448.67 Z" fill="#000000" fill-rule="evenodd" fill-opacity="1" /><path clip-path="url(#clip740)" d="M2321.86 1452.37 Q2318.25 1452.37 2316.42 1455.94 Q2314.61 1459.48 2314.61 1466.61 Q2314.61 1473.71 2316.42 1477.28 Q2318.25 1480.82 2321.86 1480.82 Q2325.49 1480.82 2327.3 1477.28 Q2329.13 1473.71 2329.13 1466.61 Q2329.13 1459.48 2327.3 1455.94 Q2325.49 1452.37 2321.86 1452.37 M2321.86 1448.67 Q2327.67 1448.67 2330.73 1453.27 Q2333.8 1457.86 2333.8 1466.61 Q2333.8 1475.33 2330.73 1479.94 Q2327.67 1484.52 2321.86 1484.52 Q2316.05 1484.52 2312.97 1479.94 Q2309.92 1475.33 2309.92 1466.61 Q2309.92 1457.86 2312.97 1453.27 Q2316.05 1448.67 2321.86 1448.67 Z" fill="#000000" fill-rule="evenodd" fill-opacity="1" /><path clip-path="url(#clip740)" d="M1200.24 1520.52 L1240.44 1520.52 L1240.44 1525.93 L1223.57 1525.93 L1223.57 1568.04 L1217.11 1568.04 L1217.11 1525.93 L1200.24 1525.93 L1200.24 1520.52 Z" fill="#000000" fill-rule="evenodd" fill-opacity="1" /><path clip-path="url(#clip740)" d="M1244.38 1532.4 L1250.24 1532.4 L1250.24 1568.04 L1244.38 1568.04 L1244.38 1532.4 M1244.38 1518.52 L1250.24 1518.52 L1250.24 1525.93 L1244.38 1525.93 L1244.38 1518.52 Z" fill="#000000" fill-rule="evenodd" fill-opacity="1" /><path clip-path="url(#clip740)" d="M1290.25 1539.24 Q1292.44 1535.29 1295.5 1533.41 Q1298.55 1531.54 1302.69 1531.54 Q1308.26 1531.54 1311.29 1535.45 Q1314.31 1539.33 1314.31 1546.53 L1314.31 1568.04 L1308.42 1568.04 L1308.42 1546.72 Q1308.42 1541.59 1306.61 1539.11 Q1304.79 1536.63 1301.07 1536.63 Q1296.52 1536.63 1293.88 1539.65 Q1291.23 1542.68 1291.23 1547.9 L1291.23 1568.04 L1285.35 1568.04 L1285.35 1546.72 Q1285.35 1541.56 1283.53 1539.11 Q1281.72 1536.63 1277.93 1536.63 Q1273.44 1536.63 1270.8 1539.68 Q1268.16 1542.71 1268.16 1547.9 L1268.16 1568.04 L1262.27 1568.04 L1262.27 1532.4 L1268.16 1532.4 L1268.16 1537.93 Q1270.16 1534.66 1272.96 1533.1 Q1275.77 1531.54 1279.62 1531.54 Q1283.5 1531.54 1286.21 1533.51 Q1288.94 1535.48 1290.25 1539.24 Z" fill="#000000" fill-rule="evenodd" fill-opacity="1" /><path clip-path="url(#clip740)" d="M1356.48 1548.76 L1356.48 1551.62 L1329.56 1551.62 Q1329.94 1557.67 1333.18 1560.85 Q1336.46 1564 1342.29 1564 Q1345.66 1564 1348.81 1563.17 Q1352 1562.35 1355.11 1560.69 L1355.11 1566.23 Q1351.96 1567.57 1348.65 1568.27 Q1345.34 1568.97 1341.94 1568.97 Q1333.41 1568.97 1328.41 1564 Q1323.44 1559.04 1323.44 1550.57 Q1323.44 1541.82 1328.16 1536.69 Q1332.9 1531.54 1340.92 1531.54 Q1348.11 1531.54 1352.28 1536.18 Q1356.48 1540.8 1356.48 1548.76 M1350.63 1547.04 Q1350.56 1542.23 1347.92 1539.37 Q1345.31 1536.5 1340.98 1536.5 Q1336.08 1536.5 1333.12 1539.27 Q1330.19 1542.04 1329.75 1547.07 L1350.63 1547.04 Z" fill="#000000" fill-rule="evenodd" fill-opacity="1" /><polyline clip-path="url(#clip742)" style="stroke:#000000; stroke-linecap:butt; stroke-linejoin:round; stroke-width:2; stroke-opacity:0.1; fill:none" points="
  203.964,1384.24 2352.76,1384.24 
  "/>
<polyline clip-path="url(#clip742)" style="stroke:#000000; stroke-linecap:butt; stroke-linejoin:round; stroke-width:2; stroke-opacity:0.1; fill:none" points="
  203.964,978.597 2352.76,978.597 
  "/>
<polyline clip-path="url(#clip742)" style="stroke:#000000; stroke-linecap:butt; stroke-linejoin:round; stroke-width:2; stroke-opacity:0.1; fill:none" points="
  203.964,572.955 2352.76,572.955 
  "/>
<polyline clip-path="url(#clip742)" style="stroke:#000000; stroke-linecap:butt; stroke-linejoin:round; stroke-width:2; stroke-opacity:0.1; fill:none" points="
  203.964,167.314 2352.76,167.314 
  "/>
<polyline clip-path="url(#clip740)" style="stroke:#000000; stroke-linecap:butt; stroke-linejoin:round; stroke-width:4; stroke-opacity:1; fill:none" points="
  203.964,1423.18 203.964,47.2441 
  "/>
<polyline clip-path="url(#clip740)" style="stroke:#000000; stroke-linecap:butt; stroke-linejoin:round; stroke-width:4; stroke-opacity:1; fill:none" points="
  203.964,1384.24 222.861,1384.24 
  "/>
<polyline clip-path="url(#clip740)" style="stroke:#000000; stroke-linecap:butt; stroke-linejoin:round; stroke-width:4; stroke-opacity:1; fill:none" points="
  203.964,978.597 222.861,978.597 
  "/>
<polyline clip-path="url(#clip740)" style="stroke:#000000; stroke-linecap:butt; stroke-linejoin:round; stroke-width:4; stroke-opacity:1; fill:none" points="
  203.964,572.955 222.861,572.955 
  "/>
<polyline clip-path="url(#clip740)" style="stroke:#000000; stroke-linecap:butt; stroke-linejoin:round; stroke-width:4; stroke-opacity:1; fill:none" points="
  203.964,167.314 222.861,167.314 
  "/>
<path clip-path="url(#clip740)" d="M156.019 1370.04 Q152.408 1370.04 150.579 1373.6 Q148.774 1377.14 148.774 1384.27 Q148.774 1391.38 150.579 1394.94 Q152.408 1398.49 156.019 1398.49 Q159.653 1398.49 161.459 1394.94 Q163.288 1391.38 163.288 1384.27 Q163.288 1377.14 161.459 1373.6 Q159.653 1370.04 156.019 1370.04 M156.019 1366.33 Q161.829 1366.33 164.885 1370.94 Q167.964 1375.52 167.964 1384.27 Q167.964 1393 164.885 1397.61 Q161.829 1402.19 156.019 1402.19 Q150.209 1402.19 147.13 1397.61 Q144.075 1393 144.075 1384.27 Q144.075 1375.52 147.13 1370.94 Q150.209 1366.33 156.019 1366.33 Z" fill="#000000" fill-rule="evenodd" fill-opacity="1" /><path clip-path="url(#clip740)" d="M116.668 991.942 L124.306 991.942 L124.306 965.576 L115.996 967.243 L115.996 962.983 L124.26 961.317 L128.936 961.317 L128.936 991.942 L136.575 991.942 L136.575 995.877 L116.668 995.877 L116.668 991.942 Z" fill="#000000" fill-rule="evenodd" fill-opacity="1" /><path clip-path="url(#clip740)" d="M156.019 964.396 Q152.408 964.396 150.579 967.96 Q148.774 971.502 148.774 978.632 Q148.774 985.738 150.579 989.303 Q152.408 992.844 156.019 992.844 Q159.653 992.844 161.459 989.303 Q163.288 985.738 163.288 978.632 Q163.288 971.502 161.459 967.96 Q159.653 964.396 156.019 964.396 M156.019 960.692 Q161.829 960.692 164.885 965.298 Q167.964 969.882 167.964 978.632 Q167.964 987.358 164.885 991.965 Q161.829 996.548 156.019 996.548 Q150.209 996.548 147.13 991.965 Q144.075 987.358 144.075 978.632 Q144.075 969.882 147.13 965.298 Q150.209 960.692 156.019 960.692 Z" fill="#000000" fill-rule="evenodd" fill-opacity="1" /><path clip-path="url(#clip740)" d="M119.885 586.3 L136.204 586.3 L136.204 590.235 L114.26 590.235 L114.26 586.3 Q116.922 583.546 121.505 578.916 Q126.112 574.263 127.292 572.921 Q129.538 570.398 130.417 568.661 Q131.32 566.902 131.32 565.212 Q131.32 562.458 129.376 560.722 Q127.455 558.986 124.353 558.986 Q122.154 558.986 119.7 559.749 Q117.269 560.513 114.492 562.064 L114.492 557.342 Q117.316 556.208 119.769 555.629 Q122.223 555.05 124.26 555.05 Q129.63 555.05 132.825 557.736 Q136.019 560.421 136.019 564.911 Q136.019 567.041 135.209 568.962 Q134.422 570.86 132.316 573.453 Q131.737 574.124 128.635 577.342 Q125.533 580.536 119.885 586.3 Z" fill="#000000" fill-rule="evenodd" fill-opacity="1" /><path clip-path="url(#clip740)" d="M156.019 558.754 Q152.408 558.754 150.579 562.319 Q148.774 565.861 148.774 572.99 Q148.774 580.097 150.579 583.661 Q152.408 587.203 156.019 587.203 Q159.653 587.203 161.459 583.661 Q163.288 580.097 163.288 572.99 Q163.288 565.861 161.459 562.319 Q159.653 558.754 156.019 558.754 M156.019 555.05 Q161.829 555.05 164.885 559.657 Q167.964 564.24 167.964 572.99 Q167.964 581.717 164.885 586.323 Q161.829 590.907 156.019 590.907 Q150.209 590.907 147.13 586.323 Q144.075 581.717 144.075 572.99 Q144.075 564.24 147.13 559.657 Q150.209 555.05 156.019 555.05 Z" fill="#000000" fill-rule="evenodd" fill-opacity="1" /><path clip-path="url(#clip740)" d="M130.024 165.96 Q133.38 166.677 135.255 168.946 Q137.154 171.214 137.154 174.548 Q137.154 179.663 133.635 182.464 Q130.117 185.265 123.635 185.265 Q121.459 185.265 119.144 184.825 Q116.853 184.409 114.399 183.552 L114.399 179.038 Q116.343 180.173 118.658 180.751 Q120.973 181.33 123.496 181.33 Q127.894 181.33 130.186 179.594 Q132.501 177.858 132.501 174.548 Q132.501 171.492 130.348 169.779 Q128.218 168.043 124.399 168.043 L120.371 168.043 L120.371 164.201 L124.584 164.201 Q128.033 164.201 129.862 162.835 Q131.691 161.446 131.691 158.853 Q131.691 156.191 129.792 154.779 Q127.917 153.344 124.399 153.344 Q122.478 153.344 120.279 153.761 Q118.08 154.177 115.441 155.057 L115.441 150.89 Q118.103 150.15 120.418 149.779 Q122.755 149.409 124.816 149.409 Q130.14 149.409 133.242 151.84 Q136.343 154.247 136.343 158.367 Q136.343 161.238 134.7 163.228 Q133.056 165.196 130.024 165.96 Z" fill="#000000" fill-rule="evenodd" fill-opacity="1" /><path clip-path="url(#clip740)" d="M156.019 153.113 Q152.408 153.113 150.579 156.677 Q148.774 160.219 148.774 167.349 Q148.774 174.455 150.579 178.02 Q152.408 181.562 156.019 181.562 Q159.653 181.562 161.459 178.02 Q163.288 174.455 163.288 167.349 Q163.288 160.219 161.459 156.677 Q159.653 153.113 156.019 153.113 M156.019 149.409 Q161.829 149.409 164.885 154.015 Q167.964 158.599 167.964 167.349 Q167.964 176.075 164.885 180.682 Q161.829 185.265 156.019 185.265 Q150.209 185.265 147.13 180.682 Q144.075 176.075 144.075 167.349 Q144.075 158.599 147.13 154.015 Q150.209 149.409 156.019 149.409 Z" fill="#000000" fill-rule="evenodd" fill-opacity="1" /><path clip-path="url(#clip740)" d="M35.3266 957.407 L35.3266 966.669 L45.9574 969.343 L45.9574 960.017 L35.3266 957.407 M17.2162 962.181 L30.4251 965.491 L30.4251 956.197 L17.2162 952.855 L17.2162 947.763 L30.4251 951.041 L30.4251 941.111 L35.3266 941.111 L35.3266 952.283 L45.9574 954.893 L45.9574 944.771 L50.8271 944.771 L50.8271 956.134 L64.0042 959.444 L64.0042 964.537 L50.8271 961.258 L50.8271 970.584 L64.0042 973.862 L64.0042 978.987 L50.8271 975.677 L50.8271 985.703 L45.9574 985.703 L45.9574 974.499 L35.3266 971.825 L35.3266 982.074 L30.4251 982.074 L30.4251 970.584 L17.2162 967.337 L17.2162 962.181 Z" fill="#000000" fill-rule="evenodd" fill-opacity="1" /><path clip-path="url(#clip740)" d="M32.4621 895.437 Q32.4621 900.147 36.1542 902.885 Q39.8145 905.622 46.212 905.622 Q52.6095 905.622 56.3017 902.917 Q59.9619 900.179 59.9619 895.437 Q59.9619 890.758 56.2698 888.021 Q52.5777 885.284 46.212 885.284 Q39.8781 885.284 36.186 888.021 Q32.4621 890.758 32.4621 895.437 M27.4968 895.437 Q27.4968 887.798 32.4621 883.437 Q37.4273 879.077 46.212 879.077 Q54.9649 879.077 59.9619 883.437 Q64.9272 887.798 64.9272 895.437 Q64.9272 903.107 59.9619 907.468 Q54.9649 911.797 46.212 911.797 Q37.4273 911.797 32.4621 907.468 Q27.4968 903.107 27.4968 895.437 Z" fill="#000000" fill-rule="evenodd" fill-opacity="1" /><path clip-path="url(#clip740)" d="M14.479 851.322 L19.3487 851.322 L19.3487 856.924 Q19.3487 860.075 20.6219 861.317 Q21.895 862.526 25.2052 862.526 L28.3562 862.526 L28.3562 852.882 L32.9077 852.882 L32.9077 862.526 L64.0042 862.526 L64.0042 868.414 L32.9077 868.414 L32.9077 874.016 L28.3562 874.016 L28.3562 868.414 L25.8736 868.414 Q19.9216 868.414 17.2162 865.645 Q14.479 862.876 14.479 856.861 L14.479 851.322 Z" fill="#000000" fill-rule="evenodd" fill-opacity="1" /><path clip-path="url(#clip740)" d="M28.3562 825.7 L28.3562 819.844 L64.0042 819.844 L64.0042 825.7 L28.3562 825.7 M14.479 825.7 L14.479 819.844 L21.895 819.844 L21.895 825.7 L14.479 825.7 Z" fill="#000000" fill-rule="evenodd" fill-opacity="1" /><path clip-path="url(#clip740)" d="M42.4881 777.958 L64.0042 777.958 L64.0042 783.814 L42.679 783.814 Q37.6183 783.814 35.1038 785.788 Q32.5894 787.761 32.5894 791.708 Q32.5894 796.45 35.6131 799.187 Q38.6368 801.925 43.8567 801.925 L64.0042 801.925 L64.0042 807.813 L28.3562 807.813 L28.3562 801.925 L33.8944 801.925 Q30.6797 799.824 29.0883 796.991 Q27.4968 794.127 27.4968 790.403 Q27.4968 784.26 31.3163 781.109 Q35.1038 777.958 42.4881 777.958 Z" fill="#000000" fill-rule="evenodd" fill-opacity="1" /><path clip-path="url(#clip740)" d="M33.7671 742.819 L14.479 742.819 L14.479 736.963 L64.0042 736.963 L64.0042 742.819 L58.657 742.819 Q61.8398 744.665 63.3994 747.498 Q64.9272 750.299 64.9272 754.245 Q64.9272 760.707 59.771 764.781 Q54.6147 768.823 46.212 768.823 Q37.8093 768.823 32.6531 764.781 Q27.4968 760.707 27.4968 754.245 Q27.4968 750.299 29.0564 747.498 Q30.5842 744.665 33.7671 742.819 M46.212 762.775 Q52.6732 762.775 56.3653 760.134 Q60.0256 757.46 60.0256 752.813 Q60.0256 748.166 56.3653 745.493 Q52.6732 742.819 46.212 742.819 Q39.7508 742.819 36.0905 745.493 Q32.3984 748.166 32.3984 752.813 Q32.3984 757.46 36.0905 760.134 Q39.7508 762.775 46.212 762.775 Z" fill="#000000" fill-rule="evenodd" fill-opacity="1" /><path clip-path="url(#clip740)" d="M28.3562 724.9 L28.3562 719.043 L64.0042 719.043 L64.0042 724.9 L28.3562 724.9 M14.479 724.9 L14.479 719.043 L21.895 719.043 L21.895 724.9 L14.479 724.9 Z" fill="#000000" fill-rule="evenodd" fill-opacity="1" /><path clip-path="url(#clip740)" d="M28.3562 710.99 L28.3562 704.784 L58.275 693.644 L28.3562 682.504 L28.3562 676.297 L64.0042 689.665 L64.0042 697.622 L28.3562 710.99 Z" fill="#000000" fill-rule="evenodd" fill-opacity="1" /><path clip-path="url(#clip740)" d="M28.3562 668.213 L28.3562 662.356 L64.0042 662.356 L64.0042 668.213 L28.3562 668.213 M14.479 668.213 L14.479 662.356 L21.895 662.356 L21.895 668.213 L14.479 668.213 Z" fill="#000000" fill-rule="evenodd" fill-opacity="1" /><path clip-path="url(#clip740)" d="M33.7671 626.645 L14.479 626.645 L14.479 620.788 L64.0042 620.788 L64.0042 626.645 L58.657 626.645 Q61.8398 628.491 63.3994 631.324 Q64.9272 634.125 64.9272 638.071 Q64.9272 644.532 59.771 648.607 Q54.6147 652.649 46.212 652.649 Q37.8093 652.649 32.6531 648.607 Q27.4968 644.532 27.4968 638.071 Q27.4968 634.125 29.0564 631.324 Q30.5842 628.491 33.7671 626.645 M46.212 646.601 Q52.6732 646.601 56.3653 643.96 Q60.0256 641.286 60.0256 636.639 Q60.0256 631.992 56.3653 629.318 Q52.6732 626.645 46.212 626.645 Q39.7508 626.645 36.0905 629.318 Q32.3984 631.992 32.3984 636.639 Q32.3984 641.286 36.0905 643.96 Q39.7508 646.601 46.212 646.601 Z" fill="#000000" fill-rule="evenodd" fill-opacity="1" /><path clip-path="url(#clip740)" d="M49.9359 609.33 L28.3562 609.33 L28.3562 603.474 L49.7131 603.474 Q54.7739 603.474 57.3202 601.5 Q59.8346 599.527 59.8346 595.58 Q59.8346 590.838 56.8109 588.1 Q53.7872 585.331 48.5673 585.331 L28.3562 585.331 L28.3562 579.475 L64.0042 579.475 L64.0042 585.331 L58.5296 585.331 Q61.7762 587.464 63.3676 590.297 Q64.9272 593.098 64.9272 596.822 Q64.9272 602.964 61.1078 606.147 Q57.2883 609.33 49.9359 609.33 M27.4968 594.594 L27.4968 594.594 Z" fill="#000000" fill-rule="evenodd" fill-opacity="1" /><path clip-path="url(#clip740)" d="M46.0847 551.211 Q46.0847 558.309 47.7079 561.046 Q49.3312 563.783 53.2461 563.783 Q56.3653 563.783 58.2114 561.746 Q60.0256 559.678 60.0256 556.145 Q60.0256 551.275 56.5881 548.347 Q53.1188 545.387 47.3897 545.387 L46.0847 545.387 L46.0847 551.211 M43.6657 539.53 L64.0042 539.53 L64.0042 545.387 L58.5933 545.387 Q61.8398 547.392 63.3994 550.384 Q64.9272 553.376 64.9272 557.704 Q64.9272 563.179 61.8716 566.425 Q58.7843 569.64 53.6281 569.64 Q47.6125 569.64 44.5569 565.63 Q41.5014 561.587 41.5014 553.598 L41.5014 545.387 L40.9285 545.387 Q36.8862 545.387 34.6901 548.06 Q32.4621 550.702 32.4621 555.508 Q32.4621 558.564 33.1941 561.46 Q33.9262 564.356 35.3903 567.03 L29.9795 567.03 Q28.7381 563.815 28.1334 560.792 Q27.4968 557.768 27.4968 554.903 Q27.4968 547.169 31.5072 543.35 Q35.5176 539.53 43.6657 539.53 Z" fill="#000000" fill-rule="evenodd" fill-opacity="1" /><path clip-path="url(#clip740)" d="M14.479 527.467 L14.479 521.611 L64.0042 521.611 L64.0042 527.467 L14.479 527.467 Z" fill="#000000" fill-rule="evenodd" fill-opacity="1" /><path clip-path="url(#clip740)" d="M29.4065 486.631 L34.9447 486.631 Q33.6716 489.114 33.035 491.787 Q32.3984 494.461 32.3984 497.326 Q32.3984 501.686 33.7352 503.882 Q35.072 506.047 37.7456 506.047 Q39.7826 506.047 40.9603 504.487 Q42.1061 502.927 43.1565 498.217 L43.6021 496.212 Q44.9389 489.973 47.3897 487.363 Q49.8086 484.721 54.1691 484.721 Q59.1344 484.721 62.0308 488.668 Q64.9272 492.583 64.9272 499.458 Q64.9272 502.323 64.3543 505.442 Q63.8132 508.529 62.6992 511.967 L56.6518 511.967 Q58.3387 508.72 59.198 505.569 Q60.0256 502.418 60.0256 499.331 Q60.0256 495.193 58.6251 492.965 Q57.1929 490.737 54.6147 490.737 Q52.2276 490.737 50.9545 492.36 Q49.6813 493.952 48.5037 499.394 L48.0262 501.431 Q46.8804 506.874 44.5251 509.293 Q42.138 511.712 38.0002 511.712 Q32.9713 511.712 30.2341 508.147 Q27.4968 504.582 27.4968 498.026 Q27.4968 494.779 27.9743 491.915 Q28.4517 489.05 29.4065 486.631 Z" fill="#000000" fill-rule="evenodd" fill-opacity="1" /><polyline clip-path="url(#clip742)" style="stroke:#009af9; stroke-linecap:butt; stroke-linejoin:round; stroke-width:12; stroke-opacity:0.4; fill:none" points="
  264.778,1384.24 274.661,1343.67 278.856,1303.11 279.801,1262.55 285.705,1221.98 294.999,1181.42 297.292,1140.85 297.745,1100.29 301.103,1059.73 307.436,1019.16 
  309.057,978.597 312.516,938.033 324.036,897.469 328.383,856.904 344.133,816.34 347.338,775.776 354.906,735.212 360.677,694.648 385.545,654.084 386.019,613.52 
  389.637,572.955 391.344,532.391 406.322,491.827 409.806,532.391 414,572.955 414.945,613.52 420.849,654.084 430.143,694.648 432.436,735.212 432.889,775.776 
  436.247,816.34 442.58,856.904 444.201,897.469 445.188,897.469 447.661,938.033 459.18,978.597 463.527,1019.16 466.543,1019.16 469.022,1019.16 479.277,1059.73 
  482.483,1100.29 490.051,1140.85 495.821,1181.42 518.667,1181.42 520.69,1221.98 521.163,1262.55 524.572,1262.55 524.781,1303.11 526.489,1343.67 529.734,1343.67 
  533.037,1343.67 541.467,1384.24 566.534,1384.24 567.697,1384.24 574.159,1384.24 576.12,1384.24 578.924,1384.24 592.153,1384.24 593.37,1384.24 600.378,1384.24 
  611.397,1384.24 615.931,1384.24 626.993,1384.24 628.184,1384.24 632.959,1384.24 656.925,1384.24 662.543,1343.67 682.071,1343.67 688.744,1303.11 689.601,1262.55 
  693.379,1221.98 694.422,1181.42 707.986,1140.85 722.366,1100.29 723.966,1059.73 726.565,1019.16 728.36,978.597 735.656,938.033 748.76,897.469 751.789,856.904 
  752.013,816.34 755.861,775.776 768.563,735.212 774.409,694.648 777.693,654.084 783.662,613.52 789.202,572.955 793.681,532.391 797.687,572.955 803.354,572.955 
  809.772,532.391 815.205,491.827 823.889,532.391 824.021,491.827 824.745,532.391 828.523,572.955 828.606,572.955 829.566,613.52 834.132,613.52 836.509,572.955 
  836.607,572.955 837.654,572.955 843.13,613.52 854.795,572.955 857.51,613.52 857.852,572.955 859.11,613.52 859.195,613.52 861.709,654.084 863.504,694.648 
  863.847,694.648 865.493,694.648 870.599,694.648 870.8,735.212 875.043,735.212 876.171,694.648 883.904,735.212 883.913,735.212 886.934,775.776 887.158,816.34 
  890.977,775.776 891.006,816.34 892.585,816.34 903.436,816.34 903.707,856.904 909.553,897.469 912.837,938.033 918.806,978.597 920.717,938.033 923.106,938.033 
  923.681,897.469 924.009,897.469 924.347,938.033 928.825,978.597 931.762,978.597 933.059,978.597 933.689,978.597 934.356,978.597 939.894,978.597 940.552,978.597 
  944.916,1019.16 950.212,978.597 950.349,1019.16 959.165,1059.73 964.625,1059.73 971.653,1100.29 983.273,1100.29 989.94,1140.85 992.996,1181.42 995.405,1181.42 
  1011.32,1221.98 1017.85,1221.98 1026.12,1262.55 1032.52,1262.55 1033.18,1221.98 1035.32,1221.98 1039.52,1181.42 1055.04,1181.42 1055.86,1221.98 1058.82,1262.55 
  1067.92,1262.55 1085.36,1303.11 1091.64,1262.55 1106.3,1262.55 1106.52,1262.55 1127.76,1262.55 1136.4,1221.98 1152.43,1181.42 1158.47,1140.85 1168.32,1181.42 
  1170.98,1140.85 1171.03,1100.29 1174.67,1140.85 1178.48,1140.85 1178.83,1100.29 1188.01,1100.29 1203.82,1059.73 1208.87,1019.16 1213.58,978.597 1223.23,938.033 
  1225.07,897.469 1226.78,938.033 1229.74,938.033 1234.55,897.469 1236.94,856.904 1246.97,816.34 1249.72,775.776 1252.28,735.212 1252.94,694.648 1260.93,654.084 
  1264.75,613.52 1268.76,572.955 1271.55,613.52 1287.58,654.084 1293.61,694.648 1304.33,694.648 1306.12,735.212 1306.17,775.776 1313.98,816.34 1318.28,816.34 
  1329.84,816.34 1330.95,816.34 1332.58,816.34 1334.61,816.34 1338.96,856.904 1344.02,897.469 1345.87,856.904 1348.73,897.469 1356.34,897.469 1358.38,938.033 
  1358.8,938.033 1360.22,978.597 1363.39,938.033 1369.24,938.033 1369.7,978.597 1372.08,1019.16 1376.32,1019.16 1382.11,1059.73 1384.87,1100.29 1386.16,1100.29 
  1387.42,1140.85 1388.08,1181.42 1389.24,1181.42 1396.05,1181.42 1396.07,1221.98 1398.92,1221.98 1399.89,1262.55 1400.4,1262.55 1403.9,1303.11 1404,1303.11 
  1410.14,1303.11 1410.27,1303.11 1422.03,1303.11 1426.54,1303.11 1437,1262.55 1439.04,1221.98 1440.13,1181.42 1446.55,1140.85 1457.9,1100.29 1460.68,1059.73 
  1481.02,1100.29 1494.03,1100.29 1495.31,1059.73 1497.16,1019.16 1498.53,1059.73 1510.33,1019.16 1524.31,978.597 1524.43,978.597 1526.58,938.033 1527.56,897.469 
  1532.24,856.904 1541.95,816.34 1551.34,775.776 1563.07,735.212 1566.84,694.648 1569.91,654.084 1572.14,694.648 1574.19,735.212 1575.27,775.776 1576.8,775.776 
  1581.69,816.34 1582.21,816.34 1584.09,775.776 1587.76,775.776 1588.05,775.776 1588.63,735.212 1593.04,775.776 1595.82,816.34 1597.09,775.776 1616.28,775.776 
  1630.46,816.34 1632.3,856.904 1644.34,856.904 1645.48,897.469 1646.08,897.469 1651.4,856.904 1659.45,897.469 1661.73,938.033 1662.71,978.597 1667.38,1019.16 
  1672.53,1019.16 1677.09,1059.73 1686.48,1100.29 1686.72,1100.29 1687.51,1100.29 1687.73,1100.29 1698.22,1140.85 1701.82,1140.85 1701.99,1181.42 1705.06,1221.98 
  1719.23,1262.55 1720.45,1262.55 1723.46,1262.55 1723.77,1303.11 1725.88,1303.11 1730.25,1303.11 1732.23,1343.67 1735.85,1343.67 1740.22,1343.67 1743.81,1343.67 
  1750.64,1343.67 1754.16,1343.67 1786.54,1384.24 1789.07,1384.24 1796.86,1343.67 1798.11,1303.11 1801.99,1262.55 1804.71,1221.98 1808.32,1181.42 1811.6,1140.85 
  1815.58,1100.29 1817.09,1059.73 1820.58,1019.16 1821.69,978.597 1831.96,938.033 1833.59,897.469 1855.43,856.904 1877.72,816.34 1887.71,775.776 1892.29,735.212 
  1908.48,694.648 1908.84,654.084 1932,694.648 1933.26,735.212 1935.3,694.648 1937.13,735.212 1939.85,775.776 1943.47,816.34 1945.47,816.34 1946.75,856.904 
  1949.51,856.904 1950.72,897.469 1952.24,938.033 1954.32,938.033 1955.38,938.033 1955.72,978.597 1956.83,1019.16 1961.44,1019.16 1967.11,1059.73 1968.73,1100.29 
  1979.08,1100.29 1982.2,1100.29 1983.76,1100.29 1984.33,1100.29 1990.57,1140.85 1993.81,1140.85 1995.56,1140.85 1996.23,1140.85 2000.08,1140.85 2001.85,1100.29 
  2001.99,1059.73 2005.68,1019.16 2011.3,978.597 2012.87,1019.16 2017.97,978.597 2022.86,1019.16 2027.44,1059.73 2032.41,1059.73 2036.2,1059.73 2043.63,1100.29 
  2043.98,1140.85 2050.64,1140.85 2058.05,1140.85 2070.44,1181.42 2079.39,1181.42 2080.72,1140.85 2089.03,1100.29 2102.02,1059.73 2102.69,1059.73 2113.82,1019.16 
  2116.08,978.597 2122.39,938.033 2136.99,978.597 2137.14,1019.16 2140.82,1059.73 2144,1059.73 2146.44,1100.29 2153.12,1140.85 2155.97,1140.85 2171.97,1140.85 
  2179.55,1140.85 2185.74,1140.85 2193.66,1100.29 2198.66,1059.73 2201.89,1019.16 2213.48,978.597 2214.44,938.033 2215.86,978.597 2219.45,938.033 2224.17,978.597 
  2228.05,938.033 2230.19,897.469 2231.44,856.904 2236.32,816.34 2237.17,856.904 2243.47,856.904 2248.97,897.469 2251.23,938.033 2257.37,938.033 2257.54,978.597 
  2282.78,978.597 2291.48,938.033 2291.94,938.033 
  "/>
<polyline clip-path="url(#clip742)" style="stroke:#e26f46; stroke-linecap:butt; stroke-linejoin:round; stroke-width:12; stroke-opacity:1; fill:none" stroke-dasharray="48, 30" points="
  264.778,1384.24 268.12,1343.67 274.091,1303.11 279.014,1262.55 285.664,1221.98 293.52,1181.42 294.603,1140.85 296.004,1100.29 296.372,1059.73 296.699,1019.16 
  310.133,978.597 312.859,938.033 315.662,897.469 316.42,856.904 318.917,816.34 321.082,775.776 322.876,735.212 323.494,694.648 326.477,654.084 334.914,613.52 
  341.017,572.955 344.433,532.391 345.163,491.827 348.158,451.263 351.315,410.699 351.324,370.135 351.468,329.571 367.913,289.006 369.14,248.442 381.725,207.878 
  381.745,167.314 393.855,126.75 398.489,86.1857 403.264,126.75 409.235,167.314 413.025,167.314 414.158,207.878 417.798,207.878 418.864,207.878 420.808,248.442 
  428.664,289.006 429.747,329.571 430.765,329.571 431.149,370.135 431.516,410.699 431.843,451.263 437.956,451.263 445.269,451.263 445.278,491.827 448.003,532.391 
  450.806,572.955 451.564,613.52 454.062,654.084 455.57,654.084 456.226,694.648 456.873,694.648 458.02,735.212 458.638,775.776 461.621,816.34 465.662,816.34 
  470.058,856.904 470.608,856.904 472.414,856.904 476.063,856.904 476.161,897.469 479.577,938.033 480.308,978.597 480.586,978.597 483.302,1019.16 486.062,1019.16 
  486.459,1059.73 486.468,1100.29 486.612,1140.85 487.43,1140.85 491.076,1140.85 492.583,1140.85 495.162,1140.85 502.149,1140.85 503.057,1181.42 504.284,1221.98 
  504.679,1221.98 506.007,1221.98 515.645,1221.98 516.87,1262.55 516.889,1303.11 524.088,1303.11 528.999,1343.67 533.633,1384.24 538.819,1343.67 548.224,1343.67 
  556.895,1343.67 562.852,1303.11 574.427,1303.11 577.637,1303.11 582.653,1303.11 585.264,1303.11 593.877,1303.11 604.294,1303.11 608.985,1262.55 611.154,1262.55 
  622.367,1221.98 628.15,1181.42 631.299,1140.85 632.67,1100.29 638.25,1059.73 638.259,1019.16 638.296,978.597 646.106,938.033 650.899,897.469 653.345,856.904 
  654.874,816.34 656.128,775.776 669.25,735.212 670.467,694.648 673.963,735.212 673.99,694.648 674.221,694.648 676.986,654.084 695.017,613.52 697.997,654.084 
  720.095,613.52 740.94,613.52 742.983,572.955 744.13,613.52 751.333,572.955 751.87,532.391 757.511,572.955 763.294,613.52 766.443,654.084 767.814,694.648 
  768.537,694.648 772.032,694.648 773.394,735.212 773.404,775.776 773.441,816.34 781.25,856.904 786.043,897.469 788.489,938.033 790.018,978.597 791.272,1019.16 
  796.604,1019.16 800.94,1019.16 804.394,1059.73 805.611,1100.29 809.134,1140.85 812.13,1181.42 830.161,1221.98 838.565,1221.98 840.475,1221.98 846.421,1221.98 
  846.535,1221.98 848.76,1221.98 849.267,1221.98 854.906,1221.98 855.239,1262.55 858.557,1262.55 861.469,1262.55 873.849,1262.55 878.127,1303.11 879.596,1303.11 
  886.477,1343.67 887.014,1384.24 892.368,1384.24 893.074,1384.24 905.034,1384.24 911.148,1384.24 913.932,1384.24 918.365,1384.24 922.251,1384.24 926.809,1343.67 
  932.593,1303.11 942.85,1262.55 945.347,1221.98 946.509,1181.42 947.271,1140.85 953.293,1100.29 969.492,1059.73 972.015,1019.16 981.329,978.597 984.34,938.033 
  1000.07,897.469 1007.12,856.904 1010.94,816.34 1016.46,775.776 1025.72,735.212 1031.81,694.648 1035.53,654.084 1052.05,613.52 1052.47,572.955 1056.07,532.391 
  1056.29,491.827 1057.38,451.263 1061.95,491.827 1065.89,451.263 1067.74,491.827 1077.99,532.391 1080.14,532.391 1080.49,572.955 1081.65,613.52 1082.42,654.084 
  1087.54,654.084 1088.44,694.648 1090.94,694.648 1102.18,694.648 1104.64,735.212 1107.16,775.776 1107.46,775.776 1108.29,775.776 1113.83,775.776 1116.07,775.776 
  1116.47,816.34 1116.95,775.776 1119.48,816.34 1129.8,816.34 1132.27,816.34 1135.22,856.904 1142.27,897.469 1142.64,897.469 1146.08,938.033 1150.74,938.033 
  1151.6,978.597 1160.86,1019.16 1165.32,1019.16 1166.95,1059.73 1168.8,1059.73 1170.67,1100.29 1187.2,1140.85 1187.62,1181.42 1189.58,1181.42 1191.21,1221.98 
  1191.32,1181.42 1191.43,1221.98 1192,1221.98 1192.52,1262.55 1193.87,1262.55 1198.84,1262.55 1201.03,1303.11 1202.5,1303.11 1216.43,1303.11 1216.45,1303.11 
  1224.99,1303.11 1249.32,1303.11 1250.69,1303.11 1252.09,1343.67 1262.85,1343.67 1279.74,1303.11 1310.95,1262.55 1312.36,1221.98 1326.46,1262.55 1327.9,1221.98 
  1344.35,1181.42 1348.1,1140.85 1354.57,1100.29 1367.48,1059.73 1378.45,1019.16 1388.75,1019.16 1390.91,978.597 1404.22,938.033 1406.24,897.469 1410.43,856.904 
  1413.43,816.34 1414.89,856.904 1420.18,816.34 1429.1,816.34 1433.57,775.776 1436.18,735.212 1438.46,694.648 1446.09,735.212 1447.51,775.776 1451.36,775.776 
  1463.04,816.34 1475.85,816.34 1477.3,816.34 1478.36,775.776 1479.49,816.34 1480.73,775.776 1482.4,735.212 1483.24,775.776 1485.23,775.776 1486.73,735.212 
  1489.71,775.776 1500.97,775.776 1502.63,816.34 1513.6,856.904 1514.39,856.904 1521.02,856.904 1525.42,816.34 1526.06,856.904 1539.36,897.469 1541.38,938.033 
  1545.57,978.597 1546.44,978.597 1548.58,1019.16 1555.32,1059.73 1555.59,1059.73 1564.63,1059.73 1566.71,1059.73 1568.72,1100.29 1570.94,1100.29 1571.32,1140.85 
  1572.32,1140.85 1573.6,1181.42 1573.92,1181.42 1580.32,1181.42 1590.9,1140.85 1601.35,1100.29 1606.65,1100.29 1608.64,1100.29 1610.04,1059.73 1613.51,1100.29 
  1615.87,1140.85 1617.54,1181.42 1620.97,1181.42 1621.35,1140.85 1621.87,1181.42 1634.37,1181.42 1642.17,1181.42 1648.76,1181.42 1649.34,1140.85 1657.84,1100.29 
  1660.57,1140.85 1660.74,1100.29 1661.04,1100.29 1663.34,1059.73 1679.98,1019.16 1693.06,978.597 1693.7,938.033 1708.22,897.469 1709.08,856.904 1711.34,816.34 
  1712.51,775.776 1713.04,735.212 1713.15,694.648 1714.16,654.084 1718.97,613.52 1726.04,654.084 1734.11,654.084 1736.49,694.648 1745.19,735.212 1756.49,775.776 
  1769.15,775.776 1769.84,735.212 1774.15,735.212 1775.32,694.648 1784.27,694.648 1784.49,735.212 1792.99,775.776 1795.89,816.34 1798.48,856.904 1809.03,856.904 
  1812.32,856.904 1815.12,897.469 1816.05,897.469 1820.67,856.904 1828.2,897.469 1828.85,938.033 1831.82,938.033 1843.36,978.597 1844.23,1019.16 1845.38,1019.16 
  1845.54,1019.16 1845.66,1019.16 1846.48,1059.73 1847.65,1100.29 1848.18,1140.85 1848.3,1181.42 1849.3,1221.98 1854.11,1262.55 1864.26,1262.55 1874.84,1262.55 
  1878.47,1262.55 1900.17,1262.55 1902.76,1262.55 1904.99,1303.11 1907.42,1303.11 1907.53,1303.11 1910.47,1343.67 1918.67,1343.67 1920.28,1343.67 1928.19,1303.11 
  1935.76,1303.11 1941.68,1262.55 1955.81,1303.11 1984.92,1262.55 1986.04,1262.55 1991.67,1221.98 1994.43,1181.42 1999.5,1140.85 2002.28,1100.29 2021.18,1059.73 
  2037.99,1019.16 2039.44,978.597 2045.42,938.033 2046.68,897.469 2057.18,856.904 2060.49,816.34 2063.33,856.904 2069.43,816.34 2076.82,856.904 2082.62,856.904 
  2087.51,856.904 2103.59,816.34 2110.21,775.776 2119.69,735.212 2120.06,775.776 2122.99,775.776 2124.79,735.212 2126.03,694.648 2126.81,735.212 2129.57,775.776 
  2131.16,775.776 2134.46,775.776 2134.64,816.34 2137.42,856.904 2151.06,816.34 2151.26,816.34 2156.32,856.904 2162.49,856.904 2171.84,816.34 2172.3,816.34 
  2173.14,856.904 2174.58,897.469 2180.56,938.033 2181.06,897.469 2181.82,938.033 2190.78,938.033 2192.33,978.597 2195.63,1019.16 2202.83,1019.16 2204.58,1059.73 
  2216.66,1059.73 2220.78,1059.73 2226.25,1059.73 2226.59,1059.73 2229.04,1019.16 2234.17,978.597 2238.73,1019.16 2241.51,1019.16 2245.36,1059.73 2248.41,1059.73 
  2252.94,1019.16 2254.83,1059.73 2258.19,1059.73 2259.93,1100.29 2260.14,1100.29 2261.17,1140.85 2263.99,1140.85 2269.98,1100.29 2286.2,1140.85 2290.89,1140.85 
  2291.94,1140.85 
  "/>
<path clip-path="url(#clip740)" d="
M1675.99 248.629 L2281.13 248.629 L2281.13 93.1086 L1675.99 93.1086  Z
  " fill="#ffffff" fill-rule="evenodd" fill-opacity="1"/>
<polyline clip-path="url(#clip740)" style="stroke:#000000; stroke-linecap:butt; stroke-linejoin:round; stroke-width:4; stroke-opacity:1; fill:none" points="
  1675.99,248.629 2281.13,248.629 2281.13,93.1086 1675.99,93.1086 1675.99,248.629 
  "/>
<polyline clip-path="url(#clip740)" style="stroke:#009af9; stroke-linecap:butt; stroke-linejoin:round; stroke-width:4; stroke-opacity:0.4; fill:none" points="
  1699.86,144.949 1843.12,144.949 
  "/>
<path clip-path="url(#clip740)" d="M1874.4 128.942 L1874.4 136.303 L1883.17 136.303 L1883.17 139.613 L1874.4 139.613 L1874.4 153.687 Q1874.4 156.858 1875.26 157.761 Q1876.14 158.664 1878.8 158.664 L1883.17 158.664 L1883.17 162.229 L1878.8 162.229 Q1873.87 162.229 1871.99 160.4 Q1870.12 158.548 1870.12 153.687 L1870.12 139.613 L1866.99 139.613 L1866.99 136.303 L1870.12 136.303 L1870.12 128.942 L1874.4 128.942 Z" fill="#000000" fill-rule="evenodd" fill-opacity="1" /><path clip-path="url(#clip740)" d="M1903.8 140.284 Q1903.08 139.868 1902.22 139.682 Q1901.39 139.474 1900.37 139.474 Q1896.76 139.474 1894.82 141.835 Q1892.89 144.173 1892.89 148.571 L1892.89 162.229 L1888.61 162.229 L1888.61 136.303 L1892.89 136.303 L1892.89 140.331 Q1894.24 137.969 1896.39 136.835 Q1898.54 135.678 1901.62 135.678 Q1902.06 135.678 1902.59 135.747 Q1903.13 135.794 1903.77 135.909 L1903.8 140.284 Z" fill="#000000" fill-rule="evenodd" fill-opacity="1" /><path clip-path="url(#clip740)" d="M1920.05 149.196 Q1914.88 149.196 1912.89 150.377 Q1910.9 151.557 1910.9 154.405 Q1910.9 156.673 1912.38 158.016 Q1913.89 159.335 1916.46 159.335 Q1920 159.335 1922.13 156.835 Q1924.28 154.312 1924.28 150.145 L1924.28 149.196 L1920.05 149.196 M1928.54 147.437 L1928.54 162.229 L1924.28 162.229 L1924.28 158.293 Q1922.82 160.655 1920.65 161.789 Q1918.47 162.9 1915.32 162.9 Q1911.34 162.9 1908.98 160.678 Q1906.64 158.432 1906.64 154.682 Q1906.64 150.307 1909.56 148.085 Q1912.5 145.863 1918.31 145.863 L1924.28 145.863 L1924.28 145.446 Q1924.28 142.507 1922.34 140.909 Q1920.42 139.289 1916.92 139.289 Q1914.7 139.289 1912.59 139.821 Q1910.49 140.354 1908.54 141.419 L1908.54 137.483 Q1910.88 136.581 1913.08 136.141 Q1915.28 135.678 1917.36 135.678 Q1922.99 135.678 1925.76 138.594 Q1928.54 141.511 1928.54 147.437 Z" fill="#000000" fill-rule="evenodd" fill-opacity="1" /><path clip-path="url(#clip740)" d="M1937.32 136.303 L1941.57 136.303 L1941.57 162.692 Q1941.57 167.645 1939.68 169.867 Q1937.8 172.09 1933.61 172.09 L1931.99 172.09 L1931.99 168.479 L1933.13 168.479 Q1935.56 168.479 1936.44 167.344 Q1937.32 166.233 1937.32 162.692 L1937.32 136.303 M1937.32 126.21 L1941.57 126.21 L1941.57 131.604 L1937.32 131.604 L1937.32 126.21 Z" fill="#000000" fill-rule="evenodd" fill-opacity="1" /><path clip-path="url(#clip740)" d="M1972.66 148.201 L1972.66 150.284 L1953.08 150.284 Q1953.36 154.682 1955.72 156.997 Q1958.1 159.289 1962.34 159.289 Q1964.79 159.289 1967.08 158.687 Q1969.4 158.085 1971.67 156.881 L1971.67 160.909 Q1969.38 161.881 1966.97 162.391 Q1964.56 162.9 1962.08 162.9 Q1955.88 162.9 1952.25 159.289 Q1948.63 155.678 1948.63 149.52 Q1948.63 143.155 1952.06 139.428 Q1955.51 135.678 1961.34 135.678 Q1966.57 135.678 1969.61 139.057 Q1972.66 142.414 1972.66 148.201 M1968.4 146.951 Q1968.36 143.456 1966.44 141.372 Q1964.54 139.289 1961.39 139.289 Q1957.82 139.289 1955.67 141.303 Q1953.54 143.317 1953.22 146.974 L1968.4 146.951 Z" fill="#000000" fill-rule="evenodd" fill-opacity="1" /><path clip-path="url(#clip740)" d="M1998.31 137.298 L1998.31 141.28 Q1996.5 140.284 1994.68 139.798 Q1992.87 139.289 1991.02 139.289 Q1986.88 139.289 1984.58 141.928 Q1982.29 144.544 1982.29 149.289 Q1982.29 154.034 1984.58 156.673 Q1986.88 159.289 1991.02 159.289 Q1992.87 159.289 1994.68 158.803 Q1996.5 158.293 1998.31 157.298 L1998.31 161.233 Q1996.53 162.067 1994.61 162.483 Q1992.71 162.9 1990.56 162.9 Q1984.7 162.9 1981.25 159.219 Q1977.8 155.539 1977.8 149.289 Q1977.8 142.946 1981.27 139.312 Q1984.77 135.678 1990.83 135.678 Q1992.8 135.678 1994.68 136.095 Q1996.55 136.488 1998.31 137.298 Z" fill="#000000" fill-rule="evenodd" fill-opacity="1" /><path clip-path="url(#clip740)" d="M2009.93 128.942 L2009.93 136.303 L2018.7 136.303 L2018.7 139.613 L2009.93 139.613 L2009.93 153.687 Q2009.93 156.858 2010.79 157.761 Q2011.67 158.664 2014.33 158.664 L2018.7 158.664 L2018.7 162.229 L2014.33 162.229 Q2009.4 162.229 2007.52 160.4 Q2005.65 158.548 2005.65 153.687 L2005.65 139.613 L2002.52 139.613 L2002.52 136.303 L2005.65 136.303 L2005.65 128.942 L2009.93 128.942 Z" fill="#000000" fill-rule="evenodd" fill-opacity="1" /><path clip-path="url(#clip740)" d="M2034.35 139.289 Q2030.93 139.289 2028.94 141.974 Q2026.94 144.636 2026.94 149.289 Q2026.94 153.942 2028.91 156.627 Q2030.9 159.289 2034.35 159.289 Q2037.75 159.289 2039.75 156.604 Q2041.74 153.918 2041.74 149.289 Q2041.74 144.682 2039.75 141.997 Q2037.75 139.289 2034.35 139.289 M2034.35 135.678 Q2039.91 135.678 2043.08 139.289 Q2046.25 142.9 2046.25 149.289 Q2046.25 155.655 2043.08 159.289 Q2039.91 162.9 2034.35 162.9 Q2028.77 162.9 2025.6 159.289 Q2022.45 155.655 2022.45 149.289 Q2022.45 142.9 2025.6 139.289 Q2028.77 135.678 2034.35 135.678 Z" fill="#000000" fill-rule="evenodd" fill-opacity="1" /><path clip-path="url(#clip740)" d="M2068.33 140.284 Q2067.62 139.868 2066.76 139.682 Q2065.93 139.474 2064.91 139.474 Q2061.3 139.474 2059.35 141.835 Q2057.43 144.173 2057.43 148.571 L2057.43 162.229 L2053.15 162.229 L2053.15 136.303 L2057.43 136.303 L2057.43 140.331 Q2058.77 137.969 2060.93 136.835 Q2063.08 135.678 2066.16 135.678 Q2066.6 135.678 2067.13 135.747 Q2067.66 135.794 2068.31 135.909 L2068.33 140.284 Z" fill="#000000" fill-rule="evenodd" fill-opacity="1" /><path clip-path="url(#clip740)" d="M2083.59 164.636 Q2081.78 169.266 2080.07 170.678 Q2078.36 172.09 2075.49 172.09 L2072.08 172.09 L2072.08 168.525 L2074.58 168.525 Q2076.34 168.525 2077.31 167.692 Q2078.29 166.858 2079.47 163.756 L2080.23 161.812 L2069.75 136.303 L2074.26 136.303 L2082.36 156.581 L2090.46 136.303 L2094.98 136.303 L2083.59 164.636 Z" fill="#000000" fill-rule="evenodd" fill-opacity="1" /><path clip-path="url(#clip740)" d="M2102.27 158.293 L2109.91 158.293 L2109.91 131.928 L2101.6 133.595 L2101.6 129.335 L2109.86 127.669 L2114.54 127.669 L2114.54 158.293 L2122.18 158.293 L2122.18 162.229 L2102.27 162.229 L2102.27 158.293 Z" fill="#000000" fill-rule="evenodd" fill-opacity="1" /><path clip-path="url(#clip740)" d="M2156.13 139.289 Q2152.71 139.289 2150.72 141.974 Q2148.73 144.636 2148.73 149.289 Q2148.73 153.942 2150.69 156.627 Q2152.68 159.289 2156.13 159.289 Q2159.54 159.289 2161.53 156.604 Q2163.52 153.918 2163.52 149.289 Q2163.52 144.682 2161.53 141.997 Q2159.54 139.289 2156.13 139.289 M2156.13 135.678 Q2161.69 135.678 2164.86 139.289 Q2168.03 142.9 2168.03 149.289 Q2168.03 155.655 2164.86 159.289 Q2161.69 162.9 2156.13 162.9 Q2150.55 162.9 2147.38 159.289 Q2144.24 155.655 2144.24 149.289 Q2144.24 142.9 2147.38 139.289 Q2150.55 135.678 2156.13 135.678 Z" fill="#000000" fill-rule="evenodd" fill-opacity="1" /><path clip-path="url(#clip740)" d="M2188.22 126.21 L2188.22 129.752 L2184.14 129.752 Q2181.85 129.752 2180.95 130.678 Q2180.07 131.604 2180.07 134.011 L2180.07 136.303 L2187.08 136.303 L2187.08 139.613 L2180.07 139.613 L2180.07 162.229 L2175.79 162.229 L2175.79 139.613 L2171.71 139.613 L2171.71 136.303 L2175.79 136.303 L2175.79 134.497 Q2175.79 130.169 2177.8 128.201 Q2179.81 126.21 2184.19 126.21 L2188.22 126.21 Z" fill="#000000" fill-rule="evenodd" fill-opacity="1" /><path clip-path="url(#clip740)" d="M2205.37 127.669 L2210.39 127.669 L2218.98 140.516 L2227.61 127.669 L2232.64 127.669 L2221.53 144.266 L2233.38 162.229 L2228.36 162.229 L2218.63 147.53 L2208.84 162.229 L2203.8 162.229 L2216.13 143.78 L2205.37 127.669 Z" fill="#000000" fill-rule="evenodd" fill-opacity="1" /><polyline clip-path="url(#clip740)" style="stroke:#e26f46; stroke-linecap:butt; stroke-linejoin:round; stroke-width:4; stroke-opacity:1; fill:none" stroke-dasharray="16, 10" points="
  1699.86,196.789 1843.12,196.789 
  "/>
<path clip-path="url(#clip740)" d="M1874.4 180.782 L1874.4 188.143 L1883.17 188.143 L1883.17 191.453 L1874.4 191.453 L1874.4 205.527 Q1874.4 208.698 1875.26 209.601 Q1876.14 210.504 1878.8 210.504 L1883.17 210.504 L1883.17 214.069 L1878.8 214.069 Q1873.87 214.069 1871.99 212.24 Q1870.12 210.388 1870.12 205.527 L1870.12 191.453 L1866.99 191.453 L1866.99 188.143 L1870.12 188.143 L1870.12 180.782 L1874.4 180.782 Z" fill="#000000" fill-rule="evenodd" fill-opacity="1" /><path clip-path="url(#clip740)" d="M1903.8 192.124 Q1903.08 191.708 1902.22 191.522 Q1901.39 191.314 1900.37 191.314 Q1896.76 191.314 1894.82 193.675 Q1892.89 196.013 1892.89 200.411 L1892.89 214.069 L1888.61 214.069 L1888.61 188.143 L1892.89 188.143 L1892.89 192.171 Q1894.24 189.809 1896.39 188.675 Q1898.54 187.518 1901.62 187.518 Q1902.06 187.518 1902.59 187.587 Q1903.13 187.634 1903.77 187.749 L1903.8 192.124 Z" fill="#000000" fill-rule="evenodd" fill-opacity="1" /><path clip-path="url(#clip740)" d="M1920.05 201.036 Q1914.88 201.036 1912.89 202.217 Q1910.9 203.397 1910.9 206.245 Q1910.9 208.513 1912.38 209.856 Q1913.89 211.175 1916.46 211.175 Q1920 211.175 1922.13 208.675 Q1924.28 206.152 1924.28 201.985 L1924.28 201.036 L1920.05 201.036 M1928.54 199.277 L1928.54 214.069 L1924.28 214.069 L1924.28 210.133 Q1922.82 212.495 1920.65 213.629 Q1918.47 214.74 1915.32 214.74 Q1911.34 214.74 1908.98 212.518 Q1906.64 210.272 1906.64 206.522 Q1906.64 202.147 1909.56 199.925 Q1912.5 197.703 1918.31 197.703 L1924.28 197.703 L1924.28 197.286 Q1924.28 194.347 1922.34 192.749 Q1920.42 191.129 1916.92 191.129 Q1914.7 191.129 1912.59 191.661 Q1910.49 192.194 1908.54 193.259 L1908.54 189.323 Q1910.88 188.421 1913.08 187.981 Q1915.28 187.518 1917.36 187.518 Q1922.99 187.518 1925.76 190.434 Q1928.54 193.351 1928.54 199.277 Z" fill="#000000" fill-rule="evenodd" fill-opacity="1" /><path clip-path="url(#clip740)" d="M1937.32 188.143 L1941.57 188.143 L1941.57 214.532 Q1941.57 219.485 1939.68 221.707 Q1937.8 223.93 1933.61 223.93 L1931.99 223.93 L1931.99 220.319 L1933.13 220.319 Q1935.56 220.319 1936.44 219.184 Q1937.32 218.073 1937.32 214.532 L1937.32 188.143 M1937.32 178.05 L1941.57 178.05 L1941.57 183.444 L1937.32 183.444 L1937.32 178.05 Z" fill="#000000" fill-rule="evenodd" fill-opacity="1" /><path clip-path="url(#clip740)" d="M1972.66 200.041 L1972.66 202.124 L1953.08 202.124 Q1953.36 206.522 1955.72 208.837 Q1958.1 211.129 1962.34 211.129 Q1964.79 211.129 1967.08 210.527 Q1969.4 209.925 1971.67 208.721 L1971.67 212.749 Q1969.38 213.721 1966.97 214.231 Q1964.56 214.74 1962.08 214.74 Q1955.88 214.74 1952.25 211.129 Q1948.63 207.518 1948.63 201.36 Q1948.63 194.995 1952.06 191.268 Q1955.51 187.518 1961.34 187.518 Q1966.57 187.518 1969.61 190.897 Q1972.66 194.254 1972.66 200.041 M1968.4 198.791 Q1968.36 195.296 1966.44 193.212 Q1964.54 191.129 1961.39 191.129 Q1957.82 191.129 1955.67 193.143 Q1953.54 195.157 1953.22 198.814 L1968.4 198.791 Z" fill="#000000" fill-rule="evenodd" fill-opacity="1" /><path clip-path="url(#clip740)" d="M1998.31 189.138 L1998.31 193.12 Q1996.5 192.124 1994.68 191.638 Q1992.87 191.129 1991.02 191.129 Q1986.88 191.129 1984.58 193.768 Q1982.29 196.384 1982.29 201.129 Q1982.29 205.874 1984.58 208.513 Q1986.88 211.129 1991.02 211.129 Q1992.87 211.129 1994.68 210.643 Q1996.5 210.133 1998.31 209.138 L1998.31 213.073 Q1996.53 213.907 1994.61 214.323 Q1992.71 214.74 1990.56 214.74 Q1984.7 214.74 1981.25 211.059 Q1977.8 207.379 1977.8 201.129 Q1977.8 194.786 1981.27 191.152 Q1984.77 187.518 1990.83 187.518 Q1992.8 187.518 1994.68 187.935 Q1996.55 188.328 1998.31 189.138 Z" fill="#000000" fill-rule="evenodd" fill-opacity="1" /><path clip-path="url(#clip740)" d="M2009.93 180.782 L2009.93 188.143 L2018.7 188.143 L2018.7 191.453 L2009.93 191.453 L2009.93 205.527 Q2009.93 208.698 2010.79 209.601 Q2011.67 210.504 2014.33 210.504 L2018.7 210.504 L2018.7 214.069 L2014.33 214.069 Q2009.4 214.069 2007.52 212.24 Q2005.65 210.388 2005.65 205.527 L2005.65 191.453 L2002.52 191.453 L2002.52 188.143 L2005.65 188.143 L2005.65 180.782 L2009.93 180.782 Z" fill="#000000" fill-rule="evenodd" fill-opacity="1" /><path clip-path="url(#clip740)" d="M2034.35 191.129 Q2030.93 191.129 2028.94 193.814 Q2026.94 196.476 2026.94 201.129 Q2026.94 205.782 2028.91 208.467 Q2030.9 211.129 2034.35 211.129 Q2037.75 211.129 2039.75 208.444 Q2041.74 205.758 2041.74 201.129 Q2041.74 196.522 2039.75 193.837 Q2037.75 191.129 2034.35 191.129 M2034.35 187.518 Q2039.91 187.518 2043.08 191.129 Q2046.25 194.74 2046.25 201.129 Q2046.25 207.495 2043.08 211.129 Q2039.91 214.74 2034.35 214.74 Q2028.77 214.74 2025.6 211.129 Q2022.45 207.495 2022.45 201.129 Q2022.45 194.74 2025.6 191.129 Q2028.77 187.518 2034.35 187.518 Z" fill="#000000" fill-rule="evenodd" fill-opacity="1" /><path clip-path="url(#clip740)" d="M2068.33 192.124 Q2067.62 191.708 2066.76 191.522 Q2065.93 191.314 2064.91 191.314 Q2061.3 191.314 2059.35 193.675 Q2057.43 196.013 2057.43 200.411 L2057.43 214.069 L2053.15 214.069 L2053.15 188.143 L2057.43 188.143 L2057.43 192.171 Q2058.77 189.809 2060.93 188.675 Q2063.08 187.518 2066.16 187.518 Q2066.6 187.518 2067.13 187.587 Q2067.66 187.634 2068.31 187.749 L2068.33 192.124 Z" fill="#000000" fill-rule="evenodd" fill-opacity="1" /><path clip-path="url(#clip740)" d="M2083.59 216.476 Q2081.78 221.106 2080.07 222.518 Q2078.36 223.93 2075.49 223.93 L2072.08 223.93 L2072.08 220.365 L2074.58 220.365 Q2076.34 220.365 2077.31 219.532 Q2078.29 218.698 2079.47 215.596 L2080.23 213.652 L2069.75 188.143 L2074.26 188.143 L2082.36 208.421 L2090.46 188.143 L2094.98 188.143 L2083.59 216.476 Z" fill="#000000" fill-rule="evenodd" fill-opacity="1" /><path clip-path="url(#clip740)" d="M2105.49 210.133 L2121.81 210.133 L2121.81 214.069 L2099.86 214.069 L2099.86 210.133 Q2102.52 207.379 2107.11 202.749 Q2111.71 198.096 2112.89 196.754 Q2115.14 194.231 2116.02 192.495 Q2116.92 190.735 2116.92 189.046 Q2116.92 186.291 2114.98 184.555 Q2113.06 182.819 2109.95 182.819 Q2107.75 182.819 2105.3 183.583 Q2102.87 184.347 2100.09 185.897 L2100.09 181.175 Q2102.92 180.041 2105.37 179.462 Q2107.82 178.884 2109.86 178.884 Q2115.23 178.884 2118.43 181.569 Q2121.62 184.254 2121.62 188.745 Q2121.62 190.874 2120.81 192.796 Q2120.02 194.694 2117.92 197.286 Q2117.34 197.958 2114.24 201.175 Q2111.13 204.37 2105.49 210.133 Z" fill="#000000" fill-rule="evenodd" fill-opacity="1" /><path clip-path="url(#clip740)" d="M2156.13 191.129 Q2152.71 191.129 2150.72 193.814 Q2148.73 196.476 2148.73 201.129 Q2148.73 205.782 2150.69 208.467 Q2152.68 211.129 2156.13 211.129 Q2159.54 211.129 2161.53 208.444 Q2163.52 205.758 2163.52 201.129 Q2163.52 196.522 2161.53 193.837 Q2159.54 191.129 2156.13 191.129 M2156.13 187.518 Q2161.69 187.518 2164.86 191.129 Q2168.03 194.74 2168.03 201.129 Q2168.03 207.495 2164.86 211.129 Q2161.69 214.74 2156.13 214.74 Q2150.55 214.74 2147.38 211.129 Q2144.24 207.495 2144.24 201.129 Q2144.24 194.74 2147.38 191.129 Q2150.55 187.518 2156.13 187.518 Z" fill="#000000" fill-rule="evenodd" fill-opacity="1" /><path clip-path="url(#clip740)" d="M2188.22 178.05 L2188.22 181.592 L2184.14 181.592 Q2181.85 181.592 2180.95 182.518 Q2180.07 183.444 2180.07 185.851 L2180.07 188.143 L2187.08 188.143 L2187.08 191.453 L2180.07 191.453 L2180.07 214.069 L2175.79 214.069 L2175.79 191.453 L2171.71 191.453 L2171.71 188.143 L2175.79 188.143 L2175.79 186.337 Q2175.79 182.009 2177.8 180.041 Q2179.81 178.05 2184.19 178.05 L2188.22 178.05 Z" fill="#000000" fill-rule="evenodd" fill-opacity="1" /><path clip-path="url(#clip740)" d="M2205.37 179.509 L2210.39 179.509 L2218.98 192.356 L2227.61 179.509 L2232.64 179.509 L2221.53 196.106 L2233.38 214.069 L2228.36 214.069 L2218.63 199.37 L2208.84 214.069 L2203.8 214.069 L2216.13 195.62 L2205.37 179.509 Z" fill="#000000" fill-rule="evenodd" fill-opacity="1" /></svg>
