<?xml version="1.0" encoding="utf-8" standalone="no"?>
<!DOCTYPE svg PUBLIC "-//W3C//DTD SVG 1.1//EN"
  "http://www.w3.org/Graphics/SVG/1.1/DTD/svg11.dtd">
<svg height="288pt" version="1.1" viewBox="0 0 432 288" width="432pt" xmlns="http://www.w3.org/2000/svg" xmlns:xlink="http://www.w3.org/1999/xlink">
 <metadata>
  <rdf:RDF xmlns:cc="http://creativecommons.org/ns#" xmlns:dc="http://purl.org/dc/elements/1.1/" xmlns:rdf="http://www.w3.org/1999/02/22-rdf-syntax-ns#">
   <cc:Work>
    <dc:type rdf:resource="http://purl.org/dc/dcmitype/StillImage"/>
    <dc:date>2021-11-30T10:26:13.599680</dc:date>
    <dc:format>image/svg+xml</dc:format>
    <dc:creator>
     <cc:Agent>
      <dc:title>Matplotlib v3.4.2, https://matplotlib.org/</dc:title>
     </cc:Agent>
    </dc:creator>
   </cc:Work>
  </rdf:RDF>
 </metadata>
 <defs>
  <style type="text/css">*{stroke-linecap:butt;stroke-linejoin:round;}</style>
 </defs>
 <g id="figure_1">
  <g id="patch_1">
   <path d="M 0 288 
L 432 288 
L 432 0 
L 0 0 
z
" style="fill:#ffffff;"/>
  </g>
  <g id="axes_1">
   <g id="patch_2">
    <path d="M 32.19834 258.225354 
L 423.633507 258.225354 
L 423.633507 2.834646 
L 32.19834 2.834646 
z
" style="fill:#ffffff;"/>
   </g>
   <g id="matplotlib.axis_1">
    <g id="xtick_1">
     <g id="line2d_1">
      <path clip-path="url(#pb5b08558ed)" d="M 32.19834 258.225354 
L 32.19834 2.834646 
" style="fill:none;stroke:#000000;stroke-linecap:square;stroke-opacity:0.1;stroke-width:0.5;"/>
     </g>
     <g id="line2d_2">
      <defs>
       <path d="M 0 0 
L 0 -2.5 
" id="m928782e5d6" style="stroke:#000000;stroke-width:0.5;"/>
      </defs>
      <g>
       <use style="stroke:#000000;stroke-width:0.5;" x="32.19834" xlink:href="#m928782e5d6" y="258.225354"/>
      </g>
     </g>
     <g id="text_1">
      <!-- $\mathregular{0}$ -->
      <g transform="translate(29.63834 267.804104)scale(0.08 -0.08)">
       <defs>
        <path d="M 2034 4250 
Q 1547 4250 1301 3770 
Q 1056 3291 1056 2328 
Q 1056 1369 1301 889 
Q 1547 409 2034 409 
Q 2525 409 2770 889 
Q 3016 1369 3016 2328 
Q 3016 3291 2770 3770 
Q 2525 4250 2034 4250 
z
M 2034 4750 
Q 2819 4750 3233 4129 
Q 3647 3509 3647 2328 
Q 3647 1150 3233 529 
Q 2819 -91 2034 -91 
Q 1250 -91 836 529 
Q 422 1150 422 2328 
Q 422 3509 836 4129 
Q 1250 4750 2034 4750 
z
" id="DejaVuSans-30" transform="scale(0.015625)"/>
       </defs>
       <use transform="translate(0 0.78125)" xlink:href="#DejaVuSans-30"/>
      </g>
     </g>
    </g>
    <g id="xtick_2">
     <g id="line2d_3">
      <path clip-path="url(#pb5b08558ed)" d="M 162.676729 258.225354 
L 162.676729 2.834646 
" style="fill:none;stroke:#000000;stroke-linecap:square;stroke-opacity:0.1;stroke-width:0.5;"/>
     </g>
     <g id="line2d_4">
      <g>
       <use style="stroke:#000000;stroke-width:0.5;" x="162.676729" xlink:href="#m928782e5d6" y="258.225354"/>
      </g>
     </g>
     <g id="text_2">
      <!-- $\mathregular{10}$ -->
      <g transform="translate(157.556729 267.804104)scale(0.08 -0.08)">
       <defs>
        <path d="M 794 531 
L 1825 531 
L 1825 4091 
L 703 3866 
L 703 4441 
L 1819 4666 
L 2450 4666 
L 2450 531 
L 3481 531 
L 3481 0 
L 794 0 
L 794 531 
z
" id="DejaVuSans-31" transform="scale(0.015625)"/>
       </defs>
       <use transform="translate(0 0.78125)" xlink:href="#DejaVuSans-31"/>
       <use transform="translate(63.623047 0.78125)" xlink:href="#DejaVuSans-30"/>
      </g>
     </g>
    </g>
    <g id="xtick_3">
     <g id="line2d_5">
      <path clip-path="url(#pb5b08558ed)" d="M 293.155118 258.225354 
L 293.155118 2.834646 
" style="fill:none;stroke:#000000;stroke-linecap:square;stroke-opacity:0.1;stroke-width:0.5;"/>
     </g>
     <g id="line2d_6">
      <g>
       <use style="stroke:#000000;stroke-width:0.5;" x="293.155118" xlink:href="#m928782e5d6" y="258.225354"/>
      </g>
     </g>
     <g id="text_3">
      <!-- $\mathregular{20}$ -->
      <g transform="translate(288.035118 267.804104)scale(0.08 -0.08)">
       <defs>
        <path d="M 1228 531 
L 3431 531 
L 3431 0 
L 469 0 
L 469 531 
Q 828 903 1448 1529 
Q 2069 2156 2228 2338 
Q 2531 2678 2651 2914 
Q 2772 3150 2772 3378 
Q 2772 3750 2511 3984 
Q 2250 4219 1831 4219 
Q 1534 4219 1204 4116 
Q 875 4013 500 3803 
L 500 4441 
Q 881 4594 1212 4672 
Q 1544 4750 1819 4750 
Q 2544 4750 2975 4387 
Q 3406 4025 3406 3419 
Q 3406 3131 3298 2873 
Q 3191 2616 2906 2266 
Q 2828 2175 2409 1742 
Q 1991 1309 1228 531 
z
" id="DejaVuSans-32" transform="scale(0.015625)"/>
       </defs>
       <use transform="translate(0 0.78125)" xlink:href="#DejaVuSans-32"/>
       <use transform="translate(63.623047 0.78125)" xlink:href="#DejaVuSans-30"/>
      </g>
     </g>
    </g>
    <g id="xtick_4">
     <g id="line2d_7">
      <path clip-path="url(#pb5b08558ed)" d="M 423.633507 258.225354 
L 423.633507 2.834646 
" style="fill:none;stroke:#000000;stroke-linecap:square;stroke-opacity:0.1;stroke-width:0.5;"/>
     </g>
     <g id="line2d_8">
      <g>
       <use style="stroke:#000000;stroke-width:0.5;" x="423.633507" xlink:href="#m928782e5d6" y="258.225354"/>
      </g>
     </g>
     <g id="text_4">
      <!-- $\mathregular{30}$ -->
      <g transform="translate(418.513507 267.804104)scale(0.08 -0.08)">
       <defs>
        <path d="M 2597 2516 
Q 3050 2419 3304 2112 
Q 3559 1806 3559 1356 
Q 3559 666 3084 287 
Q 2609 -91 1734 -91 
Q 1441 -91 1130 -33 
Q 819 25 488 141 
L 488 750 
Q 750 597 1062 519 
Q 1375 441 1716 441 
Q 2309 441 2620 675 
Q 2931 909 2931 1356 
Q 2931 1769 2642 2001 
Q 2353 2234 1838 2234 
L 1294 2234 
L 1294 2753 
L 1863 2753 
Q 2328 2753 2575 2939 
Q 2822 3125 2822 3475 
Q 2822 3834 2567 4026 
Q 2313 4219 1838 4219 
Q 1578 4219 1281 4162 
Q 984 4106 628 3988 
L 628 4550 
Q 988 4650 1302 4700 
Q 1616 4750 1894 4750 
Q 2613 4750 3031 4423 
Q 3450 4097 3450 3541 
Q 3450 3153 3228 2886 
Q 3006 2619 2597 2516 
z
" id="DejaVuSans-33" transform="scale(0.015625)"/>
       </defs>
       <use transform="translate(0 0.78125)" xlink:href="#DejaVuSans-33"/>
       <use transform="translate(63.623047 0.78125)" xlink:href="#DejaVuSans-30"/>
      </g>
     </g>
    </g>
    <g id="text_5">
     <!-- time -->
     <g transform="translate(215.49022 281.826136)scale(0.11 -0.11)">
      <defs>
       <path d="M 1172 4494 
L 1172 3500 
L 2356 3500 
L 2356 3053 
L 1172 3053 
L 1172 1153 
Q 1172 725 1289 603 
Q 1406 481 1766 481 
L 2356 481 
L 2356 0 
L 1766 0 
Q 1100 0 847 248 
Q 594 497 594 1153 
L 594 3053 
L 172 3053 
L 172 3500 
L 594 3500 
L 594 4494 
L 1172 4494 
z
" id="DejaVuSans-74" transform="scale(0.015625)"/>
       <path d="M 603 3500 
L 1178 3500 
L 1178 0 
L 603 0 
L 603 3500 
z
M 603 4863 
L 1178 4863 
L 1178 4134 
L 603 4134 
L 603 4863 
z
" id="DejaVuSans-69" transform="scale(0.015625)"/>
       <path d="M 3328 2828 
Q 3544 3216 3844 3400 
Q 4144 3584 4550 3584 
Q 5097 3584 5394 3201 
Q 5691 2819 5691 2113 
L 5691 0 
L 5113 0 
L 5113 2094 
Q 5113 2597 4934 2840 
Q 4756 3084 4391 3084 
Q 3944 3084 3684 2787 
Q 3425 2491 3425 1978 
L 3425 0 
L 2847 0 
L 2847 2094 
Q 2847 2600 2669 2842 
Q 2491 3084 2119 3084 
Q 1678 3084 1418 2786 
Q 1159 2488 1159 1978 
L 1159 0 
L 581 0 
L 581 3500 
L 1159 3500 
L 1159 2956 
Q 1356 3278 1631 3431 
Q 1906 3584 2284 3584 
Q 2666 3584 2933 3390 
Q 3200 3197 3328 2828 
z
" id="DejaVuSans-6d" transform="scale(0.015625)"/>
       <path d="M 3597 1894 
L 3597 1613 
L 953 1613 
Q 991 1019 1311 708 
Q 1631 397 2203 397 
Q 2534 397 2845 478 
Q 3156 559 3463 722 
L 3463 178 
Q 3153 47 2828 -22 
Q 2503 -91 2169 -91 
Q 1331 -91 842 396 
Q 353 884 353 1716 
Q 353 2575 817 3079 
Q 1281 3584 2069 3584 
Q 2775 3584 3186 3129 
Q 3597 2675 3597 1894 
z
M 3022 2063 
Q 3016 2534 2758 2815 
Q 2500 3097 2075 3097 
Q 1594 3097 1305 2825 
Q 1016 2553 972 2059 
L 3022 2063 
z
" id="DejaVuSans-65" transform="scale(0.015625)"/>
      </defs>
      <use xlink:href="#DejaVuSans-74"/>
      <use x="39.208984" xlink:href="#DejaVuSans-69"/>
      <use x="66.992188" xlink:href="#DejaVuSans-6d"/>
      <use x="164.404297" xlink:href="#DejaVuSans-65"/>
     </g>
    </g>
   </g>
   <g id="matplotlib.axis_2">
    <g id="ytick_1">
     <g id="line2d_9">
      <path clip-path="url(#pb5b08558ed)" d="M 32.19834 250.997315 
L 423.633507 250.997315 
" style="fill:none;stroke:#000000;stroke-linecap:square;stroke-opacity:0.1;stroke-width:0.5;"/>
     </g>
     <g id="line2d_10">
      <defs>
       <path d="M 0 0 
L 2.5 0 
" id="m2b267ded82" style="stroke:#000000;stroke-width:0.5;"/>
      </defs>
      <g>
       <use style="stroke:#000000;stroke-width:0.5;" x="32.19834" xlink:href="#m2b267ded82" y="250.997315"/>
      </g>
     </g>
     <g id="text_6">
      <!-- $\mathregular{0}$ -->
      <g transform="translate(23.57834 254.03669)scale(0.08 -0.08)">
       <use transform="translate(0 0.78125)" xlink:href="#DejaVuSans-30"/>
      </g>
     </g>
    </g>
    <g id="ytick_2">
     <g id="line2d_11">
      <path clip-path="url(#pb5b08558ed)" d="M 32.19834 170.685772 
L 423.633507 170.685772 
" style="fill:none;stroke:#000000;stroke-linecap:square;stroke-opacity:0.1;stroke-width:0.5;"/>
     </g>
     <g id="line2d_12">
      <g>
       <use style="stroke:#000000;stroke-width:0.5;" x="32.19834" xlink:href="#m2b267ded82" y="170.685772"/>
      </g>
     </g>
     <g id="text_7">
      <!-- $\mathregular{5}$ -->
      <g transform="translate(23.57834 173.725147)scale(0.08 -0.08)">
       <defs>
        <path d="M 691 4666 
L 3169 4666 
L 3169 4134 
L 1269 4134 
L 1269 2991 
Q 1406 3038 1543 3061 
Q 1681 3084 1819 3084 
Q 2600 3084 3056 2656 
Q 3513 2228 3513 1497 
Q 3513 744 3044 326 
Q 2575 -91 1722 -91 
Q 1428 -91 1123 -41 
Q 819 9 494 109 
L 494 744 
Q 775 591 1075 516 
Q 1375 441 1709 441 
Q 2250 441 2565 725 
Q 2881 1009 2881 1497 
Q 2881 1984 2565 2268 
Q 2250 2553 1709 2553 
Q 1456 2553 1204 2497 
Q 953 2441 691 2322 
L 691 4666 
z
" id="DejaVuSans-35" transform="scale(0.015625)"/>
       </defs>
       <use transform="translate(0 0.09375)" xlink:href="#DejaVuSans-35"/>
      </g>
     </g>
    </g>
    <g id="ytick_3">
     <g id="line2d_13">
      <path clip-path="url(#pb5b08558ed)" d="M 32.19834 90.374228 
L 423.633507 90.374228 
" style="fill:none;stroke:#000000;stroke-linecap:square;stroke-opacity:0.1;stroke-width:0.5;"/>
     </g>
     <g id="line2d_14">
      <g>
       <use style="stroke:#000000;stroke-width:0.5;" x="32.19834" xlink:href="#m2b267ded82" y="90.374228"/>
      </g>
     </g>
     <g id="text_8">
      <!-- $\mathregular{10}$ -->
      <g transform="translate(18.45834 93.413603)scale(0.08 -0.08)">
       <use transform="translate(0 0.78125)" xlink:href="#DejaVuSans-31"/>
       <use transform="translate(63.623047 0.78125)" xlink:href="#DejaVuSans-30"/>
      </g>
     </g>
    </g>
    <g id="ytick_4">
     <g id="line2d_15">
      <path clip-path="url(#pb5b08558ed)" d="M 32.19834 10.062685 
L 423.633507 10.062685 
" style="fill:none;stroke:#000000;stroke-linecap:square;stroke-opacity:0.1;stroke-width:0.5;"/>
     </g>
     <g id="line2d_16">
      <g>
       <use style="stroke:#000000;stroke-width:0.5;" x="32.19834" xlink:href="#m2b267ded82" y="10.062685"/>
      </g>
     </g>
     <g id="text_9">
      <!-- $\mathregular{15}$ -->
      <g transform="translate(18.45834 13.10206)scale(0.08 -0.08)">
       <use transform="translate(0 0.09375)" xlink:href="#DejaVuSans-31"/>
       <use transform="translate(63.623047 0.09375)" xlink:href="#DejaVuSans-35"/>
      </g>
     </g>
    </g>
    <g id="text_10">
     <!-- Molecular Number -->
     <g transform="translate(12.170683 181.064687)rotate(-90)scale(0.11 -0.11)">
      <defs>
       <path d="M 628 4666 
L 1569 4666 
L 2759 1491 
L 3956 4666 
L 4897 4666 
L 4897 0 
L 4281 0 
L 4281 4097 
L 3078 897 
L 2444 897 
L 1241 4097 
L 1241 0 
L 628 0 
L 628 4666 
z
" id="DejaVuSans-4d" transform="scale(0.015625)"/>
       <path d="M 1959 3097 
Q 1497 3097 1228 2736 
Q 959 2375 959 1747 
Q 959 1119 1226 758 
Q 1494 397 1959 397 
Q 2419 397 2687 759 
Q 2956 1122 2956 1747 
Q 2956 2369 2687 2733 
Q 2419 3097 1959 3097 
z
M 1959 3584 
Q 2709 3584 3137 3096 
Q 3566 2609 3566 1747 
Q 3566 888 3137 398 
Q 2709 -91 1959 -91 
Q 1206 -91 779 398 
Q 353 888 353 1747 
Q 353 2609 779 3096 
Q 1206 3584 1959 3584 
z
" id="DejaVuSans-6f" transform="scale(0.015625)"/>
       <path d="M 603 4863 
L 1178 4863 
L 1178 0 
L 603 0 
L 603 4863 
z
" id="DejaVuSans-6c" transform="scale(0.015625)"/>
       <path d="M 3122 3366 
L 3122 2828 
Q 2878 2963 2633 3030 
Q 2388 3097 2138 3097 
Q 1578 3097 1268 2742 
Q 959 2388 959 1747 
Q 959 1106 1268 751 
Q 1578 397 2138 397 
Q 2388 397 2633 464 
Q 2878 531 3122 666 
L 3122 134 
Q 2881 22 2623 -34 
Q 2366 -91 2075 -91 
Q 1284 -91 818 406 
Q 353 903 353 1747 
Q 353 2603 823 3093 
Q 1294 3584 2113 3584 
Q 2378 3584 2631 3529 
Q 2884 3475 3122 3366 
z
" id="DejaVuSans-63" transform="scale(0.015625)"/>
       <path d="M 544 1381 
L 544 3500 
L 1119 3500 
L 1119 1403 
Q 1119 906 1312 657 
Q 1506 409 1894 409 
Q 2359 409 2629 706 
Q 2900 1003 2900 1516 
L 2900 3500 
L 3475 3500 
L 3475 0 
L 2900 0 
L 2900 538 
Q 2691 219 2414 64 
Q 2138 -91 1772 -91 
Q 1169 -91 856 284 
Q 544 659 544 1381 
z
M 1991 3584 
L 1991 3584 
z
" id="DejaVuSans-75" transform="scale(0.015625)"/>
       <path d="M 2194 1759 
Q 1497 1759 1228 1600 
Q 959 1441 959 1056 
Q 959 750 1161 570 
Q 1363 391 1709 391 
Q 2188 391 2477 730 
Q 2766 1069 2766 1631 
L 2766 1759 
L 2194 1759 
z
M 3341 1997 
L 3341 0 
L 2766 0 
L 2766 531 
Q 2569 213 2275 61 
Q 1981 -91 1556 -91 
Q 1019 -91 701 211 
Q 384 513 384 1019 
Q 384 1609 779 1909 
Q 1175 2209 1959 2209 
L 2766 2209 
L 2766 2266 
Q 2766 2663 2505 2880 
Q 2244 3097 1772 3097 
Q 1472 3097 1187 3025 
Q 903 2953 641 2809 
L 641 3341 
Q 956 3463 1253 3523 
Q 1550 3584 1831 3584 
Q 2591 3584 2966 3190 
Q 3341 2797 3341 1997 
z
" id="DejaVuSans-61" transform="scale(0.015625)"/>
       <path d="M 2631 2963 
Q 2534 3019 2420 3045 
Q 2306 3072 2169 3072 
Q 1681 3072 1420 2755 
Q 1159 2438 1159 1844 
L 1159 0 
L 581 0 
L 581 3500 
L 1159 3500 
L 1159 2956 
Q 1341 3275 1631 3429 
Q 1922 3584 2338 3584 
Q 2397 3584 2469 3576 
Q 2541 3569 2628 3553 
L 2631 2963 
z
" id="DejaVuSans-72" transform="scale(0.015625)"/>
       <path id="DejaVuSans-20" transform="scale(0.015625)"/>
       <path d="M 628 4666 
L 1478 4666 
L 3547 763 
L 3547 4666 
L 4159 4666 
L 4159 0 
L 3309 0 
L 1241 3903 
L 1241 0 
L 628 0 
L 628 4666 
z
" id="DejaVuSans-4e" transform="scale(0.015625)"/>
       <path d="M 3116 1747 
Q 3116 2381 2855 2742 
Q 2594 3103 2138 3103 
Q 1681 3103 1420 2742 
Q 1159 2381 1159 1747 
Q 1159 1113 1420 752 
Q 1681 391 2138 391 
Q 2594 391 2855 752 
Q 3116 1113 3116 1747 
z
M 1159 2969 
Q 1341 3281 1617 3432 
Q 1894 3584 2278 3584 
Q 2916 3584 3314 3078 
Q 3713 2572 3713 1747 
Q 3713 922 3314 415 
Q 2916 -91 2278 -91 
Q 1894 -91 1617 61 
Q 1341 213 1159 525 
L 1159 0 
L 581 0 
L 581 4863 
L 1159 4863 
L 1159 2969 
z
" id="DejaVuSans-62" transform="scale(0.015625)"/>
      </defs>
      <use xlink:href="#DejaVuSans-4d"/>
      <use x="86.279297" xlink:href="#DejaVuSans-6f"/>
      <use x="147.460938" xlink:href="#DejaVuSans-6c"/>
      <use x="175.244141" xlink:href="#DejaVuSans-65"/>
      <use x="236.767578" xlink:href="#DejaVuSans-63"/>
      <use x="291.748047" xlink:href="#DejaVuSans-75"/>
      <use x="355.126953" xlink:href="#DejaVuSans-6c"/>
      <use x="382.910156" xlink:href="#DejaVuSans-61"/>
      <use x="444.189453" xlink:href="#DejaVuSans-72"/>
      <use x="485.302734" xlink:href="#DejaVuSans-20"/>
      <use x="517.089844" xlink:href="#DejaVuSans-4e"/>
      <use x="591.894531" xlink:href="#DejaVuSans-75"/>
      <use x="655.273438" xlink:href="#DejaVuSans-6d"/>
      <use x="752.685547" xlink:href="#DejaVuSans-62"/>
      <use x="816.162109" xlink:href="#DejaVuSans-65"/>
      <use x="877.685547" xlink:href="#DejaVuSans-72"/>
     </g>
    </g>
   </g>
   <g id="line2d_17">
    <path clip-path="url(#pb5b08558ed)" d="M 32.19834 250.997315 
L 34.799324 250.997315 
L 34.916368 234.935007 
L 40.014298 234.935007 
L 40.131342 218.872698 
L 43.92878 218.872698 
L 44.045824 234.935007 
L 51.757743 234.935007 
L 51.874788 250.997315 
L 53.07124 250.997315 
L 53.188285 234.935007 
L 54.371733 234.935007 
L 54.488777 202.810389 
L 55.672225 202.810389 
L 55.789269 170.685772 
L 56.985722 170.685772 
L 57.102766 186.748081 
L 58.286214 186.748081 
L 58.403259 170.685772 
L 60.900204 170.685772 
L 61.017248 186.748081 
L 63.501188 186.748081 
L 63.618233 170.685772 
L 64.814686 170.685772 
L 64.93173 154.623463 
L 68.729167 154.623463 
L 68.846212 170.685772 
L 70.02966 170.685772 
L 70.146704 186.748081 
L 73.944141 186.748081 
L 74.061186 202.810389 
L 79.159115 202.810389 
L 79.27616 218.872698 
L 80.472613 218.872698 
L 80.589657 234.935007 
L 83.073597 234.935007 
L 83.190641 202.810389 
L 98.731524 202.810389 
L 98.848568 218.872698 
L 103.959503 218.872698 
L 104.076547 202.810389 
L 106.560487 202.810389 
L 106.677532 218.872698 
L 107.873985 218.872698 
L 107.991029 202.810389 
L 109.174477 202.810389 
L 109.291521 186.748081 
L 114.389451 186.748081 
L 114.506495 202.810389 
L 115.702948 202.810389 
L 115.819992 186.748081 
L 117.00344 186.748081 
L 117.120485 202.810389 
L 118.303933 202.810389 
L 118.420977 234.935007 
L 120.917922 234.935007 
L 121.034966 202.810389 
L 122.218414 202.810389 
L 122.335459 218.872698 
L 127.446393 218.872698 
L 127.563438 234.935007 
L 131.360875 234.935007 
L 131.477919 218.872698 
L 136.575849 218.872698 
L 136.692893 202.810389 
L 140.490331 202.810389 
L 140.607375 218.872698 
L 150.933284 218.872698 
L 151.050328 202.810389 
L 161.363232 202.810389 
L 161.480276 186.748081 
L 162.663724 186.748081 
L 162.780768 202.810389 
L 167.891703 202.810389 
L 168.008747 234.935007 
L 169.192195 234.935007 
L 169.309239 218.872698 
L 170.492687 218.872698 
L 170.609732 202.810389 
L 180.93564 202.810389 
L 181.052685 218.872698 
L 182.236133 218.872698 
L 182.353177 202.810389 
L 184.850122 202.810389 
L 184.967166 218.872698 
L 186.150614 218.872698 
L 186.267659 202.810389 
L 190.065096 202.810389 
L 190.18214 186.748081 
L 191.378593 186.748081 
L 191.495637 202.810389 
L 193.979578 202.810389 
L 194.096622 186.748081 
L 195.293075 186.748081 
L 195.410119 202.810389 
L 196.593567 202.810389 
L 196.710611 218.872698 
L 199.207557 218.872698 
L 199.324601 202.810389 
L 201.808541 202.810389 
L 201.925585 186.748081 
L 212.251494 186.748081 
L 212.368538 202.810389 
L 234.437892 202.810389 
L 234.554936 186.748081 
L 239.652866 186.748081 
L 239.76991 202.810389 
L 240.953358 202.810389 
L 241.070403 218.872698 
L 247.48183 218.872698 
L 247.598874 202.810389 
L 250.095819 202.810389 
L 250.212863 186.748081 
L 261.839264 186.748081 
L 261.956309 170.685772 
L 264.440249 170.685772 
L 264.557293 154.623463 
L 265.753746 154.623463 
L 265.87079 138.561154 
L 270.96872 138.561154 
L 271.085764 154.623463 
L 272.269212 154.623463 
L 272.386257 170.685772 
L 273.582709 170.685772 
L 273.699754 186.748081 
L 276.183694 186.748081 
L 276.300738 202.810389 
L 278.797683 202.810389 
L 278.914728 186.748081 
L 285.326155 186.748081 
L 285.443199 170.685772 
L 287.927139 170.685772 
L 288.044183 186.748081 
L 289.240636 186.748081 
L 289.357681 202.810389 
L 293.142113 202.810389 
L 293.259157 218.872698 
L 294.45561 218.872698 
L 294.572655 234.935007 
L 307.499548 234.935007 
L 307.616592 202.810389 
L 323.157475 202.810389 
L 323.274519 218.872698 
L 325.771464 218.872698 
L 325.888509 202.810389 
L 341.429391 202.810389 
L 341.546435 186.748081 
L 345.343873 186.748081 
L 345.460917 202.810389 
L 347.944857 202.810389 
L 348.061902 186.748081 
L 349.258355 186.748081 
L 349.375399 202.810389 
L 354.473329 202.810389 
L 354.590373 218.872698 
L 364.916281 218.872698 
L 365.033326 202.810389 
L 368.830763 202.810389 
L 368.947808 218.872698 
L 370.131255 218.872698 
L 370.2483 234.935007 
L 371.431748 234.935007 
L 371.548792 218.872698 
L 372.745245 218.872698 
L 372.862289 234.935007 
L 374.045737 234.935007 
L 374.162782 218.872698 
L 381.874701 218.872698 
L 381.991745 234.935007 
L 384.48869 234.935007 
L 384.605734 250.997315 
L 388.403172 250.997315 
L 388.520216 218.872698 
L 393.618146 218.872698 
L 393.73519 234.935007 
L 394.918638 234.935007 
L 395.035682 218.872698 
L 397.532628 218.872698 
L 397.649672 234.935007 
L 413.190554 234.935007 
L 413.307599 218.872698 
L 415.804544 218.872698 
L 415.921588 202.810389 
L 419.719026 202.810389 
L 419.83607 218.872698 
L 423.633507 218.872698 
L 423.633507 218.872698 
" style="fill:none;stroke:#009afa;"/>
   </g>
   <g id="line2d_18">
    <path clip-path="url(#pb5b08558ed)" d="M 32.19834 250.997315 
L 42.628288 250.997315 
L 42.745332 234.935007 
L 43.92878 234.935007 
L 44.045824 218.872698 
L 51.757743 218.872698 
L 51.874788 202.810389 
L 56.985722 202.810389 
L 57.102766 186.748081 
L 60.900204 186.748081 
L 61.017248 170.685772 
L 66.115178 170.685772 
L 66.232222 186.748081 
L 68.729167 186.748081 
L 68.846212 170.685772 
L 73.944141 170.685772 
L 74.061186 154.623463 
L 75.244634 154.623463 
L 75.361678 138.561154 
L 79.159115 138.561154 
L 79.27616 122.498846 
L 93.51655 122.498846 
L 93.633594 138.561154 
L 98.731524 138.561154 
L 98.848568 122.498846 
L 117.00344 122.498846 
L 117.120485 106.436537 
L 118.303933 106.436537 
L 118.420977 74.311919 
L 126.132896 74.311919 
L 126.24994 58.249611 
L 127.446393 58.249611 
L 127.563438 42.187302 
L 131.360875 42.187302 
L 131.477919 58.249611 
L 139.189838 58.249611 
L 139.306883 74.311919 
L 157.44875 74.311919 
L 157.565794 90.374228 
L 162.663724 90.374228 
L 162.780768 74.311919 
L 167.891703 74.311919 
L 168.008747 58.249611 
L 177.021159 58.249611 
L 177.138203 74.311919 
L 180.93564 74.311919 
L 181.052685 58.249611 
L 182.236133 58.249611 
L 182.353177 74.311919 
L 184.850122 74.311919 
L 184.967166 58.249611 
L 186.150614 58.249611 
L 186.267659 74.311919 
L 190.065096 74.311919 
L 190.18214 90.374228 
L 195.293075 90.374228 
L 195.410119 74.311919 
L 197.894059 74.311919 
L 198.011104 58.249611 
L 205.723023 58.249611 
L 205.840067 42.187302 
L 207.03652 42.187302 
L 207.153564 58.249611 
L 208.337012 58.249611 
L 208.454057 42.187302 
L 212.251494 42.187302 
L 212.368538 26.124993 
L 216.165976 26.124993 
L 216.28302 42.187302 
L 239.652866 42.187302 
L 239.76991 26.124993 
L 240.953358 26.124993 
L 241.070403 10.062685 
L 248.782322 10.062685 
L 248.899366 26.124993 
L 256.611285 26.124993 
L 256.72833 42.187302 
L 264.440249 42.187302 
L 264.557293 58.249611 
L 272.269212 58.249611 
L 272.386257 42.187302 
L 276.183694 42.187302 
L 276.300738 26.124993 
L 282.712165 26.124993 
L 282.829209 10.062685 
L 284.012657 10.062685 
L 284.129702 42.187302 
L 285.326155 42.187302 
L 285.443199 58.249611 
L 287.927139 58.249611 
L 288.044183 42.187302 
L 289.240636 42.187302 
L 289.357681 26.124993 
L 291.841621 26.124993 
L 291.958665 42.187302 
L 293.142113 42.187302 
L 293.259157 26.124993 
L 294.45561 26.124993 
L 294.572655 10.062685 
L 298.370092 10.062685 
L 298.487136 26.124993 
L 306.199056 26.124993 
L 306.3161 42.187302 
L 310.113537 42.187302 
L 310.230582 26.124993 
L 316.629004 26.124993 
L 316.746048 74.311919 
L 332.28693 74.311919 
L 332.403975 90.374228 
L 345.343873 90.374228 
L 345.460917 74.311919 
L 349.258355 74.311919 
L 349.375399 58.249611 
L 368.830763 58.249611 
L 368.947808 42.187302 
L 370.131255 42.187302 
L 370.2483 26.124993 
L 372.745245 26.124993 
L 372.862289 10.062685 
L 376.659727 10.062685 
L 376.776771 26.124993 
L 384.48869 26.124993 
L 384.605734 10.062685 
L 385.789182 10.062685 
L 385.906227 26.124993 
L 389.703664 26.124993 
L 389.820708 42.187302 
L 393.618146 42.187302 
L 393.73519 26.124993 
L 397.532628 26.124993 
L 397.649672 10.062685 
L 413.190554 10.062685 
L 413.307599 26.124993 
L 423.620502 26.124993 
L 423.633507 42.187302 
L 423.633507 42.187302 
" style="fill:none;stroke:#e36f47;"/>
   </g>
   <g id="patch_3">
    <path d="M 32.19834 258.225354 
L 32.19834 2.834646 
" style="fill:none;stroke:#000000;stroke-linecap:square;stroke-linejoin:miter;"/>
   </g>
   <g id="patch_4">
    <path d="M 32.19834 258.225354 
L 423.633507 258.225354 
" style="fill:none;stroke:#000000;stroke-linecap:square;stroke-linejoin:miter;"/>
   </g>
   <g id="line2d_19">
    <path clip-path="url(#pb5b08558ed)" d="M 32.19834 250.997315 
L 42.628288 250.997315 
L 42.745332 234.935007 
L 43.92878 234.935007 
L 44.045824 218.872698 
L 51.757743 218.872698 
L 51.874788 202.810389 
L 55.672225 202.810389 
L 55.789269 218.872698 
L 56.985722 218.872698 
L 57.102766 202.810389 
L 60.900204 202.810389 
L 61.017248 186.748081 
L 68.729167 186.748081 
L 68.846212 170.685772 
L 70.02966 170.685772 
L 70.146704 154.623463 
L 73.944141 154.623463 
L 74.061186 138.561154 
L 75.244634 138.561154 
L 75.361678 122.498846 
L 79.159115 122.498846 
L 79.27616 106.436537 
L 85.687587 106.436537 
L 85.804631 122.498846 
L 98.731524 122.498846 
L 98.848568 106.436537 
L 113.088959 106.436537 
L 113.206003 122.498846 
L 117.00344 122.498846 
L 117.120485 106.436537 
L 118.303933 106.436537 
L 118.420977 74.311919 
L 126.132896 74.311919 
L 126.24994 58.249611 
L 127.446393 58.249611 
L 127.563438 42.187302 
L 131.360875 42.187302 
L 131.477919 58.249611 
L 135.275357 58.249611 
L 135.392401 74.311919 
L 136.575849 74.311919 
L 136.692893 90.374228 
L 137.876341 90.374228 
L 137.993386 106.436537 
L 143.10432 106.436537 
L 143.221364 122.498846 
L 152.233776 122.498846 
L 152.35082 138.561154 
L 162.663724 138.561154 
L 162.780768 122.498846 
L 166.578206 122.498846 
L 166.69525 138.561154 
L 167.891703 138.561154 
L 168.008747 106.436537 
L 170.492687 106.436537 
L 170.609732 122.498846 
L 180.93564 122.498846 
L 181.052685 106.436537 
L 182.236133 106.436537 
L 182.353177 122.498846 
L 183.54963 122.498846 
L 183.666674 138.561154 
L 184.850122 138.561154 
L 184.967166 122.498846 
L 187.464111 122.498846 
L 187.581156 138.561154 
L 190.065096 138.561154 
L 190.18214 154.623463 
L 193.979578 154.623463 
L 194.096622 170.685772 
L 195.293075 170.685772 
L 195.410119 138.561154 
L 197.894059 138.561154 
L 198.011104 122.498846 
L 205.723023 122.498846 
L 205.840067 106.436537 
L 208.337012 106.436537 
L 208.454057 90.374228 
L 212.251494 90.374228 
L 212.368538 74.311919 
L 225.295432 74.311919 
L 225.412476 90.374228 
L 227.909421 90.374228 
L 228.026465 106.436537 
L 239.652866 106.436537 
L 239.76991 90.374228 
L 240.953358 90.374228 
L 241.070403 74.311919 
L 256.611285 74.311919 
L 256.72833 90.374228 
L 263.139757 90.374228 
L 263.256801 106.436537 
L 270.96872 106.436537 
L 271.085764 122.498846 
L 272.269212 122.498846 
L 272.386257 106.436537 
L 273.582709 106.436537 
L 273.699754 90.374228 
L 276.183694 90.374228 
L 276.300738 74.311919 
L 282.712165 74.311919 
L 282.829209 58.249611 
L 289.240636 58.249611 
L 289.357681 42.187302 
L 293.142113 42.187302 
L 293.259157 26.124993 
L 294.45561 26.124993 
L 294.572655 10.062685 
L 298.370092 10.062685 
L 298.487136 26.124993 
L 299.670584 26.124993 
L 299.787629 58.249611 
L 300.971077 58.249611 
L 301.088121 74.311919 
L 307.499548 74.311919 
L 307.616592 90.374228 
L 324.457967 90.374228 
L 324.575011 106.436537 
L 329.685946 106.436537 
L 329.80299 122.498846 
L 332.28693 122.498846 
L 332.403975 138.561154 
L 340.115894 138.561154 
L 340.232938 154.623463 
L 345.343873 154.623463 
L 345.460917 138.561154 
L 349.258355 138.561154 
L 349.375399 122.498846 
L 363.602784 122.498846 
L 363.719829 154.623463 
L 366.216774 154.623463 
L 366.333818 170.685772 
L 368.830763 170.685772 
L 368.947808 154.623463 
L 370.131255 154.623463 
L 370.2483 138.561154 
L 372.745245 138.561154 
L 372.862289 122.498846 
L 381.874701 122.498846 
L 381.991745 106.436537 
L 384.48869 106.436537 
L 384.605734 90.374228 
L 397.532628 90.374228 
L 397.649672 74.311919 
L 401.447109 74.311919 
L 401.564154 90.374228 
L 413.190554 90.374228 
L 413.307599 106.436537 
L 414.491047 106.436537 
L 414.608091 122.498846 
L 423.633507 122.498846 
L 423.633507 122.498846 
" style="fill:none;stroke:#3ea44e;"/>
   </g>
   <g id="legend_1">
    <g id="patch_5">
     <path d="M 373.473507 50.862146 
L 419.633507 50.862146 
L 419.633507 6.834646 
L 373.473507 6.834646 
z
" style="fill:#ffffff;stroke:#000000;stroke-linejoin:miter;"/>
    </g>
    <g id="line2d_20">
     <path d="M 379.873507 16.513396 
L 395.873507 16.513396 
" style="fill:none;stroke:#009afa;stroke-linejoin:miter;"/>
    </g>
    <g id="line2d_21"/>
    <g id="text_11">
     <!-- $X_A$ -->
     <g transform="translate(402.273507 19.313396)scale(0.08 -0.08)">
      <defs>
       <path d="M 878 4666 
L 1516 4666 
L 2316 2981 
L 3763 4666 
L 4500 4666 
L 2578 2438 
L 3738 0 
L 3103 0 
L 2163 1966 
L 459 0 
L -275 0 
L 1906 2509 
L 878 4666 
z
" id="DejaVuSans-Oblique-58" transform="scale(0.015625)"/>
       <path d="M 2356 4666 
L 3072 4666 
L 3938 0 
L 3278 0 
L 3084 1197 
L 984 1197 
L 325 0 
L -341 0 
L 2356 4666 
z
M 2584 4044 
L 1275 1722 
L 2988 1722 
L 2584 4044 
z
" id="DejaVuSans-Oblique-41" transform="scale(0.015625)"/>
      </defs>
      <use transform="translate(0 0.09375)" xlink:href="#DejaVuSans-Oblique-58"/>
      <use transform="translate(68.505859 -16.3125)scale(0.7)" xlink:href="#DejaVuSans-Oblique-41"/>
     </g>
    </g>
    <g id="line2d_22">
     <path d="M 379.873507 28.255896 
L 395.873507 28.255896 
" style="fill:none;stroke:#e36f47;stroke-linejoin:miter;"/>
    </g>
    <g id="line2d_23"/>
    <g id="text_12">
     <!-- $X_{I1}$ -->
     <g transform="translate(402.273507 31.055896)scale(0.08 -0.08)">
      <defs>
       <path d="M 1081 4666 
L 1716 4666 
L 806 0 
L 172 0 
L 1081 4666 
z
" id="DejaVuSans-Oblique-49" transform="scale(0.015625)"/>
      </defs>
      <use transform="translate(0 0.09375)" xlink:href="#DejaVuSans-Oblique-58"/>
      <use transform="translate(68.505859 -16.3125)scale(0.7)" xlink:href="#DejaVuSans-Oblique-49"/>
      <use transform="translate(89.150391 -16.3125)scale(0.7)" xlink:href="#DejaVuSans-31"/>
     </g>
    </g>
    <g id="line2d_24">
     <path d="M 379.873507 39.998396 
L 395.873507 39.998396 
" style="fill:none;stroke:#3ea44e;stroke-linejoin:miter;"/>
    </g>
    <g id="line2d_25"/>
    <g id="text_13">
     <!-- $X_{I2}$ -->
     <g transform="translate(402.273507 42.798396)scale(0.08 -0.08)">
      <use transform="translate(0 0.09375)" xlink:href="#DejaVuSans-Oblique-58"/>
      <use transform="translate(68.505859 -16.3125)scale(0.7)" xlink:href="#DejaVuSans-Oblique-49"/>
      <use transform="translate(89.150391 -16.3125)scale(0.7)" xlink:href="#DejaVuSans-32"/>
     </g>
    </g>
   </g>
  </g>
 </g>
 <defs>
  <clipPath id="pb5b08558ed">
   <rect height="255.390709" width="391.435168" x="32.19834" y="2.834646"/>
  </clipPath>
 </defs>
</svg>
