<?xml version="1.0" encoding="utf-8" standalone="no"?>
<!DOCTYPE svg PUBLIC "-//W3C//DTD SVG 1.1//EN"
  "http://www.w3.org/Graphics/SVG/1.1/DTD/svg11.dtd">
<svg height="288pt" version="1.1" viewBox="0 0 432 288" width="432pt" xmlns="http://www.w3.org/2000/svg" xmlns:xlink="http://www.w3.org/1999/xlink">
 <metadata>
  <rdf:RDF xmlns:cc="http://creativecommons.org/ns#" xmlns:dc="http://purl.org/dc/elements/1.1/" xmlns:rdf="http://www.w3.org/1999/02/22-rdf-syntax-ns#">
   <cc:Work>
    <dc:type rdf:resource="http://purl.org/dc/dcmitype/StillImage"/>
    <dc:date>2021-12-13T22:28:51.085865</dc:date>
    <dc:format>image/svg+xml</dc:format>
    <dc:creator>
     <cc:Agent>
      <dc:title>Matplotlib v3.4.2, https://matplotlib.org/</dc:title>
     </cc:Agent>
    </dc:creator>
   </cc:Work>
  </rdf:RDF>
 </metadata>
 <defs>
  <style type="text/css">*{stroke-linecap:butt;stroke-linejoin:round;}</style>
 </defs>
 <g id="figure_1">
  <g id="patch_1">
   <path d="M 0 288 
L 432 288 
L 432 0 
L 0 0 
z
" style="fill:#ffffff;"/>
  </g>
  <g id="axes_1">
   <g id="patch_2">
    <path d="M 32.19834 258.225354 
L 423.633507 258.225354 
L 423.633507 2.834646 
L 32.19834 2.834646 
z
" style="fill:#ffffff;"/>
   </g>
   <g id="matplotlib.axis_1">
    <g id="xtick_1">
     <g id="line2d_1">
      <path clip-path="url(#p4be21b0fdb)" d="M 32.19834 258.225354 
L 32.19834 2.834646 
" style="fill:none;stroke:#222255;stroke-linecap:square;stroke-opacity:0.1;stroke-width:0.5;"/>
     </g>
     <g id="line2d_2">
      <defs>
       <path d="M 0 0 
L 0 -2.5 
" id="m1e7a3ebd3e" style="stroke:#222255;stroke-opacity:0.1;stroke-width:0.5;"/>
      </defs>
      <g>
       <use style="fill:#222255;fill-opacity:0.1;stroke:#222255;stroke-opacity:0.1;stroke-width:0.5;" x="32.19834" xlink:href="#m1e7a3ebd3e" y="258.225354"/>
      </g>
     </g>
     <g id="text_1">
      <!-- $\mathregular{0}$ -->
      <g transform="translate(29.63834 267.804104)scale(0.08 -0.08)">
       <defs>
        <path d="M 2034 4250 
Q 1547 4250 1301 3770 
Q 1056 3291 1056 2328 
Q 1056 1369 1301 889 
Q 1547 409 2034 409 
Q 2525 409 2770 889 
Q 3016 1369 3016 2328 
Q 3016 3291 2770 3770 
Q 2525 4250 2034 4250 
z
M 2034 4750 
Q 2819 4750 3233 4129 
Q 3647 3509 3647 2328 
Q 3647 1150 3233 529 
Q 2819 -91 2034 -91 
Q 1250 -91 836 529 
Q 422 1150 422 2328 
Q 422 3509 836 4129 
Q 1250 4750 2034 4750 
z
" id="DejaVuSans-30" transform="scale(0.015625)"/>
       </defs>
       <use transform="translate(0 0.78125)" xlink:href="#DejaVuSans-30"/>
      </g>
     </g>
    </g>
    <g id="xtick_2">
     <g id="line2d_3">
      <path clip-path="url(#p4be21b0fdb)" d="M 162.676729 258.225354 
L 162.676729 2.834646 
" style="fill:none;stroke:#222255;stroke-linecap:square;stroke-opacity:0.1;stroke-width:0.5;"/>
     </g>
     <g id="line2d_4">
      <g>
       <use style="fill:#222255;fill-opacity:0.1;stroke:#222255;stroke-opacity:0.1;stroke-width:0.5;" x="162.676729" xlink:href="#m1e7a3ebd3e" y="258.225354"/>
      </g>
     </g>
     <g id="text_2">
      <!-- $\mathregular{10}$ -->
      <g transform="translate(157.556729 267.804104)scale(0.08 -0.08)">
       <defs>
        <path d="M 794 531 
L 1825 531 
L 1825 4091 
L 703 3866 
L 703 4441 
L 1819 4666 
L 2450 4666 
L 2450 531 
L 3481 531 
L 3481 0 
L 794 0 
L 794 531 
z
" id="DejaVuSans-31" transform="scale(0.015625)"/>
       </defs>
       <use transform="translate(0 0.78125)" xlink:href="#DejaVuSans-31"/>
       <use transform="translate(63.623047 0.78125)" xlink:href="#DejaVuSans-30"/>
      </g>
     </g>
    </g>
    <g id="xtick_3">
     <g id="line2d_5">
      <path clip-path="url(#p4be21b0fdb)" d="M 293.155118 258.225354 
L 293.155118 2.834646 
" style="fill:none;stroke:#222255;stroke-linecap:square;stroke-opacity:0.1;stroke-width:0.5;"/>
     </g>
     <g id="line2d_6">
      <g>
       <use style="fill:#222255;fill-opacity:0.1;stroke:#222255;stroke-opacity:0.1;stroke-width:0.5;" x="293.155118" xlink:href="#m1e7a3ebd3e" y="258.225354"/>
      </g>
     </g>
     <g id="text_3">
      <!-- $\mathregular{20}$ -->
      <g transform="translate(288.035118 267.804104)scale(0.08 -0.08)">
       <defs>
        <path d="M 1228 531 
L 3431 531 
L 3431 0 
L 469 0 
L 469 531 
Q 828 903 1448 1529 
Q 2069 2156 2228 2338 
Q 2531 2678 2651 2914 
Q 2772 3150 2772 3378 
Q 2772 3750 2511 3984 
Q 2250 4219 1831 4219 
Q 1534 4219 1204 4116 
Q 875 4013 500 3803 
L 500 4441 
Q 881 4594 1212 4672 
Q 1544 4750 1819 4750 
Q 2544 4750 2975 4387 
Q 3406 4025 3406 3419 
Q 3406 3131 3298 2873 
Q 3191 2616 2906 2266 
Q 2828 2175 2409 1742 
Q 1991 1309 1228 531 
z
" id="DejaVuSans-32" transform="scale(0.015625)"/>
       </defs>
       <use transform="translate(0 0.78125)" xlink:href="#DejaVuSans-32"/>
       <use transform="translate(63.623047 0.78125)" xlink:href="#DejaVuSans-30"/>
      </g>
     </g>
    </g>
    <g id="xtick_4">
     <g id="line2d_7">
      <path clip-path="url(#p4be21b0fdb)" d="M 423.633507 258.225354 
L 423.633507 2.834646 
" style="fill:none;stroke:#222255;stroke-linecap:square;stroke-opacity:0.1;stroke-width:0.5;"/>
     </g>
     <g id="line2d_8">
      <g>
       <use style="fill:#222255;fill-opacity:0.1;stroke:#222255;stroke-opacity:0.1;stroke-width:0.5;" x="423.633507" xlink:href="#m1e7a3ebd3e" y="258.225354"/>
      </g>
     </g>
     <g id="text_4">
      <!-- $\mathregular{30}$ -->
      <g transform="translate(418.513507 267.804104)scale(0.08 -0.08)">
       <defs>
        <path d="M 2597 2516 
Q 3050 2419 3304 2112 
Q 3559 1806 3559 1356 
Q 3559 666 3084 287 
Q 2609 -91 1734 -91 
Q 1441 -91 1130 -33 
Q 819 25 488 141 
L 488 750 
Q 750 597 1062 519 
Q 1375 441 1716 441 
Q 2309 441 2620 675 
Q 2931 909 2931 1356 
Q 2931 1769 2642 2001 
Q 2353 2234 1838 2234 
L 1294 2234 
L 1294 2753 
L 1863 2753 
Q 2328 2753 2575 2939 
Q 2822 3125 2822 3475 
Q 2822 3834 2567 4026 
Q 2313 4219 1838 4219 
Q 1578 4219 1281 4162 
Q 984 4106 628 3988 
L 628 4550 
Q 988 4650 1302 4700 
Q 1616 4750 1894 4750 
Q 2613 4750 3031 4423 
Q 3450 4097 3450 3541 
Q 3450 3153 3228 2886 
Q 3006 2619 2597 2516 
z
" id="DejaVuSans-33" transform="scale(0.015625)"/>
       </defs>
       <use transform="translate(0 0.78125)" xlink:href="#DejaVuSans-33"/>
       <use transform="translate(63.623047 0.78125)" xlink:href="#DejaVuSans-30"/>
      </g>
     </g>
    </g>
    <g id="xtick_5">
     <g id="line2d_9">
      <path clip-path="url(#p4be21b0fdb)" d="M 58.294017 258.225354 
L 58.294017 2.834646 
" style="fill:none;stroke:#222255;stroke-linecap:square;stroke-opacity:0.05;stroke-width:0.5;"/>
     </g>
     <g id="line2d_10">
      <defs>
       <path d="M 0 0 
L 0 -0.5 
" id="mfe2f2d0797" style="stroke:#222255;stroke-opacity:0.1;stroke-width:0.6;"/>
      </defs>
      <g>
       <use style="fill:#222255;fill-opacity:0.1;stroke:#222255;stroke-opacity:0.1;stroke-width:0.6;" x="58.294017" xlink:href="#mfe2f2d0797" y="258.225354"/>
      </g>
     </g>
    </g>
    <g id="xtick_6">
     <g id="line2d_11">
      <path clip-path="url(#p4be21b0fdb)" d="M 84.389695 258.225354 
L 84.389695 2.834646 
" style="fill:none;stroke:#222255;stroke-linecap:square;stroke-opacity:0.05;stroke-width:0.5;"/>
     </g>
     <g id="line2d_12">
      <g>
       <use style="fill:#222255;fill-opacity:0.1;stroke:#222255;stroke-opacity:0.1;stroke-width:0.6;" x="84.389695" xlink:href="#mfe2f2d0797" y="258.225354"/>
      </g>
     </g>
    </g>
    <g id="xtick_7">
     <g id="line2d_13">
      <path clip-path="url(#p4be21b0fdb)" d="M 110.485373 258.225354 
L 110.485373 2.834646 
" style="fill:none;stroke:#222255;stroke-linecap:square;stroke-opacity:0.05;stroke-width:0.5;"/>
     </g>
     <g id="line2d_14">
      <g>
       <use style="fill:#222255;fill-opacity:0.1;stroke:#222255;stroke-opacity:0.1;stroke-width:0.6;" x="110.485373" xlink:href="#mfe2f2d0797" y="258.225354"/>
      </g>
     </g>
    </g>
    <g id="xtick_8">
     <g id="line2d_15">
      <path clip-path="url(#p4be21b0fdb)" d="M 136.581051 258.225354 
L 136.581051 2.834646 
" style="fill:none;stroke:#222255;stroke-linecap:square;stroke-opacity:0.05;stroke-width:0.5;"/>
     </g>
     <g id="line2d_16">
      <g>
       <use style="fill:#222255;fill-opacity:0.1;stroke:#222255;stroke-opacity:0.1;stroke-width:0.6;" x="136.581051" xlink:href="#mfe2f2d0797" y="258.225354"/>
      </g>
     </g>
    </g>
    <g id="xtick_9">
     <g id="line2d_17">
      <path clip-path="url(#p4be21b0fdb)" d="M 188.772407 258.225354 
L 188.772407 2.834646 
" style="fill:none;stroke:#222255;stroke-linecap:square;stroke-opacity:0.05;stroke-width:0.5;"/>
     </g>
     <g id="line2d_18">
      <g>
       <use style="fill:#222255;fill-opacity:0.1;stroke:#222255;stroke-opacity:0.1;stroke-width:0.6;" x="188.772407" xlink:href="#mfe2f2d0797" y="258.225354"/>
      </g>
     </g>
    </g>
    <g id="xtick_10">
     <g id="line2d_19">
      <path clip-path="url(#p4be21b0fdb)" d="M 214.868085 258.225354 
L 214.868085 2.834646 
" style="fill:none;stroke:#222255;stroke-linecap:square;stroke-opacity:0.05;stroke-width:0.5;"/>
     </g>
     <g id="line2d_20">
      <g>
       <use style="fill:#222255;fill-opacity:0.1;stroke:#222255;stroke-opacity:0.1;stroke-width:0.6;" x="214.868085" xlink:href="#mfe2f2d0797" y="258.225354"/>
      </g>
     </g>
    </g>
    <g id="xtick_11">
     <g id="line2d_21">
      <path clip-path="url(#p4be21b0fdb)" d="M 240.963762 258.225354 
L 240.963762 2.834646 
" style="fill:none;stroke:#222255;stroke-linecap:square;stroke-opacity:0.05;stroke-width:0.5;"/>
     </g>
     <g id="line2d_22">
      <g>
       <use style="fill:#222255;fill-opacity:0.1;stroke:#222255;stroke-opacity:0.1;stroke-width:0.6;" x="240.963762" xlink:href="#mfe2f2d0797" y="258.225354"/>
      </g>
     </g>
    </g>
    <g id="xtick_12">
     <g id="line2d_23">
      <path clip-path="url(#p4be21b0fdb)" d="M 267.05944 258.225354 
L 267.05944 2.834646 
" style="fill:none;stroke:#222255;stroke-linecap:square;stroke-opacity:0.05;stroke-width:0.5;"/>
     </g>
     <g id="line2d_24">
      <g>
       <use style="fill:#222255;fill-opacity:0.1;stroke:#222255;stroke-opacity:0.1;stroke-width:0.6;" x="267.05944" xlink:href="#mfe2f2d0797" y="258.225354"/>
      </g>
     </g>
    </g>
    <g id="xtick_13">
     <g id="line2d_25">
      <path clip-path="url(#p4be21b0fdb)" d="M 319.250796 258.225354 
L 319.250796 2.834646 
" style="fill:none;stroke:#222255;stroke-linecap:square;stroke-opacity:0.05;stroke-width:0.5;"/>
     </g>
     <g id="line2d_26">
      <g>
       <use style="fill:#222255;fill-opacity:0.1;stroke:#222255;stroke-opacity:0.1;stroke-width:0.6;" x="319.250796" xlink:href="#mfe2f2d0797" y="258.225354"/>
      </g>
     </g>
    </g>
    <g id="xtick_14">
     <g id="line2d_27">
      <path clip-path="url(#p4be21b0fdb)" d="M 345.346474 258.225354 
L 345.346474 2.834646 
" style="fill:none;stroke:#222255;stroke-linecap:square;stroke-opacity:0.05;stroke-width:0.5;"/>
     </g>
     <g id="line2d_28">
      <g>
       <use style="fill:#222255;fill-opacity:0.1;stroke:#222255;stroke-opacity:0.1;stroke-width:0.6;" x="345.346474" xlink:href="#mfe2f2d0797" y="258.225354"/>
      </g>
     </g>
    </g>
    <g id="xtick_15">
     <g id="line2d_29">
      <path clip-path="url(#p4be21b0fdb)" d="M 371.442152 258.225354 
L 371.442152 2.834646 
" style="fill:none;stroke:#222255;stroke-linecap:square;stroke-opacity:0.05;stroke-width:0.5;"/>
     </g>
     <g id="line2d_30">
      <g>
       <use style="fill:#222255;fill-opacity:0.1;stroke:#222255;stroke-opacity:0.1;stroke-width:0.6;" x="371.442152" xlink:href="#mfe2f2d0797" y="258.225354"/>
      </g>
     </g>
    </g>
    <g id="xtick_16">
     <g id="line2d_31">
      <path clip-path="url(#p4be21b0fdb)" d="M 397.53783 258.225354 
L 397.53783 2.834646 
" style="fill:none;stroke:#222255;stroke-linecap:square;stroke-opacity:0.05;stroke-width:0.5;"/>
     </g>
     <g id="line2d_32">
      <g>
       <use style="fill:#222255;fill-opacity:0.1;stroke:#222255;stroke-opacity:0.1;stroke-width:0.6;" x="397.53783" xlink:href="#mfe2f2d0797" y="258.225354"/>
      </g>
     </g>
    </g>
    <g id="text_5">
     <!-- time -->
     <g transform="translate(215.49022 281.826136)scale(0.11 -0.11)">
      <defs>
       <path d="M 1172 4494 
L 1172 3500 
L 2356 3500 
L 2356 3053 
L 1172 3053 
L 1172 1153 
Q 1172 725 1289 603 
Q 1406 481 1766 481 
L 2356 481 
L 2356 0 
L 1766 0 
Q 1100 0 847 248 
Q 594 497 594 1153 
L 594 3053 
L 172 3053 
L 172 3500 
L 594 3500 
L 594 4494 
L 1172 4494 
z
" id="DejaVuSans-74" transform="scale(0.015625)"/>
       <path d="M 603 3500 
L 1178 3500 
L 1178 0 
L 603 0 
L 603 3500 
z
M 603 4863 
L 1178 4863 
L 1178 4134 
L 603 4134 
L 603 4863 
z
" id="DejaVuSans-69" transform="scale(0.015625)"/>
       <path d="M 3328 2828 
Q 3544 3216 3844 3400 
Q 4144 3584 4550 3584 
Q 5097 3584 5394 3201 
Q 5691 2819 5691 2113 
L 5691 0 
L 5113 0 
L 5113 2094 
Q 5113 2597 4934 2840 
Q 4756 3084 4391 3084 
Q 3944 3084 3684 2787 
Q 3425 2491 3425 1978 
L 3425 0 
L 2847 0 
L 2847 2094 
Q 2847 2600 2669 2842 
Q 2491 3084 2119 3084 
Q 1678 3084 1418 2786 
Q 1159 2488 1159 1978 
L 1159 0 
L 581 0 
L 581 3500 
L 1159 3500 
L 1159 2956 
Q 1356 3278 1631 3431 
Q 1906 3584 2284 3584 
Q 2666 3584 2933 3390 
Q 3200 3197 3328 2828 
z
" id="DejaVuSans-6d" transform="scale(0.015625)"/>
       <path d="M 3597 1894 
L 3597 1613 
L 953 1613 
Q 991 1019 1311 708 
Q 1631 397 2203 397 
Q 2534 397 2845 478 
Q 3156 559 3463 722 
L 3463 178 
Q 3153 47 2828 -22 
Q 2503 -91 2169 -91 
Q 1331 -91 842 396 
Q 353 884 353 1716 
Q 353 2575 817 3079 
Q 1281 3584 2069 3584 
Q 2775 3584 3186 3129 
Q 3597 2675 3597 1894 
z
M 3022 2063 
Q 3016 2534 2758 2815 
Q 2500 3097 2075 3097 
Q 1594 3097 1305 2825 
Q 1016 2553 972 2059 
L 3022 2063 
z
" id="DejaVuSans-65" transform="scale(0.015625)"/>
      </defs>
      <use xlink:href="#DejaVuSans-74"/>
      <use x="39.208984" xlink:href="#DejaVuSans-69"/>
      <use x="66.992188" xlink:href="#DejaVuSans-6d"/>
      <use x="164.404297" xlink:href="#DejaVuSans-65"/>
     </g>
    </g>
   </g>
   <g id="matplotlib.axis_2">
    <g id="ytick_1">
     <g id="line2d_33">
      <path clip-path="url(#p4be21b0fdb)" d="M 32.19834 250.997315 
L 423.633507 250.997315 
" style="fill:none;stroke:#222255;stroke-linecap:square;stroke-opacity:0.1;stroke-width:0.5;"/>
     </g>
     <g id="line2d_34">
      <defs>
       <path d="M 0 0 
L 2.5 0 
" id="m1ad8ab2bda" style="stroke:#222255;stroke-opacity:0.1;stroke-width:0.5;"/>
      </defs>
      <g>
       <use style="fill:#222255;fill-opacity:0.1;stroke:#222255;stroke-opacity:0.1;stroke-width:0.5;" x="32.19834" xlink:href="#m1ad8ab2bda" y="250.997315"/>
      </g>
     </g>
     <g id="text_6">
      <!-- $\mathregular{0}$ -->
      <g transform="translate(23.57834 254.03669)scale(0.08 -0.08)">
       <use transform="translate(0 0.78125)" xlink:href="#DejaVuSans-30"/>
      </g>
     </g>
    </g>
    <g id="ytick_2">
     <g id="line2d_35">
      <path clip-path="url(#p4be21b0fdb)" d="M 32.19834 184.071029 
L 423.633507 184.071029 
" style="fill:none;stroke:#222255;stroke-linecap:square;stroke-opacity:0.1;stroke-width:0.5;"/>
     </g>
     <g id="line2d_36">
      <g>
       <use style="fill:#222255;fill-opacity:0.1;stroke:#222255;stroke-opacity:0.1;stroke-width:0.5;" x="32.19834" xlink:href="#m1ad8ab2bda" y="184.071029"/>
      </g>
     </g>
     <g id="text_7">
      <!-- $\mathregular{5}$ -->
      <g transform="translate(23.57834 187.110404)scale(0.08 -0.08)">
       <defs>
        <path d="M 691 4666 
L 3169 4666 
L 3169 4134 
L 1269 4134 
L 1269 2991 
Q 1406 3038 1543 3061 
Q 1681 3084 1819 3084 
Q 2600 3084 3056 2656 
Q 3513 2228 3513 1497 
Q 3513 744 3044 326 
Q 2575 -91 1722 -91 
Q 1428 -91 1123 -41 
Q 819 9 494 109 
L 494 744 
Q 775 591 1075 516 
Q 1375 441 1709 441 
Q 2250 441 2565 725 
Q 2881 1009 2881 1497 
Q 2881 1984 2565 2268 
Q 2250 2553 1709 2553 
Q 1456 2553 1204 2497 
Q 953 2441 691 2322 
L 691 4666 
z
" id="DejaVuSans-35" transform="scale(0.015625)"/>
       </defs>
       <use transform="translate(0 0.09375)" xlink:href="#DejaVuSans-35"/>
      </g>
     </g>
    </g>
    <g id="ytick_3">
     <g id="line2d_37">
      <path clip-path="url(#p4be21b0fdb)" d="M 32.19834 117.144743 
L 423.633507 117.144743 
" style="fill:none;stroke:#222255;stroke-linecap:square;stroke-opacity:0.1;stroke-width:0.5;"/>
     </g>
     <g id="line2d_38">
      <g>
       <use style="fill:#222255;fill-opacity:0.1;stroke:#222255;stroke-opacity:0.1;stroke-width:0.5;" x="32.19834" xlink:href="#m1ad8ab2bda" y="117.144743"/>
      </g>
     </g>
     <g id="text_8">
      <!-- $\mathregular{10}$ -->
      <g transform="translate(18.45834 120.184118)scale(0.08 -0.08)">
       <use transform="translate(0 0.78125)" xlink:href="#DejaVuSans-31"/>
       <use transform="translate(63.623047 0.78125)" xlink:href="#DejaVuSans-30"/>
      </g>
     </g>
    </g>
    <g id="ytick_4">
     <g id="line2d_39">
      <path clip-path="url(#p4be21b0fdb)" d="M 32.19834 50.218456 
L 423.633507 50.218456 
" style="fill:none;stroke:#222255;stroke-linecap:square;stroke-opacity:0.1;stroke-width:0.5;"/>
     </g>
     <g id="line2d_40">
      <g>
       <use style="fill:#222255;fill-opacity:0.1;stroke:#222255;stroke-opacity:0.1;stroke-width:0.5;" x="32.19834" xlink:href="#m1ad8ab2bda" y="50.218456"/>
      </g>
     </g>
     <g id="text_9">
      <!-- $\mathregular{15}$ -->
      <g transform="translate(18.45834 53.257831)scale(0.08 -0.08)">
       <use transform="translate(0 0.09375)" xlink:href="#DejaVuSans-31"/>
       <use transform="translate(63.623047 0.09375)" xlink:href="#DejaVuSans-35"/>
      </g>
     </g>
    </g>
    <g id="ytick_5">
     <g id="line2d_41">
      <path clip-path="url(#p4be21b0fdb)" d="M 32.19834 237.612058 
L 423.633507 237.612058 
" style="fill:none;stroke:#222255;stroke-linecap:square;stroke-opacity:0.05;stroke-width:0.5;"/>
     </g>
     <g id="line2d_42">
      <defs>
       <path d="M 0 0 
L 0.5 0 
" id="m166f493040" style="stroke:#222255;stroke-opacity:0.1;stroke-width:0.6;"/>
      </defs>
      <g>
       <use style="fill:#222255;fill-opacity:0.1;stroke:#222255;stroke-opacity:0.1;stroke-width:0.6;" x="32.19834" xlink:href="#m166f493040" y="237.612058"/>
      </g>
     </g>
    </g>
    <g id="ytick_6">
     <g id="line2d_43">
      <path clip-path="url(#p4be21b0fdb)" d="M 32.19834 224.226801 
L 423.633507 224.226801 
" style="fill:none;stroke:#222255;stroke-linecap:square;stroke-opacity:0.05;stroke-width:0.5;"/>
     </g>
     <g id="line2d_44">
      <g>
       <use style="fill:#222255;fill-opacity:0.1;stroke:#222255;stroke-opacity:0.1;stroke-width:0.6;" x="32.19834" xlink:href="#m166f493040" y="224.226801"/>
      </g>
     </g>
    </g>
    <g id="ytick_7">
     <g id="line2d_45">
      <path clip-path="url(#p4be21b0fdb)" d="M 32.19834 210.841544 
L 423.633507 210.841544 
" style="fill:none;stroke:#222255;stroke-linecap:square;stroke-opacity:0.05;stroke-width:0.5;"/>
     </g>
     <g id="line2d_46">
      <g>
       <use style="fill:#222255;fill-opacity:0.1;stroke:#222255;stroke-opacity:0.1;stroke-width:0.6;" x="32.19834" xlink:href="#m166f493040" y="210.841544"/>
      </g>
     </g>
    </g>
    <g id="ytick_8">
     <g id="line2d_47">
      <path clip-path="url(#p4be21b0fdb)" d="M 32.19834 197.456286 
L 423.633507 197.456286 
" style="fill:none;stroke:#222255;stroke-linecap:square;stroke-opacity:0.05;stroke-width:0.5;"/>
     </g>
     <g id="line2d_48">
      <g>
       <use style="fill:#222255;fill-opacity:0.1;stroke:#222255;stroke-opacity:0.1;stroke-width:0.6;" x="32.19834" xlink:href="#m166f493040" y="197.456286"/>
      </g>
     </g>
    </g>
    <g id="ytick_9">
     <g id="line2d_49">
      <path clip-path="url(#p4be21b0fdb)" d="M 32.19834 170.685772 
L 423.633507 170.685772 
" style="fill:none;stroke:#222255;stroke-linecap:square;stroke-opacity:0.05;stroke-width:0.5;"/>
     </g>
     <g id="line2d_50">
      <g>
       <use style="fill:#222255;fill-opacity:0.1;stroke:#222255;stroke-opacity:0.1;stroke-width:0.6;" x="32.19834" xlink:href="#m166f493040" y="170.685772"/>
      </g>
     </g>
    </g>
    <g id="ytick_10">
     <g id="line2d_51">
      <path clip-path="url(#p4be21b0fdb)" d="M 32.19834 157.300515 
L 423.633507 157.300515 
" style="fill:none;stroke:#222255;stroke-linecap:square;stroke-opacity:0.05;stroke-width:0.5;"/>
     </g>
     <g id="line2d_52">
      <g>
       <use style="fill:#222255;fill-opacity:0.1;stroke:#222255;stroke-opacity:0.1;stroke-width:0.6;" x="32.19834" xlink:href="#m166f493040" y="157.300515"/>
      </g>
     </g>
    </g>
    <g id="ytick_11">
     <g id="line2d_53">
      <path clip-path="url(#p4be21b0fdb)" d="M 32.19834 143.915257 
L 423.633507 143.915257 
" style="fill:none;stroke:#222255;stroke-linecap:square;stroke-opacity:0.05;stroke-width:0.5;"/>
     </g>
     <g id="line2d_54">
      <g>
       <use style="fill:#222255;fill-opacity:0.1;stroke:#222255;stroke-opacity:0.1;stroke-width:0.6;" x="32.19834" xlink:href="#m166f493040" y="143.915257"/>
      </g>
     </g>
    </g>
    <g id="ytick_12">
     <g id="line2d_55">
      <path clip-path="url(#p4be21b0fdb)" d="M 32.19834 130.53 
L 423.633507 130.53 
" style="fill:none;stroke:#222255;stroke-linecap:square;stroke-opacity:0.05;stroke-width:0.5;"/>
     </g>
     <g id="line2d_56">
      <g>
       <use style="fill:#222255;fill-opacity:0.1;stroke:#222255;stroke-opacity:0.1;stroke-width:0.6;" x="32.19834" xlink:href="#m166f493040" y="130.53"/>
      </g>
     </g>
    </g>
    <g id="ytick_13">
     <g id="line2d_57">
      <path clip-path="url(#p4be21b0fdb)" d="M 32.19834 103.759485 
L 423.633507 103.759485 
" style="fill:none;stroke:#222255;stroke-linecap:square;stroke-opacity:0.05;stroke-width:0.5;"/>
     </g>
     <g id="line2d_58">
      <g>
       <use style="fill:#222255;fill-opacity:0.1;stroke:#222255;stroke-opacity:0.1;stroke-width:0.6;" x="32.19834" xlink:href="#m166f493040" y="103.759485"/>
      </g>
     </g>
    </g>
    <g id="ytick_14">
     <g id="line2d_59">
      <path clip-path="url(#p4be21b0fdb)" d="M 32.19834 90.374228 
L 423.633507 90.374228 
" style="fill:none;stroke:#222255;stroke-linecap:square;stroke-opacity:0.05;stroke-width:0.5;"/>
     </g>
     <g id="line2d_60">
      <g>
       <use style="fill:#222255;fill-opacity:0.1;stroke:#222255;stroke-opacity:0.1;stroke-width:0.6;" x="32.19834" xlink:href="#m166f493040" y="90.374228"/>
      </g>
     </g>
    </g>
    <g id="ytick_15">
     <g id="line2d_61">
      <path clip-path="url(#p4be21b0fdb)" d="M 32.19834 76.988971 
L 423.633507 76.988971 
" style="fill:none;stroke:#222255;stroke-linecap:square;stroke-opacity:0.05;stroke-width:0.5;"/>
     </g>
     <g id="line2d_62">
      <g>
       <use style="fill:#222255;fill-opacity:0.1;stroke:#222255;stroke-opacity:0.1;stroke-width:0.6;" x="32.19834" xlink:href="#m166f493040" y="76.988971"/>
      </g>
     </g>
    </g>
    <g id="ytick_16">
     <g id="line2d_63">
      <path clip-path="url(#p4be21b0fdb)" d="M 32.19834 63.603714 
L 423.633507 63.603714 
" style="fill:none;stroke:#222255;stroke-linecap:square;stroke-opacity:0.05;stroke-width:0.5;"/>
     </g>
     <g id="line2d_64">
      <g>
       <use style="fill:#222255;fill-opacity:0.1;stroke:#222255;stroke-opacity:0.1;stroke-width:0.6;" x="32.19834" xlink:href="#m166f493040" y="63.603714"/>
      </g>
     </g>
    </g>
    <g id="ytick_17">
     <g id="line2d_65">
      <path clip-path="url(#p4be21b0fdb)" d="M 32.19834 36.833199 
L 423.633507 36.833199 
" style="fill:none;stroke:#222255;stroke-linecap:square;stroke-opacity:0.05;stroke-width:0.5;"/>
     </g>
     <g id="line2d_66">
      <g>
       <use style="fill:#222255;fill-opacity:0.1;stroke:#222255;stroke-opacity:0.1;stroke-width:0.6;" x="32.19834" xlink:href="#m166f493040" y="36.833199"/>
      </g>
     </g>
    </g>
    <g id="ytick_18">
     <g id="line2d_67">
      <path clip-path="url(#p4be21b0fdb)" d="M 32.19834 23.447942 
L 423.633507 23.447942 
" style="fill:none;stroke:#222255;stroke-linecap:square;stroke-opacity:0.05;stroke-width:0.5;"/>
     </g>
     <g id="line2d_68">
      <g>
       <use style="fill:#222255;fill-opacity:0.1;stroke:#222255;stroke-opacity:0.1;stroke-width:0.6;" x="32.19834" xlink:href="#m166f493040" y="23.447942"/>
      </g>
     </g>
    </g>
    <g id="ytick_19">
     <g id="line2d_69">
      <path clip-path="url(#p4be21b0fdb)" d="M 32.19834 10.062685 
L 423.633507 10.062685 
" style="fill:none;stroke:#222255;stroke-linecap:square;stroke-opacity:0.05;stroke-width:0.5;"/>
     </g>
     <g id="line2d_70">
      <g>
       <use style="fill:#222255;fill-opacity:0.1;stroke:#222255;stroke-opacity:0.1;stroke-width:0.6;" x="32.19834" xlink:href="#m166f493040" y="10.062685"/>
      </g>
     </g>
    </g>
    <g id="text_10">
     <!-- Molecular Number -->
     <g transform="translate(12.170683 181.064687)rotate(-90)scale(0.11 -0.11)">
      <defs>
       <path d="M 628 4666 
L 1569 4666 
L 2759 1491 
L 3956 4666 
L 4897 4666 
L 4897 0 
L 4281 0 
L 4281 4097 
L 3078 897 
L 2444 897 
L 1241 4097 
L 1241 0 
L 628 0 
L 628 4666 
z
" id="DejaVuSans-4d" transform="scale(0.015625)"/>
       <path d="M 1959 3097 
Q 1497 3097 1228 2736 
Q 959 2375 959 1747 
Q 959 1119 1226 758 
Q 1494 397 1959 397 
Q 2419 397 2687 759 
Q 2956 1122 2956 1747 
Q 2956 2369 2687 2733 
Q 2419 3097 1959 3097 
z
M 1959 3584 
Q 2709 3584 3137 3096 
Q 3566 2609 3566 1747 
Q 3566 888 3137 398 
Q 2709 -91 1959 -91 
Q 1206 -91 779 398 
Q 353 888 353 1747 
Q 353 2609 779 3096 
Q 1206 3584 1959 3584 
z
" id="DejaVuSans-6f" transform="scale(0.015625)"/>
       <path d="M 603 4863 
L 1178 4863 
L 1178 0 
L 603 0 
L 603 4863 
z
" id="DejaVuSans-6c" transform="scale(0.015625)"/>
       <path d="M 3122 3366 
L 3122 2828 
Q 2878 2963 2633 3030 
Q 2388 3097 2138 3097 
Q 1578 3097 1268 2742 
Q 959 2388 959 1747 
Q 959 1106 1268 751 
Q 1578 397 2138 397 
Q 2388 397 2633 464 
Q 2878 531 3122 666 
L 3122 134 
Q 2881 22 2623 -34 
Q 2366 -91 2075 -91 
Q 1284 -91 818 406 
Q 353 903 353 1747 
Q 353 2603 823 3093 
Q 1294 3584 2113 3584 
Q 2378 3584 2631 3529 
Q 2884 3475 3122 3366 
z
" id="DejaVuSans-63" transform="scale(0.015625)"/>
       <path d="M 544 1381 
L 544 3500 
L 1119 3500 
L 1119 1403 
Q 1119 906 1312 657 
Q 1506 409 1894 409 
Q 2359 409 2629 706 
Q 2900 1003 2900 1516 
L 2900 3500 
L 3475 3500 
L 3475 0 
L 2900 0 
L 2900 538 
Q 2691 219 2414 64 
Q 2138 -91 1772 -91 
Q 1169 -91 856 284 
Q 544 659 544 1381 
z
M 1991 3584 
L 1991 3584 
z
" id="DejaVuSans-75" transform="scale(0.015625)"/>
       <path d="M 2194 1759 
Q 1497 1759 1228 1600 
Q 959 1441 959 1056 
Q 959 750 1161 570 
Q 1363 391 1709 391 
Q 2188 391 2477 730 
Q 2766 1069 2766 1631 
L 2766 1759 
L 2194 1759 
z
M 3341 1997 
L 3341 0 
L 2766 0 
L 2766 531 
Q 2569 213 2275 61 
Q 1981 -91 1556 -91 
Q 1019 -91 701 211 
Q 384 513 384 1019 
Q 384 1609 779 1909 
Q 1175 2209 1959 2209 
L 2766 2209 
L 2766 2266 
Q 2766 2663 2505 2880 
Q 2244 3097 1772 3097 
Q 1472 3097 1187 3025 
Q 903 2953 641 2809 
L 641 3341 
Q 956 3463 1253 3523 
Q 1550 3584 1831 3584 
Q 2591 3584 2966 3190 
Q 3341 2797 3341 1997 
z
" id="DejaVuSans-61" transform="scale(0.015625)"/>
       <path d="M 2631 2963 
Q 2534 3019 2420 3045 
Q 2306 3072 2169 3072 
Q 1681 3072 1420 2755 
Q 1159 2438 1159 1844 
L 1159 0 
L 581 0 
L 581 3500 
L 1159 3500 
L 1159 2956 
Q 1341 3275 1631 3429 
Q 1922 3584 2338 3584 
Q 2397 3584 2469 3576 
Q 2541 3569 2628 3553 
L 2631 2963 
z
" id="DejaVuSans-72" transform="scale(0.015625)"/>
       <path id="DejaVuSans-20" transform="scale(0.015625)"/>
       <path d="M 628 4666 
L 1478 4666 
L 3547 763 
L 3547 4666 
L 4159 4666 
L 4159 0 
L 3309 0 
L 1241 3903 
L 1241 0 
L 628 0 
L 628 4666 
z
" id="DejaVuSans-4e" transform="scale(0.015625)"/>
       <path d="M 3116 1747 
Q 3116 2381 2855 2742 
Q 2594 3103 2138 3103 
Q 1681 3103 1420 2742 
Q 1159 2381 1159 1747 
Q 1159 1113 1420 752 
Q 1681 391 2138 391 
Q 2594 391 2855 752 
Q 3116 1113 3116 1747 
z
M 1159 2969 
Q 1341 3281 1617 3432 
Q 1894 3584 2278 3584 
Q 2916 3584 3314 3078 
Q 3713 2572 3713 1747 
Q 3713 922 3314 415 
Q 2916 -91 2278 -91 
Q 1894 -91 1617 61 
Q 1341 213 1159 525 
L 1159 0 
L 581 0 
L 581 4863 
L 1159 4863 
L 1159 2969 
z
" id="DejaVuSans-62" transform="scale(0.015625)"/>
      </defs>
      <use xlink:href="#DejaVuSans-4d"/>
      <use x="86.279297" xlink:href="#DejaVuSans-6f"/>
      <use x="147.460938" xlink:href="#DejaVuSans-6c"/>
      <use x="175.244141" xlink:href="#DejaVuSans-65"/>
      <use x="236.767578" xlink:href="#DejaVuSans-63"/>
      <use x="291.748047" xlink:href="#DejaVuSans-75"/>
      <use x="355.126953" xlink:href="#DejaVuSans-6c"/>
      <use x="382.910156" xlink:href="#DejaVuSans-61"/>
      <use x="444.189453" xlink:href="#DejaVuSans-72"/>
      <use x="485.302734" xlink:href="#DejaVuSans-20"/>
      <use x="517.089844" xlink:href="#DejaVuSans-4e"/>
      <use x="591.894531" xlink:href="#DejaVuSans-75"/>
      <use x="655.273438" xlink:href="#DejaVuSans-6d"/>
      <use x="752.685547" xlink:href="#DejaVuSans-62"/>
      <use x="816.162109" xlink:href="#DejaVuSans-65"/>
      <use x="877.685547" xlink:href="#DejaVuSans-72"/>
     </g>
    </g>
   </g>
   <g id="line2d_71">
    <path clip-path="url(#p4be21b0fdb)" d="M 32.19834 250.997315 
L 36.910463 250.997315 
L 37.025593 237.612058 
L 37.099606 237.612058 
L 37.214736 250.997315 
L 38.06999 250.997315 
L 38.185121 237.612058 
L 39.69004 237.612058 
L 39.80517 250.997315 
L 42.510735 250.997315 
L 42.625865 237.612058 
L 47.551802 237.612058 
L 47.666932 224.226801 
L 48.275479 224.226801 
L 48.390609 210.841544 
L 48.522187 210.841544 
L 48.637317 224.226801 
L 51.112621 224.226801 
L 51.227751 210.841544 
L 56.638881 210.841544 
L 56.754011 197.456286 
L 58.036893 197.456286 
L 58.152023 210.841544 
L 61.13719 210.841544 
L 61.252321 197.456286 
L 62.304942 197.456286 
L 62.420072 184.071029 
L 63.028618 184.071029 
L 63.127302 170.685772 
L 63.135525 184.071029 
L 66.589437 184.071029 
L 66.696344 197.456286 
L 66.811475 184.071029 
L 67.362456 184.071029 
L 67.477586 197.456286 
L 70.396965 197.456286 
L 70.512095 210.841544 
L 73.160094 210.841544 
L 73.275225 224.226801 
L 76.219274 224.226801 
L 76.334404 210.841544 
L 80.339298 210.841544 
L 80.454428 197.456286 
L 80.569559 197.456286 
L 80.684689 184.071029 
L 89.541507 184.071029 
L 89.656637 197.456286 
L 90.701035 197.456286 
L 90.816165 210.841544 
L 93.365481 210.841544 
L 93.480612 197.456286 
L 95.816114 197.456286 
L 95.931245 184.071029 
L 103.546299 184.071029 
L 103.661429 170.685772 
L 106.523242 170.685772 
L 106.638373 157.300515 
L 109.204136 157.300515 
L 109.319267 170.685772 
L 110.544583 170.685772 
L 110.659713 184.071029 
L 112.20575 184.071029 
L 112.320881 197.456286 
L 112.361999 197.456286 
L 112.477129 210.841544 
L 112.863638 210.841544 
L 112.978769 224.226801 
L 115.898147 224.226801 
L 116.013277 237.612058 
L 116.728731 237.612058 
L 116.843861 250.997315 
L 131.218715 250.997315 
L 131.333845 237.612058 
L 134.022963 237.612058 
L 134.138093 224.226801 
L 135.98018 224.226801 
L 136.09531 210.841544 
L 140.067309 210.841544 
L 140.18244 224.226801 
L 141.82716 224.226801 
L 141.94229 210.841544 
L 147.106712 210.841544 
L 147.221842 197.456286 
L 147.600128 197.456286 
L 147.715258 184.071029 
L 150.651083 184.071029 
L 150.766214 197.456286 
L 154.655977 197.456286 
L 154.771107 184.071029 
L 157.863181 184.071029 
L 157.978312 170.685772 
L 167.369664 170.685772 
L 167.484794 157.300515 
L 170.53575 157.300515 
L 170.65088 170.685772 
L 175.807078 170.685772 
L 175.922208 184.071029 
L 178.504419 184.071029 
L 178.619549 170.685772 
L 179.071847 170.685772 
L 179.186978 184.071029 
L 180.897487 184.071029 
L 181.012617 170.685772 
L 183.331672 170.685772 
L 183.446803 184.071029 
L 192.015795 184.071029 
L 192.130925 170.685772 
L 193.175322 170.685772 
L 193.290453 157.300515 
L 194.063471 157.300515 
L 194.178602 143.915257 
L 198.594675 143.915257 
L 198.709806 157.300515 
L 199.721309 157.300515 
L 199.836439 170.685772 
L 200.18183 170.685772 
L 200.296961 157.300515 
L 201.102874 157.300515 
L 201.218004 170.685772 
L 202.278848 170.685772 
L 202.393979 184.071029 
L 203.495941 184.071029 
L 203.611072 197.456286 
L 203.668637 197.456286 
L 203.783767 184.071029 
L 205.009084 184.071029 
L 205.124214 170.685772 
L 205.864338 170.685772 
L 205.979469 157.300515 
L 211.55507 157.300515 
L 211.6702 170.685772 
L 214.671815 170.685772 
L 214.786945 184.071029 
L 220.362546 184.071029 
L 220.477677 170.685772 
L 220.732608 170.685772 
L 220.847739 157.300515 
L 221.744111 157.300515 
L 221.859242 143.915257 
L 222.911862 143.915257 
L 223.026993 157.300515 
L 224.16185 157.300515 
L 224.27698 170.685772 
L 226.530247 170.685772 
L 226.645377 184.071029 
L 228.989103 184.071029 
L 229.104234 197.456286 
L 232.961102 197.456286 
L 233.076233 210.841544 
L 235.115686 210.841544 
L 235.230816 224.226801 
L 238.890319 224.226801 
L 239.005449 237.612058 
L 245.033348 237.612058 
L 245.148479 224.226801 
L 253.585893 224.226801 
L 253.701023 210.841544 
L 257.122041 210.841544 
L 257.237172 197.456286 
L 257.549668 197.456286 
L 257.664799 184.071029 
L 258.12532 184.071029 
L 258.240451 197.456286 
L 259.942736 197.456286 
L 260.06609 170.685772 
L 266.348921 170.685772 
L 266.464052 184.071029 
L 268.371927 184.071029 
L 268.487057 197.456286 
L 277.335652 197.456286 
L 277.450782 184.071029 
L 282.006657 184.071029 
L 282.121787 197.456286 
L 284.375054 197.456286 
L 284.490184 184.071029 
L 289.523028 184.071029 
L 289.638158 170.685772 
L 289.819077 170.685772 
L 289.934208 157.300515 
L 290.674332 157.300515 
L 290.789462 170.685772 
L 292.006555 170.685772 
L 292.121686 184.071029 
L 292.129909 184.071029 
L 292.24504 197.456286 
L 298.922603 197.456286 
L 299.037734 210.841544 
L 306.233384 210.841544 
L 306.348515 224.226801 
L 306.759695 224.226801 
L 306.874825 210.841544 
L 308.527769 210.841544 
L 308.642899 224.226801 
L 311.72675 224.226801 
L 311.84188 237.612058 
L 313.642849 237.612058 
L 313.757979 224.226801 
L 315.254674 224.226801 
L 315.369805 237.612058 
L 320.928959 237.612058 
L 321.044089 224.226801 
L 329.317031 224.226801 
L 329.432162 237.612058 
L 332.886074 237.612058 
L 333.001205 224.226801 
L 336.825179 224.226801 
L 336.940309 237.612058 
L 341.07678 237.612058 
L 341.191911 250.997315 
L 343.478072 250.997315 
L 343.593202 237.612058 
L 344.316879 237.612058 
L 344.432009 224.226801 
L 346.611264 224.226801 
L 346.726394 237.612058 
L 353.140803 237.612058 
L 353.255933 224.226801 
L 356.315112 224.226801 
L 356.430243 237.612058 
L 370.772202 237.612058 
L 370.887333 224.226801 
L 373.37086 224.226801 
L 373.485991 210.841544 
L 375.212947 210.841544 
L 375.328077 224.226801 
L 376.709642 224.226801 
L 376.824772 210.841544 
L 378.995803 210.841544 
L 379.110933 197.456286 
L 379.842834 197.456286 
L 379.957964 210.841544 
L 380.295132 210.841544 
L 380.410262 224.226801 
L 380.525393 224.226801 
L 380.640523 237.612058 
L 382.285243 237.612058 
L 382.400374 224.226801 
L 386.561516 224.226801 
L 386.676646 210.841544 
L 387.087826 210.841544 
L 387.202956 197.456286 
L 387.499006 197.456286 
L 387.614137 210.841544 
L 395.023601 210.841544 
L 395.138731 197.456286 
L 395.566358 197.456286 
L 395.681489 184.071029 
L 398.099227 184.071029 
L 398.214358 197.456286 
L 401.240643 197.456286 
L 401.355773 210.841544 
L 405.977437 210.841544 
L 406.092567 197.456286 
L 413.099075 197.456286 
L 413.214205 184.071029 
L 416.881931 184.071029 
L 416.997062 197.456286 
L 420.409856 197.456286 
L 420.524986 210.841544 
L 421.816092 210.841544 
L 421.931222 197.456286 
L 422.071023 197.456286 
L 422.186154 184.071029 
L 423.633507 184.071029 
L 423.633507 184.071029 
" style="fill:none;stroke:#ee7733;stroke-width:1.2;"/>
   </g>
   <g id="line2d_72">
    <path clip-path="url(#p4be21b0fdb)" d="M 32.19834 250.997315 
L 37.099606 250.997315 
L 37.214736 237.612058 
L 39.69004 237.612058 
L 39.80517 224.226801 
L 58.036893 224.226801 
L 58.152023 210.841544 
L 63.127302 210.841544 
L 63.242432 197.456286 
L 66.589437 197.456286 
L 66.704568 184.071029 
L 67.362456 184.071029 
L 67.477586 170.685772 
L 67.798307 170.685772 
L 67.913437 184.071029 
L 70.396965 184.071029 
L 70.512095 170.685772 
L 73.160094 170.685772 
L 73.275225 157.300515 
L 78.546553 157.300515 
L 78.661683 170.685772 
L 89.541507 170.685772 
L 89.656637 157.300515 
L 109.204136 157.300515 
L 109.319267 143.915257 
L 110.544583 143.915257 
L 110.659713 130.53 
L 112.20575 130.53 
L 112.320881 117.144743 
L 112.361999 117.144743 
L 112.477129 103.759485 
L 112.863638 103.759485 
L 112.978769 90.374228 
L 115.898147 90.374228 
L 116.013277 76.988971 
L 126.950666 76.988971 
L 127.065797 90.374228 
L 129.828927 90.374228 
L 129.944057 103.759485 
L 130.519709 103.759485 
L 130.634839 117.144743 
L 135.749919 117.144743 
L 135.865049 130.53 
L 140.09198 130.53 
L 140.207111 143.915257 
L 149.368202 143.915257 
L 149.483332 157.300515 
L 152.764549 157.300515 
L 152.879679 170.685772 
L 169.145961 170.685772 
L 169.261092 184.071029 
L 179.071847 184.071029 
L 179.186978 170.685772 
L 183.331672 170.685772 
L 183.446803 157.300515 
L 191.325012 157.300515 
L 191.440143 170.685772 
L 198.594675 170.685772 
L 198.668688 157.300515 
L 198.701582 170.685772 
L 199.721309 170.685772 
L 199.836439 157.300515 
L 201.102874 157.300515 
L 201.218004 143.915257 
L 202.278848 143.915257 
L 202.393979 130.53 
L 203.495941 130.53 
L 203.611072 117.144743 
L 209.671865 117.144743 
L 209.786996 130.53 
L 212.706374 130.53 
L 212.821504 143.915257 
L 214.671815 143.915257 
L 214.786945 130.53 
L 222.911862 130.53 
L 223.026993 117.144743 
L 224.16185 117.144743 
L 224.27698 103.759485 
L 226.530247 103.759485 
L 226.645377 90.374228 
L 228.989103 90.374228 
L 229.104234 76.988971 
L 232.961102 76.988971 
L 233.076233 63.603714 
L 235.115686 63.603714 
L 235.230816 50.218456 
L 238.890319 50.218456 
L 239.005449 36.833199 
L 258.12532 36.833199 
L 258.240451 23.447942 
L 266.348921 23.447942 
L 266.464052 10.062685 
L 268.873567 10.062685 
L 268.988697 23.447942 
L 276.044546 23.447942 
L 276.159677 36.833199 
L 278.306037 36.833199 
L 278.421167 50.218456 
L 278.528074 50.218456 
L 278.643204 63.603714 
L 292.006555 63.603714 
L 292.121686 50.218456 
L 292.129909 50.218456 
L 292.24504 36.833199 
L 298.486753 36.833199 
L 298.601883 50.218456 
L 298.922603 50.218456 
L 299.037734 36.833199 
L 303.618279 36.833199 
L 303.73341 50.218456 
L 306.233384 50.218456 
L 306.258055 36.833199 
L 306.340291 50.218456 
L 307.129757 50.218456 
L 307.244887 63.603714 
L 310.008017 63.603714 
L 310.123147 76.988971 
L 311.907669 76.988971 
L 312.022799 90.374228 
L 315.254674 90.374228 
L 315.369805 76.988971 
L 316.488214 76.988971 
L 316.603345 90.374228 
L 317.532612 90.374228 
L 317.647742 103.759485 
L 325.402598 103.759485 
L 325.517728 117.144743 
L 329.317031 117.144743 
L 329.432162 103.759485 
L 336.825179 103.759485 
L 336.940309 90.374228 
L 341.07678 90.374228 
L 341.191911 76.988971 
L 346.611264 76.988971 
L 346.726394 63.603714 
L 356.315112 63.603714 
L 356.430243 50.218456 
L 360.394018 50.218456 
L 360.509149 63.603714 
L 371.051805 63.603714 
L 371.166935 76.988971 
L 371.989295 76.988971 
L 372.104426 90.374228 
L 375.040251 90.374228 
L 375.155382 103.759485 
L 375.212947 103.759485 
L 375.328077 90.374228 
L 379.053368 90.374228 
L 379.168499 103.759485 
L 379.842834 103.759485 
L 379.957964 90.374228 
L 380.295132 90.374228 
L 380.410262 76.988971 
L 380.525393 76.988971 
L 380.640523 63.603714 
L 381.191504 63.603714 
L 381.306635 76.988971 
L 387.499006 76.988971 
L 387.614137 63.603714 
L 392.540073 63.603714 
L 392.655204 76.988971 
L 394.316371 76.988971 
L 394.431501 90.374228 
L 395.385439 90.374228 
L 395.50057 103.759485 
L 401.240643 103.759485 
L 401.355773 90.374228 
L 405.796518 90.374228 
L 405.911648 103.759485 
L 409.307995 103.759485 
L 409.423125 117.144743 
L 412.720789 117.144743 
L 412.83592 130.53 
L 414.201037 130.53 
L 414.316168 143.915257 
L 416.881931 143.915257 
L 416.997062 130.53 
L 419.603943 130.53 
L 419.719073 143.915257 
L 422.243719 143.915257 
L 422.358849 157.300515 
L 423.633507 157.300515 
L 423.633507 157.300515 
" style="fill:none;stroke:#0077bb;stroke-width:1.2;"/>
   </g>
   <g id="legend_1">
    <g id="patch_3">
     <path d="M 374.833507 39.119646 
L 419.633507 39.119646 
L 419.633507 6.834646 
L 374.833507 6.834646 
z
" style="fill:#ffffff;opacity:0.9;stroke:#222255;stroke-linejoin:miter;"/>
    </g>
    <g id="line2d_73">
     <path d="M 381.233507 16.513396 
L 397.233507 16.513396 
" style="fill:none;stroke:#ee7733;stroke-linejoin:miter;"/>
    </g>
    <g id="line2d_74"/>
    <g id="text_11">
     <!-- $X_A$ -->
     <g transform="translate(403.633507 19.313396)scale(0.08 -0.08)">
      <defs>
       <path d="M 878 4666 
L 1516 4666 
L 2316 2981 
L 3763 4666 
L 4500 4666 
L 2578 2438 
L 3738 0 
L 3103 0 
L 2163 1966 
L 459 0 
L -275 0 
L 1906 2509 
L 878 4666 
z
" id="DejaVuSans-Oblique-58" transform="scale(0.015625)"/>
       <path d="M 2356 4666 
L 3072 4666 
L 3938 0 
L 3278 0 
L 3084 1197 
L 984 1197 
L 325 0 
L -341 0 
L 2356 4666 
z
M 2584 4044 
L 1275 1722 
L 2988 1722 
L 2584 4044 
z
" id="DejaVuSans-Oblique-41" transform="scale(0.015625)"/>
      </defs>
      <use transform="translate(0 0.09375)" xlink:href="#DejaVuSans-Oblique-58"/>
      <use transform="translate(68.505859 -16.3125)scale(0.7)" xlink:href="#DejaVuSans-Oblique-41"/>
     </g>
    </g>
    <g id="line2d_75">
     <path d="M 381.233507 28.255896 
L 397.233507 28.255896 
" style="fill:none;stroke:#0077bb;stroke-linejoin:miter;"/>
    </g>
    <g id="line2d_76"/>
    <g id="text_12">
     <!-- $X_I$ -->
     <g transform="translate(403.633507 31.055896)scale(0.08 -0.08)">
      <defs>
       <path d="M 1081 4666 
L 1716 4666 
L 806 0 
L 172 0 
L 1081 4666 
z
" id="DejaVuSans-Oblique-49" transform="scale(0.015625)"/>
      </defs>
      <use transform="translate(0 0.09375)" xlink:href="#DejaVuSans-Oblique-58"/>
      <use transform="translate(68.505859 -16.3125)scale(0.7)" xlink:href="#DejaVuSans-Oblique-49"/>
     </g>
    </g>
   </g>
  </g>
 </g>
 <defs>
  <clipPath id="p4be21b0fdb">
   <rect height="255.390709" width="391.435168" x="32.19834" y="2.834646"/>
  </clipPath>
 </defs>
</svg>
