<?xml version="1.0" encoding="utf-8" standalone="no"?>
<!DOCTYPE svg PUBLIC "-//W3C//DTD SVG 1.1//EN"
  "http://www.w3.org/Graphics/SVG/1.1/DTD/svg11.dtd">
<svg height="288pt" version="1.1" viewBox="0 0 432 288" width="432pt" xmlns="http://www.w3.org/2000/svg" xmlns:xlink="http://www.w3.org/1999/xlink">
 <metadata>
  <rdf:RDF xmlns:cc="http://creativecommons.org/ns#" xmlns:dc="http://purl.org/dc/elements/1.1/" xmlns:rdf="http://www.w3.org/1999/02/22-rdf-syntax-ns#">
   <cc:Work>
    <dc:type rdf:resource="http://purl.org/dc/dcmitype/StillImage"/>
    <dc:date>2021-11-30T10:26:37.626018</dc:date>
    <dc:format>image/svg+xml</dc:format>
    <dc:creator>
     <cc:Agent>
      <dc:title>Matplotlib v3.4.2, https://matplotlib.org/</dc:title>
     </cc:Agent>
    </dc:creator>
   </cc:Work>
  </rdf:RDF>
 </metadata>
 <defs>
  <style type="text/css">*{stroke-linecap:butt;stroke-linejoin:round;}</style>
 </defs>
 <g id="figure_1">
  <g id="patch_1">
   <path d="M 0 288 
L 432 288 
L 432 0 
L 0 0 
z
" style="fill:#ffffff;"/>
  </g>
  <g id="axes_1">
   <g id="patch_2">
    <path d="M 32.19834 258.225354 
L 429.165354 258.225354 
L 429.165354 2.834646 
L 32.19834 2.834646 
z
" style="fill:#ffffff;"/>
   </g>
   <g id="matplotlib.axis_1">
    <g id="xtick_1">
     <g id="line2d_1">
      <path clip-path="url(#p7e7a9cb1ed)" d="M 43.433255 258.225354 
L 43.433255 2.834646 
" style="fill:none;stroke:#000000;stroke-linecap:square;stroke-opacity:0.1;stroke-width:0.5;"/>
     </g>
     <g id="line2d_2">
      <defs>
       <path d="M 0 0 
L 0 -2.5 
" id="m960c82ee64" style="stroke:#000000;stroke-width:0.5;"/>
      </defs>
      <g>
       <use style="stroke:#000000;stroke-width:0.5;" x="43.433255" xlink:href="#m960c82ee64" y="258.225354"/>
      </g>
     </g>
     <g id="text_1">
      <!-- $\mathregular{0}$ -->
      <g transform="translate(40.873255 267.804104)scale(0.08 -0.08)">
       <defs>
        <path d="M 2034 4250 
Q 1547 4250 1301 3770 
Q 1056 3291 1056 2328 
Q 1056 1369 1301 889 
Q 1547 409 2034 409 
Q 2525 409 2770 889 
Q 3016 1369 3016 2328 
Q 3016 3291 2770 3770 
Q 2525 4250 2034 4250 
z
M 2034 4750 
Q 2819 4750 3233 4129 
Q 3647 3509 3647 2328 
Q 3647 1150 3233 529 
Q 2819 -91 2034 -91 
Q 1250 -91 836 529 
Q 422 1150 422 2328 
Q 422 3509 836 4129 
Q 1250 4750 2034 4750 
z
" id="DejaVuSans-30" transform="scale(0.015625)"/>
       </defs>
       <use transform="translate(0 0.78125)" xlink:href="#DejaVuSans-30"/>
      </g>
     </g>
    </g>
    <g id="xtick_2">
     <g id="line2d_3">
      <path clip-path="url(#p7e7a9cb1ed)" d="M 168.26565 258.225354 
L 168.26565 2.834646 
" style="fill:none;stroke:#000000;stroke-linecap:square;stroke-opacity:0.1;stroke-width:0.5;"/>
     </g>
     <g id="line2d_4">
      <g>
       <use style="stroke:#000000;stroke-width:0.5;" x="168.26565" xlink:href="#m960c82ee64" y="258.225354"/>
      </g>
     </g>
     <g id="text_2">
      <!-- $\mathregular{10}$ -->
      <g transform="translate(163.14565 267.804104)scale(0.08 -0.08)">
       <defs>
        <path d="M 794 531 
L 1825 531 
L 1825 4091 
L 703 3866 
L 703 4441 
L 1819 4666 
L 2450 4666 
L 2450 531 
L 3481 531 
L 3481 0 
L 794 0 
L 794 531 
z
" id="DejaVuSans-31" transform="scale(0.015625)"/>
       </defs>
       <use transform="translate(0 0.78125)" xlink:href="#DejaVuSans-31"/>
       <use transform="translate(63.623047 0.78125)" xlink:href="#DejaVuSans-30"/>
      </g>
     </g>
    </g>
    <g id="xtick_3">
     <g id="line2d_5">
      <path clip-path="url(#p7e7a9cb1ed)" d="M 293.098044 258.225354 
L 293.098044 2.834646 
" style="fill:none;stroke:#000000;stroke-linecap:square;stroke-opacity:0.1;stroke-width:0.5;"/>
     </g>
     <g id="line2d_6">
      <g>
       <use style="stroke:#000000;stroke-width:0.5;" x="293.098044" xlink:href="#m960c82ee64" y="258.225354"/>
      </g>
     </g>
     <g id="text_3">
      <!-- $\mathregular{20}$ -->
      <g transform="translate(287.978044 267.804104)scale(0.08 -0.08)">
       <defs>
        <path d="M 1228 531 
L 3431 531 
L 3431 0 
L 469 0 
L 469 531 
Q 828 903 1448 1529 
Q 2069 2156 2228 2338 
Q 2531 2678 2651 2914 
Q 2772 3150 2772 3378 
Q 2772 3750 2511 3984 
Q 2250 4219 1831 4219 
Q 1534 4219 1204 4116 
Q 875 4013 500 3803 
L 500 4441 
Q 881 4594 1212 4672 
Q 1544 4750 1819 4750 
Q 2544 4750 2975 4387 
Q 3406 4025 3406 3419 
Q 3406 3131 3298 2873 
Q 3191 2616 2906 2266 
Q 2828 2175 2409 1742 
Q 1991 1309 1228 531 
z
" id="DejaVuSans-32" transform="scale(0.015625)"/>
       </defs>
       <use transform="translate(0 0.78125)" xlink:href="#DejaVuSans-32"/>
       <use transform="translate(63.623047 0.78125)" xlink:href="#DejaVuSans-30"/>
      </g>
     </g>
    </g>
    <g id="xtick_4">
     <g id="line2d_7">
      <path clip-path="url(#p7e7a9cb1ed)" d="M 417.930439 258.225354 
L 417.930439 2.834646 
" style="fill:none;stroke:#000000;stroke-linecap:square;stroke-opacity:0.1;stroke-width:0.5;"/>
     </g>
     <g id="line2d_8">
      <g>
       <use style="stroke:#000000;stroke-width:0.5;" x="417.930439" xlink:href="#m960c82ee64" y="258.225354"/>
      </g>
     </g>
     <g id="text_4">
      <!-- $\mathregular{30}$ -->
      <g transform="translate(412.810439 267.804104)scale(0.08 -0.08)">
       <defs>
        <path d="M 2597 2516 
Q 3050 2419 3304 2112 
Q 3559 1806 3559 1356 
Q 3559 666 3084 287 
Q 2609 -91 1734 -91 
Q 1441 -91 1130 -33 
Q 819 25 488 141 
L 488 750 
Q 750 597 1062 519 
Q 1375 441 1716 441 
Q 2309 441 2620 675 
Q 2931 909 2931 1356 
Q 2931 1769 2642 2001 
Q 2353 2234 1838 2234 
L 1294 2234 
L 1294 2753 
L 1863 2753 
Q 2328 2753 2575 2939 
Q 2822 3125 2822 3475 
Q 2822 3834 2567 4026 
Q 2313 4219 1838 4219 
Q 1578 4219 1281 4162 
Q 984 4106 628 3988 
L 628 4550 
Q 988 4650 1302 4700 
Q 1616 4750 1894 4750 
Q 2613 4750 3031 4423 
Q 3450 4097 3450 3541 
Q 3450 3153 3228 2886 
Q 3006 2619 2597 2516 
z
" id="DejaVuSans-33" transform="scale(0.015625)"/>
       </defs>
       <use transform="translate(0 0.78125)" xlink:href="#DejaVuSans-33"/>
       <use transform="translate(63.623047 0.78125)" xlink:href="#DejaVuSans-30"/>
      </g>
     </g>
    </g>
    <g id="text_5">
     <!-- time -->
     <g transform="translate(218.256144 281.826136)scale(0.11 -0.11)">
      <defs>
       <path d="M 1172 4494 
L 1172 3500 
L 2356 3500 
L 2356 3053 
L 1172 3053 
L 1172 1153 
Q 1172 725 1289 603 
Q 1406 481 1766 481 
L 2356 481 
L 2356 0 
L 1766 0 
Q 1100 0 847 248 
Q 594 497 594 1153 
L 594 3053 
L 172 3053 
L 172 3500 
L 594 3500 
L 594 4494 
L 1172 4494 
z
" id="DejaVuSans-74" transform="scale(0.015625)"/>
       <path d="M 603 3500 
L 1178 3500 
L 1178 0 
L 603 0 
L 603 3500 
z
M 603 4863 
L 1178 4863 
L 1178 4134 
L 603 4134 
L 603 4863 
z
" id="DejaVuSans-69" transform="scale(0.015625)"/>
       <path d="M 3328 2828 
Q 3544 3216 3844 3400 
Q 4144 3584 4550 3584 
Q 5097 3584 5394 3201 
Q 5691 2819 5691 2113 
L 5691 0 
L 5113 0 
L 5113 2094 
Q 5113 2597 4934 2840 
Q 4756 3084 4391 3084 
Q 3944 3084 3684 2787 
Q 3425 2491 3425 1978 
L 3425 0 
L 2847 0 
L 2847 2094 
Q 2847 2600 2669 2842 
Q 2491 3084 2119 3084 
Q 1678 3084 1418 2786 
Q 1159 2488 1159 1978 
L 1159 0 
L 581 0 
L 581 3500 
L 1159 3500 
L 1159 2956 
Q 1356 3278 1631 3431 
Q 1906 3584 2284 3584 
Q 2666 3584 2933 3390 
Q 3200 3197 3328 2828 
z
" id="DejaVuSans-6d" transform="scale(0.015625)"/>
       <path d="M 3597 1894 
L 3597 1613 
L 953 1613 
Q 991 1019 1311 708 
Q 1631 397 2203 397 
Q 2534 397 2845 478 
Q 3156 559 3463 722 
L 3463 178 
Q 3153 47 2828 -22 
Q 2503 -91 2169 -91 
Q 1331 -91 842 396 
Q 353 884 353 1716 
Q 353 2575 817 3079 
Q 1281 3584 2069 3584 
Q 2775 3584 3186 3129 
Q 3597 2675 3597 1894 
z
M 3022 2063 
Q 3016 2534 2758 2815 
Q 2500 3097 2075 3097 
Q 1594 3097 1305 2825 
Q 1016 2553 972 2059 
L 3022 2063 
z
" id="DejaVuSans-65" transform="scale(0.015625)"/>
      </defs>
      <use xlink:href="#DejaVuSans-74"/>
      <use x="39.208984" xlink:href="#DejaVuSans-69"/>
      <use x="66.992188" xlink:href="#DejaVuSans-6d"/>
      <use x="164.404297" xlink:href="#DejaVuSans-65"/>
     </g>
    </g>
   </g>
   <g id="matplotlib.axis_2">
    <g id="ytick_1">
     <g id="line2d_9">
      <path clip-path="url(#p7e7a9cb1ed)" d="M 32.19834 250.997315 
L 429.165354 250.997315 
" style="fill:none;stroke:#000000;stroke-linecap:square;stroke-opacity:0.1;stroke-width:0.5;"/>
     </g>
     <g id="line2d_10">
      <defs>
       <path d="M 0 0 
L 2.5 0 
" id="m17f7b8262f" style="stroke:#000000;stroke-width:0.5;"/>
      </defs>
      <g>
       <use style="stroke:#000000;stroke-width:0.5;" x="32.19834" xlink:href="#m17f7b8262f" y="250.997315"/>
      </g>
     </g>
     <g id="text_6">
      <!-- $\mathregular{0}$ -->
      <g transform="translate(23.57834 254.03669)scale(0.08 -0.08)">
       <use transform="translate(0 0.78125)" xlink:href="#DejaVuSans-30"/>
      </g>
     </g>
    </g>
    <g id="ytick_2">
     <g id="line2d_11">
      <path clip-path="url(#p7e7a9cb1ed)" d="M 32.19834 214.084913 
L 429.165354 214.084913 
" style="fill:none;stroke:#000000;stroke-linecap:square;stroke-opacity:0.1;stroke-width:0.5;"/>
     </g>
     <g id="line2d_12">
      <g>
       <use style="stroke:#000000;stroke-width:0.5;" x="32.19834" xlink:href="#m17f7b8262f" y="214.084913"/>
      </g>
     </g>
     <g id="text_7">
      <!-- $\mathregular{2}$ -->
      <g transform="translate(23.57834 217.124288)scale(0.08 -0.08)">
       <use transform="translate(0 0.78125)" xlink:href="#DejaVuSans-32"/>
      </g>
     </g>
    </g>
    <g id="ytick_3">
     <g id="line2d_13">
      <path clip-path="url(#p7e7a9cb1ed)" d="M 32.19834 177.172511 
L 429.165354 177.172511 
" style="fill:none;stroke:#000000;stroke-linecap:square;stroke-opacity:0.1;stroke-width:0.5;"/>
     </g>
     <g id="line2d_14">
      <g>
       <use style="stroke:#000000;stroke-width:0.5;" x="32.19834" xlink:href="#m17f7b8262f" y="177.172511"/>
      </g>
     </g>
     <g id="text_8">
      <!-- $\mathregular{4}$ -->
      <g transform="translate(23.57834 180.211886)scale(0.08 -0.08)">
       <defs>
        <path d="M 2419 4116 
L 825 1625 
L 2419 1625 
L 2419 4116 
z
M 2253 4666 
L 3047 4666 
L 3047 1625 
L 3713 1625 
L 3713 1100 
L 3047 1100 
L 3047 0 
L 2419 0 
L 2419 1100 
L 313 1100 
L 313 1709 
L 2253 4666 
z
" id="DejaVuSans-34" transform="scale(0.015625)"/>
       </defs>
       <use transform="translate(0 0.09375)" xlink:href="#DejaVuSans-34"/>
      </g>
     </g>
    </g>
    <g id="ytick_4">
     <g id="line2d_15">
      <path clip-path="url(#p7e7a9cb1ed)" d="M 32.19834 140.260109 
L 429.165354 140.260109 
" style="fill:none;stroke:#000000;stroke-linecap:square;stroke-opacity:0.1;stroke-width:0.5;"/>
     </g>
     <g id="line2d_16">
      <g>
       <use style="stroke:#000000;stroke-width:0.5;" x="32.19834" xlink:href="#m17f7b8262f" y="140.260109"/>
      </g>
     </g>
     <g id="text_9">
      <!-- $\mathregular{6}$ -->
      <g transform="translate(23.57834 143.299484)scale(0.08 -0.08)">
       <defs>
        <path d="M 2113 2584 
Q 1688 2584 1439 2293 
Q 1191 2003 1191 1497 
Q 1191 994 1439 701 
Q 1688 409 2113 409 
Q 2538 409 2786 701 
Q 3034 994 3034 1497 
Q 3034 2003 2786 2293 
Q 2538 2584 2113 2584 
z
M 3366 4563 
L 3366 3988 
Q 3128 4100 2886 4159 
Q 2644 4219 2406 4219 
Q 1781 4219 1451 3797 
Q 1122 3375 1075 2522 
Q 1259 2794 1537 2939 
Q 1816 3084 2150 3084 
Q 2853 3084 3261 2657 
Q 3669 2231 3669 1497 
Q 3669 778 3244 343 
Q 2819 -91 2113 -91 
Q 1303 -91 875 529 
Q 447 1150 447 2328 
Q 447 3434 972 4092 
Q 1497 4750 2381 4750 
Q 2619 4750 2861 4703 
Q 3103 4656 3366 4563 
z
" id="DejaVuSans-36" transform="scale(0.015625)"/>
       </defs>
       <use transform="translate(0 0.78125)" xlink:href="#DejaVuSans-36"/>
      </g>
     </g>
    </g>
    <g id="ytick_5">
     <g id="line2d_17">
      <path clip-path="url(#p7e7a9cb1ed)" d="M 32.19834 103.347707 
L 429.165354 103.347707 
" style="fill:none;stroke:#000000;stroke-linecap:square;stroke-opacity:0.1;stroke-width:0.5;"/>
     </g>
     <g id="line2d_18">
      <g>
       <use style="stroke:#000000;stroke-width:0.5;" x="32.19834" xlink:href="#m17f7b8262f" y="103.347707"/>
      </g>
     </g>
     <g id="text_10">
      <!-- $\mathregular{8}$ -->
      <g transform="translate(23.57834 106.387082)scale(0.08 -0.08)">
       <defs>
        <path d="M 2034 2216 
Q 1584 2216 1326 1975 
Q 1069 1734 1069 1313 
Q 1069 891 1326 650 
Q 1584 409 2034 409 
Q 2484 409 2743 651 
Q 3003 894 3003 1313 
Q 3003 1734 2745 1975 
Q 2488 2216 2034 2216 
z
M 1403 2484 
Q 997 2584 770 2862 
Q 544 3141 544 3541 
Q 544 4100 942 4425 
Q 1341 4750 2034 4750 
Q 2731 4750 3128 4425 
Q 3525 4100 3525 3541 
Q 3525 3141 3298 2862 
Q 3072 2584 2669 2484 
Q 3125 2378 3379 2068 
Q 3634 1759 3634 1313 
Q 3634 634 3220 271 
Q 2806 -91 2034 -91 
Q 1263 -91 848 271 
Q 434 634 434 1313 
Q 434 1759 690 2068 
Q 947 2378 1403 2484 
z
M 1172 3481 
Q 1172 3119 1398 2916 
Q 1625 2713 2034 2713 
Q 2441 2713 2670 2916 
Q 2900 3119 2900 3481 
Q 2900 3844 2670 4047 
Q 2441 4250 2034 4250 
Q 1625 4250 1398 4047 
Q 1172 3844 1172 3481 
z
" id="DejaVuSans-38" transform="scale(0.015625)"/>
       </defs>
       <use transform="translate(0 0.78125)" xlink:href="#DejaVuSans-38"/>
      </g>
     </g>
    </g>
    <g id="ytick_6">
     <g id="line2d_19">
      <path clip-path="url(#p7e7a9cb1ed)" d="M 32.19834 66.435305 
L 429.165354 66.435305 
" style="fill:none;stroke:#000000;stroke-linecap:square;stroke-opacity:0.1;stroke-width:0.5;"/>
     </g>
     <g id="line2d_20">
      <g>
       <use style="stroke:#000000;stroke-width:0.5;" x="32.19834" xlink:href="#m17f7b8262f" y="66.435305"/>
      </g>
     </g>
     <g id="text_11">
      <!-- $\mathregular{10}$ -->
      <g transform="translate(18.45834 69.47468)scale(0.08 -0.08)">
       <use transform="translate(0 0.78125)" xlink:href="#DejaVuSans-31"/>
       <use transform="translate(63.623047 0.78125)" xlink:href="#DejaVuSans-30"/>
      </g>
     </g>
    </g>
    <g id="ytick_7">
     <g id="line2d_21">
      <path clip-path="url(#p7e7a9cb1ed)" d="M 32.19834 29.522903 
L 429.165354 29.522903 
" style="fill:none;stroke:#000000;stroke-linecap:square;stroke-opacity:0.1;stroke-width:0.5;"/>
     </g>
     <g id="line2d_22">
      <g>
       <use style="stroke:#000000;stroke-width:0.5;" x="32.19834" xlink:href="#m17f7b8262f" y="29.522903"/>
      </g>
     </g>
     <g id="text_12">
      <!-- $\mathregular{12}$ -->
      <g transform="translate(18.45834 32.562278)scale(0.08 -0.08)">
       <use transform="translate(0 0.78125)" xlink:href="#DejaVuSans-31"/>
       <use transform="translate(63.623047 0.78125)" xlink:href="#DejaVuSans-32"/>
      </g>
     </g>
    </g>
    <g id="text_13">
     <!-- Mean Value -->
     <g transform="translate(12.170683 162.368125)rotate(-90)scale(0.11 -0.11)">
      <defs>
       <path d="M 628 4666 
L 1569 4666 
L 2759 1491 
L 3956 4666 
L 4897 4666 
L 4897 0 
L 4281 0 
L 4281 4097 
L 3078 897 
L 2444 897 
L 1241 4097 
L 1241 0 
L 628 0 
L 628 4666 
z
" id="DejaVuSans-4d" transform="scale(0.015625)"/>
       <path d="M 2194 1759 
Q 1497 1759 1228 1600 
Q 959 1441 959 1056 
Q 959 750 1161 570 
Q 1363 391 1709 391 
Q 2188 391 2477 730 
Q 2766 1069 2766 1631 
L 2766 1759 
L 2194 1759 
z
M 3341 1997 
L 3341 0 
L 2766 0 
L 2766 531 
Q 2569 213 2275 61 
Q 1981 -91 1556 -91 
Q 1019 -91 701 211 
Q 384 513 384 1019 
Q 384 1609 779 1909 
Q 1175 2209 1959 2209 
L 2766 2209 
L 2766 2266 
Q 2766 2663 2505 2880 
Q 2244 3097 1772 3097 
Q 1472 3097 1187 3025 
Q 903 2953 641 2809 
L 641 3341 
Q 956 3463 1253 3523 
Q 1550 3584 1831 3584 
Q 2591 3584 2966 3190 
Q 3341 2797 3341 1997 
z
" id="DejaVuSans-61" transform="scale(0.015625)"/>
       <path d="M 3513 2113 
L 3513 0 
L 2938 0 
L 2938 2094 
Q 2938 2591 2744 2837 
Q 2550 3084 2163 3084 
Q 1697 3084 1428 2787 
Q 1159 2491 1159 1978 
L 1159 0 
L 581 0 
L 581 3500 
L 1159 3500 
L 1159 2956 
Q 1366 3272 1645 3428 
Q 1925 3584 2291 3584 
Q 2894 3584 3203 3211 
Q 3513 2838 3513 2113 
z
" id="DejaVuSans-6e" transform="scale(0.015625)"/>
       <path id="DejaVuSans-20" transform="scale(0.015625)"/>
       <path d="M 1831 0 
L 50 4666 
L 709 4666 
L 2188 738 
L 3669 4666 
L 4325 4666 
L 2547 0 
L 1831 0 
z
" id="DejaVuSans-56" transform="scale(0.015625)"/>
       <path d="M 603 4863 
L 1178 4863 
L 1178 0 
L 603 0 
L 603 4863 
z
" id="DejaVuSans-6c" transform="scale(0.015625)"/>
       <path d="M 544 1381 
L 544 3500 
L 1119 3500 
L 1119 1403 
Q 1119 906 1312 657 
Q 1506 409 1894 409 
Q 2359 409 2629 706 
Q 2900 1003 2900 1516 
L 2900 3500 
L 3475 3500 
L 3475 0 
L 2900 0 
L 2900 538 
Q 2691 219 2414 64 
Q 2138 -91 1772 -91 
Q 1169 -91 856 284 
Q 544 659 544 1381 
z
M 1991 3584 
L 1991 3584 
z
" id="DejaVuSans-75" transform="scale(0.015625)"/>
      </defs>
      <use xlink:href="#DejaVuSans-4d"/>
      <use x="86.279297" xlink:href="#DejaVuSans-65"/>
      <use x="147.802734" xlink:href="#DejaVuSans-61"/>
      <use x="209.082031" xlink:href="#DejaVuSans-6e"/>
      <use x="272.460938" xlink:href="#DejaVuSans-20"/>
      <use x="304.248047" xlink:href="#DejaVuSans-56"/>
      <use x="364.90625" xlink:href="#DejaVuSans-61"/>
      <use x="426.185547" xlink:href="#DejaVuSans-6c"/>
      <use x="453.96875" xlink:href="#DejaVuSans-75"/>
      <use x="517.347656" xlink:href="#DejaVuSans-65"/>
     </g>
    </g>
   </g>
   <g id="line2d_23">
    <path clip-path="url(#p7e7a9cb1ed)" d="M 43.433255 250.997315 
L 45.929903 244.040585 
L 48.426551 237.870518 
L 50.923199 232.39816 
L 53.419847 227.544614 
L 55.916494 223.239905 
L 58.413142 219.42197 
L 60.90979 216.035766 
L 63.406438 213.032472 
L 65.903086 210.36879 
L 68.399734 208.006315 
L 70.896382 205.910988 
L 73.39303 204.0526 
L 75.889678 202.404357 
L 79.634649 200.274778 
L 83.379621 198.496004 
L 87.124593 197.010247 
L 90.869565 195.769238 
L 94.614537 194.732661 
L 99.607833 193.611173 
L 104.601128 192.72898 
L 110.842748 191.886034 
L 117.084368 191.261565 
L 124.574312 190.721941 
L 134.560903 190.247214 
L 147.044143 189.899542 
L 164.520678 189.659214 
L 193.232129 189.522576 
L 265.634917 189.47806 
L 417.930439 189.476646 
L 417.930439 189.476646 
" style="fill:none;stroke:#009afa;stroke-width:3;"/>
   </g>
   <g id="line2d_24">
    <path clip-path="url(#p7e7a9cb1ed)" d="M 43.433255 250.997315 
L 45.929903 244.183286 
L 49.674875 235.137902 
L 50.923199 232.480209 
L 55.916494 223.187512 
L 57.164818 221.061357 
L 63.406438 212.621337 
L 65.903086 210.004247 
L 69.648058 206.576931 
L 74.641354 202.599619 
L 75.889678 201.846606 
L 77.138002 200.807522 
L 78.386326 200.139408 
L 80.882973 199.046801 
L 84.627945 197.823155 
L 85.876269 197.180879 
L 87.124593 196.809909 
L 88.372917 196.29129 
L 90.869565 195.482908 
L 93.366213 195.14516 
L 94.614537 194.558253 
L 97.111185 193.906749 
L 104.601128 192.664646 
L 107.097776 192.313979 
L 108.3461 192.000223 
L 109.594424 191.832272 
L 110.842748 191.883949 
L 117.084368 191.180768 
L 118.332692 190.874395 
L 120.82934 190.60678 
L 122.077664 190.743356 
L 127.070959 190.793188 
L 128.319283 190.601243 
L 130.815931 190.499734 
L 133.312579 190.392688 
L 139.554199 189.83162 
L 140.802523 189.875914 
L 143.299171 189.560313 
L 144.547495 189.650749 
L 150.789114 189.002936 
L 152.037438 189.1026 
L 153.285762 189.061996 
L 154.534086 189.314846 
L 157.030734 189.405281 
L 158.279058 189.303772 
L 159.527382 189.331457 
L 162.02403 189.571387 
L 163.272354 189.403436 
L 164.520678 189.51971 
L 165.769002 189.503099 
L 167.017326 189.628601 
L 169.513974 189.523401 
L 172.010621 189.451422 
L 174.507269 189.516019 
L 175.755593 189.301927 
L 177.003917 189.276088 
L 178.252241 189.091526 
L 179.500565 189.100754 
L 180.748889 188.980789 
L 183.245537 189.135821 
L 184.493861 188.978943 
L 190.735481 188.740858 
L 191.983805 188.423411 
L 199.473748 188.530457 
L 200.722072 188.696563 
L 201.970396 188.585826 
L 206.963692 188.967869 
L 208.212016 188.823911 
L 210.708664 189.039849 
L 211.956988 189.185653 
L 216.950284 189.050922 
L 223.191903 189.333302 
L 225.688551 189.235484 
L 228.185199 188.796227 
L 229.433523 188.788844 
L 230.681847 188.986326 
L 233.178495 188.7021 
L 234.426819 188.816528 
L 235.675143 189.108136 
L 241.916762 189.287162 
L 248.158382 189.174579 
L 249.406706 189.239175 
L 251.903354 189.17827 
L 253.151678 189.257632 
L 258.144974 188.967869 
L 261.889946 189.023238 
L 263.13827 189.229947 
L 268.131565 189.157968 
L 269.379889 189.255786 
L 270.628213 189.167196 
L 274.373185 189.348067 
L 275.621509 189.063842 
L 276.869833 189.28347 
L 279.366481 189.143203 
L 283.111453 189.421892 
L 284.359777 189.447731 
L 285.608101 189.272397 
L 289.353072 189.292698 
L 290.601396 189.145049 
L 291.84972 189.113673 
L 293.098044 188.901427 
L 295.594692 189.14874 
L 298.09134 189.279779 
L 301.836312 189.012164 
L 304.33296 189.019547 
L 306.829608 189.137666 
L 310.574579 189.344376 
L 311.822903 189.204109 
L 313.071227 189.300081 
L 314.319551 189.274242 
L 315.567875 189.113673 
L 316.816199 188.834985 
L 318.064523 188.842367 
L 320.561171 189.085989 
L 329.299439 189.2078 
L 330.547763 189.039849 
L 333.04441 189.215182 
L 334.292734 189.098908 
L 335.541058 189.261323 
L 336.789382 189.084143 
L 339.28603 189.407127 
L 341.782678 189.193035 
L 343.031002 189.250249 
L 344.279326 189.161659 
L 350.520946 189.26686 
L 351.76927 189.019547 
L 353.017594 189.019547 
L 356.762565 189.292698 
L 358.010889 189.159814 
L 360.507537 189.314846 
L 367.997481 189.170888 
L 369.245805 189.360986 
L 370.494129 189.242867 
L 374.239101 189.204109 
L 375.487425 189.041694 
L 379.232396 189.287162 
L 382.977368 189.547394 
L 384.225692 189.495717 
L 386.72234 189.674742 
L 390.467312 189.418201 
L 391.715636 189.695044 
L 394.212284 189.844539 
L 397.957256 189.7135 
L 400.453904 189.815009 
L 401.702228 189.726419 
L 405.447199 189.80209 
L 406.695523 189.53632 
L 407.943847 189.54924 
L 409.192171 189.414509 
L 411.688819 189.669205 
L 412.937143 189.623064 
L 415.433791 189.316692 
L 417.930439 189.541857 
L 417.930439 189.541857 
" style="fill:none;stroke:#e36f47;stroke-dasharray:11.1,4.8;stroke-dashoffset:0;stroke-width:3;"/>
   </g>
   <g id="patch_3">
    <path d="M 32.19834 258.225354 
L 32.19834 2.834646 
" style="fill:none;stroke:#000000;stroke-linecap:square;stroke-linejoin:miter;"/>
   </g>
   <g id="patch_4">
    <path d="M 32.19834 258.225354 
L 429.165354 258.225354 
" style="fill:none;stroke:#000000;stroke-linecap:square;stroke-linejoin:miter;"/>
   </g>
   <g id="line2d_25">
    <path clip-path="url(#p7e7a9cb1ed)" d="M 43.433255 250.997315 
L 44.681579 250.907155 
L 45.929903 250.644901 
L 47.178227 250.222339 
L 48.426551 249.650553 
L 49.674875 248.939961 
L 52.171523 247.14096 
L 54.668171 244.896856 
L 57.164818 242.270822 
L 59.661466 239.318636 
L 62.158114 236.089516 
L 65.903086 230.820119 
L 69.648058 225.149495 
L 74.641354 217.140924 
L 80.882973 206.678467 
L 107.097776 162.166745 
L 114.58772 150.130498 
L 120.82934 140.471289 
L 127.070959 131.173414 
L 133.312579 122.247697 
L 139.554199 113.69706 
L 145.795819 105.518821 
L 152.037438 97.706383 
L 158.279058 90.250473 
L 164.520678 83.140051 
L 170.762298 76.362968 
L 177.003917 69.906452 
L 183.245537 63.757447 
L 189.487157 57.902869 
L 195.728776 52.329774 
L 201.970396 47.025484 
L 208.212016 41.977665 
L 214.453636 37.174385 
L 221.943579 31.717081 
L 229.433523 26.576364 
L 233.178495 24.197677 
L 236.923467 22.193224 
L 240.668438 20.518964 
L 244.41341 19.120504 
L 248.158382 17.952413 
L 251.903354 16.976741 
L 256.89665 15.921148 
L 261.889946 15.090789 
L 268.131565 14.297372 
L 275.621509 13.611756 
L 284.359777 13.069133 
L 295.594692 12.635365 
L 309.326256 12.342666 
L 330.547763 12.142458 
L 369.245805 12.047126 
L 417.930439 12.031243 
L 417.930439 12.031243 
" style="fill:none;stroke:#3ea44e;stroke-width:3;"/>
   </g>
   <g id="line2d_26">
    <path clip-path="url(#p7e7a9cb1ed)" d="M 43.433255 250.997315 
L 44.681579 250.916108 
L 45.929903 250.655876 
L 47.178227 250.235074 
L 48.426551 249.677697 
L 49.674875 248.987435 
L 52.171523 247.237787 
L 54.668171 245.041499 
L 57.164818 242.518537 
L 59.661466 239.637524 
L 62.158114 236.433527 
L 65.903086 231.169819 
L 72.144706 221.38065 
L 78.386326 210.928903 
L 83.379621 201.948116 
L 87.124593 195.610256 
L 100.856157 172.408966 
L 103.352804 168.178804 
L 117.084368 145.99076 
L 118.332692 144.241112 
L 122.077664 138.301906 
L 128.319283 128.87817 
L 135.809227 118.315686 
L 138.305875 115.089542 
L 142.050847 109.967946 
L 145.795819 105.342822 
L 153.285762 95.428151 
L 155.78241 92.451166 
L 159.527382 88.038288 
L 165.769002 80.836679 
L 169.513974 76.704335 
L 172.010621 74.253352 
L 175.755593 70.383086 
L 184.493861 62.099943 
L 188.238833 58.670781 
L 189.487157 57.83287 
L 190.735481 56.751336 
L 193.232129 54.870649 
L 204.467044 45.061179 
L 209.46034 40.716589 
L 211.956988 38.688252 
L 213.205312 37.737758 
L 214.453636 36.979208 
L 218.198607 33.904405 
L 219.446931 32.843174 
L 226.936875 27.810168 
L 228.185199 27.046081 
L 230.681847 25.292742 
L 234.426819 23.11491 
L 235.675143 21.996464 
L 236.923467 21.145633 
L 240.668438 19.224343 
L 243.165086 18.037609 
L 253.151678 14.996027 
L 258.144974 14.073217 
L 259.393298 13.999392 
L 261.889946 13.519531 
L 264.386593 12.877255 
L 268.131565 12.390012 
L 269.379889 12.079947 
L 271.876537 11.840017 
L 275.621509 11.779111 
L 276.869833 11.537335 
L 279.366481 11.609314 
L 281.863129 11.487503 
L 283.111453 11.288176 
L 284.359777 11.393377 
L 286.856424 11.330626 
L 288.104748 11.099923 
L 289.353072 11.035326 
L 290.601396 11.170057 
L 291.84972 11.170057 
L 293.098044 11.302941 
L 294.346368 11.083313 
L 295.594692 11.242036 
L 298.09134 11.133144 
L 300.587988 11.214352 
L 303.084636 11.157137 
L 306.829608 10.817543 
L 310.574579 10.59976 
L 311.822903 10.741873 
L 313.071227 10.74741 
L 314.319551 10.906133 
L 315.567875 10.869221 
L 316.816199 10.97073 
L 321.809495 10.837845 
L 325.554467 10.896905 
L 326.802791 10.808315 
L 333.04441 11.048246 
L 339.28603 10.649592 
L 340.534354 10.808315 
L 345.52765 10.549928 
L 346.775974 10.472412 
L 348.024298 10.249092 
L 350.520946 10.140201 
L 351.76927 10.34691 
L 354.265918 10.274931 
L 356.762565 10.265703 
L 358.010889 10.466875 
L 361.755861 10.389359 
L 363.004185 10.542546 
L 372.990777 10.359829 
L 379.232396 10.605297 
L 381.729044 10.824926 
L 382.977368 10.771403 
L 385.474016 10.333991 
L 387.970664 10.476103 
L 389.218988 10.575767 
L 391.715636 10.446574 
L 399.20558 11.136835 
L 400.453904 11.096232 
L 401.702228 11.26972 
L 402.950551 11.314015 
L 404.198875 11.613005 
L 405.447199 11.448745 
L 406.695523 11.577939 
L 409.192171 11.589012 
L 410.440495 11.35831 
L 411.688819 11.295559 
L 412.937143 11.406296 
L 414.185467 11.162674 
L 415.433791 11.061165 
L 416.682115 11.096232 
L 417.930439 10.946737 
L 417.930439 10.946737 
" style="fill:none;stroke:#c371d2;stroke-dasharray:11.1,4.8;stroke-dashoffset:0;stroke-width:3;"/>
   </g>
   <g id="line2d_27">
    <path clip-path="url(#p7e7a9cb1ed)" d="M 43.433255 250.997315 
L 44.681579 250.914263 
L 45.929903 250.659567 
L 47.178227 250.246148 
L 48.426551 249.68508 
L 50.923199 248.175362 
L 53.419847 246.167328 
L 55.916494 243.803088 
L 58.413142 241.178616 
L 62.158114 236.44091 
L 64.654762 233.044969 
L 67.15141 229.26883 
L 78.386326 210.997191 
L 84.627945 199.991758 
L 94.614537 183.323963 
L 98.359509 176.836608 
L 112.091072 153.736827 
L 115.836044 147.779165 
L 118.332692 144.231884 
L 122.077664 138.322208 
L 128.319283 129.184543 
L 132.064255 123.941136 
L 135.809227 118.758635 
L 139.554199 113.854822 
L 140.802523 112.051652 
L 144.547495 107.308408 
L 154.534086 94.021789 
L 158.279058 89.601529 
L 160.775706 86.480585 
L 163.272354 83.721383 
L 167.017326 79.256828 
L 169.513974 76.540075 
L 172.010621 74.030032 
L 177.003917 68.934275 
L 178.252241 67.889654 
L 180.748889 65.525414 
L 181.997213 64.475256 
L 185.742185 60.889217 
L 189.487157 57.484048 
L 193.232129 54.24683 
L 195.728776 51.904738 
L 206.963692 42.418251 
L 208.212016 41.659701 
L 209.46034 40.541255 
L 213.205312 37.706383 
L 214.453636 36.829713 
L 219.446931 32.77304 
L 228.185199 26.863364 
L 231.930171 24.499125 
L 233.178495 23.799635 
L 235.675143 21.811902 
L 240.668438 19.239108 
L 241.916762 18.661429 
L 245.661734 17.382414 
L 253.151678 15.263642 
L 254.400002 15.145522 
L 256.89665 14.418348 
L 259.393298 14.069526 
L 264.386593 13.045207 
L 265.634917 12.884638 
L 266.883241 12.90494 
L 268.131565 12.565345 
L 270.628213 12.220214 
L 271.876537 12.074411 
L 273.124861 11.780957 
L 276.869833 11.321398 
L 279.366481 11.225425 
L 284.359777 10.878449 
L 285.608101 10.885831 
L 289.353072 10.537009 
L 290.601396 10.673585 
L 293.098044 10.76402 
L 295.594692 10.769557 
L 299.339664 10.736336 
L 303.084636 10.771403 
L 310.574579 10.062685 
L 321.809495 10.509325 
L 325.554467 10.572076 
L 326.802791 10.309998 
L 331.796087 10.824926 
L 333.04441 10.887677 
L 335.541058 10.634827 
L 341.782678 10.625599 
L 343.031002 10.760329 
L 344.279326 10.765866 
L 345.52765 10.651437 
L 346.775974 10.859992 
L 349.272622 10.769557 
L 353.017594 11.147909 
L 356.762565 10.954119 
L 359.259213 10.98734 
L 360.507537 11.07593 
L 363.004185 11.039018 
L 364.252509 11.109151 
L 366.749157 11.051937 
L 367.997481 11.098077 
L 369.245805 10.931972 
L 372.990777 10.909824 
L 374.239101 10.835999 
L 376.735749 11.18113 
L 379.232396 11.026098 
L 381.729044 11.088849 
L 382.977368 11.129453 
L 385.474016 10.830463 
L 386.72234 10.950428 
L 387.970664 10.889522 
L 390.467312 11.144218 
L 391.715636 10.981803 
L 394.212284 11.208815 
L 396.708932 11.594549 
L 400.453904 11.592704 
L 401.702228 11.786494 
L 402.950551 11.755118 
L 404.198875 11.88062 
L 405.447199 11.753273 
L 406.695523 11.786494 
L 409.192171 11.655455 
L 414.185467 11.445054 
L 415.433791 11.496731 
L 417.930439 11.284485 
L 417.930439 11.284485 
" style="fill:none;stroke:#ac8e18;stroke-dasharray:11.1,4.8;stroke-dashoffset:0;stroke-width:3;"/>
   </g>
   <g id="legend_1">
    <g id="patch_5">
     <path d="M 36.19834 74.399646 
L 126.03834 74.399646 
L 126.03834 6.834646 
L 36.19834 6.834646 
z
" style="fill:#ffffff;stroke:#000000;stroke-linejoin:miter;"/>
    </g>
    <g id="line2d_28">
     <path d="M 42.59834 16.513396 
L 58.59834 16.513396 
" style="fill:none;stroke:#009afa;stroke-linejoin:miter;"/>
    </g>
    <g id="line2d_29"/>
    <g id="text_14">
     <!-- $X_A$ Exact -->
     <g transform="translate(64.99834 19.313396)scale(0.08 -0.08)">
      <defs>
       <path d="M 878 4666 
L 1516 4666 
L 2316 2981 
L 3763 4666 
L 4500 4666 
L 2578 2438 
L 3738 0 
L 3103 0 
L 2163 1966 
L 459 0 
L -275 0 
L 1906 2509 
L 878 4666 
z
" id="DejaVuSans-Oblique-58" transform="scale(0.015625)"/>
       <path d="M 2356 4666 
L 3072 4666 
L 3938 0 
L 3278 0 
L 3084 1197 
L 984 1197 
L 325 0 
L -341 0 
L 2356 4666 
z
M 2584 4044 
L 1275 1722 
L 2988 1722 
L 2584 4044 
z
" id="DejaVuSans-Oblique-41" transform="scale(0.015625)"/>
       <path d="M 628 4666 
L 3578 4666 
L 3578 4134 
L 1259 4134 
L 1259 2753 
L 3481 2753 
L 3481 2222 
L 1259 2222 
L 1259 531 
L 3634 531 
L 3634 0 
L 628 0 
L 628 4666 
z
" id="DejaVuSans-45" transform="scale(0.015625)"/>
       <path d="M 3513 3500 
L 2247 1797 
L 3578 0 
L 2900 0 
L 1881 1375 
L 863 0 
L 184 0 
L 1544 1831 
L 300 3500 
L 978 3500 
L 1906 2253 
L 2834 3500 
L 3513 3500 
z
" id="DejaVuSans-78" transform="scale(0.015625)"/>
       <path d="M 3122 3366 
L 3122 2828 
Q 2878 2963 2633 3030 
Q 2388 3097 2138 3097 
Q 1578 3097 1268 2742 
Q 959 2388 959 1747 
Q 959 1106 1268 751 
Q 1578 397 2138 397 
Q 2388 397 2633 464 
Q 2878 531 3122 666 
L 3122 134 
Q 2881 22 2623 -34 
Q 2366 -91 2075 -91 
Q 1284 -91 818 406 
Q 353 903 353 1747 
Q 353 2603 823 3093 
Q 1294 3584 2113 3584 
Q 2378 3584 2631 3529 
Q 2884 3475 3122 3366 
z
" id="DejaVuSans-63" transform="scale(0.015625)"/>
      </defs>
      <use transform="translate(0 0.09375)" xlink:href="#DejaVuSans-Oblique-58"/>
      <use transform="translate(68.505859 -16.3125)scale(0.7)" xlink:href="#DejaVuSans-Oblique-41"/>
      <use transform="translate(119.125977 0.09375)" xlink:href="#DejaVuSans-20"/>
      <use transform="translate(150.913086 0.09375)" xlink:href="#DejaVuSans-45"/>
      <use transform="translate(214.09668 0.09375)" xlink:href="#DejaVuSans-78"/>
      <use transform="translate(273.276367 0.09375)" xlink:href="#DejaVuSans-61"/>
      <use transform="translate(334.555664 0.09375)" xlink:href="#DejaVuSans-63"/>
      <use transform="translate(389.536133 0.09375)" xlink:href="#DejaVuSans-74"/>
     </g>
    </g>
    <g id="line2d_30">
     <path d="M 42.59834 28.257146 
L 58.59834 28.257146 
" style="fill:none;stroke:#e36f47;stroke-dasharray:3.7,1.6;stroke-dashoffset:0;stroke-linejoin:miter;"/>
    </g>
    <g id="line2d_31"/>
    <g id="text_15">
     <!-- $X_A$ Delay SSA -->
     <g transform="translate(64.99834 31.057146)scale(0.08 -0.08)">
      <defs>
       <path d="M 1259 4147 
L 1259 519 
L 2022 519 
Q 2988 519 3436 956 
Q 3884 1394 3884 2338 
Q 3884 3275 3436 3711 
Q 2988 4147 2022 4147 
L 1259 4147 
z
M 628 4666 
L 1925 4666 
Q 3281 4666 3915 4102 
Q 4550 3538 4550 2338 
Q 4550 1131 3912 565 
Q 3275 0 1925 0 
L 628 0 
L 628 4666 
z
" id="DejaVuSans-44" transform="scale(0.015625)"/>
       <path d="M 2059 -325 
Q 1816 -950 1584 -1140 
Q 1353 -1331 966 -1331 
L 506 -1331 
L 506 -850 
L 844 -850 
Q 1081 -850 1212 -737 
Q 1344 -625 1503 -206 
L 1606 56 
L 191 3500 
L 800 3500 
L 1894 763 
L 2988 3500 
L 3597 3500 
L 2059 -325 
z
" id="DejaVuSans-79" transform="scale(0.015625)"/>
       <path d="M 3425 4513 
L 3425 3897 
Q 3066 4069 2747 4153 
Q 2428 4238 2131 4238 
Q 1616 4238 1336 4038 
Q 1056 3838 1056 3469 
Q 1056 3159 1242 3001 
Q 1428 2844 1947 2747 
L 2328 2669 
Q 3034 2534 3370 2195 
Q 3706 1856 3706 1288 
Q 3706 609 3251 259 
Q 2797 -91 1919 -91 
Q 1588 -91 1214 -16 
Q 841 59 441 206 
L 441 856 
Q 825 641 1194 531 
Q 1563 422 1919 422 
Q 2459 422 2753 634 
Q 3047 847 3047 1241 
Q 3047 1584 2836 1778 
Q 2625 1972 2144 2069 
L 1759 2144 
Q 1053 2284 737 2584 
Q 422 2884 422 3419 
Q 422 4038 858 4394 
Q 1294 4750 2059 4750 
Q 2388 4750 2728 4690 
Q 3069 4631 3425 4513 
z
" id="DejaVuSans-53" transform="scale(0.015625)"/>
       <path d="M 2188 4044 
L 1331 1722 
L 3047 1722 
L 2188 4044 
z
M 1831 4666 
L 2547 4666 
L 4325 0 
L 3669 0 
L 3244 1197 
L 1141 1197 
L 716 0 
L 50 0 
L 1831 4666 
z
" id="DejaVuSans-41" transform="scale(0.015625)"/>
      </defs>
      <use transform="translate(0 0.015625)" xlink:href="#DejaVuSans-Oblique-58"/>
      <use transform="translate(68.505859 -16.390625)scale(0.7)" xlink:href="#DejaVuSans-Oblique-41"/>
      <use transform="translate(119.125977 0.015625)" xlink:href="#DejaVuSans-20"/>
      <use transform="translate(150.913086 0.015625)" xlink:href="#DejaVuSans-44"/>
      <use transform="translate(227.915039 0.015625)" xlink:href="#DejaVuSans-65"/>
      <use transform="translate(289.438477 0.015625)" xlink:href="#DejaVuSans-6c"/>
      <use transform="translate(317.22168 0.015625)" xlink:href="#DejaVuSans-61"/>
      <use transform="translate(378.500977 0.015625)" xlink:href="#DejaVuSans-79"/>
      <use transform="translate(437.680664 0.015625)" xlink:href="#DejaVuSans-20"/>
      <use transform="translate(469.467773 0.015625)" xlink:href="#DejaVuSans-53"/>
      <use transform="translate(532.944336 0.015625)" xlink:href="#DejaVuSans-53"/>
      <use transform="translate(596.420898 0.015625)" xlink:href="#DejaVuSans-41"/>
     </g>
    </g>
    <g id="line2d_32">
     <path d="M 42.59834 40.015896 
L 58.59834 40.015896 
" style="fill:none;stroke:#3ea44e;stroke-linejoin:miter;"/>
    </g>
    <g id="line2d_33"/>
    <g id="text_16">
     <!-- $X_I$ Exact -->
     <g transform="translate(64.99834 42.815896)scale(0.08 -0.08)">
      <defs>
       <path d="M 1081 4666 
L 1716 4666 
L 806 0 
L 172 0 
L 1081 4666 
z
" id="DejaVuSans-Oblique-49" transform="scale(0.015625)"/>
      </defs>
      <use transform="translate(0 0.09375)" xlink:href="#DejaVuSans-Oblique-58"/>
      <use transform="translate(68.505859 -16.3125)scale(0.7)" xlink:href="#DejaVuSans-Oblique-49"/>
      <use transform="translate(91.884766 0.09375)" xlink:href="#DejaVuSans-20"/>
      <use transform="translate(123.671875 0.09375)" xlink:href="#DejaVuSans-45"/>
      <use transform="translate(186.855469 0.09375)" xlink:href="#DejaVuSans-78"/>
      <use transform="translate(246.035156 0.09375)" xlink:href="#DejaVuSans-61"/>
      <use transform="translate(307.314453 0.09375)" xlink:href="#DejaVuSans-63"/>
      <use transform="translate(362.294922 0.09375)" xlink:href="#DejaVuSans-74"/>
     </g>
    </g>
    <g id="line2d_34">
     <path d="M 42.59834 51.759646 
L 58.59834 51.759646 
" style="fill:none;stroke:#c371d2;stroke-dasharray:3.7,1.6;stroke-dashoffset:0;stroke-linejoin:miter;"/>
    </g>
    <g id="line2d_35"/>
    <g id="text_17">
     <!-- $X_{I1}$ Delay SSA -->
     <g transform="translate(64.99834 54.559646)scale(0.08 -0.08)">
      <use transform="translate(0 0.015625)" xlink:href="#DejaVuSans-Oblique-58"/>
      <use transform="translate(68.505859 -16.390625)scale(0.7)" xlink:href="#DejaVuSans-Oblique-49"/>
      <use transform="translate(89.150391 -16.390625)scale(0.7)" xlink:href="#DejaVuSans-31"/>
      <use transform="translate(136.420898 0.015625)" xlink:href="#DejaVuSans-20"/>
      <use transform="translate(168.208008 0.015625)" xlink:href="#DejaVuSans-44"/>
      <use transform="translate(245.209961 0.015625)" xlink:href="#DejaVuSans-65"/>
      <use transform="translate(306.733398 0.015625)" xlink:href="#DejaVuSans-6c"/>
      <use transform="translate(334.516602 0.015625)" xlink:href="#DejaVuSans-61"/>
      <use transform="translate(395.795898 0.015625)" xlink:href="#DejaVuSans-79"/>
      <use transform="translate(454.975586 0.015625)" xlink:href="#DejaVuSans-20"/>
      <use transform="translate(486.762695 0.015625)" xlink:href="#DejaVuSans-53"/>
      <use transform="translate(550.239258 0.015625)" xlink:href="#DejaVuSans-53"/>
      <use transform="translate(613.71582 0.015625)" xlink:href="#DejaVuSans-41"/>
     </g>
    </g>
    <g id="line2d_36">
     <path d="M 42.59834 63.519646 
L 58.59834 63.519646 
" style="fill:none;stroke:#ac8e18;stroke-dasharray:3.7,1.6;stroke-dashoffset:0;stroke-linejoin:miter;"/>
    </g>
    <g id="line2d_37"/>
    <g id="text_18">
     <!-- $X_{I2}$ Delay SSA -->
     <g transform="translate(64.99834 66.319646)scale(0.08 -0.08)">
      <use transform="translate(0 0.015625)" xlink:href="#DejaVuSans-Oblique-58"/>
      <use transform="translate(68.505859 -16.390625)scale(0.7)" xlink:href="#DejaVuSans-Oblique-49"/>
      <use transform="translate(89.150391 -16.390625)scale(0.7)" xlink:href="#DejaVuSans-32"/>
      <use transform="translate(136.420898 0.015625)" xlink:href="#DejaVuSans-20"/>
      <use transform="translate(168.208008 0.015625)" xlink:href="#DejaVuSans-44"/>
      <use transform="translate(245.209961 0.015625)" xlink:href="#DejaVuSans-65"/>
      <use transform="translate(306.733398 0.015625)" xlink:href="#DejaVuSans-6c"/>
      <use transform="translate(334.516602 0.015625)" xlink:href="#DejaVuSans-61"/>
      <use transform="translate(395.795898 0.015625)" xlink:href="#DejaVuSans-79"/>
      <use transform="translate(454.975586 0.015625)" xlink:href="#DejaVuSans-20"/>
      <use transform="translate(486.762695 0.015625)" xlink:href="#DejaVuSans-53"/>
      <use transform="translate(550.239258 0.015625)" xlink:href="#DejaVuSans-53"/>
      <use transform="translate(613.71582 0.015625)" xlink:href="#DejaVuSans-41"/>
     </g>
    </g>
   </g>
  </g>
 </g>
 <defs>
  <clipPath id="p7e7a9cb1ed">
   <rect height="255.390709" width="396.967015" x="32.19834" y="2.834646"/>
  </clipPath>
 </defs>
</svg>
