<?xml version="1.0" encoding="utf-8" standalone="no"?>
<!DOCTYPE svg PUBLIC "-//W3C//DTD SVG 1.1//EN"
  "http://www.w3.org/Graphics/SVG/1.1/DTD/svg11.dtd">
<svg height="288pt" version="1.1" viewBox="0 0 432 288" width="432pt" xmlns="http://www.w3.org/2000/svg" xmlns:xlink="http://www.w3.org/1999/xlink">
 <metadata>
  <rdf:RDF xmlns:cc="http://creativecommons.org/ns#" xmlns:dc="http://purl.org/dc/elements/1.1/" xmlns:rdf="http://www.w3.org/1999/02/22-rdf-syntax-ns#">
   <cc:Work>
    <dc:type rdf:resource="http://purl.org/dc/dcmitype/StillImage"/>
    <dc:date>2021-11-30T10:24:01.024597</dc:date>
    <dc:format>image/svg+xml</dc:format>
    <dc:creator>
     <cc:Agent>
      <dc:title>Matplotlib v3.4.2, https://matplotlib.org/</dc:title>
     </cc:Agent>
    </dc:creator>
   </cc:Work>
  </rdf:RDF>
 </metadata>
 <defs>
  <style type="text/css">*{stroke-linecap:butt;stroke-linejoin:round;}</style>
 </defs>
 <g id="figure_1">
  <g id="patch_1">
   <path d="M 0 288 
L 432 288 
L 432 0 
L 0 0 
z
" style="fill:#ffffff;"/>
  </g>
  <g id="axes_1">
   <g id="patch_2">
    <path d="M 32.19834 258.225354 
L 423.633507 258.225354 
L 423.633507 2.834646 
L 32.19834 2.834646 
z
" style="fill:#ffffff;"/>
   </g>
   <g id="matplotlib.axis_1">
    <g id="xtick_1">
     <g id="line2d_1">
      <path clip-path="url(#pc467d0fc17)" d="M 32.19834 258.225354 
L 32.19834 2.834646 
" style="fill:none;stroke:#000000;stroke-linecap:square;stroke-opacity:0.1;stroke-width:0.5;"/>
     </g>
     <g id="line2d_2">
      <defs>
       <path d="M 0 0 
L 0 -2.5 
" id="m866a6f313c" style="stroke:#000000;stroke-width:0.5;"/>
      </defs>
      <g>
       <use style="stroke:#000000;stroke-width:0.5;" x="32.19834" xlink:href="#m866a6f313c" y="258.225354"/>
      </g>
     </g>
     <g id="text_1">
      <!-- $\mathregular{0}$ -->
      <g transform="translate(29.63834 267.804104)scale(0.08 -0.08)">
       <defs>
        <path d="M 2034 4250 
Q 1547 4250 1301 3770 
Q 1056 3291 1056 2328 
Q 1056 1369 1301 889 
Q 1547 409 2034 409 
Q 2525 409 2770 889 
Q 3016 1369 3016 2328 
Q 3016 3291 2770 3770 
Q 2525 4250 2034 4250 
z
M 2034 4750 
Q 2819 4750 3233 4129 
Q 3647 3509 3647 2328 
Q 3647 1150 3233 529 
Q 2819 -91 2034 -91 
Q 1250 -91 836 529 
Q 422 1150 422 2328 
Q 422 3509 836 4129 
Q 1250 4750 2034 4750 
z
" id="DejaVuSans-30" transform="scale(0.015625)"/>
       </defs>
       <use transform="translate(0 0.78125)" xlink:href="#DejaVuSans-30"/>
      </g>
     </g>
    </g>
    <g id="xtick_2">
     <g id="line2d_3">
      <path clip-path="url(#pc467d0fc17)" d="M 162.676729 258.225354 
L 162.676729 2.834646 
" style="fill:none;stroke:#000000;stroke-linecap:square;stroke-opacity:0.1;stroke-width:0.5;"/>
     </g>
     <g id="line2d_4">
      <g>
       <use style="stroke:#000000;stroke-width:0.5;" x="162.676729" xlink:href="#m866a6f313c" y="258.225354"/>
      </g>
     </g>
     <g id="text_2">
      <!-- $\mathregular{10}$ -->
      <g transform="translate(157.556729 267.804104)scale(0.08 -0.08)">
       <defs>
        <path d="M 794 531 
L 1825 531 
L 1825 4091 
L 703 3866 
L 703 4441 
L 1819 4666 
L 2450 4666 
L 2450 531 
L 3481 531 
L 3481 0 
L 794 0 
L 794 531 
z
" id="DejaVuSans-31" transform="scale(0.015625)"/>
       </defs>
       <use transform="translate(0 0.78125)" xlink:href="#DejaVuSans-31"/>
       <use transform="translate(63.623047 0.78125)" xlink:href="#DejaVuSans-30"/>
      </g>
     </g>
    </g>
    <g id="xtick_3">
     <g id="line2d_5">
      <path clip-path="url(#pc467d0fc17)" d="M 293.155118 258.225354 
L 293.155118 2.834646 
" style="fill:none;stroke:#000000;stroke-linecap:square;stroke-opacity:0.1;stroke-width:0.5;"/>
     </g>
     <g id="line2d_6">
      <g>
       <use style="stroke:#000000;stroke-width:0.5;" x="293.155118" xlink:href="#m866a6f313c" y="258.225354"/>
      </g>
     </g>
     <g id="text_3">
      <!-- $\mathregular{20}$ -->
      <g transform="translate(288.035118 267.804104)scale(0.08 -0.08)">
       <defs>
        <path d="M 1228 531 
L 3431 531 
L 3431 0 
L 469 0 
L 469 531 
Q 828 903 1448 1529 
Q 2069 2156 2228 2338 
Q 2531 2678 2651 2914 
Q 2772 3150 2772 3378 
Q 2772 3750 2511 3984 
Q 2250 4219 1831 4219 
Q 1534 4219 1204 4116 
Q 875 4013 500 3803 
L 500 4441 
Q 881 4594 1212 4672 
Q 1544 4750 1819 4750 
Q 2544 4750 2975 4387 
Q 3406 4025 3406 3419 
Q 3406 3131 3298 2873 
Q 3191 2616 2906 2266 
Q 2828 2175 2409 1742 
Q 1991 1309 1228 531 
z
" id="DejaVuSans-32" transform="scale(0.015625)"/>
       </defs>
       <use transform="translate(0 0.78125)" xlink:href="#DejaVuSans-32"/>
       <use transform="translate(63.623047 0.78125)" xlink:href="#DejaVuSans-30"/>
      </g>
     </g>
    </g>
    <g id="xtick_4">
     <g id="line2d_7">
      <path clip-path="url(#pc467d0fc17)" d="M 423.633507 258.225354 
L 423.633507 2.834646 
" style="fill:none;stroke:#000000;stroke-linecap:square;stroke-opacity:0.1;stroke-width:0.5;"/>
     </g>
     <g id="line2d_8">
      <g>
       <use style="stroke:#000000;stroke-width:0.5;" x="423.633507" xlink:href="#m866a6f313c" y="258.225354"/>
      </g>
     </g>
     <g id="text_4">
      <!-- $\mathregular{30}$ -->
      <g transform="translate(418.513507 267.804104)scale(0.08 -0.08)">
       <defs>
        <path d="M 2597 2516 
Q 3050 2419 3304 2112 
Q 3559 1806 3559 1356 
Q 3559 666 3084 287 
Q 2609 -91 1734 -91 
Q 1441 -91 1130 -33 
Q 819 25 488 141 
L 488 750 
Q 750 597 1062 519 
Q 1375 441 1716 441 
Q 2309 441 2620 675 
Q 2931 909 2931 1356 
Q 2931 1769 2642 2001 
Q 2353 2234 1838 2234 
L 1294 2234 
L 1294 2753 
L 1863 2753 
Q 2328 2753 2575 2939 
Q 2822 3125 2822 3475 
Q 2822 3834 2567 4026 
Q 2313 4219 1838 4219 
Q 1578 4219 1281 4162 
Q 984 4106 628 3988 
L 628 4550 
Q 988 4650 1302 4700 
Q 1616 4750 1894 4750 
Q 2613 4750 3031 4423 
Q 3450 4097 3450 3541 
Q 3450 3153 3228 2886 
Q 3006 2619 2597 2516 
z
" id="DejaVuSans-33" transform="scale(0.015625)"/>
       </defs>
       <use transform="translate(0 0.78125)" xlink:href="#DejaVuSans-33"/>
       <use transform="translate(63.623047 0.78125)" xlink:href="#DejaVuSans-30"/>
      </g>
     </g>
    </g>
    <g id="text_5">
     <!-- time -->
     <g transform="translate(215.49022 281.826136)scale(0.11 -0.11)">
      <defs>
       <path d="M 1172 4494 
L 1172 3500 
L 2356 3500 
L 2356 3053 
L 1172 3053 
L 1172 1153 
Q 1172 725 1289 603 
Q 1406 481 1766 481 
L 2356 481 
L 2356 0 
L 1766 0 
Q 1100 0 847 248 
Q 594 497 594 1153 
L 594 3053 
L 172 3053 
L 172 3500 
L 594 3500 
L 594 4494 
L 1172 4494 
z
" id="DejaVuSans-74" transform="scale(0.015625)"/>
       <path d="M 603 3500 
L 1178 3500 
L 1178 0 
L 603 0 
L 603 3500 
z
M 603 4863 
L 1178 4863 
L 1178 4134 
L 603 4134 
L 603 4863 
z
" id="DejaVuSans-69" transform="scale(0.015625)"/>
       <path d="M 3328 2828 
Q 3544 3216 3844 3400 
Q 4144 3584 4550 3584 
Q 5097 3584 5394 3201 
Q 5691 2819 5691 2113 
L 5691 0 
L 5113 0 
L 5113 2094 
Q 5113 2597 4934 2840 
Q 4756 3084 4391 3084 
Q 3944 3084 3684 2787 
Q 3425 2491 3425 1978 
L 3425 0 
L 2847 0 
L 2847 2094 
Q 2847 2600 2669 2842 
Q 2491 3084 2119 3084 
Q 1678 3084 1418 2786 
Q 1159 2488 1159 1978 
L 1159 0 
L 581 0 
L 581 3500 
L 1159 3500 
L 1159 2956 
Q 1356 3278 1631 3431 
Q 1906 3584 2284 3584 
Q 2666 3584 2933 3390 
Q 3200 3197 3328 2828 
z
" id="DejaVuSans-6d" transform="scale(0.015625)"/>
       <path d="M 3597 1894 
L 3597 1613 
L 953 1613 
Q 991 1019 1311 708 
Q 1631 397 2203 397 
Q 2534 397 2845 478 
Q 3156 559 3463 722 
L 3463 178 
Q 3153 47 2828 -22 
Q 2503 -91 2169 -91 
Q 1331 -91 842 396 
Q 353 884 353 1716 
Q 353 2575 817 3079 
Q 1281 3584 2069 3584 
Q 2775 3584 3186 3129 
Q 3597 2675 3597 1894 
z
M 3022 2063 
Q 3016 2534 2758 2815 
Q 2500 3097 2075 3097 
Q 1594 3097 1305 2825 
Q 1016 2553 972 2059 
L 3022 2063 
z
" id="DejaVuSans-65" transform="scale(0.015625)"/>
      </defs>
      <use xlink:href="#DejaVuSans-74"/>
      <use x="39.208984" xlink:href="#DejaVuSans-69"/>
      <use x="66.992188" xlink:href="#DejaVuSans-6d"/>
      <use x="164.404297" xlink:href="#DejaVuSans-65"/>
     </g>
    </g>
   </g>
   <g id="matplotlib.axis_2">
    <g id="ytick_1">
     <g id="line2d_9">
      <path clip-path="url(#pc467d0fc17)" d="M 32.19834 250.997315 
L 423.633507 250.997315 
" style="fill:none;stroke:#000000;stroke-linecap:square;stroke-opacity:0.1;stroke-width:0.5;"/>
     </g>
     <g id="line2d_10">
      <defs>
       <path d="M 0 0 
L 2.5 0 
" id="mbf1115a18b" style="stroke:#000000;stroke-width:0.5;"/>
      </defs>
      <g>
       <use style="stroke:#000000;stroke-width:0.5;" x="32.19834" xlink:href="#mbf1115a18b" y="250.997315"/>
      </g>
     </g>
     <g id="text_6">
      <!-- $\mathregular{0}$ -->
      <g transform="translate(23.57834 254.03669)scale(0.08 -0.08)">
       <use transform="translate(0 0.78125)" xlink:href="#DejaVuSans-30"/>
      </g>
     </g>
    </g>
    <g id="ytick_2">
     <g id="line2d_11">
      <path clip-path="url(#pc467d0fc17)" d="M 32.19834 187.593465 
L 423.633507 187.593465 
" style="fill:none;stroke:#000000;stroke-linecap:square;stroke-opacity:0.1;stroke-width:0.5;"/>
     </g>
     <g id="line2d_12">
      <g>
       <use style="stroke:#000000;stroke-width:0.5;" x="32.19834" xlink:href="#mbf1115a18b" y="187.593465"/>
      </g>
     </g>
     <g id="text_7">
      <!-- $\mathregular{5}$ -->
      <g transform="translate(23.57834 190.63284)scale(0.08 -0.08)">
       <defs>
        <path d="M 691 4666 
L 3169 4666 
L 3169 4134 
L 1269 4134 
L 1269 2991 
Q 1406 3038 1543 3061 
Q 1681 3084 1819 3084 
Q 2600 3084 3056 2656 
Q 3513 2228 3513 1497 
Q 3513 744 3044 326 
Q 2575 -91 1722 -91 
Q 1428 -91 1123 -41 
Q 819 9 494 109 
L 494 744 
Q 775 591 1075 516 
Q 1375 441 1709 441 
Q 2250 441 2565 725 
Q 2881 1009 2881 1497 
Q 2881 1984 2565 2268 
Q 2250 2553 1709 2553 
Q 1456 2553 1204 2497 
Q 953 2441 691 2322 
L 691 4666 
z
" id="DejaVuSans-35" transform="scale(0.015625)"/>
       </defs>
       <use transform="translate(0 0.09375)" xlink:href="#DejaVuSans-35"/>
      </g>
     </g>
    </g>
    <g id="ytick_3">
     <g id="line2d_13">
      <path clip-path="url(#pc467d0fc17)" d="M 32.19834 124.189615 
L 423.633507 124.189615 
" style="fill:none;stroke:#000000;stroke-linecap:square;stroke-opacity:0.1;stroke-width:0.5;"/>
     </g>
     <g id="line2d_14">
      <g>
       <use style="stroke:#000000;stroke-width:0.5;" x="32.19834" xlink:href="#mbf1115a18b" y="124.189615"/>
      </g>
     </g>
     <g id="text_8">
      <!-- $\mathregular{10}$ -->
      <g transform="translate(18.45834 127.22899)scale(0.08 -0.08)">
       <use transform="translate(0 0.78125)" xlink:href="#DejaVuSans-31"/>
       <use transform="translate(63.623047 0.78125)" xlink:href="#DejaVuSans-30"/>
      </g>
     </g>
    </g>
    <g id="ytick_4">
     <g id="line2d_15">
      <path clip-path="url(#pc467d0fc17)" d="M 32.19834 60.785765 
L 423.633507 60.785765 
" style="fill:none;stroke:#000000;stroke-linecap:square;stroke-opacity:0.1;stroke-width:0.5;"/>
     </g>
     <g id="line2d_16">
      <g>
       <use style="stroke:#000000;stroke-width:0.5;" x="32.19834" xlink:href="#mbf1115a18b" y="60.785765"/>
      </g>
     </g>
     <g id="text_9">
      <!-- $\mathregular{15}$ -->
      <g transform="translate(18.45834 63.82514)scale(0.08 -0.08)">
       <use transform="translate(0 0.09375)" xlink:href="#DejaVuSans-31"/>
       <use transform="translate(63.623047 0.09375)" xlink:href="#DejaVuSans-35"/>
      </g>
     </g>
    </g>
    <g id="text_10">
     <!-- Molecular Number -->
     <g transform="translate(12.170683 181.064687)rotate(-90)scale(0.11 -0.11)">
      <defs>
       <path d="M 628 4666 
L 1569 4666 
L 2759 1491 
L 3956 4666 
L 4897 4666 
L 4897 0 
L 4281 0 
L 4281 4097 
L 3078 897 
L 2444 897 
L 1241 4097 
L 1241 0 
L 628 0 
L 628 4666 
z
" id="DejaVuSans-4d" transform="scale(0.015625)"/>
       <path d="M 1959 3097 
Q 1497 3097 1228 2736 
Q 959 2375 959 1747 
Q 959 1119 1226 758 
Q 1494 397 1959 397 
Q 2419 397 2687 759 
Q 2956 1122 2956 1747 
Q 2956 2369 2687 2733 
Q 2419 3097 1959 3097 
z
M 1959 3584 
Q 2709 3584 3137 3096 
Q 3566 2609 3566 1747 
Q 3566 888 3137 398 
Q 2709 -91 1959 -91 
Q 1206 -91 779 398 
Q 353 888 353 1747 
Q 353 2609 779 3096 
Q 1206 3584 1959 3584 
z
" id="DejaVuSans-6f" transform="scale(0.015625)"/>
       <path d="M 603 4863 
L 1178 4863 
L 1178 0 
L 603 0 
L 603 4863 
z
" id="DejaVuSans-6c" transform="scale(0.015625)"/>
       <path d="M 3122 3366 
L 3122 2828 
Q 2878 2963 2633 3030 
Q 2388 3097 2138 3097 
Q 1578 3097 1268 2742 
Q 959 2388 959 1747 
Q 959 1106 1268 751 
Q 1578 397 2138 397 
Q 2388 397 2633 464 
Q 2878 531 3122 666 
L 3122 134 
Q 2881 22 2623 -34 
Q 2366 -91 2075 -91 
Q 1284 -91 818 406 
Q 353 903 353 1747 
Q 353 2603 823 3093 
Q 1294 3584 2113 3584 
Q 2378 3584 2631 3529 
Q 2884 3475 3122 3366 
z
" id="DejaVuSans-63" transform="scale(0.015625)"/>
       <path d="M 544 1381 
L 544 3500 
L 1119 3500 
L 1119 1403 
Q 1119 906 1312 657 
Q 1506 409 1894 409 
Q 2359 409 2629 706 
Q 2900 1003 2900 1516 
L 2900 3500 
L 3475 3500 
L 3475 0 
L 2900 0 
L 2900 538 
Q 2691 219 2414 64 
Q 2138 -91 1772 -91 
Q 1169 -91 856 284 
Q 544 659 544 1381 
z
M 1991 3584 
L 1991 3584 
z
" id="DejaVuSans-75" transform="scale(0.015625)"/>
       <path d="M 2194 1759 
Q 1497 1759 1228 1600 
Q 959 1441 959 1056 
Q 959 750 1161 570 
Q 1363 391 1709 391 
Q 2188 391 2477 730 
Q 2766 1069 2766 1631 
L 2766 1759 
L 2194 1759 
z
M 3341 1997 
L 3341 0 
L 2766 0 
L 2766 531 
Q 2569 213 2275 61 
Q 1981 -91 1556 -91 
Q 1019 -91 701 211 
Q 384 513 384 1019 
Q 384 1609 779 1909 
Q 1175 2209 1959 2209 
L 2766 2209 
L 2766 2266 
Q 2766 2663 2505 2880 
Q 2244 3097 1772 3097 
Q 1472 3097 1187 3025 
Q 903 2953 641 2809 
L 641 3341 
Q 956 3463 1253 3523 
Q 1550 3584 1831 3584 
Q 2591 3584 2966 3190 
Q 3341 2797 3341 1997 
z
" id="DejaVuSans-61" transform="scale(0.015625)"/>
       <path d="M 2631 2963 
Q 2534 3019 2420 3045 
Q 2306 3072 2169 3072 
Q 1681 3072 1420 2755 
Q 1159 2438 1159 1844 
L 1159 0 
L 581 0 
L 581 3500 
L 1159 3500 
L 1159 2956 
Q 1341 3275 1631 3429 
Q 1922 3584 2338 3584 
Q 2397 3584 2469 3576 
Q 2541 3569 2628 3553 
L 2631 2963 
z
" id="DejaVuSans-72" transform="scale(0.015625)"/>
       <path id="DejaVuSans-20" transform="scale(0.015625)"/>
       <path d="M 628 4666 
L 1478 4666 
L 3547 763 
L 3547 4666 
L 4159 4666 
L 4159 0 
L 3309 0 
L 1241 3903 
L 1241 0 
L 628 0 
L 628 4666 
z
" id="DejaVuSans-4e" transform="scale(0.015625)"/>
       <path d="M 3116 1747 
Q 3116 2381 2855 2742 
Q 2594 3103 2138 3103 
Q 1681 3103 1420 2742 
Q 1159 2381 1159 1747 
Q 1159 1113 1420 752 
Q 1681 391 2138 391 
Q 2594 391 2855 752 
Q 3116 1113 3116 1747 
z
M 1159 2969 
Q 1341 3281 1617 3432 
Q 1894 3584 2278 3584 
Q 2916 3584 3314 3078 
Q 3713 2572 3713 1747 
Q 3713 922 3314 415 
Q 2916 -91 2278 -91 
Q 1894 -91 1617 61 
Q 1341 213 1159 525 
L 1159 0 
L 581 0 
L 581 4863 
L 1159 4863 
L 1159 2969 
z
" id="DejaVuSans-62" transform="scale(0.015625)"/>
      </defs>
      <use xlink:href="#DejaVuSans-4d"/>
      <use x="86.279297" xlink:href="#DejaVuSans-6f"/>
      <use x="147.460938" xlink:href="#DejaVuSans-6c"/>
      <use x="175.244141" xlink:href="#DejaVuSans-65"/>
      <use x="236.767578" xlink:href="#DejaVuSans-63"/>
      <use x="291.748047" xlink:href="#DejaVuSans-75"/>
      <use x="355.126953" xlink:href="#DejaVuSans-6c"/>
      <use x="382.910156" xlink:href="#DejaVuSans-61"/>
      <use x="444.189453" xlink:href="#DejaVuSans-72"/>
      <use x="485.302734" xlink:href="#DejaVuSans-20"/>
      <use x="517.089844" xlink:href="#DejaVuSans-4e"/>
      <use x="591.894531" xlink:href="#DejaVuSans-75"/>
      <use x="655.273438" xlink:href="#DejaVuSans-6d"/>
      <use x="752.685547" xlink:href="#DejaVuSans-62"/>
      <use x="816.162109" xlink:href="#DejaVuSans-65"/>
      <use x="877.685547" xlink:href="#DejaVuSans-72"/>
     </g>
    </g>
   </g>
   <g id="line2d_17">
    <path clip-path="url(#pc467d0fc17)" d="M 32.19834 250.997315 
L 34.799324 250.997315 
L 34.916368 238.316545 
L 50.457251 238.316545 
L 50.574295 250.997315 
L 55.672225 250.997315 
L 55.789269 238.316545 
L 56.985722 238.316545 
L 57.102766 225.635775 
L 62.200696 225.635775 
L 62.31774 212.955005 
L 66.115178 212.955005 
L 66.232222 200.274235 
L 67.41567 200.274235 
L 67.532714 212.955005 
L 76.558131 212.955005 
L 76.675175 200.274235 
L 77.858623 200.274235 
L 77.975667 187.593465 
L 88.301576 187.593465 
L 88.41862 200.274235 
L 98.731524 200.274235 
L 98.848568 212.955005 
L 100.045021 212.955005 
L 100.162065 225.635775 
L 101.345513 225.635775 
L 101.462558 212.955005 
L 109.174477 212.955005 
L 109.291521 187.593465 
L 111.788466 187.593465 
L 111.905511 200.274235 
L 113.088959 200.274235 
L 113.206003 212.955005 
L 117.00344 212.955005 
L 117.120485 200.274235 
L 119.61743 200.274235 
L 119.734474 187.593465 
L 124.832404 187.593465 
L 124.949448 174.912695 
L 126.132896 174.912695 
L 126.24994 162.231925 
L 127.446393 162.231925 
L 127.563438 174.912695 
L 128.746886 174.912695 
L 128.86393 187.593465 
L 131.360875 187.593465 
L 131.477919 212.955005 
L 132.661367 212.955005 
L 132.778412 225.635775 
L 133.96186 225.635775 
L 134.078904 250.997315 
L 152.233776 250.997315 
L 152.35082 238.316545 
L 157.44875 238.316545 
L 157.565794 225.635775 
L 158.762247 225.635775 
L 158.879291 212.955005 
L 165.277713 212.955005 
L 165.394758 225.635775 
L 166.578206 225.635775 
L 166.69525 212.955005 
L 169.192195 212.955005 
L 169.309239 200.274235 
L 170.492687 200.274235 
L 170.609732 187.593465 
L 171.806185 187.593465 
L 171.923229 200.274235 
L 175.720666 200.274235 
L 175.837711 187.593465 
L 182.236133 187.593465 
L 182.353177 174.912695 
L 187.464111 174.912695 
L 187.581156 162.231925 
L 193.979578 162.231925 
L 194.096622 174.912695 
L 197.894059 174.912695 
L 198.011104 187.593465 
L 203.122038 187.593465 
L 203.239083 174.912695 
L 204.422531 174.912695 
L 204.539575 187.593465 
L 207.03652 187.593465 
L 207.153564 162.231925 
L 208.337012 162.231925 
L 208.454057 149.551155 
L 210.951002 149.551155 
L 211.068046 162.231925 
L 213.551986 162.231925 
L 213.669031 174.912695 
L 216.165976 174.912695 
L 216.28302 162.231925 
L 217.466468 162.231925 
L 217.583512 174.912695 
L 220.080458 174.912695 
L 220.197502 187.593465 
L 225.295432 187.593465 
L 225.412476 174.912695 
L 226.608929 174.912695 
L 226.725973 162.231925 
L 231.823903 162.231925 
L 231.940947 174.912695 
L 242.266856 174.912695 
L 242.3839 187.593465 
L 243.567348 187.593465 
L 243.684392 162.231925 
L 244.86784 162.231925 
L 244.984884 149.551155 
L 247.48183 149.551155 
L 247.598874 162.231925 
L 251.396311 162.231925 
L 251.513356 174.912695 
L 252.696804 174.912695 
L 252.813848 187.593465 
L 254.010301 187.593465 
L 254.127345 200.274235 
L 256.611285 200.274235 
L 256.72833 212.955005 
L 263.139757 212.955005 
L 263.256801 225.635775 
L 264.440249 225.635775 
L 264.557293 238.316545 
L 265.753746 238.316545 
L 265.87079 225.635775 
L 270.96872 225.635775 
L 271.085764 212.955005 
L 273.582709 212.955005 
L 273.699754 200.274235 
L 277.497191 200.274235 
L 277.614236 174.912695 
L 282.712165 174.912695 
L 282.829209 187.593465 
L 284.012657 187.593465 
L 284.129702 200.274235 
L 289.240636 200.274235 
L 289.357681 212.955005 
L 293.142113 212.955005 
L 293.259157 200.274235 
L 297.056595 200.274235 
L 297.173639 187.593465 
L 300.971077 187.593465 
L 301.088121 200.274235 
L 302.284574 200.274235 
L 302.401618 187.593465 
L 303.585066 187.593465 
L 303.70211 174.912695 
L 307.499548 174.912695 
L 307.616592 187.593465 
L 320.543485 187.593465 
L 320.66053 200.274235 
L 321.856982 200.274235 
L 321.974027 212.955005 
L 325.771464 212.955005 
L 325.888509 225.635775 
L 336.201412 225.635775 
L 336.318457 238.316545 
L 342.729883 238.316545 
L 342.846928 250.997315 
L 347.944857 250.997315 
L 348.061902 238.316545 
L 353.172836 238.316545 
L 353.289881 250.997315 
L 358.38781 250.997315 
L 358.504855 238.316545 
L 375.346229 238.316545 
L 375.463274 250.997315 
L 377.960219 250.997315 
L 378.077263 238.316545 
L 381.874701 238.316545 
L 381.991745 225.635775 
L 385.789182 225.635775 
L 385.906227 238.316545 
L 397.532628 238.316545 
L 397.649672 225.635775 
L 400.146617 225.635775 
L 400.263661 212.955005 
L 402.747602 212.955005 
L 402.864646 225.635775 
L 405.361591 225.635775 
L 405.478635 212.955005 
L 410.576565 212.955005 
L 410.693609 200.274235 
L 415.804544 200.274235 
L 415.921588 187.593465 
L 418.405528 187.593465 
L 418.522573 174.912695 
L 419.719026 174.912695 
L 419.83607 187.593465 
L 421.019518 187.593465 
L 421.136562 200.274235 
L 423.633507 200.274235 
L 423.633507 200.274235 
" style="fill:none;stroke:#009afa;"/>
   </g>
   <g id="line2d_18">
    <path clip-path="url(#pc467d0fc17)" d="M 32.19834 250.997315 
L 50.457251 250.997315 
L 50.574295 238.316545 
L 51.757743 238.316545 
L 51.874788 225.635775 
L 67.41567 225.635775 
L 67.532714 212.955005 
L 79.159115 212.955005 
L 79.27616 200.274235 
L 85.687587 200.274235 
L 85.804631 187.593465 
L 98.731524 187.593465 
L 98.848568 174.912695 
L 100.045021 174.912695 
L 100.162065 162.231925 
L 106.560487 162.231925 
L 106.677532 174.912695 
L 111.788466 174.912695 
L 111.905511 162.231925 
L 127.446393 162.231925 
L 127.563438 149.551155 
L 128.746886 149.551155 
L 128.86393 136.870385 
L 131.360875 136.870385 
L 131.477919 111.508845 
L 132.661367 111.508845 
L 132.778412 98.828075 
L 133.96186 98.828075 
L 134.078904 86.147305 
L 144.404812 86.147305 
L 144.521857 98.828075 
L 149.619786 98.828075 
L 149.736831 111.508845 
L 152.233776 111.508845 
L 152.35082 124.189615 
L 157.44875 124.189615 
L 157.565794 136.870385 
L 165.277713 136.870385 
L 165.394758 149.551155 
L 170.492687 149.551155 
L 170.609732 162.231925 
L 173.106677 162.231925 
L 173.223721 174.912695 
L 192.679085 174.912695 
L 192.79613 187.593465 
L 197.894059 187.593465 
L 198.011104 174.912695 
L 204.422531 174.912695 
L 204.539575 162.231925 
L 207.03652 162.231925 
L 207.153564 174.912695 
L 210.951002 174.912695 
L 211.068046 162.231925 
L 212.251494 162.231925 
L 212.368538 174.912695 
L 213.551986 174.912695 
L 213.669031 162.231925 
L 217.466468 162.231925 
L 217.583512 149.551155 
L 220.080458 149.551155 
L 220.197502 136.870385 
L 223.994939 136.870385 
L 224.111984 124.189615 
L 229.209913 124.189615 
L 229.326958 136.870385 
L 234.437892 136.870385 
L 234.554936 149.551155 
L 242.266856 149.551155 
L 242.3839 136.870385 
L 247.48183 136.870385 
L 247.598874 124.189615 
L 251.396311 124.189615 
L 251.513356 111.508845 
L 252.696804 111.508845 
L 252.813848 98.828075 
L 254.010301 98.828075 
L 254.127345 86.147305 
L 256.611285 86.147305 
L 256.72833 73.466535 
L 263.139757 73.466535 
L 263.256801 60.785765 
L 264.440249 60.785765 
L 264.557293 48.104995 
L 274.883202 48.104995 
L 275.000246 35.424225 
L 282.712165 35.424225 
L 282.829209 22.743455 
L 289.240636 22.743455 
L 289.357681 10.062685 
L 297.056595 10.062685 
L 297.173639 22.743455 
L 299.670584 22.743455 
L 299.787629 48.104995 
L 300.971077 48.104995 
L 301.088121 35.424225 
L 304.885558 35.424225 
L 305.002603 22.743455 
L 306.199056 22.743455 
L 306.3161 48.104995 
L 307.499548 48.104995 
L 307.616592 35.424225 
L 308.80004 35.424225 
L 308.917084 48.104995 
L 312.714522 48.104995 
L 312.831566 60.785765 
L 315.328511 60.785765 
L 315.445556 48.104995 
L 320.543485 48.104995 
L 320.66053 35.424225 
L 321.856982 35.424225 
L 321.974027 22.743455 
L 324.457967 22.743455 
L 324.575011 35.424225 
L 327.071956 35.424225 
L 327.189001 48.104995 
L 336.201412 48.104995 
L 336.318457 60.785765 
L 345.343873 60.785765 
L 345.460917 73.466535 
L 350.558847 73.466535 
L 350.675891 86.147305 
L 375.346229 86.147305 
L 375.463274 73.466535 
L 383.175193 73.466535 
L 383.292237 60.785765 
L 385.789182 60.785765 
L 385.906227 73.466535 
L 389.703664 73.466535 
L 389.820708 86.147305 
L 397.532628 86.147305 
L 397.649672 98.828075 
L 398.83312 98.828075 
L 398.950164 111.508845 
L 410.576565 111.508845 
L 410.693609 136.870385 
L 423.633507 136.870385 
L 423.633507 136.870385 
" style="fill:none;stroke:#e36f47;"/>
   </g>
   <g id="patch_3">
    <path d="M 32.19834 258.225354 
L 32.19834 2.834646 
" style="fill:none;stroke:#000000;stroke-linecap:square;stroke-linejoin:miter;"/>
   </g>
   <g id="patch_4">
    <path d="M 32.19834 258.225354 
L 423.633507 258.225354 
" style="fill:none;stroke:#000000;stroke-linecap:square;stroke-linejoin:miter;"/>
   </g>
   <g id="legend_1">
    <g id="patch_5">
     <path d="M 374.833507 39.119646 
L 419.633507 39.119646 
L 419.633507 6.834646 
L 374.833507 6.834646 
z
" style="fill:#ffffff;stroke:#000000;stroke-linejoin:miter;"/>
    </g>
    <g id="line2d_19">
     <path d="M 381.233507 16.513396 
L 397.233507 16.513396 
" style="fill:none;stroke:#009afa;stroke-linejoin:miter;"/>
    </g>
    <g id="line2d_20"/>
    <g id="text_11">
     <!-- $X_A$ -->
     <g transform="translate(403.633507 19.313396)scale(0.08 -0.08)">
      <defs>
       <path d="M 878 4666 
L 1516 4666 
L 2316 2981 
L 3763 4666 
L 4500 4666 
L 2578 2438 
L 3738 0 
L 3103 0 
L 2163 1966 
L 459 0 
L -275 0 
L 1906 2509 
L 878 4666 
z
" id="DejaVuSans-Oblique-58" transform="scale(0.015625)"/>
       <path d="M 2356 4666 
L 3072 4666 
L 3938 0 
L 3278 0 
L 3084 1197 
L 984 1197 
L 325 0 
L -341 0 
L 2356 4666 
z
M 2584 4044 
L 1275 1722 
L 2988 1722 
L 2584 4044 
z
" id="DejaVuSans-Oblique-41" transform="scale(0.015625)"/>
      </defs>
      <use transform="translate(0 0.09375)" xlink:href="#DejaVuSans-Oblique-58"/>
      <use transform="translate(68.505859 -16.3125)scale(0.7)" xlink:href="#DejaVuSans-Oblique-41"/>
     </g>
    </g>
    <g id="line2d_21">
     <path d="M 381.233507 28.255896 
L 397.233507 28.255896 
" style="fill:none;stroke:#e36f47;stroke-linejoin:miter;"/>
    </g>
    <g id="line2d_22"/>
    <g id="text_12">
     <!-- $X_I$ -->
     <g transform="translate(403.633507 31.055896)scale(0.08 -0.08)">
      <defs>
       <path d="M 1081 4666 
L 1716 4666 
L 806 0 
L 172 0 
L 1081 4666 
z
" id="DejaVuSans-Oblique-49" transform="scale(0.015625)"/>
      </defs>
      <use transform="translate(0 0.09375)" xlink:href="#DejaVuSans-Oblique-58"/>
      <use transform="translate(68.505859 -16.3125)scale(0.7)" xlink:href="#DejaVuSans-Oblique-49"/>
     </g>
    </g>
   </g>
  </g>
 </g>
 <defs>
  <clipPath id="pc467d0fc17">
   <rect height="255.390709" width="391.435168" x="32.19834" y="2.834646"/>
  </clipPath>
 </defs>
</svg>
